<svg height="1024" legacy-metrics="false" node-id="1" sillyvg="true" template-height="1024" template-width="1024" version="1.1" viewBox="0 0 1024 1024" width="1024" xmlns="http://www.w3.org/2000/svg" xmlns:xlink="http://www.w3.org/1999/xlink"><defs node-id="26"><radialGradient cx="0.50000006" cy="0.175" fx="0.50000006" fy="0.175" gradientUnits="objectBoundingBox" id="radialGradient-1" node-id="5" r="0.82500005"><stop offset="0" stop-color="#ffdd70"></stop><stop offset="1" stop-color="#f1823a"></stop></radialGradient><filter height="1.201" id="filter-3" node-id="9" width="1.201" x="-0.1" y="-0.1"><feGaussianBlur color-interpolation-filters="linearRGB" in="SourceAlpha" result="shadowBlurInner1" stdDeviation="69 69"></feGaussianBlur><feOffset color-interpolation-filters="linearRGB" dx="0" dy="0" in="shadowBlurInner1" result="shadowOffsetInner1"></feOffset><feComposite color-interpolation-filters="linearRGB" in="shadowOffsetInner1" in2="SourceAlpha" k1="0" k2="-1" k3="1" k4="0" operator="arithmetic" result="shadowInnerInner1"></feComposite><feColorMatrix color-interpolation-filters="linearRGB" in="shadowInnerInner1" result="result4" type="matrix" values="0 0 0 0 1 0 0 0 0 0.937254902 0 0 0 0 0.380392157 0 0 0 0.7 0"></feColorMatrix></filter></defs><path d="M 0.00 0.00 L 1024.00 0.00 L 1024.00 1024.00 L 0.00 1024.00 Z" fill="#ffffff" fill-rule="evenodd" node-id="46" stroke="none" target-height="1024" target-width="1024" target-x="0" target-y="0"></path><g node-id="57"><path d="M 512.01 168.00 C 305.59 168.00 168.00 305.59 168.00 512.01 C 168.00 718.41 288.40 856.00 512.01 856.00 C 718.41 856.00 856.00 718.41 856.00 512.01 C 856.00 305.59 718.41 168.00 512.01 168.00 Z" fill="#fecc4a" fill-rule="evenodd" group-id="1" node-id="49" stroke="none" target-height="688" target-width="688" target-x="168" target-y="168"></path><path d="M 512.01 168.00 C 305.59 168.00 168.00 305.59 168.00 512.01 C 168.00 718.41 288.40 856.00 512.01 856.00 C 718.41 856.00 856.00 718.41 856.00 512.01 C 856.00 305.59 718.41 168.00 512.01 168.00 Z" fill="url(#radialGradient-1)" fill-rule="evenodd" group-id="1" node-id="51" stroke="none" target-height="688" target-width="688" target-x="168" target-y="168"></path><g node-id="58"><path d="M 512.01 168.00 C 305.59 168.00 168.00 305.59 168.00 512.01 C 168.00 718.41 288.40 856.00 512.01 856.00 C 718.41 856.00 856.00 718.41 856.00 512.01 C 856.00 305.59 718.41 168.00 512.01 168.00 Z" fill="#000000" fill-rule="evenodd" filter="url(#filter-3)" group-id="1,2" node-id="55" stroke="none" target-height="688" target-width="688" target-x="168" target-y="168"></path></g></g><path d="M 460.80 368.00 C 460.80 387.44 445.04 403.20 425.60 403.20 C 406.16 403.20 390.40 387.44 390.40 368.00 C 390.40 348.56 406.16 332.80 425.60 332.80 C 445.04 332.80 460.80 348.56 460.80 368.00 Z" fill="#000000" fill-rule="evenodd" id="椭圆形" node-id="20" stroke="none" target-height="70.400024" target-width="70.399994" target-x="390.4" target-y="332.8"></path><path d="M 691.20 368.00 C 691.20 387.44 675.44 403.20 656.00 403.20 C 636.56 403.20 620.80 387.44 620.80 368.00 C 620.80 348.56 636.56 332.80 656.00 332.80 C 675.44 332.80 691.20 348.56 691.20 368.00 Z" fill="#000000" fill-rule="evenodd" id="椭圆形备份" node-id="21" stroke="none" target-height="70.400024" target-width="70.400024" target-x="620.8" target-y="332.8"></path><path d="M 396.80 611.08 C 491.58 524.17 589.72 491.92 691.20 514.33" fill="none" id="路径-2" node-id="22" stroke="#000000" stroke-linecap="round" stroke-width="32" target-height="103.63745" target-width="294.40002" target-x="396.8" target-y="507.4439"></path><path d="M 348.80 332.80 L 444.80 332.80 C 453.64 332.80 460.80 339.96 460.80 348.80 L 460.80 348.80 C 460.80 357.64 453.64 364.80 444.80 364.80 L 348.80 364.80 C 339.96 364.80 332.80 357.64 332.80 348.80 L 332.80 348.80 C 332.80 339.96 339.96 332.80 348.80 332.80 Z" fill="#000000" fill-rule="evenodd" id="矩形备份" node-id="23" stroke="none" target-height="32" target-width="128" target-x="332.8" target-y="332.8"></path><path d="M 579.20 332.80 L 675.20 332.80 C 684.04 332.80 691.20 339.96 691.20 348.80 L 691.20 348.80 C 691.20 357.64 684.04 364.80 675.20 364.80 L 579.20 364.80 C 570.36 364.80 563.20 357.64 563.20 348.80 L 563.20 348.80 C 563.20 339.96 570.36 332.80 579.20 332.80 Z" fill="#000000" fill-rule="evenodd" id="矩形备份-2" node-id="24" stroke="none" target-height="32" target-width="128" target-x="563.2" target-y="332.8"></path></svg>