<?xml version="1.0" standalone="no"?><!DOCTYPE svg PUBLIC "-//W3C//DTD SVG 1.1//EN" "http://www.w3.org/Graphics/SVG/1.1/DTD/svg11.dtd"><svg height="1024" legacy-metrics="false" node-id="1" sillyvg="true" template-height="1024" template-width="1024" version="1.1" viewBox="0 0 1024 1024" width="1024" xmlns="http://www.w3.org/2000/svg" xmlns:xlink="http://www.w3.org/1999/xlink"><defs node-id="33"><radialGradient cx="0.5" cy="0.17499998" fx="0.5" fy="0.17499998" gradientUnits="objectBoundingBox" id="radialGradient-1" node-id="5" r="0.825"><stop offset="0" stop-color="#ffd027"></stop><stop offset="1" stop-color="#eb9455"></stop></radialGradient><linearGradient gradientUnits="objectBoundingBox" id="linearGradient-2" node-id="8" x1="0.5" x2="0.5" y1="0" y2="0.64079"><stop offset="0" stop-color="#32b83f"></stop><stop offset="1" stop-color="#20a82e" stop-opacity="0.01"></stop></linearGradient><filter height="1.198" id="filter-4" node-id="12" width="1.198" x="-0.099" y="-0.099"><feGaussianBlur color-interpolation-filters="linearRGB" in="SourceAlpha" result="shadowBlurInner1" stdDeviation="68 68"></feGaussianBlur><feOffset color-interpolation-filters="linearRGB" dx="0" dy="0" in="shadowBlurInner1" result="shadowOffsetInner1"></feOffset><feComposite color-interpolation-filters="linearRGB" in="shadowOffsetInner1" in2="SourceAlpha" k1="0" k2="-1" k3="1" k4="0" operator="arithmetic" result="shadowInnerInner1"></feComposite><feColorMatrix color-interpolation-filters="linearRGB" in="shadowInnerInner1" result="result4" type="matrix" values="0 0 0 0 1 0 0 0 0 0.964705882 0 0 0 0 0.639215686 0 0 0 0.7 0"></feColorMatrix></filter></defs><path d="M 0.00 0.00 L 1024.00 0.00 L 1024.00 1024.00 L 0.00 1024.00 Z" fill="#ffffff" fill-rule="evenodd" node-id="59" stroke="none" target-height="1024" target-width="1024" target-x="0" target-y="0"></path><g node-id="70"><path d="M 512.01 168.00 C 305.59 168.00 168.00 305.59 168.00 512.01 C 168.00 718.41 288.40 856.00 512.01 856.00 C 718.41 856.00 856.00 718.41 856.00 512.01 C 856.00 305.59 718.41 168.00 512.01 168.00 Z" fill="url(#radialGradient-1)" fill-rule="evenodd" group-id="1" node-id="62" stroke="none" target-height="688" target-width="688" target-x="168" target-y="168"></path><path d="M 512.01 168.00 C 305.59 168.00 168.00 305.59 168.00 512.01 C 168.00 718.41 288.40 856.00 512.01 856.00 C 718.41 856.00 856.00 718.41 856.00 512.01 C 856.00 305.59 718.41 168.00 512.01 168.00 Z" fill="url(#linearGradient-2)" fill-rule="evenodd" group-id="1" node-id="64" stroke="none" target-height="688" target-width="688" target-x="168" target-y="168"></path><g node-id="71"><path d="M 512.01 168.00 C 305.59 168.00 168.00 305.59 168.00 512.01 C 168.00 718.41 288.40 856.00 512.01 856.00 C 718.41 856.00 856.00 718.41 856.00 512.01 C 856.00 305.59 718.41 168.00 512.01 168.00 Z" fill="#000000" fill-rule="evenodd" filter="url(#filter-4)" group-id="1,2" node-id="68" stroke="none" target-height="688" target-width="688" target-x="168" target-y="168"></path></g></g><path d="M 395.08 560.68 C 456.37 598.21 460.71 641.45 408.09 690.39" fill="none" id="路径-10" node-id="23" stroke="#000000" stroke-linecap="round" stroke-width="32" target-height="129.71729" target-width="49.471527" target-x="395.07578" target-y="560.6765"></path><path d="M 628.55 560.68 L 619.40 566.61 L 611.44 572.44 L 604.58 578.16 L 598.72 583.77 L 593.76 589.28 L 589.63 594.71 L 586.26 600.07 L 583.59 605.39 L 581.56 610.67 L 580.15 615.95 L 579.32 621.26 L 579.08 626.63 L 579.41 632.08 L 580.35 637.66 L 581.92 643.40 L 584.15 649.32 L 587.12 655.46 L 590.88 661.85 L 595.52 668.51 L 601.10 675.47 L 607.74 682.76 L 615.53 690.39" fill="none" id="路径-10备份" node-id="24" stroke="#000000" stroke-linecap="round" stroke-width="32" target-height="129.71729" target-width="49.471436" target-x="579.0774" target-y="560.6765"></path><path d="M 484.80 401.60 C 484.80 450.20 445.40 489.60 396.80 489.60 C 348.20 489.60 308.80 450.20 308.80 401.60 C 308.80 353.00 348.20 313.60 396.80 313.60 C 445.40 313.60 484.80 353.00 484.80 401.60 Z" fill="#ffffff" fill-rule="evenodd" id="椭圆形" node-id="25" stroke="none" target-height="176" target-width="176" target-x="308.8" target-y="313.6"></path><path d="M 452.80 417.60 C 452.80 439.69 434.89 457.60 412.80 457.60 C 390.71 457.60 372.80 439.69 372.80 417.60 C 372.80 395.51 390.71 377.60 412.80 377.60 C 434.89 377.60 452.80 395.51 452.80 417.60 Z" fill="#000000" fill-rule="evenodd" id="椭圆形" node-id="26" stroke="none" target-height="80" target-width="80" target-x="372.8" target-y="377.6"></path><path d="M 715.20 401.60 C 715.20 450.20 675.80 489.60 627.20 489.60 C 578.60 489.60 539.20 450.20 539.20 401.60 C 539.20 353.00 578.60 313.60 627.20 313.60 C 675.80 313.60 715.20 353.00 715.20 401.60 Z" fill="#ffffff" fill-rule="evenodd" id="椭圆形备份" node-id="27" stroke="none" target-height="176" target-width="176" target-x="539.2" target-y="313.6"></path><path d="M 651.20 417.60 C 651.20 439.69 633.29 457.60 611.20 457.60 C 589.11 457.60 571.20 439.69 571.20 417.60 C 571.20 395.51 589.11 377.60 611.20 377.60 C 633.29 377.60 651.20 395.51 651.20 417.60 Z" fill="#000000" fill-rule="evenodd" id="椭圆形备份-2" node-id="28" stroke="none" target-height="80" target-width="80" target-x="571.2" target-y="377.6"></path><path d="M 373.47 219.25 C 347.13 263.84 313.43 293.23 272.38 307.41" fill="none" id="路径-12" node-id="29" stroke="#000000" stroke-linecap="round" stroke-width="32" target-height="88.15103" target-width="101.08777" target-x="272.37802" target-y="219.25418"></path><path d="M 649.98 219.25 L 656.55 229.84 L 663.32 239.68 L 670.29 248.82 L 677.44 257.30 L 684.78 265.13 L 692.32 272.35 L 700.05 278.98 L 707.98 285.04 L 716.13 290.56 L 724.50 295.54 L 733.10 300.01 L 741.95 303.96 L 751.07 307.41" fill="none" id="路径-12备份" node-id="30" stroke="#000000" stroke-linecap="round" stroke-width="32" target-height="88.15103" target-width="101.08777" target-x="649.978" target-y="219.25418"></path><path d="M 444.55 634.16 C 463.74 640.14 486.16 643.13 511.81 643.13 C 537.47 643.13 559.89 640.14 579.08 634.16" fill="none" id="路径-11" node-id="31" stroke="#000000" stroke-linecap="round" stroke-width="32" target-height="8.964172" target-width="134.52695" target-x="444.54886" target-y="634.1635"></path></svg>