<?xml version="1.0" standalone="no"?><!DOCTYPE svg PUBLIC "-//W3C//DTD SVG 1.1//EN" "http://www.w3.org/Graphics/SVG/1.1/DTD/svg11.dtd"><svg height="1024" legacy-metrics="false" node-id="1" sillyvg="true" template-height="1024" template-width="1024" version="1.1" viewBox="0 0 1024 1024" width="1024" xmlns="http://www.w3.org/2000/svg" xmlns:xlink="http://www.w3.org/1999/xlink"><defs node-id="55"><radialGradient cx="0.50000006" cy="0.175" fx="0.50000006" fy="0.175" gradientUnits="objectBoundingBox" id="radialGradient-1" node-id="5" r="0.82500005"><stop offset="0" stop-color="#ffdd70"></stop><stop offset="1" stop-color="#f1823a"></stop></radialGradient><clipPath id="mask-3" node-id="36"><path d="M 344.01 0.00 C 137.59 0.00 0.00 137.59 0.00 344.01 C 0.00 550.41 120.40 688.00 344.01 688.00 C 550.41 688.00 688.00 550.41 688.00 344.01 C 688.00 137.59 550.41 0.00 344.01 0.00 Z" fill="#000000" fill-rule="evenodd" node-id="64" stroke="none" target-height="688" target-width="688" target-x="0" target-y="0"></path></clipPath><filter height="1.21" id="filter-6" node-id="14" width="1.677" x="-0.339" y="-0.075"><feOffset color-interpolation-filters="linearRGB" dx="0" dy="13" in="SourceAlpha" result="shadowOffsetOuter1"></feOffset><feGaussianBlur color-interpolation-filters="linearRGB" in="shadowOffsetOuter1" result="shadowBlurOuter1" stdDeviation="13 13"></feGaussianBlur><feColorMatrix color-interpolation-filters="linearRGB" in="shadowBlurOuter1" result="result3" type="matrix" values="0 0 0 0 0.117647059 0 0 0 0 0.490196078 0 0 0 0 0.839215686 0 0 0 0.08 0"></feColorMatrix></filter><linearGradient gradientUnits="objectBoundingBox" id="linearGradient-4" node-id="9" x1="0.5" x2="0.5" y1="0.85069" y2="0"><stop offset="0" stop-color="#abd7ff" stop-opacity="0.8"></stop><stop offset="0.8041" stop-color="#1e7dd6"></stop><stop offset="1" stop-color="#2894fa" stop-opacity="0.8"></stop></linearGradient><filter height="1.208" id="filter-7" node-id="18" width="1.67" x="-0.335" y="-0.074"><feGaussianBlur color-interpolation-filters="linearRGB" in="SourceAlpha" result="shadowBlurInner1" stdDeviation="19 19"></feGaussianBlur><feOffset color-interpolation-filters="linearRGB" dx="0" dy="0" in="shadowBlurInner1" result="shadowOffsetInner1"></feOffset><feComposite color-interpolation-filters="linearRGB" in="shadowOffsetInner1" in2="SourceAlpha" k1="0" k2="-1" k3="1" k4="0" operator="arithmetic" result="shadowInnerInner1"></feComposite><feColorMatrix color-interpolation-filters="linearRGB" in="shadowInnerInner1" result="result4" type="matrix" values="0 0 0 0 0.6 0 0 0 0 0.807843137 0 0 0 0 1 0 0 0 0.6 0"></feColorMatrix></filter><filter height="1.21" id="filter-9" node-id="24" width="1.677" x="-0.339" y="-0.075"><feOffset color-interpolation-filters="linearRGB" dx="0" dy="13" in="SourceAlpha" result="shadowOffsetOuter1"></feOffset><feGaussianBlur color-interpolation-filters="linearRGB" in="shadowOffsetOuter1" result="shadowBlurOuter1" stdDeviation="13 13"></feGaussianBlur><feColorMatrix color-interpolation-filters="linearRGB" in="shadowBlurOuter1" result="result3" type="matrix" values="0 0 0 0 0.117647059 0 0 0 0 0.490196078 0 0 0 0 0.839215686 0 0 0 0.08 0"></feColorMatrix></filter><filter height="1.208" id="filter-10" node-id="28" width="1.67" x="-0.335" y="-0.074"><feGaussianBlur color-interpolation-filters="linearRGB" in="SourceAlpha" result="shadowBlurInner1" stdDeviation="19 19"></feGaussianBlur><feOffset color-interpolation-filters="linearRGB" dx="0" dy="0" in="shadowBlurInner1" result="shadowOffsetInner1"></feOffset><feComposite color-interpolation-filters="linearRGB" in="shadowOffsetInner1" in2="SourceAlpha" k1="0" k2="-1" k3="1" k4="0" operator="arithmetic" result="shadowInnerInner1"></feComposite><feColorMatrix color-interpolation-filters="linearRGB" in="shadowInnerInner1" result="result4" type="matrix" values="0 0 0 0 0.6 0 0 0 0 0.807843137 0 0 0 0 1 0 0 0 0.6 0"></feColorMatrix></filter><clipPath id="mask-3_8" node-id="36"><path d="M 512.01 968.00 L 497.10 967.75 L 482.57 967.04 L 468.40 965.87 L 454.59 964.27 L 441.11 962.24 L 427.96 959.78 L 414.66 956.80 L 401.73 953.41 L 389.17 949.63 L 376.96 945.45 L 365.09 940.87 L 353.54 935.91 L 342.05 930.44 L 330.94 924.60 L 320.18 918.40 L 309.77 911.83 L 299.70 904.90 L 289.95 897.60 L 280.47 889.87 L 271.36 881.81 L 262.60 873.40 L 254.19 864.64 L 246.13 855.53 L 238.40 846.05 L 231.10 836.30 L 224.17 826.23 L 217.60 815.82 L 211.40 805.06 L 205.56 793.95 L 200.09 782.46 L 195.13 770.91 L 190.55 759.04 L 186.37 746.83 L 182.59 734.27 L 179.20 721.34 L 176.22 708.04 L 173.76 694.89 L 171.73 681.41 L 170.13 667.60 L 168.96 653.43 L 168.25 638.90 L 168.00 623.99 L 168.30 606.55 L 169.16 589.63 L 170.56 573.23 L 172.51 557.31 L 174.98 541.85 L 177.95 526.85 L 181.05 513.77 L 184.53 501.08 L 188.38 488.78 L 192.61 476.84 L 197.21 465.25 L 202.17 454.00 L 207.50 443.08 L 213.34 432.22 L 219.55 421.73 L 226.12 411.62 L 233.06 401.86 L 240.38 392.44 L 248.07 383.35 L 256.15 374.60 L 264.58 366.21 L 273.39 358.19 L 282.58 350.52 L 292.17 343.20 L 302.17 336.23 L 312.59 329.60 L 323.44 323.32 L 334.32 317.61 L 345.62 312.26 L 357.34 307.28 L 369.51 302.68 L 382.15 298.45 L 395.27 294.60 L 408.89 291.15 L 422.14 288.29 L 435.85 285.84 L 450.05 283.79 L 464.74 282.17 L 479.95 280.99 L 495.70 280.26 L 512.01 280.00 L 526.92 280.25 L 541.45 280.96 L 555.61 282.13 L 569.43 283.73 L 582.90 285.76 L 596.05 288.22 L 609.35 291.20 L 622.28 294.59 L 634.84 298.37 L 647.05 302.55 L 658.92 307.13 L 670.47 312.09 L 681.95 317.56 L 693.07 323.40 L 703.82 329.60 L 714.23 336.16 L 724.30 343.10 L 734.05 350.40 L 743.53 358.13 L 752.65 366.19 L 761.40 374.60 L 769.81 383.35 L 777.87 392.47 L 785.60 401.95 L 792.90 411.70 L 799.84 421.77 L 806.40 432.18 L 812.60 442.93 L 818.44 454.05 L 823.91 465.53 L 828.87 477.08 L 833.45 488.95 L 837.63 501.16 L 841.41 513.72 L 844.80 526.65 L 847.78 539.95 L 850.24 553.10 L 852.27 566.57 L 853.87 580.39 L 855.04 594.55 L 855.75 609.08 L 856.00 623.99 L 855.75 638.90 L 855.04 653.43 L 853.87 667.60 L 852.27 681.41 L 850.24 694.89 L 847.78 708.04 L 844.80 721.34 L 841.41 734.27 L 837.63 746.83 L 833.45 759.04 L 828.87 770.91 L 823.91 782.46 L 818.44 793.95 L 812.60 805.06 L 806.40 815.82 L 799.84 826.23 L 792.90 836.30 L 785.60 846.05 L 777.87 855.53 L 769.81 864.64 L 761.40 873.40 L 752.65 881.81 L 743.53 889.87 L 734.05 897.60 L 724.30 904.90 L 714.23 911.83 L 703.82 918.40 L 693.07 924.60 L 681.95 930.44 L 670.47 935.91 L 658.92 940.87 L 647.05 945.45 L 634.84 949.63 L 622.28 953.41 L 609.35 956.80 L 596.05 959.78 L 582.90 962.24 L 569.43 964.27 L 555.61 965.87 L 541.45 967.04 L 526.92 967.75 L 512.01 968.00 Z" fill="#000000" fill-rule="evenodd" node-id="64" stroke-linecap="butt" stroke-width="1" target-height="688" target-width="688" target-x="168" target-y="280"></path></clipPath><clipPath id="mask-3_9" node-id="36"><path d="M 512.01 168.00 L 497.10 168.25 L 482.57 168.96 L 468.40 170.13 L 454.59 171.73 L 441.11 173.76 L 427.96 176.22 L 414.66 179.20 L 401.73 182.59 L 389.17 186.37 L 376.96 190.55 L 365.09 195.13 L 353.54 200.09 L 342.05 205.56 L 330.94 211.40 L 320.18 217.60 L 309.77 224.17 L 299.70 231.10 L 289.95 238.40 L 280.47 246.13 L 271.36 254.19 L 262.60 262.60 L 254.19 271.36 L 246.13 280.47 L 238.40 289.95 L 231.10 299.70 L 224.17 309.77 L 217.60 320.18 L 211.40 330.94 L 205.56 342.05 L 200.09 353.54 L 195.13 365.09 L 190.55 376.96 L 186.37 389.17 L 182.59 401.73 L 179.20 414.66 L 176.22 427.96 L 173.76 441.11 L 171.73 454.59 L 170.13 468.40 L 168.96 482.57 L 168.25 497.10 L 168.00 512.01 L 168.30 529.45 L 169.16 546.37 L 170.56 562.77 L 172.51 578.69 L 174.98 594.15 L 177.95 609.15 L 181.05 622.23 L 184.53 634.92 L 188.38 647.22 L 192.61 659.16 L 197.21 670.75 L 202.17 682.00 L 207.50 692.92 L 213.34 703.78 L 219.55 714.27 L 226.12 724.38 L 233.06 734.14 L 240.38 743.56 L 248.07 752.65 L 256.15 761.40 L 264.58 769.79 L 273.39 777.81 L 282.58 785.48 L 292.17 792.80 L 302.17 799.77 L 312.59 806.40 L 323.44 812.68 L 334.32 818.39 L 345.62 823.74 L 357.34 828.72 L 369.51 833.32 L 382.15 837.55 L 395.27 841.40 L 408.89 844.85 L 422.14 847.71 L 435.85 850.16 L 450.05 852.21 L 464.74 853.83 L 479.95 855.01 L 495.70 855.74 L 512.01 856.00 L 526.92 855.75 L 541.45 855.04 L 555.61 853.87 L 569.43 852.27 L 582.90 850.24 L 596.05 847.78 L 609.35 844.80 L 622.28 841.41 L 634.84 837.63 L 647.05 833.45 L 658.92 828.87 L 670.47 823.91 L 681.95 818.44 L 693.07 812.60 L 703.82 806.40 L 714.23 799.84 L 724.30 792.90 L 734.05 785.60 L 743.53 777.87 L 752.65 769.81 L 761.40 761.40 L 769.81 752.65 L 777.87 743.53 L 785.60 734.05 L 792.90 724.30 L 799.84 714.23 L 806.40 703.82 L 812.60 693.07 L 818.44 681.95 L 823.91 670.47 L 828.87 658.92 L 833.45 647.05 L 837.63 634.84 L 841.41 622.28 L 844.80 609.35 L 847.78 596.05 L 850.24 582.90 L 852.27 569.43 L 853.87 555.61 L 855.04 541.45 L 855.75 526.92 L 856.00 512.01 L 855.75 497.10 L 855.04 482.57 L 853.87 468.40 L 852.27 454.59 L 850.24 441.11 L 847.78 427.96 L 844.80 414.66 L 841.41 401.73 L 837.63 389.17 L 833.45 376.96 L 828.87 365.09 L 823.91 353.54 L 818.44 342.05 L 812.60 330.94 L 806.40 320.18 L 799.84 309.77 L 792.90 299.70 L 785.60 289.95 L 777.87 280.47 L 769.81 271.36 L 761.40 262.60 L 752.65 254.19 L 743.53 246.13 L 734.05 238.40 L 724.30 231.10 L 714.23 224.17 L 703.82 217.60 L 693.07 211.40 L 681.95 205.56 L 670.47 200.09 L 658.92 195.13 L 647.05 190.55 L 634.84 186.37 L 622.28 182.59 L 609.35 179.20 L 596.05 176.22 L 582.90 173.76 L 569.43 171.73 L 555.61 170.13 L 541.45 168.96 L 526.92 168.25 L 512.01 168.00 Z" fill="#000000" fill-rule="evenodd" node-id="64" stroke-linecap="butt" stroke-width="1" target-height="688" target-width="688" target-x="168" target-y="168"></path></clipPath><clipPath id="mask-3_10" node-id="36"><path d="M 512.01 168.00 L 497.10 168.25 L 482.57 168.96 L 468.40 170.13 L 454.59 171.73 L 441.11 173.76 L 427.96 176.22 L 414.66 179.20 L 401.73 182.59 L 389.17 186.37 L 376.96 190.55 L 365.09 195.13 L 353.54 200.09 L 342.05 205.56 L 330.94 211.40 L 320.18 217.60 L 309.77 224.17 L 299.70 231.10 L 289.95 238.40 L 280.47 246.13 L 271.36 254.19 L 262.60 262.60 L 254.19 271.36 L 246.13 280.47 L 238.40 289.95 L 231.10 299.70 L 224.17 309.77 L 217.60 320.18 L 211.40 330.94 L 205.56 342.05 L 200.09 353.54 L 195.13 365.09 L 190.55 376.96 L 186.37 389.17 L 182.59 401.73 L 179.20 414.66 L 176.22 427.96 L 173.76 441.11 L 171.73 454.59 L 170.13 468.40 L 168.96 482.57 L 168.25 497.10 L 168.00 512.01 L 168.30 529.45 L 169.16 546.37 L 170.56 562.77 L 172.51 578.69 L 174.98 594.15 L 177.95 609.15 L 181.05 622.23 L 184.53 634.92 L 188.38 647.22 L 192.61 659.16 L 197.21 670.75 L 202.17 682.00 L 207.50 692.92 L 213.34 703.78 L 219.55 714.27 L 226.12 724.38 L 233.06 734.14 L 240.38 743.56 L 248.07 752.65 L 256.15 761.40 L 264.58 769.79 L 273.39 777.81 L 282.58 785.48 L 292.17 792.80 L 302.17 799.77 L 312.59 806.40 L 323.44 812.68 L 334.32 818.39 L 345.62 823.74 L 357.34 828.72 L 369.51 833.32 L 382.15 837.55 L 395.27 841.40 L 408.89 844.85 L 422.14 847.71 L 435.85 850.16 L 450.05 852.21 L 464.74 853.83 L 479.95 855.01 L 495.70 855.74 L 512.01 856.00 L 526.92 855.75 L 541.45 855.04 L 555.61 853.87 L 569.43 852.27 L 582.90 850.24 L 596.05 847.78 L 609.35 844.80 L 622.28 841.41 L 634.84 837.63 L 647.05 833.45 L 658.92 828.87 L 670.47 823.91 L 681.95 818.44 L 693.07 812.60 L 703.82 806.40 L 714.23 799.84 L 724.30 792.90 L 734.05 785.60 L 743.53 777.87 L 752.65 769.81 L 761.40 761.40 L 769.81 752.65 L 777.87 743.53 L 785.60 734.05 L 792.90 724.30 L 799.84 714.23 L 806.40 703.82 L 812.60 693.07 L 818.44 681.95 L 823.91 670.47 L 828.87 658.92 L 833.45 647.05 L 837.63 634.84 L 841.41 622.28 L 844.80 609.35 L 847.78 596.05 L 850.24 582.90 L 852.27 569.43 L 853.87 555.61 L 855.04 541.45 L 855.75 526.92 L 856.00 512.01 L 855.75 497.10 L 855.04 482.57 L 853.87 468.40 L 852.27 454.59 L 850.24 441.11 L 847.78 427.96 L 844.80 414.66 L 841.41 401.73 L 837.63 389.17 L 833.45 376.96 L 828.87 365.09 L 823.91 353.54 L 818.44 342.05 L 812.60 330.94 L 806.40 320.18 L 799.84 309.77 L 792.90 299.70 L 785.60 289.95 L 777.87 280.47 L 769.81 271.36 L 761.40 262.60 L 752.65 254.19 L 743.53 246.13 L 734.05 238.40 L 724.30 231.10 L 714.23 224.17 L 703.82 217.60 L 693.07 211.40 L 681.95 205.56 L 670.47 200.09 L 658.92 195.13 L 647.05 190.55 L 634.84 186.37 L 622.28 182.59 L 609.35 179.20 L 596.05 176.22 L 582.90 173.76 L 569.43 171.73 L 555.61 170.13 L 541.45 168.96 L 526.92 168.25 L 512.01 168.00 Z" fill="#000000" fill-rule="evenodd" node-id="64" stroke-linecap="butt" stroke-width="1" target-height="688" target-width="688" target-x="168" target-y="168"></path></clipPath><clipPath id="mask-3_11" node-id="36"><path d="M 512.01 168.00 L 497.10 168.25 L 482.57 168.96 L 468.40 170.13 L 454.59 171.73 L 441.11 173.76 L 427.96 176.22 L 414.66 179.20 L 401.73 182.59 L 389.17 186.37 L 376.96 190.55 L 365.09 195.13 L 353.54 200.09 L 342.05 205.56 L 330.94 211.40 L 320.18 217.60 L 309.77 224.17 L 299.70 231.10 L 289.95 238.40 L 280.47 246.13 L 271.36 254.19 L 262.60 262.60 L 254.19 271.36 L 246.13 280.47 L 238.40 289.95 L 231.10 299.70 L 224.17 309.77 L 217.60 320.18 L 211.40 330.94 L 205.56 342.05 L 200.09 353.54 L 195.13 365.09 L 190.55 376.96 L 186.37 389.17 L 182.59 401.73 L 179.20 414.66 L 176.22 427.96 L 173.76 441.11 L 171.73 454.59 L 170.13 468.40 L 168.96 482.57 L 168.25 497.10 L 168.00 512.01 L 168.30 529.45 L 169.16 546.37 L 170.56 562.77 L 172.51 578.69 L 174.98 594.15 L 177.95 609.15 L 181.05 622.23 L 184.53 634.92 L 188.38 647.22 L 192.61 659.16 L 197.21 670.75 L 202.17 682.00 L 207.50 692.92 L 213.34 703.78 L 219.55 714.27 L 226.12 724.38 L 233.06 734.14 L 240.38 743.56 L 248.07 752.65 L 256.15 761.40 L 264.58 769.79 L 273.39 777.81 L 282.58 785.48 L 292.17 792.80 L 302.17 799.77 L 312.59 806.40 L 323.44 812.68 L 334.32 818.39 L 345.62 823.74 L 357.34 828.72 L 369.51 833.32 L 382.15 837.55 L 395.27 841.40 L 408.89 844.85 L 422.14 847.71 L 435.85 850.16 L 450.05 852.21 L 464.74 853.83 L 479.95 855.01 L 495.70 855.74 L 512.01 856.00 L 526.92 855.75 L 541.45 855.04 L 555.61 853.87 L 569.43 852.27 L 582.90 850.24 L 596.05 847.78 L 609.35 844.80 L 622.28 841.41 L 634.84 837.63 L 647.05 833.45 L 658.92 828.87 L 670.47 823.91 L 681.95 818.44 L 693.07 812.60 L 703.82 806.40 L 714.23 799.84 L 724.30 792.90 L 734.05 785.60 L 743.53 777.87 L 752.65 769.81 L 761.40 761.40 L 769.81 752.65 L 777.87 743.53 L 785.60 734.05 L 792.90 724.30 L 799.84 714.23 L 806.40 703.82 L 812.60 693.07 L 818.44 681.95 L 823.91 670.47 L 828.87 658.92 L 833.45 647.05 L 837.63 634.84 L 841.41 622.28 L 844.80 609.35 L 847.78 596.05 L 850.24 582.90 L 852.27 569.43 L 853.87 555.61 L 855.04 541.45 L 855.75 526.92 L 856.00 512.01 L 855.75 497.10 L 855.04 482.57 L 853.87 468.40 L 852.27 454.59 L 850.24 441.11 L 847.78 427.96 L 844.80 414.66 L 841.41 401.73 L 837.63 389.17 L 833.45 376.96 L 828.87 365.09 L 823.91 353.54 L 818.44 342.05 L 812.60 330.94 L 806.40 320.18 L 799.84 309.77 L 792.90 299.70 L 785.60 289.95 L 777.87 280.47 L 769.81 271.36 L 761.40 262.60 L 752.65 254.19 L 743.53 246.13 L 734.05 238.40 L 724.30 231.10 L 714.23 224.17 L 703.82 217.60 L 693.07 211.40 L 681.95 205.56 L 670.47 200.09 L 658.92 195.13 L 647.05 190.55 L 634.84 186.37 L 622.28 182.59 L 609.35 179.20 L 596.05 176.22 L 582.90 173.76 L 569.43 171.73 L 555.61 170.13 L 541.45 168.96 L 526.92 168.25 L 512.01 168.00 Z" fill="#000000" fill-rule="evenodd" node-id="64" stroke-linecap="butt" stroke-width="1" target-height="688" target-width="688" target-x="168" target-y="168"></path></clipPath><clipPath id="mask-3_12" node-id="36"><path d="M 512.01 168.00 L 497.10 168.25 L 482.57 168.96 L 468.40 170.13 L 454.59 171.73 L 441.11 173.76 L 427.96 176.22 L 414.66 179.20 L 401.73 182.59 L 389.17 186.37 L 376.96 190.55 L 365.09 195.13 L 353.54 200.09 L 342.05 205.56 L 330.94 211.40 L 320.18 217.60 L 309.77 224.17 L 299.70 231.10 L 289.95 238.40 L 280.47 246.13 L 271.36 254.19 L 262.60 262.60 L 254.19 271.36 L 246.13 280.47 L 238.40 289.95 L 231.10 299.70 L 224.17 309.77 L 217.60 320.18 L 211.40 330.94 L 205.56 342.05 L 200.09 353.54 L 195.13 365.09 L 190.55 376.96 L 186.37 389.17 L 182.59 401.73 L 179.20 414.66 L 176.22 427.96 L 173.76 441.11 L 171.73 454.59 L 170.13 468.40 L 168.96 482.57 L 168.25 497.10 L 168.00 512.01 L 168.30 529.45 L 169.16 546.37 L 170.56 562.77 L 172.51 578.69 L 174.98 594.15 L 177.95 609.15 L 181.05 622.23 L 184.53 634.92 L 188.38 647.22 L 192.61 659.16 L 197.21 670.75 L 202.17 682.00 L 207.50 692.92 L 213.34 703.78 L 219.55 714.27 L 226.12 724.38 L 233.06 734.14 L 240.38 743.56 L 248.07 752.65 L 256.15 761.40 L 264.58 769.79 L 273.39 777.81 L 282.58 785.48 L 292.17 792.80 L 302.17 799.77 L 312.59 806.40 L 323.44 812.68 L 334.32 818.39 L 345.62 823.74 L 357.34 828.72 L 369.51 833.32 L 382.15 837.55 L 395.27 841.40 L 408.89 844.85 L 422.14 847.71 L 435.85 850.16 L 450.05 852.21 L 464.74 853.83 L 479.95 855.01 L 495.70 855.74 L 512.01 856.00 L 526.92 855.75 L 541.45 855.04 L 555.61 853.87 L 569.43 852.27 L 582.90 850.24 L 596.05 847.78 L 609.35 844.80 L 622.28 841.41 L 634.84 837.63 L 647.05 833.45 L 658.92 828.87 L 670.47 823.91 L 681.95 818.44 L 693.07 812.60 L 703.82 806.40 L 714.23 799.84 L 724.30 792.90 L 734.05 785.60 L 743.53 777.87 L 752.65 769.81 L 761.40 761.40 L 769.81 752.65 L 777.87 743.53 L 785.60 734.05 L 792.90 724.30 L 799.84 714.23 L 806.40 703.82 L 812.60 693.07 L 818.44 681.95 L 823.91 670.47 L 828.87 658.92 L 833.45 647.05 L 837.63 634.84 L 841.41 622.28 L 844.80 609.35 L 847.78 596.05 L 850.24 582.90 L 852.27 569.43 L 853.87 555.61 L 855.04 541.45 L 855.75 526.92 L 856.00 512.01 L 855.75 497.10 L 855.04 482.57 L 853.87 468.40 L 852.27 454.59 L 850.24 441.11 L 847.78 427.96 L 844.80 414.66 L 841.41 401.73 L 837.63 389.17 L 833.45 376.96 L 828.87 365.09 L 823.91 353.54 L 818.44 342.05 L 812.60 330.94 L 806.40 320.18 L 799.84 309.77 L 792.90 299.70 L 785.60 289.95 L 777.87 280.47 L 769.81 271.36 L 761.40 262.60 L 752.65 254.19 L 743.53 246.13 L 734.05 238.40 L 724.30 231.10 L 714.23 224.17 L 703.82 217.60 L 693.07 211.40 L 681.95 205.56 L 670.47 200.09 L 658.92 195.13 L 647.05 190.55 L 634.84 186.37 L 622.28 182.59 L 609.35 179.20 L 596.05 176.22 L 582.90 173.76 L 569.43 171.73 L 555.61 170.13 L 541.45 168.96 L 526.92 168.25 L 512.01 168.00 Z" fill="#000000" fill-rule="evenodd" node-id="64" stroke-linecap="butt" stroke-width="1" target-height="688" target-width="688" target-x="168" target-y="168"></path></clipPath><clipPath id="mask-3_13" node-id="36"><path d="M 512.01 168.00 L 497.10 168.25 L 482.57 168.96 L 468.40 170.13 L 454.59 171.73 L 441.11 173.76 L 427.96 176.22 L 414.66 179.20 L 401.73 182.59 L 389.17 186.37 L 376.96 190.55 L 365.09 195.13 L 353.54 200.09 L 342.05 205.56 L 330.94 211.40 L 320.18 217.60 L 309.77 224.17 L 299.70 231.10 L 289.95 238.40 L 280.47 246.13 L 271.36 254.19 L 262.60 262.60 L 254.19 271.36 L 246.13 280.47 L 238.40 289.95 L 231.10 299.70 L 224.17 309.77 L 217.60 320.18 L 211.40 330.94 L 205.56 342.05 L 200.09 353.54 L 195.13 365.09 L 190.55 376.96 L 186.37 389.17 L 182.59 401.73 L 179.20 414.66 L 176.22 427.96 L 173.76 441.11 L 171.73 454.59 L 170.13 468.40 L 168.96 482.57 L 168.25 497.10 L 168.00 512.01 L 168.30 529.45 L 169.16 546.37 L 170.56 562.77 L 172.51 578.69 L 174.98 594.15 L 177.95 609.15 L 181.05 622.23 L 184.53 634.92 L 188.38 647.22 L 192.61 659.16 L 197.21 670.75 L 202.17 682.00 L 207.50 692.92 L 213.34 703.78 L 219.55 714.27 L 226.12 724.38 L 233.06 734.14 L 240.38 743.56 L 248.07 752.65 L 256.15 761.40 L 264.58 769.79 L 273.39 777.81 L 282.58 785.48 L 292.17 792.80 L 302.17 799.77 L 312.59 806.40 L 323.44 812.68 L 334.32 818.39 L 345.62 823.74 L 357.34 828.72 L 369.51 833.32 L 382.15 837.55 L 395.27 841.40 L 408.89 844.85 L 422.14 847.71 L 435.85 850.16 L 450.05 852.21 L 464.74 853.83 L 479.95 855.01 L 495.70 855.74 L 512.01 856.00 L 526.92 855.75 L 541.45 855.04 L 555.61 853.87 L 569.43 852.27 L 582.90 850.24 L 596.05 847.78 L 609.35 844.80 L 622.28 841.41 L 634.84 837.63 L 647.05 833.45 L 658.92 828.87 L 670.47 823.91 L 681.95 818.44 L 693.07 812.60 L 703.82 806.40 L 714.23 799.84 L 724.30 792.90 L 734.05 785.60 L 743.53 777.87 L 752.65 769.81 L 761.40 761.40 L 769.81 752.65 L 777.87 743.53 L 785.60 734.05 L 792.90 724.30 L 799.84 714.23 L 806.40 703.82 L 812.60 693.07 L 818.44 681.95 L 823.91 670.47 L 828.87 658.92 L 833.45 647.05 L 837.63 634.84 L 841.41 622.28 L 844.80 609.35 L 847.78 596.05 L 850.24 582.90 L 852.27 569.43 L 853.87 555.61 L 855.04 541.45 L 855.75 526.92 L 856.00 512.01 L 855.75 497.10 L 855.04 482.57 L 853.87 468.40 L 852.27 454.59 L 850.24 441.11 L 847.78 427.96 L 844.80 414.66 L 841.41 401.73 L 837.63 389.17 L 833.45 376.96 L 828.87 365.09 L 823.91 353.54 L 818.44 342.05 L 812.60 330.94 L 806.40 320.18 L 799.84 309.77 L 792.90 299.70 L 785.60 289.95 L 777.87 280.47 L 769.81 271.36 L 761.40 262.60 L 752.65 254.19 L 743.53 246.13 L 734.05 238.40 L 724.30 231.10 L 714.23 224.17 L 703.82 217.60 L 693.07 211.40 L 681.95 205.56 L 670.47 200.09 L 658.92 195.13 L 647.05 190.55 L 634.84 186.37 L 622.28 182.59 L 609.35 179.20 L 596.05 176.22 L 582.90 173.76 L 569.43 171.73 L 555.61 170.13 L 541.45 168.96 L 526.92 168.25 L 512.01 168.00 Z" fill="#000000" fill-rule="evenodd" node-id="64" stroke-linecap="butt" stroke-width="1" target-height="688" target-width="688" target-x="168" target-y="168"></path></clipPath><clipPath id="mask-3_14" node-id="36"><path d="M 512.01 168.00 L 497.10 168.25 L 482.57 168.96 L 468.40 170.13 L 454.59 171.73 L 441.11 173.76 L 427.96 176.22 L 414.66 179.20 L 401.73 182.59 L 389.17 186.37 L 376.96 190.55 L 365.09 195.13 L 353.54 200.09 L 342.05 205.56 L 330.94 211.40 L 320.18 217.60 L 309.77 224.17 L 299.70 231.10 L 289.95 238.40 L 280.47 246.13 L 271.36 254.19 L 262.60 262.60 L 254.19 271.36 L 246.13 280.47 L 238.40 289.95 L 231.10 299.70 L 224.17 309.77 L 217.60 320.18 L 211.40 330.94 L 205.56 342.05 L 200.09 353.54 L 195.13 365.09 L 190.55 376.96 L 186.37 389.17 L 182.59 401.73 L 179.20 414.66 L 176.22 427.96 L 173.76 441.11 L 171.73 454.59 L 170.13 468.40 L 168.96 482.57 L 168.25 497.10 L 168.00 512.01 L 168.30 529.45 L 169.16 546.37 L 170.56 562.77 L 172.51 578.69 L 174.98 594.15 L 177.95 609.15 L 181.05 622.23 L 184.53 634.92 L 188.38 647.22 L 192.61 659.16 L 197.21 670.75 L 202.17 682.00 L 207.50 692.92 L 213.34 703.78 L 219.55 714.27 L 226.12 724.38 L 233.06 734.14 L 240.38 743.56 L 248.07 752.65 L 256.15 761.40 L 264.58 769.79 L 273.39 777.81 L 282.58 785.48 L 292.17 792.80 L 302.17 799.77 L 312.59 806.40 L 323.44 812.68 L 334.32 818.39 L 345.62 823.74 L 357.34 828.72 L 369.51 833.32 L 382.15 837.55 L 395.27 841.40 L 408.89 844.85 L 422.14 847.71 L 435.85 850.16 L 450.05 852.21 L 464.74 853.83 L 479.95 855.01 L 495.70 855.74 L 512.01 856.00 L 526.92 855.75 L 541.45 855.04 L 555.61 853.87 L 569.43 852.27 L 582.90 850.24 L 596.05 847.78 L 609.35 844.80 L 622.28 841.41 L 634.84 837.63 L 647.05 833.45 L 658.92 828.87 L 670.47 823.91 L 681.95 818.44 L 693.07 812.60 L 703.82 806.40 L 714.23 799.84 L 724.30 792.90 L 734.05 785.60 L 743.53 777.87 L 752.65 769.81 L 761.40 761.40 L 769.81 752.65 L 777.87 743.53 L 785.60 734.05 L 792.90 724.30 L 799.84 714.23 L 806.40 703.82 L 812.60 693.07 L 818.44 681.95 L 823.91 670.47 L 828.87 658.92 L 833.45 647.05 L 837.63 634.84 L 841.41 622.28 L 844.80 609.35 L 847.78 596.05 L 850.24 582.90 L 852.27 569.43 L 853.87 555.61 L 855.04 541.45 L 855.75 526.92 L 856.00 512.01 L 855.75 497.10 L 855.04 482.57 L 853.87 468.40 L 852.27 454.59 L 850.24 441.11 L 847.78 427.96 L 844.80 414.66 L 841.41 401.73 L 837.63 389.17 L 833.45 376.96 L 828.87 365.09 L 823.91 353.54 L 818.44 342.05 L 812.60 330.94 L 806.40 320.18 L 799.84 309.77 L 792.90 299.70 L 785.60 289.95 L 777.87 280.47 L 769.81 271.36 L 761.40 262.60 L 752.65 254.19 L 743.53 246.13 L 734.05 238.40 L 724.30 231.10 L 714.23 224.17 L 703.82 217.60 L 693.07 211.40 L 681.95 205.56 L 670.47 200.09 L 658.92 195.13 L 647.05 190.55 L 634.84 186.37 L 622.28 182.59 L 609.35 179.20 L 596.05 176.22 L 582.90 173.76 L 569.43 171.73 L 555.61 170.13 L 541.45 168.96 L 526.92 168.25 L 512.01 168.00 Z" fill="#000000" fill-rule="evenodd" node-id="64" stroke-linecap="butt" stroke-width="1" target-height="688" target-width="688" target-x="168" target-y="168"></path></clipPath></defs><path d="M 0.00 0.00 L 1024.00 0.00 L 1024.00 1024.00 L 0.00 1024.00 Z" fill="#ffffff" fill-rule="evenodd" node-id="113" stroke="none" target-height="1024" target-width="1024" target-x="0" target-y="0"></path><g node-id="168"><g node-id="169"><path d="M 512.01 168.00 L 497.10 168.25 L 482.57 168.96 L 468.40 170.13 L 454.59 171.73 L 441.11 173.76 L 427.96 176.22 L 414.66 179.20 L 401.73 182.59 L 389.17 186.37 L 376.96 190.55 L 365.09 195.13 L 353.54 200.09 L 342.05 205.56 L 330.94 211.40 L 320.18 217.60 L 309.77 224.17 L 299.70 231.10 L 289.95 238.40 L 280.47 246.13 L 271.36 254.19 L 262.60 262.60 L 254.19 271.36 L 246.13 280.47 L 238.40 289.95 L 231.10 299.70 L 224.17 309.77 L 217.60 320.18 L 211.40 330.94 L 205.56 342.05 L 200.09 353.54 L 195.13 365.09 L 190.55 376.96 L 186.37 389.17 L 182.59 401.73 L 179.20 414.66 L 176.22 427.96 L 173.76 441.11 L 171.73 454.59 L 170.13 468.40 L 168.96 482.57 L 168.25 497.10 L 168.00 512.01 L 168.30 529.45 L 169.16 546.37 L 170.56 562.77 L 172.51 578.69 L 174.98 594.15 L 177.95 609.15 L 181.05 622.23 L 184.53 634.92 L 188.38 647.22 L 192.61 659.16 L 197.21 670.75 L 202.17 682.00 L 207.50 692.92 L 213.34 703.78 L 219.55 714.27 L 226.12 724.38 L 233.06 734.14 L 240.38 743.56 L 248.07 752.65 L 256.15 761.40 L 264.58 769.79 L 273.39 777.81 L 282.58 785.48 L 292.17 792.80 L 302.17 799.77 L 312.59 806.40 L 323.44 812.68 L 334.32 818.39 L 345.62 823.74 L 357.34 828.72 L 369.51 833.32 L 382.15 837.55 L 395.27 841.40 L 408.89 844.85 L 422.14 847.71 L 435.85 850.16 L 450.05 852.21 L 464.74 853.83 L 479.95 855.01 L 495.70 855.74 L 512.01 856.00 L 526.92 855.75 L 541.45 855.04 L 555.61 853.87 L 569.43 852.27 L 582.90 850.24 L 596.05 847.78 L 609.35 844.80 L 622.28 841.41 L 634.84 837.63 L 647.05 833.45 L 658.92 828.87 L 670.47 823.91 L 681.95 818.44 L 693.07 812.60 L 703.82 806.40 L 714.23 799.84 L 724.30 792.90 L 734.05 785.60 L 743.53 777.87 L 752.65 769.81 L 761.40 761.40 L 769.81 752.65 L 777.87 743.53 L 785.60 734.05 L 792.90 724.30 L 799.84 714.23 L 806.40 703.82 L 812.60 693.07 L 818.44 681.95 L 823.91 670.47 L 828.87 658.92 L 833.45 647.05 L 837.63 634.84 L 841.41 622.28 L 844.80 609.35 L 847.78 596.05 L 850.24 582.90 L 852.27 569.43 L 853.87 555.61 L 855.04 541.45 L 855.75 526.92 L 856.00 512.01 L 855.75 497.10 L 855.04 482.57 L 853.87 468.40 L 852.27 454.59 L 850.24 441.11 L 847.78 427.96 L 844.80 414.66 L 841.41 401.73 L 837.63 389.17 L 833.45 376.96 L 828.87 365.09 L 823.91 353.54 L 818.44 342.05 L 812.60 330.94 L 806.40 320.18 L 799.84 309.77 L 792.90 299.70 L 785.60 289.95 L 777.87 280.47 L 769.81 271.36 L 761.40 262.60 L 752.65 254.19 L 743.53 246.13 L 734.05 238.40 L 724.30 231.10 L 714.23 224.17 L 703.82 217.60 L 693.07 211.40 L 681.95 205.56 L 670.47 200.09 L 658.92 195.13 L 647.05 190.55 L 634.84 186.37 L 622.28 182.59 L 609.35 179.20 L 596.05 176.22 L 582.90 173.76 L 569.43 171.73 L 555.61 170.13 L 541.45 168.96 L 526.92 168.25 L 512.01 168.00 Z" fill="#fecc4a" fill-rule="evenodd" group-id="1,2" node-id="117" stroke-linecap="butt" stroke-width="1" target-height="688" target-width="688" target-x="168" target-y="168"></path><path d="M 512.01 168.00 L 497.10 168.25 L 482.57 168.96 L 468.40 170.13 L 454.59 171.73 L 441.11 173.76 L 427.96 176.22 L 414.66 179.20 L 401.73 182.59 L 389.17 186.37 L 376.96 190.55 L 365.09 195.13 L 353.54 200.09 L 342.05 205.56 L 330.94 211.40 L 320.18 217.60 L 309.77 224.17 L 299.70 231.10 L 289.95 238.40 L 280.47 246.13 L 271.36 254.19 L 262.60 262.60 L 254.19 271.36 L 246.13 280.47 L 238.40 289.95 L 231.10 299.70 L 224.17 309.77 L 217.60 320.18 L 211.40 330.94 L 205.56 342.05 L 200.09 353.54 L 195.13 365.09 L 190.55 376.96 L 186.37 389.17 L 182.59 401.73 L 179.20 414.66 L 176.22 427.96 L 173.76 441.11 L 171.73 454.59 L 170.13 468.40 L 168.96 482.57 L 168.25 497.10 L 168.00 512.01 L 168.30 529.45 L 169.16 546.37 L 170.56 562.77 L 172.51 578.69 L 174.98 594.15 L 177.95 609.15 L 181.05 622.23 L 184.53 634.92 L 188.38 647.22 L 192.61 659.16 L 197.21 670.75 L 202.17 682.00 L 207.50 692.92 L 213.34 703.78 L 219.55 714.27 L 226.12 724.38 L 233.06 734.14 L 240.38 743.56 L 248.07 752.65 L 256.15 761.40 L 264.58 769.79 L 273.39 777.81 L 282.58 785.48 L 292.17 792.80 L 302.17 799.77 L 312.59 806.40 L 323.44 812.68 L 334.32 818.39 L 345.62 823.74 L 357.34 828.72 L 369.51 833.32 L 382.15 837.55 L 395.27 841.40 L 408.89 844.85 L 422.14 847.71 L 435.85 850.16 L 450.05 852.21 L 464.74 853.83 L 479.95 855.01 L 495.70 855.74 L 512.01 856.00 L 526.92 855.75 L 541.45 855.04 L 555.61 853.87 L 569.43 852.27 L 582.90 850.24 L 596.05 847.78 L 609.35 844.80 L 622.28 841.41 L 634.84 837.63 L 647.05 833.45 L 658.92 828.87 L 670.47 823.91 L 681.95 818.44 L 693.07 812.60 L 703.82 806.40 L 714.23 799.84 L 724.30 792.90 L 734.05 785.60 L 743.53 777.87 L 752.65 769.81 L 761.40 761.40 L 769.81 752.65 L 777.87 743.53 L 785.60 734.05 L 792.90 724.30 L 799.84 714.23 L 806.40 703.82 L 812.60 693.07 L 818.44 681.95 L 823.91 670.47 L 828.87 658.92 L 833.45 647.05 L 837.63 634.84 L 841.41 622.28 L 844.80 609.35 L 847.78 596.05 L 850.24 582.90 L 852.27 569.43 L 853.87 555.61 L 855.04 541.45 L 855.75 526.92 L 856.00 512.01 L 855.75 497.10 L 855.04 482.57 L 853.87 468.40 L 852.27 454.59 L 850.24 441.11 L 847.78 427.96 L 844.80 414.66 L 841.41 401.73 L 837.63 389.17 L 833.45 376.96 L 828.87 365.09 L 823.91 353.54 L 818.44 342.05 L 812.60 330.94 L 806.40 320.18 L 799.84 309.77 L 792.90 299.70 L 785.60 289.95 L 777.87 280.47 L 769.81 271.36 L 761.40 262.60 L 752.65 254.19 L 743.53 246.13 L 734.05 238.40 L 724.30 231.10 L 714.23 224.17 L 703.82 217.60 L 693.07 211.40 L 681.95 205.56 L 670.47 200.09 L 658.92 195.13 L 647.05 190.55 L 634.84 186.37 L 622.28 182.59 L 609.35 179.20 L 596.05 176.22 L 582.90 173.76 L 569.43 171.73 L 555.61 170.13 L 541.45 168.96 L 526.92 168.25 L 512.01 168.00 Z" fill="url(#radialGradient-1)" fill-rule="evenodd" group-id="1,2" node-id="119" stroke-linecap="butt" stroke-width="1" target-height="688" target-width="688" target-x="168" target-y="168"></path></g><g node-id="170"><g clip-path="url(#mask-3_8)" group-id="1,3" node-id="122"><path d="M 432.00 555.20 L 435.81 559.19 L 440.15 562.88 L 445.04 566.27 L 450.55 569.36 L 456.73 572.15 L 463.65 574.60 L 471.38 576.71 L 479.99 578.42 L 489.57 579.71 L 500.21 580.52 L 512.00 580.80 L 523.79 580.52 L 534.43 579.71 L 544.01 578.42 L 552.62 576.71 L 560.35 574.60 L 567.27 572.15 L 573.45 569.36 L 578.96 566.27 L 583.85 562.88 L 588.19 559.19 L 592.00 555.20" fill="none" group-id="1,3" id="路径-4" node-id="41" stroke="#000000" stroke-linecap="round" stroke-width="32" target-height="25.599976" target-width="160" target-x="432" target-y="555.2"></path></g></g><g node-id="171"><g clip-path="url(#mask-3_9)" group-id="1,4" node-id="126"><path d="M 572.80 324.80 L 681.60 324.80 L 686.92 325.08 L 691.99 325.85 L 696.85 327.10 L 701.53 328.82 L 706.04 331.00 L 710.24 333.55 L 714.16 336.48 L 717.80 339.80 L 721.12 343.44 L 724.05 347.36 L 726.60 351.56 L 728.78 356.07 L 730.50 360.75 L 731.75 365.61 L 732.52 370.68 L 732.80 376.00 L 732.80 427.20 L 732.52 432.52 L 731.75 437.59 L 730.50 442.45 L 728.78 447.13 L 726.60 451.64 L 724.05 455.84 L 721.12 459.76 L 717.80 463.40 L 714.16 466.72 L 710.24 469.65 L 706.04 472.20 L 701.53 474.38 L 696.85 476.10 L 691.99 477.35 L 686.92 478.12 L 681.60 478.40 L 572.80 478.40 L 567.48 478.12 L 562.41 477.35 L 557.55 476.10 L 552.87 474.38 L 548.36 472.20 L 544.16 469.65 L 540.24 466.72 L 536.60 463.40 L 533.28 459.76 L 530.35 455.84 L 527.80 451.64 L 525.62 447.13 L 523.90 442.45 L 522.65 437.59 L 521.88 432.52 L 521.60 427.20 L 521.60 376.00 L 521.88 370.68 L 522.65 365.61 L 523.90 360.75 L 525.62 356.07 L 527.80 351.56 L 530.35 347.36 L 533.28 343.44 L 536.60 339.80 L 540.24 336.48 L 544.16 333.55 L 548.36 331.00 L 552.87 328.82 L 557.55 327.10 L 562.41 325.85 L 567.48 325.08 L 572.80 324.80 Z" fill="#ffffff" fill-rule="evenodd" group-id="1,4" id="矩形-1备份" node-id="42" stroke-linecap="butt" stroke-width="1" target-height="153.6" target-width="211.20001" target-x="521.6" target-y="324.8"></path></g></g><g node-id="172"><g clip-path="url(#mask-3_10)" group-id="1,5" node-id="130"><path d="M 596.80 363.20 L 592.81 363.41 L 589.01 363.99 L 585.36 364.93 L 581.86 366.22 L 577.40 368.46 L 573.34 371.20 L 569.65 374.45 L 566.40 378.14 L 563.66 382.20 L 561.42 386.66 L 560.13 390.16 L 559.19 393.81 L 558.61 397.61 L 558.40 401.60 L 558.61 405.59 L 559.19 409.39 L 560.13 413.04 L 561.42 416.54 L 563.66 421.00 L 566.40 425.06 L 569.65 428.75 L 573.34 432.00 L 577.40 434.74 L 581.86 436.98 L 585.36 438.27 L 589.01 439.21 L 592.81 439.79 L 596.80 440.00 L 600.79 439.79 L 604.59 439.21 L 608.24 438.27 L 611.74 436.98 L 616.20 434.74 L 620.26 432.00 L 623.95 428.75 L 627.20 425.06 L 629.94 421.00 L 632.18 416.54 L 633.47 413.04 L 634.41 409.39 L 634.99 405.59 L 635.20 401.60 L 634.99 397.61 L 634.41 393.81 L 633.47 390.16 L 632.18 386.66 L 629.94 382.20 L 627.20 378.14 L 623.95 374.45 L 620.26 371.20 L 616.20 368.46 L 611.74 366.22 L 608.24 364.93 L 604.59 363.99 L 600.79 363.41 L 596.80 363.20 Z" fill="#000000" fill-rule="evenodd" group-id="1,5" id="路径备份" node-id="43" stroke-linecap="butt" stroke-width="1" target-height="76.79999" target-width="76.79999" target-x="558.4" target-y="363.2"></path></g></g><g node-id="173"><g clip-path="url(#mask-3_11)" group-id="1,6" node-id="134"><path d="M 342.40 324.80 L 451.20 324.80 L 456.52 325.08 L 461.59 325.85 L 466.45 327.10 L 471.13 328.82 L 475.64 331.00 L 479.84 333.55 L 483.76 336.48 L 487.40 339.80 L 490.72 343.44 L 493.65 347.36 L 496.20 351.56 L 498.38 356.07 L 500.10 360.75 L 501.35 365.61 L 502.12 370.68 L 502.40 376.00 L 502.40 427.20 L 502.12 432.52 L 501.35 437.59 L 500.10 442.45 L 498.38 447.13 L 496.20 451.64 L 493.65 455.84 L 490.72 459.76 L 487.40 463.40 L 483.76 466.72 L 479.84 469.65 L 475.64 472.20 L 471.13 474.38 L 466.45 476.10 L 461.59 477.35 L 456.52 478.12 L 451.20 478.40 L 342.40 478.40 L 337.08 478.12 L 332.01 477.35 L 327.15 476.10 L 322.47 474.38 L 317.96 472.20 L 313.76 469.65 L 309.84 466.72 L 306.20 463.40 L 302.88 459.76 L 299.95 455.84 L 297.40 451.64 L 295.22 447.13 L 293.50 442.45 L 292.25 437.59 L 291.48 432.52 L 291.20 427.20 L 291.20 376.00 L 291.48 370.68 L 292.25 365.61 L 293.50 360.75 L 295.22 356.07 L 297.40 351.56 L 299.95 347.36 L 302.88 343.44 L 306.20 339.80 L 309.84 336.48 L 313.76 333.55 L 317.96 331.00 L 322.47 328.82 L 327.15 327.10 L 332.01 325.85 L 337.08 325.08 L 342.40 324.80 Z" fill="#ffffff" fill-rule="evenodd" group-id="1,6" id="矩形-1" node-id="44" stroke-linecap="butt" stroke-width="1" target-height="153.6" target-width="211.19998" target-x="291.2" target-y="324.8"></path></g></g><g node-id="174"><g clip-path="url(#mask-3_12)" group-id="1,7" node-id="138"><path d="M 366.40 363.20 L 362.41 363.41 L 358.61 363.99 L 354.96 364.93 L 351.46 366.22 L 347.00 368.46 L 342.94 371.20 L 339.25 374.45 L 336.00 378.14 L 333.26 382.20 L 331.02 386.66 L 329.73 390.16 L 328.79 393.81 L 328.21 397.61 L 328.00 401.60 L 328.21 405.59 L 328.79 409.39 L 329.73 413.04 L 331.02 416.54 L 333.26 421.00 L 336.00 425.06 L 339.25 428.75 L 342.94 432.00 L 347.00 434.74 L 351.46 436.98 L 354.96 438.27 L 358.61 439.21 L 362.41 439.79 L 366.40 440.00 L 370.39 439.79 L 374.19 439.21 L 377.84 438.27 L 381.34 436.98 L 385.80 434.74 L 389.86 432.00 L 393.55 428.75 L 396.80 425.06 L 399.54 421.00 L 401.78 416.54 L 403.07 413.04 L 404.01 409.39 L 404.59 405.59 L 404.80 401.60 L 404.59 397.61 L 404.01 393.81 L 403.07 390.16 L 401.78 386.66 L 399.54 382.20 L 396.80 378.14 L 393.55 374.45 L 389.86 371.20 L 385.80 368.46 L 381.34 366.22 L 377.84 364.93 L 374.19 363.99 L 370.39 363.41 L 366.40 363.20 Z" fill="#000000" fill-rule="evenodd" group-id="1,7" id="路径" node-id="45" stroke-linecap="butt" stroke-width="1" target-height="76.79999" target-width="76.79999" target-x="328" target-y="363.2"></path></g></g><g node-id="175"><g clip-path="url(#mask-3_13)" group-id="1,8" id="路径" node-id="46"><path d="M 324.80 873.60 L 459.20 873.60 L 459.20 484.66 L 458.99 480.01 L 458.40 475.58 L 457.47 471.34 L 456.18 467.28 L 454.53 463.31 L 452.61 459.64 L 450.42 456.24 L 447.95 453.08 L 445.18 450.16 L 442.24 447.61 L 439.09 445.39 L 435.74 443.51 L 432.22 442.00 L 428.57 440.91 L 424.77 440.25 L 420.80 440.00 L 363.20 440.00 L 359.23 440.25 L 355.43 440.91 L 351.78 442.00 L 348.26 443.51 L 344.91 445.39 L 341.76 447.61 L 338.82 450.16 L 336.05 453.08 L 333.58 456.24 L 331.39 459.64 L 329.47 463.31 L 327.82 467.28 L 326.53 471.34 L 325.60 475.58 L 325.01 480.01 L 324.80 484.66 L 324.80 873.60 Z" fill="#000000" fill-rule="evenodd" filter="url(#filter-6)" group-id="1,8,10" node-id="145" stroke-linecap="butt" stroke-width="1" target-height="433.59998" target-width="134.40002" target-x="324.8" target-y="440"></path><path d="M 324.80 873.60 L 459.20 873.60 L 459.20 484.66 L 458.99 480.01 L 458.40 475.58 L 457.47 471.34 L 456.18 467.28 L 454.53 463.31 L 452.61 459.64 L 450.42 456.24 L 447.95 453.08 L 445.18 450.16 L 442.24 447.61 L 439.09 445.39 L 435.74 443.51 L 432.22 442.00 L 428.57 440.91 L 424.77 440.25 L 420.80 440.00 L 363.20 440.00 L 359.23 440.25 L 355.43 440.91 L 351.78 442.00 L 348.26 443.51 L 344.91 445.39 L 341.76 447.61 L 338.82 450.16 L 336.05 453.08 L 333.58 456.24 L 331.39 459.64 L 329.47 463.31 L 327.82 467.28 L 326.53 471.34 L 325.60 475.58 L 325.01 480.01 L 324.80 484.66 L 324.80 873.60 Z" fill="url(#linearGradient-4)" fill-rule="evenodd" group-id="1,8" node-id="148" stroke-linecap="butt" stroke-width="1" target-height="433.59998" target-width="134.40002" target-x="324.8" target-y="440"></path><path d="M 324.80 873.60 L 459.20 873.60 L 459.20 484.66 L 458.99 480.01 L 458.40 475.58 L 457.47 471.34 L 456.18 467.28 L 454.53 463.31 L 452.61 459.64 L 450.42 456.24 L 447.95 453.08 L 445.18 450.16 L 442.24 447.61 L 439.09 445.39 L 435.74 443.51 L 432.22 442.00 L 428.57 440.91 L 424.77 440.25 L 420.80 440.00 L 363.20 440.00 L 359.23 440.25 L 355.43 440.91 L 351.78 442.00 L 348.26 443.51 L 344.91 445.39 L 341.76 447.61 L 338.82 450.16 L 336.05 453.08 L 333.58 456.24 L 331.39 459.64 L 329.47 463.31 L 327.82 467.28 L 326.53 471.34 L 325.60 475.58 L 325.01 480.01 L 324.80 484.66 L 324.80 873.60 Z" fill="#000000" fill-rule="evenodd" filter="url(#filter-7)" group-id="1,8,11" node-id="152" stroke-linecap="butt" stroke-width="1" target-height="433.59998" target-width="134.40002" target-x="324.8" target-y="440"></path></g></g><g clip-path="url(#mask-3_14)" group-id="1,9" id="路径" node-id="50"><path d="M 555.20 873.60 L 689.60 873.60 L 689.60 484.66 L 689.39 480.01 L 688.80 475.58 L 687.87 471.34 L 686.58 467.28 L 684.93 463.31 L 683.01 459.64 L 680.82 456.24 L 678.35 453.08 L 675.58 450.16 L 672.64 447.61 L 669.49 445.39 L 666.14 443.51 L 662.62 442.00 L 658.97 440.91 L 655.17 440.25 L 651.20 440.00 L 593.60 440.00 L 589.63 440.25 L 585.83 440.91 L 582.18 442.00 L 578.66 443.51 L 575.31 445.39 L 572.16 447.61 L 569.22 450.16 L 566.45 453.08 L 563.98 456.24 L 561.79 459.64 L 559.87 463.31 L 558.22 467.28 L 556.93 471.34 L 556.00 475.58 L 555.41 480.01 L 555.20 484.66 L 555.20 873.60 Z" fill="#000000" fill-rule="evenodd" filter="url(#filter-9)" group-id="1,9,12" node-id="159" stroke-linecap="butt" stroke-width="1" target-height="433.59998" target-width="134.39996" target-x="555.2" target-y="440"></path><path d="M 555.20 873.60 L 689.60 873.60 L 689.60 484.66 L 689.39 480.01 L 688.80 475.58 L 687.87 471.34 L 686.58 467.28 L 684.93 463.31 L 683.01 459.64 L 680.82 456.24 L 678.35 453.08 L 675.58 450.16 L 672.64 447.61 L 669.49 445.39 L 666.14 443.51 L 662.62 442.00 L 658.97 440.91 L 655.17 440.25 L 651.20 440.00 L 593.60 440.00 L 589.63 440.25 L 585.83 440.91 L 582.18 442.00 L 578.66 443.51 L 575.31 445.39 L 572.16 447.61 L 569.22 450.16 L 566.45 453.08 L 563.98 456.24 L 561.79 459.64 L 559.87 463.31 L 558.22 467.28 L 556.93 471.34 L 556.00 475.58 L 555.41 480.01 L 555.20 484.66 L 555.20 873.60 Z" fill="url(#linearGradient-4)" fill-rule="evenodd" group-id="1,9" node-id="162" stroke-linecap="butt" stroke-width="1" target-height="433.59998" target-width="134.39996" target-x="555.2" target-y="440"></path><path d="M 555.20 873.60 L 689.60 873.60 L 689.60 484.66 L 689.39 480.01 L 688.80 475.58 L 687.87 471.34 L 686.58 467.28 L 684.93 463.31 L 683.01 459.64 L 680.82 456.24 L 678.35 453.08 L 675.58 450.16 L 672.64 447.61 L 669.49 445.39 L 666.14 443.51 L 662.62 442.00 L 658.97 440.91 L 655.17 440.25 L 651.20 440.00 L 593.60 440.00 L 589.63 440.25 L 585.83 440.91 L 582.18 442.00 L 578.66 443.51 L 575.31 445.39 L 572.16 447.61 L 569.22 450.16 L 566.45 453.08 L 563.98 456.24 L 561.79 459.64 L 559.87 463.31 L 558.22 467.28 L 556.93 471.34 L 556.00 475.58 L 555.41 480.01 L 555.20 484.66 L 555.20 873.60 Z" fill="#000000" fill-rule="evenodd" filter="url(#filter-10)" group-id="1,9,13" node-id="166" stroke-linecap="butt" stroke-width="1" target-height="433.59998" target-width="134.39996" target-x="555.2" target-y="440"></path></g></g></svg>