<?xml version="1.0" standalone="no"?><!DOCTYPE svg PUBLIC "-//W3C//DTD SVG 1.1//EN" "http://www.w3.org/Graphics/SVG/1.1/DTD/svg11.dtd"><svg height="1024" legacy-metrics="false" node-id="1" sillyvg="true" template-height="1024" template-width="1024" version="1.1" viewBox="0 0 1024 1024" width="1024" xmlns="http://www.w3.org/2000/svg" xmlns:xlink="http://www.w3.org/1999/xlink"><defs node-id="41"><radialGradient cx="0.50000006" cy="0.175" fx="0.50000006" fy="0.175" gradientUnits="objectBoundingBox" id="radialGradient-1" node-id="5" r="0.82500005"><stop offset="0" stop-color="#ffdd70"></stop><stop offset="1" stop-color="#f1823a"></stop></radialGradient><filter height="1.201" id="filter-3" node-id="9" width="1.201" x="-0.1" y="-0.1"><feGaussianBlur color-interpolation-filters="linearRGB" in="SourceAlpha" result="shadowBlurInner1" stdDeviation="69 69"></feGaussianBlur><feOffset color-interpolation-filters="linearRGB" dx="0" dy="0" in="shadowBlurInner1" result="shadowOffsetInner1"></feOffset><feComposite color-interpolation-filters="linearRGB" in="shadowOffsetInner1" in2="SourceAlpha" k1="0" k2="-1" k3="1" k4="0" operator="arithmetic" result="shadowInnerInner1"></feComposite><feColorMatrix color-interpolation-filters="linearRGB" in="shadowInnerInner1" result="result4" type="matrix" values="0 0 0 0 1 0 0 0 0 0.937254902 0 0 0 0 0.380392157 0 0 0 0.7 0"></feColorMatrix></filter><filter height="1.188" id="filter-7" node-id="18" width="1.335" x="-0.167" y="-0.119"><feOffset color-interpolation-filters="linearRGB" dx="0" dy="-6" in="SourceAlpha" result="shadowOffsetOuter1"></feOffset><feGaussianBlur color-interpolation-filters="linearRGB" in="shadowOffsetOuter1" result="shadowBlurOuter1" stdDeviation="6.5 6.5"></feGaussianBlur><feColorMatrix color-interpolation-filters="linearRGB" in="shadowBlurOuter1" result="result3" type="matrix" values="0 0 0 0 0.870588235 0 0 0 0 0.384313725 0 0 0 0 0.105882353 0 0 0 0.3 0"></feColorMatrix></filter><linearGradient gradientUnits="objectBoundingBox" id="linearGradient-4" node-id="14" x1="0.5" x2="0.5" y1="1" y2="-0.026738115"><stop offset="0" stop-color="#d44c4c"></stop><stop offset="1" stop-color="#6d2347"></stop></linearGradient></defs><path d="M 0.00 0.00 L 1024.00 0.00 L 1024.00 1024.00 L 0.00 1024.00 Z" fill="#ffffff" fill-rule="evenodd" node-id="75" stroke="none" target-height="1024" target-width="1024" target-x="0" target-y="0"></path><g node-id="97"><path d="M 512.01 168.00 C 305.59 168.00 168.00 305.59 168.00 512.01 C 168.00 718.41 288.40 856.00 512.01 856.00 C 718.41 856.00 856.00 718.41 856.00 512.01 C 856.00 305.59 718.41 168.00 512.01 168.00 Z" fill="#fecc4a" fill-rule="evenodd" group-id="1" node-id="78" stroke="none" target-height="688" target-width="688" target-x="168" target-y="168"></path><path d="M 512.01 168.00 C 305.59 168.00 168.00 305.59 168.00 512.01 C 168.00 718.41 288.40 856.00 512.01 856.00 C 718.41 856.00 856.00 718.41 856.00 512.01 C 856.00 305.59 718.41 168.00 512.01 168.00 Z" fill="url(#radialGradient-1)" fill-rule="evenodd" group-id="1" node-id="80" stroke="none" target-height="688" target-width="688" target-x="168" target-y="168"></path><g node-id="101"><path d="M 512.01 168.00 C 305.59 168.00 168.00 305.59 168.00 512.01 C 168.00 718.41 288.40 856.00 512.01 856.00 C 718.41 856.00 856.00 718.41 856.00 512.01 C 856.00 305.59 718.41 168.00 512.01 168.00 Z" fill="#000000" fill-rule="evenodd" filter="url(#filter-3)" group-id="1,5" node-id="84" stroke="none" target-height="688" target-width="688" target-x="168" target-y="168"></path></g></g><g node-id="98"><g node-id="102"><g node-id="103"><path d="M 512.00 489.60 L 512.00 489.60 L 517.58 489.84 L 522.97 490.49 L 528.18 491.55 L 533.24 493.03 L 538.19 494.90 L 542.90 497.11 L 547.40 499.67 L 551.69 502.57 L 555.75 505.79 L 559.52 509.28 L 563.01 513.05 L 566.23 517.11 L 569.13 521.40 L 571.69 525.90 L 573.90 530.61 L 575.77 535.56 L 577.25 540.62 L 578.31 545.83 L 578.96 551.22 L 579.20 556.80 L 579.20 662.40 L 578.96 667.98 L 578.31 673.37 L 577.25 678.58 L 575.77 683.64 L 573.90 688.59 L 571.69 693.30 L 569.13 697.80 L 566.23 702.09 L 563.01 706.15 L 559.52 709.92 L 555.75 713.41 L 551.69 716.63 L 547.40 719.53 L 542.90 722.09 L 538.19 724.30 L 533.24 726.17 L 528.18 727.65 L 522.97 728.71 L 517.58 729.36 L 512.00 729.60 L 512.00 729.60 L 506.42 729.36 L 501.03 728.71 L 495.82 727.65 L 490.76 726.17 L 485.81 724.30 L 481.10 722.09 L 476.60 719.53 L 472.31 716.63 L 468.25 713.41 L 464.48 709.92 L 460.99 706.15 L 457.77 702.09 L 454.87 697.80 L 452.31 693.30 L 450.10 688.59 L 448.23 683.64 L 446.75 678.58 L 445.69 673.37 L 445.04 667.98 L 444.80 662.40 L 444.80 556.80 L 445.04 551.22 L 445.69 545.83 L 446.75 540.62 L 448.23 535.56 L 450.10 530.61 L 452.31 525.90 L 454.87 521.40 L 457.77 517.11 L 460.99 513.05 L 464.48 509.28 L 468.25 505.79 L 472.31 502.57 L 476.60 499.67 L 481.10 497.11 L 485.81 494.90 L 490.76 493.03 L 495.82 491.55 L 501.03 490.49 L 506.42 489.84 L 512.00 489.60 Z" fill="#000000" fill-rule="evenodd" filter="url(#filter-7)" group-id="2,6,7" node-id="92" stroke-linecap="butt" stroke-width="1" target-height="239.99997" target-width="134.39996" target-x="444.8" target-y="489.6"></path></g><path d="M 512.00 489.60 L 512.00 489.60 L 517.58 489.84 L 522.97 490.49 L 528.18 491.55 L 533.24 493.03 L 538.19 494.90 L 542.90 497.11 L 547.40 499.67 L 551.69 502.57 L 555.75 505.79 L 559.52 509.28 L 563.01 513.05 L 566.23 517.11 L 569.13 521.40 L 571.69 525.90 L 573.90 530.61 L 575.77 535.56 L 577.25 540.62 L 578.31 545.83 L 578.96 551.22 L 579.20 556.80 L 579.20 662.40 L 578.96 667.98 L 578.31 673.37 L 577.25 678.58 L 575.77 683.64 L 573.90 688.59 L 571.69 693.30 L 569.13 697.80 L 566.23 702.09 L 563.01 706.15 L 559.52 709.92 L 555.75 713.41 L 551.69 716.63 L 547.40 719.53 L 542.90 722.09 L 538.19 724.30 L 533.24 726.17 L 528.18 727.65 L 522.97 728.71 L 517.58 729.36 L 512.00 729.60 L 512.00 729.60 L 506.42 729.36 L 501.03 728.71 L 495.82 727.65 L 490.76 726.17 L 485.81 724.30 L 481.10 722.09 L 476.60 719.53 L 472.31 716.63 L 468.25 713.41 L 464.48 709.92 L 460.99 706.15 L 457.77 702.09 L 454.87 697.80 L 452.31 693.30 L 450.10 688.59 L 448.23 683.64 L 446.75 678.58 L 445.69 673.37 L 445.04 667.98 L 444.80 662.40 L 444.80 556.80 L 445.04 551.22 L 445.69 545.83 L 446.75 540.62 L 448.23 535.56 L 450.10 530.61 L 452.31 525.90 L 454.87 521.40 L 457.77 517.11 L 460.99 513.05 L 464.48 509.28 L 468.25 505.79 L 472.31 502.57 L 476.60 499.67 L 481.10 497.11 L 485.81 494.90 L 490.76 493.03 L 495.82 491.55 L 501.03 490.49 L 506.42 489.84 L 512.00 489.60 Z" fill="url(#linearGradient-4)" fill-rule="evenodd" group-id="2,6" node-id="95" stroke-linecap="butt" stroke-width="1" target-height="239.99997" target-width="134.39996" target-x="444.8" target-y="489.6"></path></g></g><g node-id="99"><path d="M 358.33 294.38 L 462.42 398.47 L 464.29 400.72 L 465.67 403.13 L 466.59 405.72 L 467.05 408.43 L 467.05 411.13 L 466.59 413.84 L 465.67 416.43 L 464.29 418.84 L 462.42 421.09 L 462.42 421.09 L 460.16 422.97 L 457.75 424.34 L 455.16 425.26 L 452.45 425.72 L 449.76 425.72 L 447.05 425.26 L 444.46 424.34 L 442.05 422.97 L 439.79 421.09 L 335.71 317.01 L 333.83 314.75 L 332.46 312.34 L 331.54 309.75 L 331.08 307.04 L 331.08 304.35 L 331.54 301.64 L 332.46 299.05 L 333.83 296.64 L 335.71 294.38 L 335.71 294.38 L 337.96 292.51 L 340.37 291.13 L 342.96 290.21 L 345.67 289.75 L 348.37 289.75 L 351.08 290.21 L 353.67 291.13 L 356.08 292.51 L 358.33 294.38 Z" fill="#000000" fill-rule="evenodd" group-id="3" id="矩形备份-3" node-id="35" stroke-linecap="butt" stroke-width="0.99999994" target-height="135.97147" target-width="135.97144" target-x="331.07703" target-y="289.75153"></path><path d="M 462.42 317.01 L 358.33 421.09 L 356.08 422.97 L 353.67 424.34 L 351.08 425.26 L 348.37 425.72 L 345.67 425.72 L 342.96 425.26 L 340.37 424.34 L 337.96 422.97 L 335.71 421.09 L 335.71 421.09 L 333.83 418.84 L 332.46 416.43 L 331.54 413.84 L 331.08 411.13 L 331.08 408.43 L 331.54 405.72 L 332.46 403.13 L 333.83 400.72 L 335.71 398.47 L 439.79 294.38 L 442.05 292.51 L 444.46 291.13 L 447.05 290.21 L 449.76 289.75 L 452.45 289.75 L 455.16 290.21 L 457.75 291.13 L 460.16 292.51 L 462.42 294.38 L 462.42 294.38 L 464.29 296.64 L 465.67 299.05 L 466.59 301.64 L 467.05 304.35 L 467.05 307.04 L 466.59 309.75 L 465.67 312.34 L 464.29 314.75 L 462.42 317.01 Z" fill="#000000" fill-rule="evenodd" group-id="3" id="矩形备份-3" node-id="36" stroke-linecap="butt" stroke-width="0.99999994" target-height="135.97144" target-width="135.9715" target-x="331.07697" target-y="289.75153"></path></g><g node-id="100"><path d="M 583.93 294.38 L 688.02 398.47 L 689.89 400.72 L 691.27 403.13 L 692.19 405.72 L 692.65 408.43 L 692.65 411.13 L 692.19 413.84 L 691.27 416.43 L 689.89 418.84 L 688.02 421.09 L 688.02 421.09 L 685.76 422.97 L 683.35 424.34 L 680.76 425.26 L 678.05 425.72 L 675.36 425.72 L 672.65 425.26 L 670.06 424.34 L 667.65 422.97 L 665.39 421.09 L 561.31 317.01 L 559.43 314.75 L 558.06 312.34 L 557.14 309.75 L 556.68 307.04 L 556.68 304.35 L 557.14 301.64 L 558.06 299.05 L 559.43 296.64 L 561.31 294.38 L 561.31 294.38 L 563.56 292.51 L 565.97 291.13 L 568.56 290.21 L 571.27 289.75 L 573.97 289.75 L 576.68 290.21 L 579.27 291.13 L 581.68 292.51 L 583.93 294.38 Z" fill="#000000" fill-rule="evenodd" group-id="4" id="矩形备份-3" node-id="38" stroke-linecap="butt" stroke-width="0.99999994" target-height="135.97147" target-width="135.97144" target-x="556.677" target-y="289.75153"></path><path d="M 688.02 317.01 L 583.93 421.09 L 581.68 422.97 L 579.27 424.34 L 576.68 425.26 L 573.97 425.72 L 571.27 425.72 L 568.56 425.26 L 565.97 424.34 L 563.56 422.97 L 561.31 421.09 L 561.31 421.09 L 559.43 418.84 L 558.06 416.43 L 557.14 413.84 L 556.68 411.13 L 556.68 408.43 L 557.14 405.72 L 558.06 403.13 L 559.43 400.72 L 561.31 398.47 L 665.39 294.38 L 667.65 292.51 L 670.06 291.13 L 672.65 290.21 L 675.36 289.75 L 678.05 289.75 L 680.76 290.21 L 683.35 291.13 L 685.76 292.51 L 688.02 294.38 L 688.02 294.38 L 689.89 296.64 L 691.27 299.05 L 692.19 301.64 L 692.65 304.35 L 692.65 307.04 L 692.19 309.75 L 691.27 312.34 L 689.89 314.75 L 688.02 317.01 Z" fill="#000000" fill-rule="evenodd" group-id="4" id="矩形备份-3" node-id="39" stroke-linecap="butt" stroke-width="0.99999994" target-height="135.97144" target-width="135.9715" target-x="556.67694" target-y="289.75153"></path></g></svg>