<svg height="1024" legacy-metrics="false" node-id="1" sillyvg="true" template-height="1024" template-width="1024" version="1.1" viewBox="0 0 1024 1024" width="1024" xmlns="http://www.w3.org/2000/svg" xmlns:xlink="http://www.w3.org/1999/xlink"><defs node-id="43"><radialGradient cx="0.50000006" cy="0.175" fx="0.50000006" fy="0.175" gradientUnits="objectBoundingBox" id="radialGradient-1" node-id="5" r="0.82500005"><stop offset="0" stop-color="#ffdd70"></stop><stop offset="1" stop-color="#f1823a"></stop></radialGradient><filter height="1.201" id="filter-3" node-id="9" width="1.201" x="-0.1" y="-0.1"><feGaussianBlur color-interpolation-filters="linearRGB" in="SourceAlpha" result="shadowBlurInner1" stdDeviation="69 69"></feGaussianBlur><feOffset color-interpolation-filters="linearRGB" dx="0" dy="0" in="shadowBlurInner1" result="shadowOffsetInner1"></feOffset><feComposite color-interpolation-filters="linearRGB" in="shadowOffsetInner1" in2="SourceAlpha" k1="0" k2="-1" k3="1" k4="0" operator="arithmetic" result="shadowInnerInner1"></feComposite><feColorMatrix color-interpolation-filters="linearRGB" in="shadowInnerInner1" result="result4" type="matrix" values="0 0 0 0 1 0 0 0 0 0.937254902 0 0 0 0 0.380392157 0 0 0 0.7 0"></feColorMatrix></filter><filter height="1.42" id="filter-7" node-id="18" width="1.111" x="-0.055" y="-0.266"><feOffset color-interpolation-filters="linearRGB" dx="0" dy="-6" in="SourceAlpha" result="shadowOffsetOuter1"></feOffset><feGaussianBlur color-interpolation-filters="linearRGB" in="shadowOffsetOuter1" result="shadowBlurOuter1" stdDeviation="6.5 6.5"></feGaussianBlur><feColorMatrix color-interpolation-filters="linearRGB" in="shadowBlurOuter1" result="result3" type="matrix" values="0 0 0 0 0.870588235 0 0 0 0 0.384313725 0 0 0 0 0.105882353 0 0 0 0.3 0"></feColorMatrix></filter><linearGradient gradientUnits="objectBoundingBox" id="linearGradient-4" node-id="14" x1="0.5" x2="0.5" y1="1" y2="-0.026738115"><stop offset="0" stop-color="#d44c4c"></stop><stop offset="1" stop-color="#6d2347"></stop></linearGradient><clipPath id="mask-6" node-id="33"><path d="M 53.60 0.00 L 352.80 0.00 C 382.40 -0.00 406.40 24.00 406.40 53.60 L 406.40 53.60 C 406.40 83.20 382.40 107.20 352.80 107.20 L 53.60 107.20 C 24.00 107.20 0.00 83.20 0.00 53.60 L 0.00 53.60 C -0.00 24.00 24.00 0.00 53.60 0.00 Z" fill="#000000" fill-rule="evenodd" node-id="76" stroke="none" target-height="107.2" target-width="406.4" target-x="0" target-y="0"></path></clipPath><clipPath id="mask-6_3" node-id="33"><path d="M 362.40 624.00 L 661.60 624.00 L 667.17 624.30 L 672.48 625.10 L 677.57 626.41 L 682.46 628.21 L 687.18 630.49 L 691.58 633.16 L 695.68 636.23 L 699.50 639.70 L 702.97 643.52 L 706.04 647.62 L 708.71 652.02 L 710.99 656.74 L 712.79 661.63 L 714.10 666.72 L 714.90 672.03 L 715.20 677.60 L 715.20 677.60 L 714.90 683.17 L 714.10 688.48 L 712.79 693.57 L 710.99 698.46 L 708.71 703.18 L 706.04 707.58 L 702.97 711.68 L 699.50 715.50 L 695.68 718.97 L 691.58 722.04 L 687.18 724.71 L 682.46 726.99 L 677.57 728.79 L 672.48 730.10 L 667.17 730.90 L 661.60 731.20 L 362.40 731.20 L 356.83 730.90 L 351.52 730.10 L 346.43 728.79 L 341.54 726.99 L 336.82 724.71 L 332.42 722.04 L 328.32 718.97 L 324.50 715.50 L 321.03 711.68 L 317.96 707.58 L 315.29 703.18 L 313.01 698.46 L 311.21 693.57 L 309.90 688.48 L 309.10 683.17 L 308.80 677.60 L 308.80 677.60 L 309.10 672.03 L 309.90 666.72 L 311.21 661.63 L 313.01 656.74 L 315.29 652.02 L 317.96 647.62 L 321.03 643.52 L 324.50 639.70 L 328.32 636.23 L 332.42 633.16 L 336.82 630.49 L 341.54 628.21 L 346.43 626.41 L 351.52 625.10 L 356.83 624.30 L 362.40 624.00 Z" fill="#000000" fill-rule="evenodd" node-id="76" stroke-linecap="butt" stroke-width="1" target-height="107.20001" target-width="406.39996" target-x="308.8" target-y="624"></path></clipPath><clipPath id="mask-6_4" node-id="33"><path d="M 362.40 624.00 L 661.60 624.00 L 667.17 624.30 L 672.48 625.10 L 677.57 626.41 L 682.46 628.21 L 687.18 630.49 L 691.58 633.16 L 695.68 636.23 L 699.50 639.70 L 702.97 643.52 L 706.04 647.62 L 708.71 652.02 L 710.99 656.74 L 712.79 661.63 L 714.10 666.72 L 714.90 672.03 L 715.20 677.60 L 715.20 677.60 L 714.90 683.17 L 714.10 688.48 L 712.79 693.57 L 710.99 698.46 L 708.71 703.18 L 706.04 707.58 L 702.97 711.68 L 699.50 715.50 L 695.68 718.97 L 691.58 722.04 L 687.18 724.71 L 682.46 726.99 L 677.57 728.79 L 672.48 730.10 L 667.17 730.90 L 661.60 731.20 L 362.40 731.20 L 356.83 730.90 L 351.52 730.10 L 346.43 728.79 L 341.54 726.99 L 336.82 724.71 L 332.42 722.04 L 328.32 718.97 L 324.50 715.50 L 321.03 711.68 L 317.96 707.58 L 315.29 703.18 L 313.01 698.46 L 311.21 693.57 L 309.90 688.48 L 309.10 683.17 L 308.80 677.60 L 308.80 677.60 L 309.10 672.03 L 309.90 666.72 L 311.21 661.63 L 313.01 656.74 L 315.29 652.02 L 317.96 647.62 L 321.03 643.52 L 324.50 639.70 L 328.32 636.23 L 332.42 633.16 L 336.82 630.49 L 341.54 628.21 L 346.43 626.41 L 351.52 625.10 L 356.83 624.30 L 362.40 624.00 Z" fill="#000000" fill-rule="evenodd" node-id="76" stroke-linecap="butt" stroke-width="1" target-height="107.20001" target-width="406.39996" target-x="308.8" target-y="624"></path></clipPath></defs><path d="M 0.00 0.00 L 1024.00 0.00 L 1024.00 1024.00 L 0.00 1024.00 Z" fill="#ffffff" fill-rule="evenodd" node-id="81" stroke="none" target-height="1024" target-width="1024" target-x="0" target-y="0"></path><g node-id="115"><path d="M 512.01 168.00 C 305.59 168.00 168.00 305.59 168.00 512.01 C 168.00 718.41 288.40 856.00 512.01 856.00 C 718.41 856.00 856.00 718.41 856.00 512.01 C 856.00 305.59 718.41 168.00 512.01 168.00 Z" fill="#fecc4a" fill-rule="evenodd" group-id="1" node-id="84" stroke="none" target-height="688" target-width="688" target-x="168" target-y="168"></path><path d="M 512.01 168.00 C 305.59 168.00 168.00 305.59 168.00 512.01 C 168.00 718.41 288.40 856.00 512.01 856.00 C 718.41 856.00 856.00 718.41 856.00 512.01 C 856.00 305.59 718.41 168.00 512.01 168.00 Z" fill="url(#radialGradient-1)" fill-rule="evenodd" group-id="1" node-id="86" stroke="none" target-height="688" target-width="688" target-x="168" target-y="168"></path><g node-id="117"><path d="M 512.01 168.00 C 305.59 168.00 168.00 305.59 168.00 512.01 C 168.00 718.41 288.40 856.00 512.01 856.00 C 718.41 856.00 856.00 718.41 856.00 512.01 C 856.00 305.59 718.41 168.00 512.01 168.00 Z" fill="#000000" fill-rule="evenodd" filter="url(#filter-3)" group-id="1,3" node-id="90" stroke="none" target-height="688" target-width="688" target-x="168" target-y="168"></path></g></g><path d="M 484.80 401.60 C 484.80 450.20 445.40 489.60 396.80 489.60 C 348.20 489.60 308.80 450.20 308.80 401.60 C 308.80 353.00 348.20 313.60 396.80 313.60 C 445.40 313.60 484.80 353.00 484.80 401.60 Z" fill="#ffffff" fill-rule="evenodd" id="椭圆形" node-id="28" stroke="none" target-height="176" target-width="176" target-x="308.8" target-y="313.6"></path><path d="M 436.80 401.60 C 436.80 423.69 418.89 441.60 396.80 441.60 C 374.71 441.60 356.80 423.69 356.80 401.60 C 356.80 379.51 374.71 361.60 396.80 361.60 C 418.89 361.60 436.80 379.51 436.80 401.60 Z" fill="#000000" fill-rule="evenodd" id="椭圆形" node-id="29" stroke="none" target-height="80" target-width="80" target-x="356.8" target-y="361.6"></path><path d="M 715.20 401.60 C 715.20 450.20 675.80 489.60 627.20 489.60 C 578.60 489.60 539.20 450.20 539.20 401.60 C 539.20 353.00 578.60 313.60 627.20 313.60 C 675.80 313.60 715.20 353.00 715.20 401.60 Z" fill="#ffffff" fill-rule="evenodd" id="椭圆形备份" node-id="30" stroke="none" target-height="176" target-width="176" target-x="539.2" target-y="313.6"></path><path d="M 667.20 401.60 C 667.20 423.69 649.29 441.60 627.20 441.60 C 605.11 441.60 587.20 423.69 587.20 401.60 C 587.20 379.51 605.11 361.60 627.20 361.60 C 649.29 361.60 667.20 379.51 667.20 401.60 Z" fill="#000000" fill-rule="evenodd" id="椭圆形备份-2" node-id="31" stroke="none" target-height="80" target-width="80" target-x="587.2" target-y="361.6"></path><path d="M 362.40 624.00 L 661.60 624.00 L 667.17 624.30 L 672.48 625.10 L 677.57 626.41 L 682.46 628.21 L 687.18 630.49 L 691.58 633.16 L 695.68 636.23 L 699.50 639.70 L 702.97 643.52 L 706.04 647.62 L 708.71 652.02 L 710.99 656.74 L 712.79 661.63 L 714.10 666.72 L 714.90 672.03 L 715.20 677.60 L 715.20 677.60 L 714.90 683.17 L 714.10 688.48 L 712.79 693.57 L 710.99 698.46 L 708.71 703.18 L 706.04 707.58 L 702.97 711.68 L 699.50 715.50 L 695.68 718.97 L 691.58 722.04 L 687.18 724.71 L 682.46 726.99 L 677.57 728.79 L 672.48 730.10 L 667.17 730.90 L 661.60 731.20 L 362.40 731.20 L 356.83 730.90 L 351.52 730.10 L 346.43 728.79 L 341.54 726.99 L 336.82 724.71 L 332.42 722.04 L 328.32 718.97 L 324.50 715.50 L 321.03 711.68 L 317.96 707.58 L 315.29 703.18 L 313.01 698.46 L 311.21 693.57 L 309.90 688.48 L 309.10 683.17 L 308.80 677.60 L 308.80 677.60 L 309.10 672.03 L 309.90 666.72 L 311.21 661.63 L 313.01 656.74 L 315.29 652.02 L 317.96 647.62 L 321.03 643.52 L 324.50 639.70 L 328.32 636.23 L 332.42 633.16 L 336.82 630.49 L 341.54 628.21 L 346.43 626.41 L 351.52 625.10 L 356.83 624.30 L 362.40 624.00 Z" fill="#000000" fill-rule="evenodd" filter="url(#filter-7)" group-id="2,4,7" node-id="102" stroke-linecap="butt" stroke-width="1" target-height="107.20001" target-width="406.39996" target-x="308.8" target-y="624"></path><path d="M 362.40 624.00 L 661.60 624.00 L 667.17 624.30 L 672.48 625.10 L 677.57 626.41 L 682.46 628.21 L 687.18 630.49 L 691.58 633.16 L 695.68 636.23 L 699.50 639.70 L 702.97 643.52 L 706.04 647.62 L 708.71 652.02 L 710.99 656.74 L 712.79 661.63 L 714.10 666.72 L 714.90 672.03 L 715.20 677.60 L 715.20 677.60 L 714.90 683.17 L 714.10 688.48 L 712.79 693.57 L 710.99 698.46 L 708.71 703.18 L 706.04 707.58 L 702.97 711.68 L 699.50 715.50 L 695.68 718.97 L 691.58 722.04 L 687.18 724.71 L 682.46 726.99 L 677.57 728.79 L 672.48 730.10 L 667.17 730.90 L 661.60 731.20 L 362.40 731.20 L 356.83 730.90 L 351.52 730.10 L 346.43 728.79 L 341.54 726.99 L 336.82 724.71 L 332.42 722.04 L 328.32 718.97 L 324.50 715.50 L 321.03 711.68 L 317.96 707.58 L 315.29 703.18 L 313.01 698.46 L 311.21 693.57 L 309.90 688.48 L 309.10 683.17 L 308.80 677.60 L 308.80 677.60 L 309.10 672.03 L 309.90 666.72 L 311.21 661.63 L 313.01 656.74 L 315.29 652.02 L 317.96 647.62 L 321.03 643.52 L 324.50 639.70 L 328.32 636.23 L 332.42 633.16 L 336.82 630.49 L 341.54 628.21 L 346.43 626.41 L 351.52 625.10 L 356.83 624.30 L 362.40 624.00 Z" fill="url(#linearGradient-4)" fill-rule="evenodd" group-id="2,4" node-id="105" stroke-linecap="butt" stroke-width="1" target-height="107.20001" target-width="406.39996" target-x="308.8" target-y="624"></path><g clip-path="url(#mask-6_3)" group-id="2,5" node-id="108"><path d="M 447.20 558.40 L 576.80 558.40 L 582.37 558.70 L 587.68 559.50 L 592.77 560.81 L 597.66 562.61 L 602.38 564.89 L 606.78 567.56 L 610.88 570.63 L 614.70 574.10 L 618.17 577.92 L 621.24 582.02 L 623.91 586.42 L 626.19 591.14 L 627.99 596.03 L 629.30 601.12 L 630.10 606.43 L 630.40 612.00 L 630.10 617.57 L 629.30 622.88 L 627.99 627.97 L 626.19 632.86 L 623.91 637.58 L 621.24 641.98 L 618.17 646.08 L 614.70 649.90 L 610.88 653.37 L 606.78 656.44 L 602.38 659.11 L 597.66 661.39 L 592.77 663.19 L 587.68 664.50 L 582.37 665.30 L 576.80 665.60 L 447.20 665.60 L 441.63 665.30 L 436.32 664.50 L 431.23 663.19 L 426.34 661.39 L 421.62 659.11 L 417.22 656.44 L 413.12 653.37 L 409.30 649.90 L 405.83 646.08 L 402.76 641.98 L 400.09 637.58 L 397.81 632.86 L 396.01 627.97 L 394.70 622.88 L 393.90 617.57 L 393.60 612.00 L 393.90 606.43 L 394.70 601.12 L 396.01 596.03 L 397.81 591.14 L 400.09 586.42 L 402.76 582.02 L 405.83 577.92 L 409.30 574.10 L 413.12 570.63 L 417.22 567.56 L 421.62 564.89 L 426.34 562.61 L 431.23 560.81 L 436.32 559.50 L 441.63 558.70 L 447.20 558.40 Z" fill="#ffffff" fill-rule="evenodd" group-id="2,5" node-id="110" stroke-linecap="butt" stroke-width="1" target-height="107.19995" target-width="236.80005" target-x="393.59998" target-y="558.4"></path></g><g clip-path="url(#mask-6_4)" group-id="2,6" node-id="113"><path d="M 485.60 708.80 L 538.40 708.80 L 543.97 709.10 L 549.28 709.90 L 554.37 711.21 L 559.26 713.01 L 563.98 715.29 L 568.38 717.96 L 572.48 721.03 L 576.30 724.50 L 579.77 728.32 L 582.84 732.42 L 585.51 736.82 L 587.79 741.54 L 589.59 746.43 L 590.90 751.52 L 591.70 756.83 L 592.00 762.40 L 591.70 767.97 L 590.90 773.28 L 589.59 778.37 L 587.79 783.26 L 585.51 787.98 L 582.84 792.38 L 579.77 796.48 L 576.30 800.30 L 572.48 803.77 L 568.38 806.84 L 563.98 809.51 L 559.26 811.79 L 554.37 813.59 L 549.28 814.90 L 543.97 815.70 L 538.40 816.00 L 485.60 816.00 L 480.03 815.70 L 474.72 814.90 L 469.63 813.59 L 464.74 811.79 L 460.02 809.51 L 455.62 806.84 L 451.52 803.77 L 447.70 800.30 L 444.23 796.48 L 441.16 792.38 L 438.49 787.98 L 436.21 783.26 L 434.41 778.37 L 433.10 773.28 L 432.30 767.97 L 432.00 762.40 L 432.30 756.83 L 433.10 751.52 L 434.41 746.43 L 436.21 741.54 L 438.49 736.82 L 441.16 732.42 L 444.23 728.32 L 447.70 724.50 L 451.52 721.03 L 455.62 717.96 L 460.02 715.29 L 464.74 713.01 L 469.63 711.21 L 474.72 709.90 L 480.03 709.10 L 485.60 708.80 Z" fill="#ffffff" fill-rule="evenodd" group-id="2,6" id="矩形备份-2" node-id="39" stroke-linecap="butt" stroke-width="1" target-height="107.20001" target-width="160" target-x="432" target-y="708.8"></path></g><path d="M 808.36 263.07 L 794.59 344.64" fill="none" id="路径-3" node-id="40" stroke="#000000" stroke-linecap="round" stroke-width="32" target-height="81.57074" target-width="13.763184" target-x="794.5926" target-y="263.0666"></path><path d="M 894.10 263.07 L 863.15 427.47" fill="none" id="路径-3备份" node-id="41" stroke="#000000" stroke-linecap="round" stroke-width="32" target-height="164.40027" target-width="30.952759" target-x="863.15076" target-y="263.0666"></path></svg>