<?xml version="1.0" standalone="no"?><!DOCTYPE svg PUBLIC "-//W3C//DTD SVG 1.1//EN" "http://www.w3.org/Graphics/SVG/1.1/DTD/svg11.dtd"><svg height="1024" legacy-metrics="false" node-id="1" sillyvg="true" template-height="1024" template-width="1024" version="1.1" viewBox="0 0 1024 1024" width="1024" xmlns="http://www.w3.org/2000/svg" xmlns:xlink="http://www.w3.org/1999/xlink"><defs node-id="50"><radialGradient cx="0.50000006" cy="0.175" fx="0.50000006" fy="0.175" gradientUnits="objectBoundingBox" id="radialGradient-1" node-id="5" r="0.82500005"><stop offset="0" stop-color="#ffdd70"></stop><stop offset="1" stop-color="#f1823a"></stop></radialGradient><filter height="1.21" id="filter-6" node-id="13" width="1.089" x="-0.044" y="-0.123"><feOffset color-interpolation-filters="linearRGB" dx="0" dy="-6" in="SourceAlpha" result="shadowOffsetOuter1"></feOffset><feGaussianBlur color-interpolation-filters="linearRGB" in="shadowOffsetOuter1" result="shadowBlurOuter1" stdDeviation="6.5 6.5"></feGaussianBlur><feColorMatrix color-interpolation-filters="linearRGB" in="shadowBlurOuter1" result="result3" type="matrix" values="0 0 0 0 0.870588235 0 0 0 0 0.384313725 0 0 0 0 0.105882353 0 0 0 0.3 0"></feColorMatrix></filter><linearGradient gradientUnits="objectBoundingBox" id="linearGradient-3" node-id="9" x1="0.49999997" x2="0.49999997" y1="0.99999994" y2="-0.026738113"><stop offset="0" stop-color="#d44c4c"></stop><stop offset="1" stop-color="#6d2347"></stop></linearGradient><clipPath id="mask-5" node-id="39"><path d="M 400.45 655.76 L 408.62 668.71 L 416.87 680.69 L 425.22 691.75 L 433.65 701.93 L 442.17 711.29 L 450.77 719.85 L 459.46 727.66 L 468.25 734.75 L 477.13 741.15 L 486.13 746.88 L 495.24 751.98 L 504.48 756.47 L 513.87 760.35 L 523.42 763.64 L 533.14 766.34 L 543.06 768.47 L 553.19 770.02 L 563.55 770.99 L 574.17 771.36 L 585.06 771.12 L 596.25 770.27 L 607.75 768.77 L 619.60 766.60 L 630.39 764.06 L 640.59 761.07 L 650.23 757.66 L 659.34 753.83 L 667.96 749.59 L 676.10 744.95 L 683.80 739.91 L 691.07 734.45 L 697.93 728.59 L 704.40 722.29 L 710.49 715.56 L 716.21 708.37 L 721.56 700.70 L 726.55 692.53 L 731.17 683.83 L 735.42 674.57 L 739.29 664.72 L 742.77 654.25 L 745.85 643.12 L 748.50 631.29 L 750.70 618.72 L 752.44 605.37 L 753.68 591.19 L 754.39 576.14 L 754.55 560.18 L 754.55 560.18 L 754.26 557.26 L 753.51 554.59 L 752.30 552.12 L 750.70 549.89 L 748.78 548.00 L 746.52 546.42 L 744.03 545.26 L 741.35 544.55 L 738.43 544.30 L 735.94 544.52 L 733.55 545.11 L 731.25 546.07 L 703.82 559.85 L 678.84 571.82 L 656.17 582.13 L 635.64 590.90 L 617.09 598.27 L 600.40 604.36 L 585.41 609.29 L 571.99 613.17 L 560.83 615.89 L 547.68 618.56 L 532.31 621.14 L 514.49 623.60 L 493.96 625.90 L 470.46 628.02 L 443.71 629.90 L 413.42 631.50 L 413.42 631.50 L 410.52 631.91 L 407.88 632.76 L 405.45 634.05 L 403.28 635.74 L 401.46 637.73 L 399.98 640.05 L 398.91 642.57 L 398.30 645.28 L 398.16 648.21 L 398.50 650.86 L 399.26 653.36 L 400.45 655.76 Z" fill="#000000" fill-rule="evenodd" node-id="73" stroke-linecap="butt" stroke-width="0.99999994" target-height="227.05267" target-width="356.39117" target-x="398.16113" target-y="544.30475"></path></clipPath><radialGradient cx="0.58092046" cy="0.09818472" fx="0.58092046" fy="0.09818472" gradientTransform="matrix(0.10535346970876266 0.9944224501254416 -1.142318724558308 0.12129088046062743 0.631876626347543 -0.49140383482489836)" gradientUnits="objectBoundingBox" id="radialGradient-7" node-id="17" r="0.9068734"><stop offset="0" stop-color="#ff6726"></stop><stop offset="0.8282" stop-color="#d4172d"></stop><stop offset="1" stop-color="#f53b50"></stop></radialGradient><filter height="1.426" id="filter-9" node-id="22" width="1.426" x="-0.213" y="-0.213"><feGaussianBlur color-interpolation-filters="linearRGB" in="SourceAlpha" result="shadowBlurInner1" stdDeviation="38.5 38.5"></feGaussianBlur><feOffset color-interpolation-filters="linearRGB" dx="0" dy="0" in="shadowBlurInner1" result="shadowOffsetInner1"></feOffset><feComposite color-interpolation-filters="linearRGB" in="shadowOffsetInner1" in2="SourceAlpha" k1="0" k2="-1" k3="1" k4="0" operator="arithmetic" result="shadowInnerInner1"></feComposite><feColorMatrix color-interpolation-filters="linearRGB" in="shadowInnerInner1" result="result4" type="matrix" values="0 0 0 0 0.984313725 0 0 0 0 1 0 0 0 0 0.207843137 0 0 0 0.5 0"></feColorMatrix></filter><filter height="1.549" id="filter-10" node-id="27" width="2.429" x="-0.714" y="-0.275"><feGaussianBlur color-interpolation-filters="linearRGB" in="SourceGraphic" result="result1" stdDeviation="9.6 9.6"></feGaussianBlur></filter></defs><path d="M 0.00 0.00 L 1024.00 0.00 L 1024.00 1024.00 L 0.00 1024.00 Z" fill="#ffffff" fill-rule="evenodd" node-id="100" stroke="none" target-height="1024" target-width="1024" target-x="0" target-y="0"></path><g node-id="135"><path d="M 512.01 168.00 C 305.59 168.00 168.00 305.59 168.00 512.01 C 168.00 718.41 288.40 856.00 512.01 856.00 C 718.41 856.00 856.00 718.41 856.00 512.01 C 856.00 305.59 718.41 168.00 512.01 168.00 Z" fill="#fecc4a" fill-rule="evenodd" group-id="1" node-id="103" stroke="none" target-height="688" target-width="688" target-x="168" target-y="168"></path><path d="M 512.01 168.00 C 305.59 168.00 168.00 305.59 168.00 512.01 C 168.00 718.41 288.40 856.00 512.01 856.00 C 718.41 856.00 856.00 718.41 856.00 512.01 C 856.00 305.59 718.41 168.00 512.01 168.00 Z" fill="url(#radialGradient-1)" fill-rule="evenodd" group-id="1" node-id="105" stroke="none" target-height="688" target-width="688" target-x="168" target-y="168"></path></g><path d="M 452.80 467.20 C 452.80 511.38 416.98 547.20 372.80 547.20 C 328.62 547.20 292.80 511.38 292.80 467.20 C 292.80 423.02 328.62 387.20 372.80 387.20 C 416.98 387.20 452.80 423.02 452.80 467.20 Z" fill="#ffffff" fill-rule="evenodd" id="椭圆形" node-id="34" stroke="none" target-height="160" target-width="160" target-x="292.8" target-y="387.2"></path><path d="M 747.20 369.60 C 747.20 435.87 693.47 489.60 627.20 489.60 C 560.93 489.60 507.20 435.87 507.20 369.60 C 507.20 303.33 560.93 249.60 627.20 249.60 C 693.47 249.60 747.20 303.33 747.20 369.60 Z" fill="#ffffff" fill-rule="evenodd" id="椭圆形备份" node-id="35" stroke="none" target-height="240" target-width="240" target-x="507.2" target-y="249.6"></path><path d="M 659.20 353.60 C 659.20 371.27 644.87 385.60 627.20 385.60 C 609.53 385.60 595.20 371.27 595.20 353.60 C 595.20 335.93 609.53 321.60 627.20 321.60 C 644.87 321.60 659.20 335.93 659.20 353.60 Z" fill="#000000" fill-rule="evenodd" id="椭圆形备份-2" node-id="36" stroke="none" target-height="64" target-width="64" target-x="595.2" target-y="321.6"></path><path d="M 404.80 488.00 C 404.80 505.67 390.47 520.00 372.80 520.00 C 355.13 520.00 340.80 505.67 340.80 488.00 C 340.80 470.33 355.13 456.00 372.80 456.00 C 390.47 456.00 404.80 470.33 404.80 488.00 Z" fill="#000000" fill-rule="evenodd" id="椭圆形备份-3" node-id="37" stroke="none" target-height="64" target-width="64" target-x="340.8" target-y="456"></path><path d="M 385.38 661.93 L 393.55 674.88 L 401.81 686.86 L 410.15 697.92 L 418.59 708.10 L 427.10 717.46 L 435.70 726.02 L 444.40 733.83 L 453.18 740.92 L 462.06 747.32 L 471.06 753.06 L 480.17 758.16 L 489.42 762.64 L 498.80 766.52 L 508.35 769.81 L 518.07 772.51 L 527.99 774.64 L 538.12 776.19 L 548.48 777.16 L 559.10 777.53 L 569.99 777.29 L 581.18 776.44 L 592.69 774.94 L 604.54 772.77 L 615.32 770.23 L 625.52 767.24 L 635.16 763.83 L 644.27 760.00 L 652.89 755.77 L 661.03 751.12 L 668.73 746.08 L 676.00 740.63 L 682.86 734.76 L 689.33 728.46 L 695.42 721.73 L 701.14 714.54 L 706.49 706.87 L 711.48 698.70 L 716.10 690.00 L 720.35 680.74 L 724.23 670.89 L 727.71 660.42 L 730.78 649.29 L 733.43 637.46 L 735.63 624.89 L 737.37 611.54 L 738.61 597.36 L 739.33 582.31 L 739.49 566.35 L 739.49 566.35 L 739.19 563.43 L 738.44 560.76 L 737.24 558.29 L 735.63 556.06 L 733.71 554.17 L 731.45 552.60 L 728.96 551.43 L 726.28 550.72 L 723.36 550.48 L 720.87 550.69 L 718.49 551.28 L 716.18 552.24 L 688.75 566.02 L 663.78 577.99 L 641.10 588.30 L 620.57 597.07 L 602.03 604.44 L 585.33 610.53 L 570.34 615.46 L 556.92 619.34 L 545.76 622.07 L 532.61 624.73 L 517.25 627.31 L 499.43 629.77 L 478.90 632.08 L 455.39 634.19 L 428.64 636.07 L 398.35 637.67 L 398.35 637.67 L 395.45 638.08 L 392.81 638.93 L 390.39 640.22 L 388.21 641.91 L 386.40 643.90 L 384.91 646.22 L 383.84 648.75 L 383.23 651.45 L 383.09 654.38 L 383.44 657.03 L 384.20 659.53 L 385.38 661.93 Z" fill="#000000" fill-rule="evenodd" filter="url(#filter-6)" group-id="2,5,8" node-id="116" stroke-linecap="butt" stroke-width="0.99999994" target-height="227.05273" target-width="356.39117" target-x="383.09412" target-y="550.4756"></path><path d="M 385.38 661.93 L 393.55 674.88 L 401.81 686.86 L 410.15 697.92 L 418.59 708.10 L 427.10 717.46 L 435.70 726.02 L 444.40 733.83 L 453.18 740.92 L 462.06 747.32 L 471.06 753.06 L 480.17 758.16 L 489.42 762.64 L 498.80 766.52 L 508.35 769.81 L 518.07 772.51 L 527.99 774.64 L 538.12 776.19 L 548.48 777.16 L 559.10 777.53 L 569.99 777.29 L 581.18 776.44 L 592.69 774.94 L 604.54 772.77 L 615.32 770.23 L 625.52 767.24 L 635.16 763.83 L 644.27 760.00 L 652.89 755.77 L 661.03 751.12 L 668.73 746.08 L 676.00 740.63 L 682.86 734.76 L 689.33 728.46 L 695.42 721.73 L 701.14 714.54 L 706.49 706.87 L 711.48 698.70 L 716.10 690.00 L 720.35 680.74 L 724.23 670.89 L 727.71 660.42 L 730.78 649.29 L 733.43 637.46 L 735.63 624.89 L 737.37 611.54 L 738.61 597.36 L 739.33 582.31 L 739.49 566.35 L 739.49 566.35 L 739.19 563.43 L 738.44 560.76 L 737.24 558.29 L 735.63 556.06 L 733.71 554.17 L 731.45 552.60 L 728.96 551.43 L 726.28 550.72 L 723.36 550.48 L 720.87 550.69 L 718.49 551.28 L 716.18 552.24 L 688.75 566.02 L 663.78 577.99 L 641.10 588.30 L 620.57 597.07 L 602.03 604.44 L 585.33 610.53 L 570.34 615.46 L 556.92 619.34 L 545.76 622.07 L 532.61 624.73 L 517.25 627.31 L 499.43 629.77 L 478.90 632.08 L 455.39 634.19 L 428.64 636.07 L 398.35 637.67 L 398.35 637.67 L 395.45 638.08 L 392.81 638.93 L 390.39 640.22 L 388.21 641.91 L 386.40 643.90 L 384.91 646.22 L 383.84 648.75 L 383.23 651.45 L 383.09 654.38 L 383.44 657.03 L 384.20 659.53 L 385.38 661.93 Z" fill="url(#linearGradient-3)" fill-rule="evenodd" group-id="2,5" node-id="119" stroke-linecap="butt" stroke-width="0.99999994" target-height="227.05273" target-width="356.39117" target-x="383.09412" target-y="550.4756"></path><g clip-path="url(#mask-5)" group-id="2,6" node-id="122"><path d="M 440.04 615.38 L 668.78 554.09 L 674.37 574.96 L 675.52 580.41 L 676.11 585.75 L 676.17 591.00 L 675.70 596.20 L 674.71 601.35 L 673.27 606.29 L 671.38 611.04 L 669.01 615.63 L 666.22 619.97 L 663.05 623.99 L 659.50 627.71 L 655.53 631.13 L 651.26 634.14 L 646.69 636.72 L 641.76 638.87 L 636.46 640.60 L 511.28 674.15 L 505.83 675.30 L 500.49 675.89 L 495.23 675.95 L 490.04 675.48 L 484.89 674.49 L 479.95 673.05 L 475.19 671.16 L 470.61 668.79 L 466.27 666.00 L 462.25 662.83 L 458.53 659.28 L 455.10 655.31 L 452.09 651.04 L 449.52 646.47 L 447.36 641.54 L 445.63 636.24 L 440.04 615.38 L 440.04 615.38 Z" fill="#ffffff" fill-rule="evenodd" group-id="2,6" node-id="124" stroke-linecap="butt" stroke-width="0.99999994" target-height="121.8587" target-width="236.1272" target-x="440.04388" target-y="554.0918"></path></g><path d="M 632.00 641.80 L 632.00 750.40 C 632.00 790.16 599.76 822.40 560.00 822.40 L 523.20 822.40 C 483.44 822.40 451.20 790.16 451.20 750.40 L 451.20 649.56 C 463.11 669.83 487.47 680.53 511.28 674.15 L 511.28 674.15 L 632.00 641.80 Z" fill="url(#radialGradient-7)" fill-rule="evenodd" group-id="3" node-id="129" stroke="none" target-height="180.60101" target-width="180.80136" target-x="451.19864" target-y="641.799"></path><path d="M 632.00 641.80 L 632.00 750.40 C 632.00 790.16 599.76 822.40 560.00 822.40 L 523.20 822.40 C 483.44 822.40 451.20 790.16 451.20 750.40 L 451.20 649.56 C 463.11 669.83 487.47 680.53 511.28 674.15 L 511.28 674.15 L 632.00 641.80 Z" fill="#000000" fill-rule="evenodd" filter="url(#filter-9)" group-id="3,7" node-id="133" stroke="none" target-height="180.60101" target-width="180.80136" target-x="451.19864" target-y="641.799"></path><path d="M 561.18 660.77 C 560.75 678.32 560.03 703.33 559.94 738.71 C 559.84 776.39 520.99 772.93 520.89 738.70 C 520.88 733.61 520.87 728.14 520.87 722.43 L 520.87 712.43 C 520.87 705.64 520.88 698.63 520.89 691.60 L 520.89 687.64 C 520.89 687.20 520.90 686.76 520.90 686.32 L 520.90 683.68 C 520.90 679.61 520.91 675.56 520.92 671.56 Z" fill="#c92626" fill-opacity="0.6" fill-rule="evenodd" filter="url(#filter-10)" group-id="4" id="形状结合" node-id="48" stroke="none" target-height="104.90045" target-width="40.308594" target-x="520.8696" target-y="660.7726"></path></svg>