<?xml version="1.0" standalone="no"?><!DOCTYPE svg PUBLIC "-//W3C//DTD SVG 1.1//EN" "http://www.w3.org/Graphics/SVG/1.1/DTD/svg11.dtd"><svg height="1024" legacy-metrics="false" node-id="1" sillyvg="true" template-height="1024" template-width="1024" version="1.1" viewBox="0 0 1024 1024" width="1024" xmlns="http://www.w3.org/2000/svg" xmlns:xlink="http://www.w3.org/1999/xlink"><defs node-id="38"><radialGradient cx="0.50000006" cy="0.175" fx="0.50000006" fy="0.175" gradientUnits="objectBoundingBox" id="radialGradient-1" node-id="5" r="0.82500005"><stop offset="0" stop-color="#ffdd70"></stop><stop offset="1" stop-color="#f1823a"></stop></radialGradient><filter height="1.201" id="filter-3" node-id="9" width="1.201" x="-0.1" y="-0.1"><feGaussianBlur color-interpolation-filters="linearRGB" in="SourceAlpha" result="shadowBlurInner1" stdDeviation="69 69"></feGaussianBlur><feOffset color-interpolation-filters="linearRGB" dx="0" dy="0" in="shadowBlurInner1" result="shadowOffsetInner1"></feOffset><feComposite color-interpolation-filters="linearRGB" in="shadowOffsetInner1" in2="SourceAlpha" k1="0" k2="-1" k3="1" k4="0" operator="arithmetic" result="shadowInnerInner1"></feComposite><feColorMatrix color-interpolation-filters="linearRGB" in="shadowInnerInner1" result="result4" type="matrix" values="0 0 0 0 1 0 0 0 0 0.937254902 0 0 0 0 0.380392157 0 0 0 0.7 0"></feColorMatrix></filter><radialGradient cx="0.5" cy="0.09119497" fx="0.5" fy="0.09119497" gradientTransform="matrix(0.00000000000000006123233995736766 0.657838 -0.841839 0.000000000000000033910083129952095 0.576771507605 -0.23772400000000002)" gradientUnits="objectBoundingBox" id="radialGradient-4" node-id="14" r="1.3815033"><stop offset="0" stop-color="#abd7ff" stop-opacity="0.6"></stop><stop offset="0.8323994" stop-color="#1e7dd6"></stop><stop offset="1" stop-color="#2794f9" stop-opacity="0.8"></stop></radialGradient><filter height="1.066" id="filter-6" node-id="19" width="1.211" x="-0.105" y="0.004"><feGaussianBlur color-interpolation-filters="linearRGB" in="SourceAlpha" result="shadowBlurInner1" stdDeviation="19 19"></feGaussianBlur><feOffset color-interpolation-filters="linearRGB" dx="0" dy="0" in="shadowBlurInner1" result="shadowOffsetInner1"></feOffset><feComposite color-interpolation-filters="linearRGB" in="shadowOffsetInner1" in2="SourceAlpha" k1="0" k2="-1" k3="1" k4="0" operator="arithmetic" result="shadowInnerInner1"></feComposite><feColorMatrix color-interpolation-filters="linearRGB" in="shadowInnerInner1" result="result4" type="matrix" values="0 0 0 0 0.894117647 0 0 0 0 0.988235294 0 0 0 0 1 0 0 0 0.6 0"></feColorMatrix></filter></defs><path d="M 0.00 0.00 L 1024.00 0.00 L 1024.00 1024.00 L 0.00 1024.00 Z" fill="#ffffff" fill-rule="evenodd" node-id="76" stroke="none" target-height="1024" target-width="1024" target-x="0" target-y="0"></path><g node-id="98"><path d="M 512.01 168.00 C 305.59 168.00 168.00 305.59 168.00 512.01 C 168.00 718.41 288.40 856.00 512.01 856.00 C 718.41 856.00 856.00 718.41 856.00 512.01 C 856.00 305.59 718.41 168.00 512.01 168.00 Z" fill="#fecc4a" fill-rule="evenodd" group-id="1" node-id="79" stroke="none" target-height="688" target-width="688" target-x="168" target-y="168"></path><path d="M 512.01 168.00 C 305.59 168.00 168.00 305.59 168.00 512.01 C 168.00 718.41 288.40 856.00 512.01 856.00 C 718.41 856.00 856.00 718.41 856.00 512.01 C 856.00 305.59 718.41 168.00 512.01 168.00 Z" fill="url(#radialGradient-1)" fill-rule="evenodd" group-id="1" node-id="81" stroke="none" target-height="688" target-width="688" target-x="168" target-y="168"></path><g node-id="100"><path d="M 512.01 168.00 C 305.59 168.00 168.00 305.59 168.00 512.01 C 168.00 718.41 288.40 856.00 512.01 856.00 C 718.41 856.00 856.00 718.41 856.00 512.01 C 856.00 305.59 718.41 168.00 512.01 168.00 Z" fill="#000000" fill-rule="evenodd" filter="url(#filter-3)" group-id="1,3" node-id="85" stroke="none" target-height="688" target-width="688" target-x="168" target-y="168"></path></g></g><path d="M 364.80 382.40 L 428.80 382.40 C 437.64 382.40 444.80 389.56 444.80 398.40 L 444.80 398.40 C 444.80 407.24 437.64 414.40 428.80 414.40 L 364.80 414.40 C 355.96 414.40 348.80 407.24 348.80 398.40 L 348.80 398.40 C 348.80 389.56 355.96 382.40 364.80 382.40 Z" fill="#000000" fill-rule="evenodd" id="矩形备份" node-id="30" stroke="none" target-height="32" target-width="96" target-x="348.8" target-y="382.4"></path><path d="M 595.20 382.40 L 659.20 382.40 C 668.04 382.40 675.20 389.56 675.20 398.40 L 675.20 398.40 C 675.20 407.24 668.04 414.40 659.20 414.40 L 595.20 414.40 C 586.36 414.40 579.20 407.24 579.20 398.40 L 579.20 398.40 C 579.20 389.56 586.36 382.40 595.20 382.40 Z" fill="#000000" fill-rule="evenodd" id="矩形备份-2" node-id="31" stroke="none" target-height="32" target-width="96" target-x="579.2" target-y="382.4"></path><path d="M 801.18 216.48 C 798.30 220.93 795.23 225.72 791.98 230.87 C 781.93 247.60 773.23 263.00 765.20 278.40 C 749.80 308.53 734.40 349.36 734.40 375.47 C 735.07 398.24 743.77 417.65 761.18 433.72 C 779.25 449.79 800.01 457.82 824.78 457.82 C 849.55 457.82 870.97 449.79 888.38 433.05 C 906.46 416.31 915.16 396.90 914.49 374.14 C 914.49 334.38 891.79 281.61 846.40 215.82 L 846.40 215.82 C 837.87 203.45 820.93 200.34 808.56 208.88 C 805.63 210.90 803.12 213.48 801.18 216.48 Z" fill="url(#radialGradient-4)" fill-rule="evenodd" group-id="2" node-id="92" stroke="none" target-height="253.7219" target-width="180.09229" target-x="734.4" target-y="204.0993"></path><path d="M 801.18 216.48 C 798.30 220.93 795.23 225.72 791.98 230.87 C 781.93 247.60 773.23 263.00 765.20 278.40 C 749.80 308.53 734.40 349.36 734.40 375.47 C 735.07 398.24 743.77 417.65 761.18 433.72 C 779.25 449.79 800.01 457.82 824.78 457.82 C 849.55 457.82 870.97 449.79 888.38 433.05 C 906.46 416.31 915.16 396.90 914.49 374.14 C 914.49 334.38 891.79 281.61 846.40 215.82 L 846.40 215.82 C 837.87 203.45 820.93 200.34 808.56 208.88 C 805.63 210.90 803.12 213.48 801.18 216.48 Z" fill="#000000" fill-rule="evenodd" filter="url(#filter-6)" group-id="2,4" node-id="96" stroke="none" target-height="253.7219" target-width="180.09229" target-x="734.4" target-y="204.0993"></path><path d="M 802.04 296.33 L 794.59 344.64" fill="none" id="路径-3" node-id="35" stroke="#ffffff" stroke-linecap="round" stroke-width="38.4" target-height="48.30771" target-width="7.449402" target-x="794.5926" target-y="296.32962"></path><path d="M 408.00 512.00 L 616.00 512.00 C 624.84 512.00 632.00 519.16 632.00 528.00 L 632.00 528.00 C 632.00 536.84 624.84 544.00 616.00 544.00 L 408.00 544.00 C 399.16 544.00 392.00 536.84 392.00 528.00 L 392.00 528.00 C 392.00 519.16 399.16 512.00 408.00 512.00 Z" fill="#000000" fill-rule="evenodd" id="矩形" node-id="36" stroke="none" target-height="32" target-width="240" target-x="392" target-y="512"></path></svg>