<svg height="1024" legacy-metrics="false" node-id="1" sillyvg="true" template-height="1024" template-width="1024" version="1.1" viewBox="0 0 1024 1024" width="1024" xmlns="http://www.w3.org/2000/svg" xmlns:xlink="http://www.w3.org/1999/xlink"><defs node-id="29"><radialGradient cx="0.50000006" cy="0.175" fx="0.50000006" fy="0.175" gradientUnits="objectBoundingBox" id="radialGradient-1" node-id="5" r="0.82500005"><stop offset="0" stop-color="#ffdd70"></stop><stop offset="1" stop-color="#f1823a"></stop></radialGradient><filter height="0.694" id="filter-5" node-id="13" width="1.194" x="-0.097" y="-0.123"><feOffset color-interpolation-filters="linearRGB" dx="0" dy="-6" in="SourceAlpha" result="shadowOffsetOuter1"></feOffset><feGaussianBlur color-interpolation-filters="linearRGB" in="shadowOffsetOuter1" result="shadowBlurOuter1" stdDeviation="6.5 6.5"></feGaussianBlur><feColorMatrix color-interpolation-filters="linearRGB" in="shadowBlurOuter1" result="result3" type="matrix" values="0 0 0 0 0.870588235 0 0 0 0 0.384313725 0 0 0 0 0.105882353 0 0 0 0.3 0"></feColorMatrix></filter><linearGradient gradientUnits="objectBoundingBox" id="linearGradient-3" node-id="9" x1="0.5" x2="0.5" y1="1" y2="-0.026738115"><stop offset="0" stop-color="#d44c4c"></stop><stop offset="1" stop-color="#6d2347"></stop></linearGradient></defs><path d="M 0.00 0.00 L 1024.00 0.00 L 1024.00 1024.00 L 0.00 1024.00 Z" fill="#ffffff" fill-rule="evenodd" node-id="53" stroke="none" target-height="1024" target-width="1024" target-x="0" target-y="0"></path><g node-id="73"><path d="M 512.01 168.00 C 305.59 168.00 168.00 305.59 168.00 512.01 C 168.00 718.41 288.40 856.00 512.01 856.00 C 718.41 856.00 856.00 718.41 856.00 512.01 C 856.00 305.59 718.41 168.00 512.01 168.00 Z" fill="#fecc4a" fill-rule="evenodd" group-id="1" node-id="56" stroke="none" target-height="688" target-width="688" target-x="168" target-y="168"></path><path d="M 512.01 168.00 C 305.59 168.00 168.00 305.59 168.00 512.01 C 168.00 718.41 288.40 856.00 512.01 856.00 C 718.41 856.00 856.00 718.41 856.00 512.01 C 856.00 305.59 718.41 168.00 512.01 168.00 Z" fill="url(#radialGradient-1)" fill-rule="evenodd" group-id="1" node-id="58" stroke="none" target-height="688" target-width="688" target-x="168" target-y="168"></path></g><g node-id="74"><path d="M 451.34 405.39 L 447.46 402.59 L 443.34 399.99 L 438.99 397.59 L 432.22 394.44 L 425.14 391.85 L 417.88 389.86 L 410.55 388.51 L 404.48 387.89 L 398.12 387.68 L 391.80 387.90 L 386.04 388.51 L 381.15 389.40 L 376.35 390.59 L 371.64 392.08 L 367.03 393.86 L 362.71 395.88 L 358.66 398.13 L 353.74 401.36 L 349.32 404.79 L 345.35 408.44 L 341.83 412.29 L 338.64 416.48 L 335.91 420.85 L 333.63 425.42 L 331.78 430.22 L 330.71 433.74 L 329.97 436.95 L 329.47 440.19 L 329.17 443.75 L 329.14 448.23 L 329.51 452.54 L 330.26 456.70 L 331.40 460.74 L 332.91 464.67 L 334.75 468.39 L 336.91 471.92 L 339.41 475.26 L 342.19 478.36 L 345.25 481.18 L 348.57 483.76 L 352.20 486.07 L 355.99 488.05 L 360.00 489.69 L 364.26 491.00 L 368.77 491.97 L 374.04 492.58 L 379.27 492.67 L 384.42 492.21 L 389.17 491.25 L 393.42 489.88 L 397.49 488.05 L 401.30 485.81 L 404.58 483.31 L 407.39 480.49 L 409.78 477.33 L 411.73 473.93 L 413.12 470.49 L 413.95 466.99 L 414.11 463.76 L 413.85 461.41 L 413.30 459.05 L 412.45 456.62 L 411.07 453.53 L 409.07 449.93 L 406.95 447.18 L 404.46 444.92 L 401.54 443.12 L 398.28 441.72 L 396.76 441.31 L 395.14 441.06 L 391.29 440.98 L 387.36 441.30 L 385.77 441.64 L 383.91 442.20 L 381.15 443.30 L 378.82 444.58 L 376.88 446.05 L 375.20 447.79 L 373.91 449.71 L 372.96 451.84 L 372.56 453.42 L 372.48 455.67 L 372.55 457.89 L 372.89 459.35 L 373.87 461.59 L 375.32 463.72 L 376.22 464.86 L 375.44 464.73 L 372.17 464.17 L 369.65 463.56 L 368.54 463.11 L 367.41 462.44 L 364.95 460.34 L 363.15 458.31 L 361.75 456.15 L 360.70 453.84 L 360.01 451.40 L 359.63 448.67 L 359.60 445.60 L 359.98 442.25 L 360.79 438.92 L 362.04 435.58 L 363.67 432.41 L 365.65 429.45 L 368.01 426.68 L 370.77 424.14 L 373.91 421.84 L 377.48 419.77 L 381.24 418.07 L 385.17 416.73 L 389.30 415.75 L 394.04 415.18 L 399.40 415.02 L 404.29 415.30 L 409.58 416.17 L 414.58 417.45 L 419.31 419.14 L 423.81 421.24 L 428.12 423.75 L 432.08 426.60 L 435.72 429.78 L 439.04 433.31 L 442.00 437.15 L 444.55 441.25 L 446.69 445.63 L 448.44 450.33 L 449.70 455.26 L 450.43 460.33 L 450.63 465.56 L 450.31 470.78 L 449.46 476.01 L 448.08 481.26 L 446.23 486.28 L 443.96 491.06 L 441.28 495.62 L 438.17 499.97 L 434.71 504.03 L 430.88 507.82 L 426.69 511.34 L 422.10 514.60 L 417.31 517.48 L 412.20 520.03 L 406.76 522.26 L 400.96 524.16 L 395.44 525.53 L 389.73 526.54 L 383.82 527.17 L 377.87 527.42 L 371.83 527.29 L 365.69 526.77 L 360.57 526.03 L 355.47 525.00 L 350.39 523.67 L 345.39 522.07 L 340.52 520.21 L 335.76 518.08 L 329.33 514.70 L 323.67 511.12 L 318.37 507.11 L 313.26 502.51 L 308.40 497.37 L 304.12 492.01 L 300.39 486.39 L 297.20 480.52 L 294.54 474.36 L 292.38 467.90 L 290.93 461.83 L 289.97 455.71 L 289.51 449.53 L 289.54 443.25 L 290.05 437.01 L 291.03 430.81 L 292.49 424.64 L 294.43 418.47 L 296.81 412.49 L 299.64 406.65 L 302.93 400.93 L 306.71 395.34 L 311.14 389.76 L 316.17 384.34 L 321.60 379.27 L 327.29 374.70 L 332.79 370.89 L 338.58 367.40 L 344.66 364.23 L 351.06 361.36 L 357.58 358.89 L 364.28 356.77 L 371.17 355.02 L 378.26 353.64 L 384.54 352.74 L 390.50 352.21 L 397.17 351.97 L 405.51 352.01 L 413.14 352.55 L 421.19 353.71 L 430.81 355.60 L 433.86 356.01 L 436.72 355.92 L 439.44 355.36 L 442.06 354.32 L 444.18 353.05 L 445.95 351.56 L 447.42 349.85 L 448.57 347.92 L 449.37 345.86 L 449.80 343.62 L 449.83 341.66 L 449.56 339.77 L 448.99 337.93 L 447.63 335.38 L 445.69 333.12 L 444.14 331.84 L 442.38 330.77 L 440.40 329.90 L 435.25 328.54 L 427.74 327.07 L 419.78 325.86 L 414.09 325.24 L 408.63 324.85 L 402.59 324.65 L 394.05 324.71 L 385.59 325.20 L 377.20 326.12 L 368.86 327.49 L 360.59 329.30 L 352.50 331.52 L 344.59 334.15 L 336.84 337.21 L 332.60 339.14 L 327.50 341.63 L 323.46 343.75 L 315.39 348.58 L 307.89 353.76 L 300.93 359.29 L 294.49 365.16 L 288.54 371.40 L 283.07 378.01 L 278.06 385.00 L 273.87 391.76 L 270.21 398.63 L 267.08 405.60 L 264.46 412.70 L 262.34 419.95 L 260.71 427.35 L 260.03 431.52 L 259.54 435.56 L 259.21 439.67 L 259.03 444.16 L 259.14 451.65 L 259.79 459.03 L 260.98 466.31 L 262.71 473.52 L 264.96 480.57 L 267.72 487.46 L 271.01 494.20 L 274.84 500.80 L 278.21 505.84 L 281.77 510.53 L 285.64 515.05 L 290.18 519.79 L 295.54 524.88 L 300.80 529.22 L 306.64 533.38 L 313.20 537.50 L 319.98 541.17 L 326.98 544.43 L 334.24 547.26 L 341.65 549.65 L 349.16 551.57 L 356.77 553.05 L 364.51 554.07 L 372.29 554.62 L 380.05 554.69 L 387.79 554.28 L 395.54 553.38 L 402.14 552.20 L 408.55 550.68 L 414.80 548.81 L 420.88 546.60 L 426.85 544.03 L 432.56 541.16 L 438.02 538.00 L 443.25 534.54 L 448.27 530.76 L 452.96 526.72 L 457.33 522.43 L 461.40 517.88 L 465.50 512.57 L 469.13 507.05 L 472.31 501.32 L 475.04 495.36 L 477.28 489.30 L 479.04 483.13 L 480.30 476.84 L 481.04 470.54 L 481.26 464.21 L 481.19 461.62 L 481.07 459.44 L 480.46 454.10 L 479.49 448.90 L 478.17 443.84 L 476.50 438.91 L 474.48 434.09 L 472.13 429.45 L 469.46 424.97 L 466.44 420.63 L 463.15 416.53 L 459.54 412.63 L 455.61 408.91 L 451.34 405.39 Z" fill="#000000" fill-rule="evenodd" group-id="2" id="Vector" node-id="23" stroke-linecap="butt" stroke-width="1" target-height="230.03537" target-width="222.22644" target-x="259.02896" target-y="324.65427"></path><path d="M 581.83 509.96 L 586.59 510.44 L 591.45 510.64 L 596.43 510.55 L 603.86 509.88 L 611.29 508.59 L 618.58 506.68 L 625.60 504.19 L 631.16 501.68 L 636.77 498.69 L 642.14 495.34 L 646.82 491.93 L 650.61 488.71 L 654.18 485.29 L 657.51 481.64 L 660.61 477.79 L 663.34 473.88 L 665.73 469.91 L 668.37 464.65 L 670.48 459.47 L 672.09 454.33 L 673.22 449.23 L 673.89 444.01 L 674.07 438.86 L 673.76 433.75 L 672.96 428.67 L 672.12 425.09 L 671.16 421.95 L 669.97 418.89 L 668.45 415.66 L 666.24 411.76 L 663.77 408.21 L 661.03 404.98 L 658.03 402.05 L 654.75 399.41 L 651.30 397.10 L 647.67 395.13 L 643.83 393.49 L 639.87 392.20 L 635.81 391.27 L 631.65 390.71 L 627.35 390.52 L 623.08 390.70 L 618.78 391.29 L 614.44 392.28 L 610.05 393.69 L 605.18 395.80 L 600.60 398.35 L 596.37 401.31 L 592.74 404.52 L 589.75 407.83 L 587.13 411.45 L 584.96 415.30 L 583.37 419.11 L 582.35 422.95 L 581.85 426.88 L 581.87 430.80 L 582.38 434.47 L 583.41 437.92 L 584.88 440.80 L 586.28 442.70 L 587.95 444.47 L 589.90 446.15 L 592.63 448.14 L 596.17 450.25 L 599.37 451.57 L 602.66 452.29 L 606.09 452.39 L 609.61 451.97 L 611.14 451.56 L 612.67 450.96 L 616.04 449.12 L 619.28 446.87 L 620.49 445.78 L 621.82 444.37 L 623.67 442.04 L 625.04 439.76 L 625.98 437.52 L 626.57 435.17 L 626.73 432.86 L 626.48 430.55 L 626.05 428.98 L 624.99 426.99 L 623.82 425.10 L 622.79 424.00 L 620.83 422.56 L 618.50 421.43 L 617.15 420.90 L 617.89 420.62 L 621.01 419.47 L 623.49 418.74 L 624.68 418.57 L 625.99 418.59 L 629.17 419.18 L 631.74 420.04 L 634.04 421.21 L 636.10 422.68 L 637.92 424.45 L 639.61 426.63 L 641.18 429.27 L 642.52 432.36 L 643.49 435.65 L 644.07 439.17 L 644.25 442.73 L 644.01 446.28 L 643.35 449.86 L 642.23 453.44 L 640.66 457.00 L 638.60 460.58 L 636.20 463.93 L 633.47 467.06 L 630.38 469.97 L 626.55 472.83 L 622.00 475.65 L 617.62 477.86 L 612.61 479.75 L 607.64 481.14 L 602.69 482.04 L 597.75 482.48 L 592.75 482.45 L 587.90 481.96 L 583.16 481.02 L 578.52 479.63 L 574.04 477.79 L 569.78 475.51 L 565.73 472.79 L 561.87 469.60 L 558.32 465.95 L 555.15 461.93 L 552.36 457.50 L 550.03 452.82 L 548.15 447.87 L 546.72 442.63 L 545.81 437.35 L 545.38 432.08 L 545.43 426.79 L 545.95 421.47 L 546.92 416.22 L 548.33 411.03 L 550.20 405.88 L 552.54 400.76 L 555.26 395.87 L 558.40 391.11 L 562.00 386.46 L 566.07 381.92 L 570.17 377.97 L 574.61 374.24 L 579.42 370.74 L 584.44 367.55 L 589.74 364.64 L 595.31 362.02 L 600.12 360.10 L 605.05 358.45 L 610.11 357.05 L 615.24 355.94 L 620.40 355.11 L 625.58 354.58 L 632.84 354.30 L 639.54 354.56 L 646.13 355.39 L 652.85 356.81 L 659.63 358.83 L 666.02 361.34 L 672.05 364.34 L 677.75 367.83 L 683.14 371.83 L 688.24 376.35 L 692.53 380.88 L 696.42 385.70 L 699.91 390.82 L 703.02 396.27 L 705.70 401.93 L 707.95 407.79 L 709.78 413.87 L 711.18 420.18 L 712.11 426.55 L 712.58 433.02 L 712.58 439.62 L 712.11 446.35 L 711.06 453.39 L 709.42 460.61 L 707.25 467.71 L 704.61 474.52 L 701.74 480.56 L 698.48 486.48 L 694.80 492.27 L 690.69 497.95 L 686.28 503.35 L 681.53 508.54 L 676.44 513.50 L 670.99 518.24 L 666.01 522.16 L 661.11 525.60 L 655.46 529.14 L 648.21 533.27 L 641.33 536.62 L 633.78 539.65 L 624.51 542.82 L 621.66 543.99 L 619.23 545.49 L 617.15 547.34 L 615.40 549.55 L 614.20 551.71 L 613.41 553.88 L 613.00 556.10 L 612.96 558.35 L 613.31 560.53 L 614.05 562.68 L 615.00 564.40 L 616.18 565.90 L 617.60 567.21 L 620.05 568.74 L 622.86 569.73 L 624.84 570.06 L 626.90 570.10 L 629.05 569.86 L 634.19 568.47 L 641.43 565.99 L 648.93 563.06 L 654.17 560.75 L 659.09 558.35 L 664.42 555.51 L 671.78 551.19 L 678.87 546.54 L 685.67 541.54 L 692.21 536.18 L 698.47 530.49 L 704.36 524.52 L 709.90 518.28 L 715.08 511.76 L 717.78 507.97 L 720.95 503.26 L 723.40 499.40 L 727.97 491.18 L 731.88 482.95 L 735.14 474.68 L 737.78 466.37 L 739.82 458.00 L 741.25 449.54 L 742.09 440.98 L 742.34 433.03 L 742.07 425.26 L 741.30 417.65 L 740.02 410.19 L 738.23 402.86 L 735.94 395.63 L 734.45 391.68 L 732.85 387.93 L 731.08 384.21 L 728.99 380.23 L 725.15 373.80 L 720.90 367.73 L 716.23 362.02 L 711.13 356.64 L 705.65 351.66 L 699.81 347.08 L 693.60 342.89 L 686.98 339.08 L 681.54 336.40 L 676.11 334.12 L 670.50 332.15 L 664.20 330.31 L 657.01 328.58 L 650.29 327.45 L 643.15 326.76 L 635.41 326.48 L 627.70 326.69 L 620.01 327.37 L 612.31 328.55 L 604.70 330.19 L 597.23 332.27 L 589.90 334.80 L 582.69 337.79 L 575.67 341.20 L 568.92 345.02 L 562.42 349.25 L 556.16 353.90 L 551.03 358.22 L 546.24 362.75 L 541.77 367.49 L 537.60 372.44 L 533.72 377.65 L 530.21 382.99 L 527.06 388.46 L 524.26 394.07 L 521.81 399.86 L 519.77 405.69 L 518.12 411.59 L 516.88 417.57 L 515.98 424.22 L 515.60 430.82 L 515.71 437.37 L 516.32 443.90 L 517.41 450.26 L 518.98 456.49 L 521.03 462.57 L 523.54 468.39 L 526.51 473.98 L 527.87 476.18 L 529.05 478.02 L 532.26 482.34 L 535.70 486.35 L 539.37 490.07 L 543.29 493.51 L 547.44 496.67 L 551.79 499.52 L 556.35 502.07 L 561.13 504.31 L 566.04 506.22 L 571.11 507.79 L 576.37 509.04 L 581.83 509.96 Z" fill="#000000" fill-rule="evenodd" group-id="2" id="Vector" node-id="24" stroke-linecap="butt" stroke-width="1" target-height="243.6196" target-width="226.74548" target-x="515.5957" target-y="326.48392"></path></g><g node-id="75"><g node-id="76"><path d="M 592.67 618.71 C 570.01 596.05 540.31 584.72 510.60 584.72 C 478.55 584.72 449.53 597.71 428.53 618.71 C 405.87 641.37 394.54 671.08 394.54 700.78 C 394.54 700.78 433.22 700.78 510.60 700.78 L 626.67 700.78 C 626.67 668.73 613.68 639.71 592.67 618.71 C 592.67 618.71 592.67 618.71 592.67 618.71 Z" fill="#000000" fill-rule="evenodd" filter="url(#filter-5)" group-id="3,4" node-id="68" stroke="none" target-height="116.06506" target-width="232.1301" target-x="394.5366" target-y="584.71545"></path></g><path d="M 592.67 618.71 C 570.01 596.05 540.31 584.72 510.60 584.72 C 478.55 584.72 449.53 597.71 428.53 618.71 C 405.87 641.37 394.54 671.08 394.54 700.78 C 394.54 700.78 433.22 700.78 510.60 700.78 L 626.67 700.78 C 626.67 668.73 613.68 639.71 592.67 618.71 C 592.67 618.71 592.67 618.71 592.67 618.71 Z" fill="url(#linearGradient-3)" fill-rule="evenodd" group-id="3" node-id="71" stroke="none" target-height="116.06506" target-width="232.1301" target-x="394.5366" target-y="584.71545"></path></g></svg>