<?xml version="1.0" standalone="no"?><!DOCTYPE svg PUBLIC "-//W3C//DTD SVG 1.1//EN" "http://www.w3.org/Graphics/SVG/1.1/DTD/svg11.dtd"><svg height="1024" legacy-metrics="false" node-id="1" sillyvg="true" template-height="1024" template-width="1024" version="1.1" viewBox="0 0 1024 1024" width="1024" xmlns="http://www.w3.org/2000/svg" xmlns:xlink="http://www.w3.org/1999/xlink"><defs node-id="36"><radialGradient cx="0.50000006" cy="0.175" fx="0.50000006" fy="0.175" gradientUnits="objectBoundingBox" id="radialGradient-1" node-id="5" r="0.82500005"><stop offset="0" stop-color="#ffdd70"></stop><stop offset="1" stop-color="#f1823a"></stop></radialGradient><filter height="1.201" id="filter-3" node-id="9" width="1.201" x="-0.1" y="-0.1"><feGaussianBlur color-interpolation-filters="linearRGB" in="SourceAlpha" result="shadowBlurInner1" stdDeviation="69 69"></feGaussianBlur><feOffset color-interpolation-filters="linearRGB" dx="0" dy="0" in="shadowBlurInner1" result="shadowOffsetInner1"></feOffset><feComposite color-interpolation-filters="linearRGB" in="shadowOffsetInner1" in2="SourceAlpha" k1="0" k2="-1" k3="1" k4="0" operator="arithmetic" result="shadowInnerInner1"></feComposite><feColorMatrix color-interpolation-filters="linearRGB" in="shadowInnerInner1" result="result4" type="matrix" values="0 0 0 0 1 0 0 0 0 0.937254902 0 0 0 0 0.380392157 0 0 0 0.7 0"></feColorMatrix></filter><clipPath id="mask-5" node-id="25"><path d="M 342.40 512.00 L 464.00 512.00 L 467.50 512.33 L 470.72 513.20 L 473.69 514.62 L 476.39 516.53 L 478.67 518.81 L 480.58 521.51 L 482.00 524.48 L 482.87 527.70 L 483.20 531.20 L 483.20 572.80 L 482.87 576.30 L 482.00 579.52 L 480.58 582.49 L 478.67 585.19 L 476.39 587.47 L 473.69 589.38 L 470.72 590.80 L 467.50 591.67 L 464.00 592.00 L 342.40 592.00 L 338.90 591.67 L 335.68 590.80 L 332.71 589.38 L 330.01 587.47 L 327.73 585.19 L 325.82 582.49 L 324.40 579.52 L 323.53 576.30 L 323.20 572.80 L 323.20 531.20 L 323.53 527.70 L 324.40 524.48 L 325.82 521.51 L 327.73 518.81 L 330.01 516.53 L 332.71 514.62 L 335.68 513.20 L 338.90 512.33 L 342.40 512.00 Z" fill="#000000" fill-rule="evenodd" node-id="55" stroke-linecap="butt" stroke-width="1" target-height="80" target-width="160" target-x="323.2" target-y="512"></path></clipPath><clipPath id="mask-7" node-id="30"><path d="M 560.00 512.00 L 681.60 512.00 L 685.10 512.33 L 688.32 513.20 L 691.29 514.62 L 693.99 516.53 L 696.27 518.81 L 698.18 521.51 L 699.60 524.48 L 700.47 527.70 L 700.80 531.20 L 700.80 572.80 L 700.47 576.30 L 699.60 579.52 L 698.18 582.49 L 696.27 585.19 L 693.99 587.47 L 691.29 589.38 L 688.32 590.80 L 685.10 591.67 L 681.60 592.00 L 560.00 592.00 L 556.50 591.67 L 553.28 590.80 L 550.31 589.38 L 547.61 587.47 L 545.33 585.19 L 543.42 582.49 L 542.00 579.52 L 541.13 576.30 L 540.80 572.80 L 540.80 531.20 L 541.13 527.70 L 542.00 524.48 L 543.42 521.51 L 545.33 518.81 L 547.61 516.53 L 550.31 514.62 L 553.28 513.20 L 556.50 512.33 L 560.00 512.00 Z" fill="#000000" fill-rule="evenodd" node-id="59" stroke-linecap="butt" stroke-width="1" target-height="80" target-width="160" target-x="540.8" target-y="512"></path></clipPath></defs><path d="M 0.00 0.00 L 1024.00 0.00 L 1024.00 1024.00 L 0.00 1024.00 Z" fill="#ffffff" fill-rule="evenodd" node-id="64" stroke="none" target-height="1024" target-width="1024" target-x="0" target-y="0"></path><g node-id="99"><path d="M 512.01 168.00 C 305.59 168.00 168.00 305.59 168.00 512.01 C 168.00 718.41 288.40 856.00 512.01 856.00 C 718.41 856.00 856.00 718.41 856.00 512.01 C 856.00 305.59 718.41 168.00 512.01 168.00 Z" fill="#fecc4a" fill-rule="evenodd" group-id="1" node-id="67" stroke="none" target-height="688" target-width="688" target-x="168" target-y="168"></path><path d="M 512.01 168.00 C 305.59 168.00 168.00 305.59 168.00 512.01 C 168.00 718.41 288.40 856.00 512.01 856.00 C 718.41 856.00 856.00 718.41 856.00 512.01 C 856.00 305.59 718.41 168.00 512.01 168.00 Z" fill="url(#radialGradient-1)" fill-rule="evenodd" group-id="1" node-id="69" stroke="none" target-height="688" target-width="688" target-x="168" target-y="168"></path><g node-id="102"><path d="M 512.01 168.00 C 305.59 168.00 168.00 305.59 168.00 512.01 C 168.00 718.41 288.40 856.00 512.01 856.00 C 718.41 856.00 856.00 718.41 856.00 512.01 C 856.00 305.59 718.41 168.00 512.01 168.00 Z" fill="#000000" fill-rule="evenodd" filter="url(#filter-3)" group-id="1,4" node-id="73" stroke="none" target-height="688" target-width="688" target-x="168" target-y="168"></path></g></g><path d="M 342.98 412.61 L 469.71 446.57 L 472.46 447.59 L 474.85 448.98 L 476.94 450.77 L 478.70 452.89 L 480.04 455.22 L 481.00 457.80 L 481.50 460.50 L 481.51 463.27 L 481.02 466.16 L 481.02 466.16 L 480.00 468.92 L 478.60 471.31 L 476.82 473.40 L 474.70 475.16 L 472.37 476.50 L 469.79 477.46 L 467.09 477.96 L 464.31 477.97 L 461.42 477.48 L 334.69 443.52 L 331.94 442.50 L 329.55 441.11 L 327.46 439.32 L 325.70 437.20 L 324.35 434.87 L 323.40 432.29 L 322.90 429.59 L 322.89 426.82 L 323.38 423.93 L 323.38 423.93 L 324.40 421.17 L 325.80 418.78 L 327.58 416.69 L 329.70 414.93 L 332.03 413.59 L 334.61 412.63 L 337.31 412.13 L 340.08 412.12 L 342.98 412.61 Z" fill="#000000" fill-rule="evenodd" id="矩形备份" node-id="22" stroke-linecap="butt" stroke-width="0.99999994" target-height="65.85309" target-width="158.62546" target-x="322.88696" target-y="412.11826"></path><path d="M 554.29 446.57 L 681.02 412.61 L 683.92 412.12 L 686.69 412.13 L 689.39 412.63 L 691.97 413.59 L 694.30 414.93 L 696.42 416.69 L 698.20 418.78 L 699.60 421.17 L 700.62 423.93 L 700.62 423.93 L 701.11 426.82 L 701.10 429.59 L 700.60 432.29 L 699.65 434.87 L 698.30 437.20 L 696.54 439.32 L 694.45 441.11 L 692.06 442.50 L 689.31 443.52 L 562.58 477.48 L 559.69 477.97 L 556.91 477.96 L 554.21 477.46 L 551.63 476.50 L 549.30 475.16 L 547.18 473.40 L 545.40 471.31 L 544.00 468.92 L 542.98 466.16 L 542.98 466.16 L 542.49 463.27 L 542.50 460.50 L 543.00 457.80 L 543.96 455.22 L 545.30 452.89 L 547.06 450.77 L 549.15 448.98 L 551.54 447.59 L 554.29 446.57 Z" fill="#000000" fill-rule="evenodd" id="矩形备份-2" node-id="23" stroke-linecap="butt" stroke-width="0.99999994" target-height="65.85312" target-width="158.62543" target-x="542.4876" target-y="412.11823"></path><path d="M 342.40 512.00 L 464.00 512.00 L 467.50 512.33 L 470.72 513.20 L 473.69 514.62 L 476.39 516.53 L 478.67 518.81 L 480.58 521.51 L 482.00 524.48 L 482.87 527.70 L 483.20 531.20 L 483.20 572.80 L 482.87 576.30 L 482.00 579.52 L 480.58 582.49 L 478.67 585.19 L 476.39 587.47 L 473.69 589.38 L 470.72 590.80 L 467.50 591.67 L 464.00 592.00 L 342.40 592.00 L 338.90 591.67 L 335.68 590.80 L 332.71 589.38 L 330.01 587.47 L 327.73 585.19 L 325.82 582.49 L 324.40 579.52 L 323.53 576.30 L 323.20 572.80 L 323.20 531.20 L 323.53 527.70 L 324.40 524.48 L 325.82 521.51 L 327.73 518.81 L 330.01 516.53 L 332.71 514.62 L 335.68 513.20 L 338.90 512.33 L 342.40 512.00 Z" fill="#ffffff" fill-rule="evenodd" group-id="2,5" node-id="81" stroke-linecap="butt" stroke-width="1" target-height="80" target-width="160" target-x="323.2" target-y="512"></path><g clip-path="url(#mask-5)" group-id="2,6" node-id="84"><path d="M 446.40 532.80 L 446.16 537.29 L 445.51 541.57 L 444.46 545.67 L 443.01 549.62 L 441.17 553.42 L 439.01 556.97 L 436.55 560.27 L 433.75 563.35 L 430.67 566.15 L 427.37 568.61 L 423.82 570.77 L 420.02 572.61 L 416.07 574.06 L 411.97 575.11 L 407.69 575.76 L 403.20 576.00 L 398.71 575.76 L 394.43 575.11 L 390.33 574.06 L 386.38 572.61 L 382.58 570.77 L 379.03 568.61 L 375.73 566.15 L 372.65 563.35 L 369.85 560.27 L 367.39 556.97 L 365.23 553.42 L 363.39 549.62 L 361.94 545.67 L 360.89 541.57 L 360.24 537.29 L 360.00 532.80 L 360.24 528.31 L 360.89 524.03 L 361.94 519.93 L 363.39 515.98 L 365.23 512.18 L 367.39 508.63 L 369.85 505.33 L 372.65 502.25 L 375.73 499.45 L 379.03 496.99 L 382.58 494.83 L 386.38 492.99 L 390.33 491.54 L 394.43 490.49 L 398.71 489.84 L 403.20 489.60 L 407.69 489.84 L 411.97 490.49 L 416.07 491.54 L 420.02 492.99 L 423.82 494.83 L 427.37 496.99 L 430.67 499.45 L 433.75 502.25 L 436.55 505.33 L 439.01 508.63 L 441.17 512.18 L 443.01 515.98 L 444.46 519.93 L 445.51 524.03 L 446.16 528.31 L 446.40 532.80 Z" fill="#000000" fill-rule="evenodd" group-id="2,6" node-id="86" stroke-linecap="butt" stroke-width="1" target-height="86.399994" target-width="86.400024" target-x="360" target-y="489.6"></path></g><path d="M 560.00 512.00 L 681.60 512.00 L 685.10 512.33 L 688.32 513.20 L 691.29 514.62 L 693.99 516.53 L 696.27 518.81 L 698.18 521.51 L 699.60 524.48 L 700.47 527.70 L 700.80 531.20 L 700.80 572.80 L 700.47 576.30 L 699.60 579.52 L 698.18 582.49 L 696.27 585.19 L 693.99 587.47 L 691.29 589.38 L 688.32 590.80 L 685.10 591.67 L 681.60 592.00 L 560.00 592.00 L 556.50 591.67 L 553.28 590.80 L 550.31 589.38 L 547.61 587.47 L 545.33 585.19 L 543.42 582.49 L 542.00 579.52 L 541.13 576.30 L 540.80 572.80 L 540.80 531.20 L 541.13 527.70 L 542.00 524.48 L 543.42 521.51 L 545.33 518.81 L 547.61 516.53 L 550.31 514.62 L 553.28 513.20 L 556.50 512.33 L 560.00 512.00 Z" fill="#ffffff" fill-rule="evenodd" group-id="3,7" node-id="92" stroke-linecap="butt" stroke-width="1" target-height="80" target-width="160" target-x="540.8" target-y="512"></path><g clip-path="url(#mask-7)" group-id="3,8" node-id="95"><path d="M 664.00 532.80 L 663.76 537.29 L 663.11 541.57 L 662.06 545.67 L 660.61 549.62 L 658.77 553.42 L 656.61 556.97 L 654.14 560.27 L 651.35 563.35 L 648.27 566.15 L 644.97 568.61 L 641.42 570.77 L 637.62 572.61 L 633.67 574.06 L 629.57 575.11 L 625.29 575.76 L 620.80 576.00 L 616.31 575.76 L 612.03 575.11 L 607.93 574.06 L 603.98 572.61 L 600.18 570.77 L 596.63 568.61 L 593.33 566.15 L 590.25 563.35 L 587.45 560.27 L 584.99 556.97 L 582.83 553.42 L 580.99 549.62 L 579.54 545.67 L 578.49 541.57 L 577.84 537.29 L 577.60 532.80 L 577.84 528.31 L 578.49 524.03 L 579.54 519.93 L 580.99 515.98 L 582.83 512.18 L 584.99 508.63 L 587.45 505.33 L 590.25 502.25 L 593.33 499.45 L 596.63 496.99 L 600.18 494.83 L 603.98 492.99 L 607.93 491.54 L 612.03 490.49 L 616.31 489.84 L 620.80 489.60 L 625.29 489.84 L 629.57 490.49 L 633.67 491.54 L 637.62 492.99 L 641.42 494.83 L 644.97 496.99 L 648.27 499.45 L 651.35 502.25 L 654.14 505.33 L 656.61 508.63 L 658.77 512.18 L 660.61 515.98 L 662.06 519.93 L 663.11 524.03 L 663.76 528.31 L 664.00 532.80 Z" fill="#000000" fill-rule="evenodd" group-id="3,8" node-id="97" stroke-linecap="butt" stroke-width="1" target-height="86.399994" target-width="86.400024" target-x="577.6" target-y="489.6"></path></g><path d="M 432.00 689.60 C 446.68 672.53 473.35 664.00 512.00 664.00 C 550.65 664.00 577.32 672.53 592.00 689.60" fill="none" id="路径-4" node-id="34" stroke="#000000" stroke-linecap="round" stroke-width="32" target-height="25.599976" target-width="160" target-x="432" target-y="664"></path></svg>