<?xml version="1.0" standalone="no"?><!DOCTYPE svg PUBLIC "-//W3C//DTD SVG 1.1//EN" "http://www.w3.org/Graphics/SVG/1.1/DTD/svg11.dtd"><svg height="1024" legacy-metrics="false" node-id="1" sillyvg="true" template-height="1024" template-width="1024" version="1.1" viewBox="0 0 1024 1024" width="1024" xmlns="http://www.w3.org/2000/svg" xmlns:xlink="http://www.w3.org/1999/xlink"><defs node-id="26"><radialGradient cx="0.50000006" cy="0.175" fx="0.50000006" fy="0.175" gradientUnits="objectBoundingBox" id="radialGradient-1" node-id="5" r="0.82500005"><stop offset="0" stop-color="#ffdd70"></stop><stop offset="1" stop-color="#f1823a"></stop></radialGradient><filter height="2.627" id="filter-3" node-id="9" width="2.291" x="-0.645" y="-0.813"><feGaussianBlur color-interpolation-filters="linearRGB" in="SourceGraphic" result="result1" stdDeviation="34.08 34.08"></feGaussianBlur></filter><filter height="2.627" id="filter-4" node-id="11" width="2.291" x="-0.645" y="-0.813"><feGaussianBlur color-interpolation-filters="linearRGB" in="SourceGraphic" result="result1" stdDeviation="34.08 34.08"></feGaussianBlur></filter></defs><path d="M 0.00 0.00 L 1024.00 0.00 L 1024.00 1024.00 L 0.00 1024.00 Z" fill="#ffffff" fill-rule="evenodd" node-id="44" stroke="none" target-height="1024" target-width="1024" target-x="0" target-y="0"></path><g node-id="51"><path d="M 512.01 168.00 C 305.59 168.00 168.00 305.59 168.00 512.01 C 168.00 718.41 288.40 856.00 512.01 856.00 C 718.41 856.00 856.00 718.41 856.00 512.01 C 856.00 305.59 718.41 168.00 512.01 168.00 Z" fill="#fecc4a" fill-rule="evenodd" group-id="1" node-id="47" stroke="none" target-height="688" target-width="688" target-x="168" target-y="168"></path><path d="M 512.01 168.00 C 305.59 168.00 168.00 305.59 168.00 512.01 C 168.00 718.41 288.40 856.00 512.01 856.00 C 718.41 856.00 856.00 718.41 856.00 512.01 C 856.00 305.59 718.41 168.00 512.01 168.00 Z" fill="url(#radialGradient-1)" fill-rule="evenodd" group-id="1" node-id="49" stroke="none" target-height="688" target-width="688" target-x="168" target-y="168"></path></g><path d="M 428.13 410.09 L 456.11 442.27" fill="none" id="路径-5" node-id="18" stroke="#000000" stroke-linecap="round" stroke-width="32" target-height="32.177307" target-width="27.978607" target-x="428.12985" target-y="410.0904"></path><path d="M 558.32 442.27 L 589.35 417.30" fill="none" id="路径-6" node-id="19" stroke="#000000" stroke-linecap="round" stroke-width="32" target-height="24.971832" target-width="31.034607" target-x="558.31665" target-y="417.29587"></path><path d="M 328.18 508.21 C 344.05 513.20 362.64 514.46 383.93 512.00 C 405.23 509.54 419.96 505.25 428.13 499.14" fill="none" id="路径-7" node-id="20" stroke="#000000" stroke-linecap="round" stroke-width="32" target-height="14.065735" target-width="99.948456" target-x="328.1814" target-y="499.14282"></path><path d="M 569.98 502.10 C 585.65 508.70 605.31 512.00 628.96 512.00 C 652.61 512.00 670.14 508.70 681.56 502.10" fill="none" id="路径-8" node-id="21" stroke="#000000" stroke-linecap="round" stroke-width="32" target-height="9.899231" target-width="111.58246" target-x="569.97516" target-y="502.10077"></path><path d="M 480.00 646.90 C 507.06 651.43 527.94 649.66 542.65 641.60" fill="none" id="路径-9" node-id="22" stroke="#000000" stroke-linecap="round" stroke-width="32" target-height="7.744568" target-width="62.64911" target-x="480" target-y="641.6"></path><path d="M 368.80 546.76 C 325.06 546.76 289.60 574.89 289.60 609.60 C 289.60 644.31 325.06 672.44 368.80 672.44 C 412.54 672.44 448.00 644.31 448.00 609.60 C 448.00 574.89 412.54 546.76 368.80 546.76 Z" fill="#f68240" fill-rule="evenodd" filter="url(#filter-3)" group-id="2" id="路径" node-id="23" stroke="none" target-height="125.68695" target-width="158.4" target-x="289.6" target-y="546.75653"></path><path d="M 648.80 546.76 C 605.06 546.76 569.60 574.89 569.60 609.60 C 569.60 644.31 605.06 672.44 648.80 672.44 C 692.54 672.44 728.00 644.31 728.00 609.60 C 728.00 574.89 692.54 546.76 648.80 546.76 Z" fill="#f68240" fill-rule="evenodd" filter="url(#filter-4)" group-id="3" id="路径备份" node-id="24" stroke="none" target-height="125.68695" target-width="158.40002" target-x="569.6" target-y="546.75653"></path></svg>