<?xml version="1.0" standalone="no"?><!DOCTYPE svg PUBLIC "-//W3C//DTD SVG 1.1//EN" "http://www.w3.org/Graphics/SVG/1.1/DTD/svg11.dtd"><svg height="1024" legacy-metrics="false" node-id="1" sillyvg="true" template-height="1024" template-width="1024" version="1.1" viewBox="0 0 1024 1024" width="1024" xmlns="http://www.w3.org/2000/svg" xmlns:xlink="http://www.w3.org/1999/xlink"><defs node-id="42"><radialGradient cx="0.50000006" cy="0.175" fx="0.50000006" fy="0.175" gradientUnits="objectBoundingBox" id="radialGradient-1" node-id="5" r="0.82500005"><stop offset="0" stop-color="#ffdd70"></stop><stop offset="1" stop-color="#f1823a"></stop></radialGradient><filter height="1.201" id="filter-3" node-id="9" width="1.201" x="-0.1" y="-0.1"><feGaussianBlur color-interpolation-filters="linearRGB" in="SourceAlpha" result="shadowBlurInner1" stdDeviation="69 69"></feGaussianBlur><feOffset color-interpolation-filters="linearRGB" dx="0" dy="0" in="shadowBlurInner1" result="shadowOffsetInner1"></feOffset><feComposite color-interpolation-filters="linearRGB" in="shadowOffsetInner1" in2="SourceAlpha" k1="0" k2="-1" k3="1" k4="0" operator="arithmetic" result="shadowInnerInner1"></feComposite><feColorMatrix color-interpolation-filters="linearRGB" in="shadowInnerInner1" result="result4" type="matrix" values="0 0 0 0 1 0 0 0 0 0.937254902 0 0 0 0 0.380392157 0 0 0 0.7 0"></feColorMatrix></filter><filter height="1.068" id="filter-5" node-id="15" width="1.276" x="-0.207" y="-0.017"><feOffset color-interpolation-filters="linearRGB" dx="-5" dy="5" in="SourceAlpha" result="shadowOffsetOuter1"></feOffset><feGaussianBlur color-interpolation-filters="linearRGB" in="shadowOffsetOuter1" result="shadowBlurOuter1" stdDeviation="2.5 2.5"></feGaussianBlur><feColorMatrix color-interpolation-filters="linearRGB" in="shadowBlurOuter1" result="result3" type="matrix" values="0 0 0 0 0 0 0 0 0 0 0 0 0 0 0 0 0 0 0.17 0"></feColorMatrix></filter><filter height="1.068" id="filter-7" node-id="20" width="1.276" x="-0.207" y="-0.017"><feOffset color-interpolation-filters="linearRGB" dx="-5" dy="5" in="SourceAlpha" result="shadowOffsetOuter1"></feOffset><feGaussianBlur color-interpolation-filters="linearRGB" in="shadowOffsetOuter1" result="shadowBlurOuter1" stdDeviation="2.5 2.5"></feGaussianBlur><feColorMatrix color-interpolation-filters="linearRGB" in="shadowBlurOuter1" result="result3" type="matrix" values="0 0 0 0 0 0 0 0 0 0 0 0 0 0 0 0 0 0 0.167358398 0"></feColorMatrix></filter></defs><path d="M 0.00 0.00 L 1024.00 0.00 L 1024.00 1024.00 L 0.00 1024.00 Z" fill="#ffffff" fill-rule="evenodd" node-id="78" stroke="none" target-height="1024" target-width="1024" target-x="0" target-y="0"></path><g node-id="113"><path d="M 512.01 168.00 C 305.59 168.00 168.00 305.59 168.00 512.01 C 168.00 718.41 288.40 856.00 512.01 856.00 C 718.41 856.00 856.00 718.41 856.00 512.01 C 856.00 305.59 718.41 168.00 512.01 168.00 Z" fill="#fecc4a" fill-rule="evenodd" group-id="1" node-id="81" stroke="none" target-height="688" target-width="688" target-x="168" target-y="168"></path><path d="M 512.01 168.00 C 305.59 168.00 168.00 305.59 168.00 512.01 C 168.00 718.41 288.40 856.00 512.01 856.00 C 718.41 856.00 856.00 718.41 856.00 512.01 C 856.00 305.59 718.41 168.00 512.01 168.00 Z" fill="url(#radialGradient-1)" fill-rule="evenodd" group-id="1" node-id="83" stroke="none" target-height="688" target-width="688" target-x="168" target-y="168"></path><g node-id="115"><path d="M 512.01 168.00 C 305.59 168.00 168.00 305.59 168.00 512.01 C 168.00 718.41 288.40 856.00 512.01 856.00 C 718.41 856.00 856.00 718.41 856.00 512.01 C 856.00 305.59 718.41 168.00 512.01 168.00 Z" fill="#000000" fill-rule="evenodd" filter="url(#filter-3)" group-id="1,3" node-id="87" stroke="none" target-height="688" target-width="688" target-x="168" target-y="168"></path></g></g><path d="M 484.80 401.60 C 484.80 450.20 445.40 489.60 396.80 489.60 C 348.20 489.60 308.80 450.20 308.80 401.60 C 308.80 353.00 348.20 313.60 396.80 313.60 C 445.40 313.60 484.80 353.00 484.80 401.60 Z" fill="#ffffff" fill-rule="evenodd" id="椭圆形" node-id="30" stroke="none" target-height="176" target-width="176" target-x="308.8" target-y="313.6"></path><path d="M 436.80 401.60 C 436.80 423.69 418.89 441.60 396.80 441.60 C 374.71 441.60 356.80 423.69 356.80 401.60 C 356.80 379.51 374.71 361.60 396.80 361.60 C 418.89 361.60 436.80 379.51 436.80 401.60 Z" fill="#000000" fill-rule="evenodd" id="椭圆形" node-id="31" stroke="none" target-height="80" target-width="80" target-x="356.8" target-y="361.6"></path><path d="M 715.20 401.60 C 715.20 450.20 675.80 489.60 627.20 489.60 C 578.60 489.60 539.20 450.20 539.20 401.60 C 539.20 353.00 578.60 313.60 627.20 313.60 C 675.80 313.60 715.20 353.00 715.20 401.60 Z" fill="#ffffff" fill-rule="evenodd" id="椭圆形备份" node-id="32" stroke="none" target-height="176" target-width="176" target-x="539.2" target-y="313.6"></path><path d="M 667.20 401.60 C 667.20 423.69 649.29 441.60 627.20 441.60 C 605.11 441.60 587.20 423.69 587.20 401.60 C 587.20 379.51 605.11 361.60 627.20 361.60 C 649.29 361.60 667.20 379.51 667.20 401.60 Z" fill="#000000" fill-rule="evenodd" id="椭圆形备份-2" node-id="33" stroke="none" target-height="80" target-width="80" target-x="587.2" target-y="361.6"></path><path d="M 380.07 583.70 L 392.01 563.10 L 393.85 560.37 L 395.95 558.00 L 398.31 555.97 L 400.91 554.27 L 403.65 552.93 L 406.56 551.95 L 409.57 551.34 L 412.62 551.13 L 415.72 551.31 L 418.78 551.89 L 421.78 552.89 L 424.74 554.33 L 636.73 676.27 L 639.47 678.11 L 641.85 680.20 L 643.89 682.56 L 645.60 685.16 L 646.95 687.91 L 647.93 690.82 L 648.55 693.83 L 648.76 696.88 L 648.59 700.00 L 648.01 703.06 L 647.01 706.07 L 645.57 709.04 L 645.53 709.10 L 633.59 729.70 L 631.75 732.43 L 629.65 734.80 L 627.29 736.83 L 624.69 738.53 L 621.95 739.87 L 619.04 740.85 L 616.03 741.46 L 612.98 741.67 L 609.88 741.49 L 606.82 740.91 L 603.82 739.91 L 600.86 738.47 L 388.87 616.53 L 386.13 614.69 L 383.75 612.60 L 381.71 610.24 L 380.00 607.64 L 378.65 604.89 L 377.67 601.98 L 377.05 598.97 L 376.84 595.91 L 377.01 592.80 L 377.59 589.74 L 378.59 586.73 L 380.03 583.76 L 380.07 583.70 Z" fill="#000000" fill-rule="evenodd" filter="url(#filter-5)" group-id="2,4,6" node-id="99" stroke-linecap="butt" stroke-width="1" target-height="190.53912" target-width="271.92798" target-x="376.836" target-y="551.13043"></path><path d="M 380.07 583.70 L 392.01 563.10 L 393.85 560.37 L 395.95 558.00 L 398.31 555.97 L 400.91 554.27 L 403.65 552.93 L 406.56 551.95 L 409.57 551.34 L 412.62 551.13 L 415.72 551.31 L 418.78 551.89 L 421.78 552.89 L 424.74 554.33 L 636.73 676.27 L 639.47 678.11 L 641.85 680.20 L 643.89 682.56 L 645.60 685.16 L 646.95 687.91 L 647.93 690.82 L 648.55 693.83 L 648.76 696.88 L 648.59 700.00 L 648.01 703.06 L 647.01 706.07 L 645.57 709.04 L 645.53 709.10 L 633.59 729.70 L 631.75 732.43 L 629.65 734.80 L 627.29 736.83 L 624.69 738.53 L 621.95 739.87 L 619.04 740.85 L 616.03 741.46 L 612.98 741.67 L 609.88 741.49 L 606.82 740.91 L 603.82 739.91 L 600.86 738.47 L 388.87 616.53 L 386.13 614.69 L 383.75 612.60 L 381.71 610.24 L 380.00 607.64 L 378.65 604.89 L 377.67 601.98 L 377.05 598.97 L 376.84 595.91 L 377.01 592.80 L 377.59 589.74 L 378.59 586.73 L 380.03 583.76 L 380.07 583.70 Z" fill="#ffffff" fill-rule="evenodd" group-id="2,4" node-id="102" stroke-linecap="butt" stroke-width="1" target-height="190.53912" target-width="271.92798" target-x="376.836" target-y="551.13043"></path><path d="M 645.53 583.70 L 633.59 563.10 L 631.75 560.37 L 629.65 558.00 L 627.29 555.97 L 624.69 554.27 L 621.95 552.93 L 619.04 551.95 L 616.03 551.34 L 612.98 551.13 L 609.88 551.31 L 606.82 551.89 L 603.82 552.89 L 600.86 554.33 L 388.87 676.27 L 386.13 678.11 L 383.75 680.20 L 381.71 682.56 L 380.00 685.16 L 378.65 687.91 L 377.67 690.82 L 377.05 693.83 L 376.84 696.88 L 377.01 700.00 L 377.59 703.06 L 378.59 706.07 L 380.03 709.04 L 380.07 709.10 L 392.01 729.70 L 393.85 732.43 L 395.95 734.80 L 398.31 736.83 L 400.91 738.53 L 403.65 739.87 L 406.56 740.85 L 409.57 741.46 L 412.62 741.67 L 415.72 741.49 L 418.78 740.91 L 421.78 739.91 L 424.74 738.47 L 636.73 616.53 L 639.47 614.69 L 641.85 612.60 L 643.89 610.24 L 645.60 607.64 L 646.95 604.89 L 647.93 601.98 L 648.55 598.97 L 648.76 595.91 L 648.59 592.80 L 648.01 589.74 L 647.01 586.73 L 645.57 583.76 L 645.53 583.70 Z" fill="#000000" fill-rule="evenodd" filter="url(#filter-7)" group-id="2,5,7" node-id="108" stroke-linecap="butt" stroke-width="1" target-height="190.53912" target-width="271.92795" target-x="376.83603" target-y="551.13043"></path><path d="M 645.53 583.70 L 633.59 563.10 L 631.75 560.37 L 629.65 558.00 L 627.29 555.97 L 624.69 554.27 L 621.95 552.93 L 619.04 551.95 L 616.03 551.34 L 612.98 551.13 L 609.88 551.31 L 606.82 551.89 L 603.82 552.89 L 600.86 554.33 L 388.87 676.27 L 386.13 678.11 L 383.75 680.20 L 381.71 682.56 L 380.00 685.16 L 378.65 687.91 L 377.67 690.82 L 377.05 693.83 L 376.84 696.88 L 377.01 700.00 L 377.59 703.06 L 378.59 706.07 L 380.03 709.04 L 380.07 709.10 L 392.01 729.70 L 393.85 732.43 L 395.95 734.80 L 398.31 736.83 L 400.91 738.53 L 403.65 739.87 L 406.56 740.85 L 409.57 741.46 L 412.62 741.67 L 415.72 741.49 L 418.78 740.91 L 421.78 739.91 L 424.74 738.47 L 636.73 616.53 L 639.47 614.69 L 641.85 612.60 L 643.89 610.24 L 645.60 607.64 L 646.95 604.89 L 647.93 601.98 L 648.55 598.97 L 648.76 595.91 L 648.59 592.80 L 648.01 589.74 L 647.01 586.73 L 645.57 583.76 L 645.53 583.70 Z" fill="#ffffff" fill-rule="evenodd" group-id="2,5" node-id="111" stroke-linecap="butt" stroke-width="1" target-height="190.53912" target-width="271.92795" target-x="376.83603" target-y="551.13043"></path></svg>