<?xml version="1.0" standalone="no"?><!DOCTYPE svg PUBLIC "-//W3C//DTD SVG 1.1//EN" "http://www.w3.org/Graphics/SVG/1.1/DTD/svg11.dtd"><svg height="1024" legacy-metrics="false" node-id="1" sillyvg="true" template-height="1024" template-width="1024" version="1.1" viewBox="0 0 1024 1024" width="1024" xmlns="http://www.w3.org/2000/svg" xmlns:xlink="http://www.w3.org/1999/xlink"><defs node-id="18"><radialGradient cx="0.50000006" cy="0.175" fx="0.50000006" fy="0.175" gradientUnits="objectBoundingBox" id="radialGradient-1" node-id="5" r="0.82500005"><stop offset="0" stop-color="#ffdd70"></stop><stop offset="1" stop-color="#f1823a"></stop></radialGradient></defs><path d="M 0.00 0.00 L 1024.00 0.00 L 1024.00 1024.00 L 0.00 1024.00 Z" fill="#ffffff" fill-rule="evenodd" node-id="28" stroke="none" target-height="1024" target-width="1024" target-x="0" target-y="0"></path><g node-id="35"><path d="M 512.01 168.00 C 305.59 168.00 168.00 305.59 168.00 512.01 C 168.00 718.41 288.40 856.00 512.01 856.00 C 718.41 856.00 856.00 718.41 856.00 512.01 C 856.00 305.59 718.41 168.00 512.01 168.00 Z" fill="#fecc4a" fill-rule="evenodd" group-id="1" node-id="31" stroke="none" target-height="688" target-width="688" target-x="168" target-y="168"></path><path d="M 512.01 168.00 C 305.59 168.00 168.00 305.59 168.00 512.01 C 168.00 718.41 288.40 856.00 512.01 856.00 C 718.41 856.00 856.00 718.41 856.00 512.01 C 856.00 305.59 718.41 168.00 512.01 168.00 Z" fill="url(#radialGradient-1)" fill-rule="evenodd" group-id="1" node-id="33" stroke="none" target-height="688" target-width="688" target-x="168" target-y="168"></path></g><path d="M 369.18 461.46 L 447.58 521.79 L 369.18 584.47" fill="none" id="路径-16" node-id="14" stroke="#000000" stroke-linecap="round" stroke-width="32" target-height="123.00906" target-width="78.399994" target-x="369.18332" target-y="461.45938"></path><path d="M 655.58 461.46 L 577.18 521.79 L 655.58 584.47" fill="none" id="路径-16备份" node-id="15" stroke="#000000" stroke-linecap="round" stroke-width="32" target-height="123.00906" target-width="78.400024" target-x="577.1833" target-y="461.45938"></path><path d="M 338.60 664.67 L 396.40 717.47 L 454.20 643.87 L 512.00 717.47 L 569.80 643.87 L 627.60 717.47 L 685.40 664.67" fill="none" id="路径-17" node-id="16" stroke="#000000" stroke-linecap="round" stroke-width="32" target-height="73.599976" target-width="346.79675" target-x="338.60162" target-y="643.8747"></path></svg>