<svg height="2000" legacy-metrics="false" node-id="1" sillyvg="true" template-height="2000" template-width="1400" version="1.1" viewBox="0 0 1400 2000" width="1400" xmlns="http://www.w3.org/2000/svg" xmlns:xlink="http://www.w3.org/1999/xlink"><defs node-id="48"><clipPath id="clip-path" node-id="5"><path d="M 1059.43 1416.31 C 1063.36 1445.91 1065.69 1452.71 1072.05 1467.45 C 1078.41 1482.19 1081.17 1502.84 1099.79 1524.45 C 1118.41 1546.06 1137.32 1560.45 1178.85 1565.52 C 1220.38 1570.59 1259.85 1563.06 1282.43 1529.27 C 1305.01 1495.48 1313.94 1474.04 1338.09 1454.88 C 1362.24 1435.72 1442.03 1423.36 1461.57 1405.88 C 1481.11 1388.40 1490.69 1366.26 1499.35 1345.80 C 1508.01 1325.34 1525.71 1303.60 1532.89 1284.98 C 1540.07 1266.36 1540.63 1228.77 1543.77 1203.15 C 1546.91 1177.53 1554.46 1141.60 1550.40 1125.75 C 1546.34 1109.90 1515.75 1080.23 1539.34 1047.24 C 1562.93 1014.25 1603.34 1003.37 1620.07 1003.19 C 1636.80 1003.01 1645.13 1000.19 1650.48 994.89 C 1655.83 989.59 1643.84 990.89 1640.25 990.89 C 1636.66 990.89 1616.57 988.13 1599.25 978.08 C 1581.93 968.03 1562.00 953.26 1538.00 954.55 C 1514.00 955.84 1475.52 972.33 1460.69 974.73 C 1445.86 977.13 1382.54 977.68 1360.24 982.28 C 1337.94 986.88 1304.77 1012.51 1293.34 1034.28 C 1281.91 1056.05 1266.44 1112.28 1219.44 1145.41 C 1172.44 1178.54 1157.33 1186.69 1148.30 1198.85 C 1139.27 1211.01 1124.16 1244.75 1107.75 1269.85 C 1091.34 1294.95 1052.79 1366.36 1059.43 1416.31 Z" fill="#000000" fill-rule="nonzero" node-id="51" stroke="none" target-height="612.3848" target-width="593.1206" target-x="1058.6945" target-y="954.55"></path></clipPath></defs><path d="M 0.00 0.00 L 1400.00 0.00 L 1400.00 2000.00 L 0.00 2000.00 Z" fill="#f1e9d4" fill-rule="nonzero" node-id="56" stroke="none" target-height="2000" target-width="1400" target-x="0" target-y="0"></path><path d="M 50.00 50.00 L 1350.00 50.00 L 1350.00 1950.00 L 50.00 1950.00 Z" fill="#d1def2" fill-rule="nonzero" node-id="58" stroke="none" target-height="1900" target-width="1300" target-x="50" target-y="50"></path><path d="M 658.12 345.07 L 659.34 341.01 L 663.06 329.98 L 665.76 322.68 L 669.35 313.70 L 673.40 304.32 L 678.31 293.86 L 683.75 283.28 L 690.02 272.20 L 694.52 264.90 L 699.36 257.64 L 704.56 250.42 L 710.04 243.42 L 715.86 236.69 L 722.01 230.23 L 733.22 219.33 L 744.58 208.69 L 756.02 198.33 L 767.01 188.68 L 777.85 179.42 L 787.66 171.26 L 804.88 157.51 L 812.09 152.05 L 817.04 148.48 L 821.27 145.74 L 822.49 145.23 L 823.29 145.42 L 823.58 145.79 L 823.48 146.45 L 822.84 147.63 L 821.63 149.21 L 819.01 152.13 L 815.79 155.31 L 813.39 157.81 L 810.20 161.50 L 806.93 165.73 L 803.10 171.37 L 799.38 177.65 L 795.36 185.59 L 789.54 198.02 L 782.96 212.01 L 776.44 225.85 L 770.78 237.85 L 766.79 246.30 L 765.28 249.49 L 734.28 293.61 Z" fill="#e25813" fill-rule="nonzero" node-id="60" stroke-linecap="butt" stroke-width="1" target-height="199.83997" target-width="165.46002" target-x="658.12" target-y="145.23001"></path><path d="M 650.24 463.28 L 650.05 459.41 L 649.97 449.11 L 650.19 442.37 L 650.74 434.30 L 651.65 425.93 L 653.07 416.92 L 654.32 410.89 L 655.87 404.89 L 657.72 398.90 L 659.91 393.05 L 662.47 387.48 L 665.39 382.19 L 667.89 378.40 L 670.62 374.90 L 673.60 371.67 L 676.84 368.71 L 683.35 363.69 L 690.55 358.70 L 698.50 353.75 L 710.84 346.74 L 724.35 339.63 L 752.71 325.33 L 767.27 317.84 L 781.91 309.89 L 791.54 304.31 L 800.99 298.45 L 810.25 292.29 L 822.13 283.68 L 834.11 274.37 L 845.88 264.71 L 857.30 254.94 L 878.80 235.80 L 897.59 218.76 L 905.95 211.33 L 912.66 205.61 L 918.89 200.75 L 922.97 198.15 L 924.08 197.36 L 924.01 197.09 L 922.67 197.01 L 919.40 197.41 L 912.94 198.62 L 895.73 202.51 L 873.00 208.22 L 846.69 215.27 L 818.77 223.20 L 791.18 231.53 L 777.94 235.76 L 765.88 239.80 L 754.40 243.88 L 744.82 247.54 L 736.65 251.06 L 728.85 254.88 L 721.41 259.00 L 714.32 263.41 L 707.39 268.19 L 700.84 273.16 L 694.65 278.34 L 688.81 283.72 L 681.39 291.31 L 674.65 299.08 L 668.55 307.03 L 662.94 315.33 L 658.02 323.61 L 653.78 331.90 L 650.06 340.43 L 647.07 348.75 L 644.75 356.89 L 641.99 369.24 L 639.83 381.21 L 638.11 392.99 L 636.88 403.66 L 635.96 413.86 L 635.40 422.21 L 634.88 434.83 L 634.82 439.49 Z" fill="#e25813" fill-rule="nonzero" node-id="62" stroke-linecap="butt" stroke-width="1" target-height="266.27112" target-width="289.26294" target-x="634.82" target-y="197.00887"></path><path d="M 635.58 438.65 L 633.64 434.69 L 628.44 424.29 L 620.91 409.66 L 612.01 393.00 L 607.30 384.55 L 602.67 376.54 L 598.01 368.89 L 593.82 362.49 L 587.23 353.32 L 579.36 343.00 L 571.10 332.30 L 562.05 320.30 L 556.07 312.05 L 549.96 303.15 L 543.70 293.54 L 537.77 283.76 L 531.91 273.22 L 526.13 261.87 L 522.55 254.12 L 518.85 245.44 L 515.03 235.77 L 509.69 220.94 L 504.41 204.65 L 499.58 187.91 L 495.13 170.44 L 492.47 158.66 L 490.11 146.87 L 488.04 135.08 L 486.29 123.24 L 484.95 111.72 L 484.00 100.51 L 483.47 89.27 L 483.44 78.67 L 483.87 68.67 L 484.08 68.24 L 484.33 67.95 L 484.64 67.86 L 484.94 68.04 L 485.41 68.92 L 485.79 70.20 L 486.28 72.79 L 486.95 79.28 L 488.12 91.05 L 490.01 106.37 L 491.29 114.74 L 492.86 123.50 L 494.71 132.23 L 496.88 140.71 L 499.44 148.93 L 502.30 156.29 L 504.53 160.97 L 506.89 165.02 L 509.35 168.49 L 515.26 175.49 L 522.17 183.05 L 536.95 198.20 L 551.53 212.92 L 558.23 219.96 L 563.74 226.16 L 567.14 230.35 L 569.64 233.90 L 571.41 236.88 L 573.24 240.89 L 574.41 244.24 L 575.05 247.04 L 575.26 249.36 L 575.09 251.82 L 574.60 253.81 L 573.82 255.43 L 572.77 256.73 L 570.96 258.11 L 568.84 259.03 L 566.34 259.47 L 560.07 260.15 L 556.80 260.80 L 553.83 261.72 L 552.00 262.58 L 550.55 263.61 L 549.42 264.81 L 548.67 266.21 L 548.38 267.91 L 548.61 270.02 L 549.91 274.52 L 551.78 279.91 L 555.96 291.30 L 557.93 297.18 L 559.49 302.74 L 560.57 306.15 L 562.37 310.12 L 564.64 314.02 L 567.40 317.76 L 569.48 320.06 L 571.65 321.99 L 573.91 323.59 L 576.35 324.82 L 578.77 325.48 L 581.24 325.60 L 583.02 325.31 L 584.85 324.61 L 586.73 323.45 L 588.72 321.74 L 591.92 318.78 L 594.58 316.80 L 596.79 315.58 L 599.16 314.75 L 601.08 314.50 L 602.67 314.72 L 604.15 315.35 L 605.37 316.30 L 606.38 317.59 L 607.41 319.88 L 607.93 322.59 L 608.14 328.20 L 608.23 336.63 L 608.30 346.39 L 608.47 355.97 L 608.87 363.87 L 609.23 366.96 L 609.61 368.59 L 611.65 373.10 L 615.60 381.10 L 620.64 391.07 L 625.98 401.48 L 630.79 410.81 L 634.27 417.52 L 635.61 420.10 Z" fill="#513666" fill-rule="nonzero" node-id="64" stroke-linecap="butt" stroke-width="1" target-height="370.78876" target-width="152.1745" target-x="483.4355" target-y="67.86125"></path><path d="M 228.11 269.85 L 232.42 274.10 L 244.66 285.50 L 253.09 292.96 L 263.80 302.06 L 275.36 311.43 L 288.79 321.76 L 298.08 328.56 L 308.01 335.50 L 318.61 342.58 L 329.35 349.39 L 340.55 356.04 L 352.20 362.53 L 363.25 368.79 L 375.17 376.13 L 387.11 383.97 L 399.35 392.36 L 411.49 400.97 L 423.36 409.58 L 445.83 426.15 L 465.37 440.46 L 473.97 446.49 L 480.62 450.87 L 487.59 454.82 L 497.42 459.63 L 508.18 464.39 L 520.97 469.68 L 534.36 474.94 L 548.92 480.46 L 578.91 491.38 L 608.60 501.88 L 635.62 511.38 L 645.01 514.86 L 653.54 518.37 L 661.28 521.92 L 668.26 525.48 L 675.21 529.49 L 681.56 533.66 L 687.33 537.98 L 692.56 542.47 L 697.50 547.33 L 702.08 552.52 L 706.29 558.06 L 710.15 563.95 L 713.59 570.02 L 716.83 576.62 L 719.87 583.78 L 722.69 591.55 L 729.18 611.57 L 736.23 634.50 L 743.27 658.16 L 749.72 680.36 L 755.03 698.93 L 758.63 711.67 L 759.96 716.40 L 763.79 662.28 L 762.90 656.76 L 761.72 650.75 L 759.57 641.38 L 756.84 631.03 L 752.87 617.94 L 749.85 608.98 L 746.19 599.10 L 741.83 588.22 L 737.16 577.52 L 731.73 566.13 L 725.49 554.02 L 711.85 528.34 L 704.86 515.57 L 697.47 502.91 L 692.28 494.62 L 686.73 486.43 L 680.80 478.33 L 674.53 470.49 L 667.70 462.78 L 660.28 455.18 L 654.48 449.79 L 648.25 444.47 L 641.54 439.23 L 634.34 434.07 L 627.05 429.30 L 619.16 424.63 L 610.64 420.06 L 601.45 415.59 L 592.29 411.57 L 582.36 407.68 L 571.63 403.93 L 560.03 400.32 L 533.32 392.79 L 508.65 386.26 L 484.68 380.31 L 463.27 375.31 L 442.79 370.81 L 425.39 367.22 L 396.50 361.76 L 378.07 358.66 L 371.60 357.68 L 366.11 355.66 L 360.16 353.28 L 350.85 349.27 L 340.60 344.51 L 327.62 338.00 L 313.98 330.61 L 298.22 321.35 L 287.65 314.71 L 276.40 307.21 L 264.45 298.80 L 252.77 290.08 L 240.66 280.45 L 228.11 269.85 Z" fill="#577a5e" fill-rule="nonzero" node-id="66" stroke-linecap="butt" stroke-width="1" target-height="446.55" target-width="535.68" target-x="228.10999" target-y="269.84998"></path><path d="M 778.16 825.76 L 779.08 816.81 L 779.62 805.75 L 779.75 794.11 L 779.53 781.06 L 779.02 767.67 L 778.25 753.56 L 776.15 725.14 L 773.61 697.67 L 770.98 673.04 L 768.65 653.12 L 766.98 639.79 L 766.34 634.93 L 764.75 635.74 L 763.18 636.97 L 760.79 639.61 L 759.30 641.67 L 757.60 644.62 L 755.67 648.65 L 754.04 652.78 L 752.34 658.15 L 750.59 665.00 L 749.21 671.90 L 747.93 680.42 L 746.79 690.79 L 746.03 701.18 L 745.57 713.56 L 745.45 728.16 L 745.72 742.76 L 746.22 755.28 L 746.93 765.94 L 747.92 776.57 L 749.01 785.44 L 750.16 792.75 L 752.26 803.10 L 754.24 810.43 L 756.46 816.78 L 758.27 820.80 L 760.14 824.06 L 761.34 825.68 L 762.57 826.90 L 763.16 835.96 L 764.54 861.75 L 766.12 902.21 L 766.79 926.59 L 767.32 955.26 L 767.59 985.28 L 767.55 1018.84 L 767.13 1053.46 L 766.23 1090.86 L 764.81 1129.04 L 762.76 1169.26 L 761.05 1196.26 L 758.99 1223.83 L 756.57 1251.97 L 751.09 1308.07 L 745.65 1357.50 L 741.75 1389.66 L 737.90 1419.12 L 734.10 1446.02 L 730.02 1472.84 L 726.01 1497.30 L 722.09 1519.52 L 717.89 1541.67 L 713.79 1561.78 L 709.80 1579.98 L 703.46 1606.54 L 697.41 1629.41 L 691.09 1651.06 L 685.10 1669.77 L 678.90 1687.53 L 673.03 1703.07 L 667.06 1717.92 L 661.40 1731.28 L 650.38 1756.40 L 645.14 1768.44 L 640.14 1780.40 L 635.40 1792.53 L 630.86 1805.29 L 626.70 1818.47 L 622.73 1833.04 L 620.37 1842.96 L 618.09 1853.81 L 615.91 1865.65 L 614.02 1877.66 L 612.21 1890.96 L 610.59 1904.65 L 609.07 1919.33 L 607.72 1934.31 L 606.47 1950.00 L 621.82 1950.00 L 623.32 1931.69 L 625.00 1914.63 L 626.97 1898.08 L 629.11 1883.30 L 631.49 1869.67 L 634.64 1854.21 L 638.34 1838.36 L 642.83 1821.44 L 646.14 1810.12 L 649.79 1798.66 L 653.79 1787.06 L 658.08 1775.57 L 662.69 1764.27 L 667.62 1753.15 L 674.41 1737.78 L 681.12 1721.12 L 687.75 1703.11 L 693.88 1684.96 L 699.88 1665.81 L 705.74 1645.60 L 711.21 1625.32 L 716.50 1604.33 L 721.62 1582.60 L 726.42 1560.83 L 731.02 1538.65 L 735.42 1516.08 L 741.55 1482.12 L 747.17 1447.99 L 752.30 1413.87 L 756.90 1380.31 L 761.04 1347.00 L 764.63 1315.00 L 767.79 1283.51 L 770.40 1254.03 L 773.23 1215.92 L 775.54 1178.24 L 777.32 1140.96 L 778.68 1103.65 L 779.63 1066.99 L 780.20 1030.97 L 780.44 994.92 L 780.41 959.75 L 780.11 925.44 L 779.29 874.38 L 778.16 825.76 Z" fill="#345b4a" fill-rule="nonzero" node-id="68" stroke-linecap="butt" stroke-width="1" target-height="1315.0701" target-width="173.96765" target-x="606.47003" target-y="634.93"></path><path d="M 206.98 1237.49 L 205.68 1237.90 L 204.64 1238.68 L 203.90 1239.76 L 203.54 1241.07 L 203.64 1242.42 L 204.16 1243.62 L 205.04 1244.59 L 206.23 1245.24 L 213.45 1247.79 L 221.89 1251.00 L 230.56 1254.59 L 239.79 1258.78 L 248.98 1263.41 L 258.08 1268.54 L 263.99 1272.26 L 269.59 1276.15 L 274.89 1280.24 L 279.41 1284.17 L 284.37 1288.95 L 289.80 1294.66 L 297.71 1303.67 L 306.10 1314.02 L 314.31 1324.86 L 322.46 1336.30 L 330.30 1347.96 L 337.59 1359.47 L 344.39 1370.95 L 350.17 1381.50 L 355.25 1391.78 L 358.89 1400.36 L 360.87 1406.06 L 361.99 1410.55 L 362.46 1414.03 L 362.55 1420.33 L 362.20 1427.79 L 361.51 1435.51 L 360.52 1443.89 L 358.02 1461.01 L 355.29 1477.78 L 352.90 1492.87 L 352.00 1499.59 L 351.46 1504.92 L 351.23 1511.22 L 351.59 1518.69 L 352.21 1523.75 L 353.25 1529.09 L 354.74 1534.72 L 356.65 1540.21 L 359.14 1545.77 L 362.26 1551.43 L 364.91 1555.44 L 367.98 1559.41 L 371.51 1563.33 L 375.53 1567.22 L 379.73 1570.73 L 384.49 1574.11 L 389.86 1577.37 L 395.89 1580.50 L 416.16 1590.08 L 423.89 1593.88 L 429.31 1596.76 L 433.95 1599.62 L 436.93 1601.95 L 438.55 1603.64 L 439.76 1605.33 L 440.59 1607.04 L 441.42 1609.88 L 441.89 1613.43 L 442.28 1620.78 L 442.54 1624.38 L 443.06 1627.97 L 443.99 1631.50 L 445.56 1635.17 L 446.92 1637.50 L 448.75 1639.97 L 451.11 1642.60 L 453.68 1645.00 L 456.95 1647.60 L 461.03 1650.43 L 474.41 1659.22 L 481.77 1663.66 L 489.90 1667.84 L 495.56 1670.25 L 501.65 1672.30 L 508.21 1673.95 L 513.15 1674.81 L 518.41 1675.33 L 524.02 1675.47 L 530.02 1675.22 L 535.82 1674.57 L 542.06 1673.40 L 548.78 1671.67 L 556.03 1669.32 L 563.79 1666.16 L 571.23 1662.51 L 578.36 1658.36 L 585.23 1653.78 L 591.71 1648.92 L 597.82 1643.79 L 603.66 1638.35 L 609.02 1632.88 L 613.93 1627.38 L 618.60 1621.66 L 622.70 1616.18 L 626.26 1610.93 L 629.59 1605.50 L 632.26 1600.62 L 634.35 1596.23 L 636.14 1591.68 L 637.23 1588.00 L 637.74 1585.06 L 638.16 1578.50 L 638.20 1571.95 L 637.96 1558.32 L 638.08 1551.10 L 638.63 1543.05 L 639.29 1537.63 L 640.34 1531.65 L 641.82 1525.06 L 643.82 1518.59 L 646.30 1512.58 L 649.26 1506.98 L 652.67 1501.63 L 656.29 1496.73 L 660.14 1492.25 L 664.26 1488.01 L 668.30 1484.26 L 672.27 1480.97 L 678.31 1476.51 L 683.44 1473.23 L 685.96 1471.49 L 687.47 1470.02 L 688.26 1468.76 L 688.63 1467.37 L 688.51 1466.05 L 687.91 1464.75 L 686.41 1462.94 L 684.08 1461.03 L 678.45 1457.44 L 672.71 1453.83 L 666.22 1448.91 L 662.47 1445.68 L 658.52 1441.83 L 654.83 1437.62 L 651.56 1433.04 L 649.72 1429.78 L 648.31 1426.44 L 647.31 1423.01 L 646.82 1419.50 L 646.95 1415.92 L 647.71 1412.21 L 648.60 1408.45 L 649.15 1404.12 L 649.31 1399.16 L 649.12 1394.20 L 648.62 1388.91 L 647.77 1383.28 L 646.00 1374.90 L 643.65 1366.44 L 640.80 1358.16 L 637.57 1350.44 L 635.13 1345.47 L 632.63 1341.06 L 630.10 1337.15 L 618.31 1320.10 L 613.59 1312.64 L 610.31 1306.62 L 608.60 1302.62 L 607.67 1299.30 L 607.37 1296.55 L 607.15 1295.08 L 606.46 1293.36 L 605.16 1291.33 L 603.08 1288.90 L 600.08 1286.13 L 596.01 1283.05 L 590.65 1279.61 L 585.11 1276.55 L 578.52 1273.40 L 570.75 1270.17 L 562.86 1267.34 L 553.99 1264.64 L 544.05 1262.09 L 533.99 1259.58 L 524.72 1256.90 L 516.20 1254.09 L 508.38 1251.14 L 500.48 1247.75 L 493.37 1244.27 L 487.01 1240.73 L 481.34 1237.12 L 475.75 1233.04 L 470.94 1228.94 L 466.83 1224.84 L 463.37 1220.72 L 455.11 1210.08 L 452.10 1206.60 L 448.76 1203.22 L 445.08 1199.94 L 441.16 1196.98 L 436.66 1194.23 L 431.53 1191.72 L 427.61 1190.19 L 423.19 1188.86 L 418.23 1187.73 L 412.69 1186.84 L 407.31 1186.32 L 401.25 1186.10 L 394.43 1186.22 L 386.78 1186.72 L 379.61 1187.57 L 371.78 1188.86 L 363.24 1190.62 L 350.41 1193.74 L 336.79 1197.56 L 323.11 1201.78 L 309.39 1206.30 L 282.97 1215.58 L 259.49 1224.14 L 240.89 1230.73 L 233.52 1233.03 L 229.12 1234.08 L 217.90 1235.92 L 206.98 1237.49 Z" fill="#577a5e" fill-rule="nonzero" node-id="70" stroke-linecap="butt" stroke-width="1" target-height="489.36902" target-width="485.08997" target-x="203.5379" target-y="1186.101"></path><path d="M 191.40 1239.38 L 194.98 1238.93 L 204.37 1238.17 L 210.43 1237.95 L 217.55 1237.97 L 224.87 1238.36 L 232.49 1239.23 L 237.56 1240.12 L 242.44 1241.31 L 247.17 1242.81 L 251.73 1244.69 L 255.85 1246.95 L 259.57 1249.59 L 263.32 1249.84 L 273.00 1250.94 L 279.15 1251.94 L 286.22 1253.39 L 293.38 1255.27 L 300.61 1257.69 L 305.32 1259.64 L 309.71 1261.86 L 313.80 1264.34 L 317.58 1267.21 L 320.77 1270.38 L 323.40 1273.85 L 328.15 1281.96 L 331.32 1288.35 L 333.82 1294.39 L 335.46 1299.12 L 337.97 1307.02 L 339.31 1310.20 L 341.01 1312.91 L 345.39 1318.28 L 352.29 1326.63 L 360.41 1336.62 L 368.44 1346.94 L 372.11 1351.93 L 375.08 1356.24 L 377.60 1360.34 L 379.01 1363.21 L 380.13 1366.73 L 381.05 1371.54 L 381.48 1376.74 L 381.38 1382.74 L 380.96 1386.80 L 380.19 1391.01 L 379.04 1395.38 L 377.53 1399.62 L 375.55 1403.84 L 373.07 1408.04 L 370.18 1411.96 L 366.67 1415.72 L 362.51 1419.32 L 361.73 1416.10 L 359.15 1407.40 L 357.18 1401.67 L 354.46 1394.65 L 351.30 1387.36 L 347.32 1379.26 L 342.79 1371.14 L 337.40 1362.68 L 333.46 1357.18 L 329.12 1351.73 L 324.37 1346.32 L 320.64 1341.89 L 316.44 1336.20 L 307.09 1322.85 L 301.59 1315.44 L 294.95 1307.20 L 290.21 1301.78 L 284.80 1296.09 L 278.66 1290.12 L 272.30 1284.44 L 265.06 1278.58 L 256.88 1272.52 L 248.46 1266.88 L 238.95 1261.14 L 228.25 1255.31 L 217.34 1249.99 L 205.09 1244.67 L 191.40 1239.38 Z" fill="#345b4a" fill-rule="nonzero" node-id="72" stroke-linecap="butt" stroke-width="1" target-height="181.37097" target-width="190.08426" target-x="191.4" target-y="1237.949"></path><path d="M 608.24 1745.78 L 605.30 1734.30 L 600.27 1715.34 L 593.56 1690.66 L 585.54 1661.99 L 576.60 1631.09 L 567.15 1599.69 L 557.55 1569.54 L 552.75 1555.26 L 548.22 1542.39 L 543.65 1530.16 L 539.53 1519.98 L 529.55 1495.70 L 523.82 1481.90 L 517.19 1466.56 L 510.02 1450.89 L 501.83 1434.20 L 496.01 1423.11 L 489.69 1411.80 L 482.86 1400.28 L 475.68 1388.98 L 467.95 1377.70 L 459.65 1366.44 L 450.92 1355.51 L 441.57 1344.80 L 431.59 1334.32 L 423.80 1326.79 L 415.62 1319.48 L 407.05 1312.41 L 398.06 1305.57 L 388.84 1299.14 L 379.18 1293.05 L 369.05 1287.27 L 358.44 1281.83 L 363.56 1284.99 L 369.01 1288.61 L 377.32 1294.51 L 386.30 1301.36 L 397.33 1310.45 L 404.73 1316.95 L 412.68 1324.40 L 421.22 1332.85 L 429.44 1341.55 L 437.89 1351.18 L 446.58 1361.78 L 452.78 1369.89 L 458.92 1378.49 L 465.01 1387.62 L 471.04 1397.30 L 476.15 1406.26 L 481.51 1416.43 L 487.13 1427.91 L 495.17 1445.63 L 503.51 1465.42 L 511.61 1485.86 L 519.76 1507.58 L 527.68 1529.64 L 535.45 1552.16 L 542.97 1574.74 L 550.13 1596.93 L 563.40 1639.65 L 574.81 1678.10 L 583.93 1710.03 L 590.33 1733.22 L 593.59 1745.42 L 600.27 1772.61 L 603.70 1787.65 L 607.20 1803.78 L 610.55 1820.19 L 613.76 1836.96 L 616.73 1853.75 L 619.35 1870.15 L 621.60 1886.33 L 623.33 1901.37 L 624.55 1915.96 L 625.10 1928.65 L 625.09 1936.95 L 624.71 1944.02 L 624.04 1950.00 L 636.42 1950.00 L 636.78 1944.76 L 636.96 1938.80 L 636.93 1928.70 L 636.54 1917.16 L 635.52 1901.29 L 633.89 1883.93 L 631.18 1862.01 L 628.96 1846.89 L 626.11 1829.73 L 622.54 1810.35 L 618.64 1791.03 L 613.90 1769.56 L 608.24 1745.78 Z" fill="#345b4a" fill-rule="nonzero" node-id="74" stroke-linecap="butt" stroke-width="1" target-height="668.17004" target-width="278.5163" target-x="358.44" target-y="1281.83"></path><path d="M 597.82 1179.20 L 595.16 1177.40 L 588.11 1172.72 L 578.05 1166.22 L 566.35 1158.97 L 554.41 1152.06 L 548.64 1148.98 L 543.61 1146.54 L 538.82 1144.55 L 535.33 1143.49 L 531.09 1142.47 L 528.38 1141.66 L 526.10 1140.74 L 524.61 1139.87 L 523.33 1138.83 L 522.11 1137.55 L 518.95 1134.13 L 516.72 1132.00 L 513.23 1129.04 L 508.86 1125.81 L 504.86 1123.42 L 501.19 1121.75 L 498.30 1120.85 L 495.50 1120.37 L 492.78 1120.28 L 490.10 1120.59 L 487.51 1121.27 L 484.86 1122.37 L 482.10 1123.94 L 479.23 1126.04 L 475.51 1128.75 L 469.98 1132.11 L 463.77 1135.31 L 456.10 1138.64 L 450.74 1140.62 L 444.92 1142.45 L 438.60 1144.13 L 432.21 1145.46 L 425.52 1146.46 L 418.49 1147.09 L 411.43 1147.27 L 404.20 1146.93 L 396.76 1146.04 L 388.00 1144.39 L 381.49 1142.73 L 375.65 1140.79 L 371.23 1138.92 L 367.21 1136.86 L 363.83 1134.89 L 357.13 1130.93 L 353.50 1129.12 L 348.99 1127.33 L 343.98 1125.81 L 337.25 1124.36 L 326.61 1122.75 L 316.78 1121.82 L 310.28 1121.54 L 304.32 1121.56 L 298.87 1121.86 L 293.44 1122.50 L 288.72 1123.40 L 284.64 1124.54 L 280.72 1126.11 L 277.61 1127.90 L 275.19 1129.89 L 269.70 1135.85 L 266.70 1138.91 L 263.36 1141.74 L 260.95 1143.37 L 258.29 1144.68 L 255.36 1145.68 L 252.32 1146.23 L 248.84 1146.28 L 244.84 1145.76 L 240.94 1144.72 L 236.36 1142.88 L 230.98 1140.09 L 223.08 1135.30 L 214.95 1130.09 L 198.61 1119.43 L 190.34 1114.30 L 182.16 1109.61 L 176.62 1106.73 L 171.17 1104.24 L 165.82 1102.11 L 160.35 1100.36 L 155.02 1099.14 L 149.79 1098.43 L 144.58 1097.79 L 139.78 1096.85 L 135.37 1095.62 L 128.94 1093.27 L 122.94 1090.55 L 111.35 1084.41 L 105.53 1081.34 L 99.43 1078.42 L 95.25 1076.68 L 90.79 1075.13 L 86.02 1073.77 L 79.74 1071.88 L 72.07 1068.92 L 64.20 1065.40 L 55.64 1061.18 L 47.07 1056.65 L 38.50 1051.87 L 30.12 1046.96 L 22.43 1042.27 L 9.20 1033.70 L 3.89 1029.97 L 0.58 1027.44 L 5.69 1027.83 L 19.46 1028.82 L 39.61 1030.15 L 63.83 1031.56 L 89.80 1032.80 L 115.24 1033.61 L 127.28 1033.77 L 137.82 1033.73 L 147.71 1033.42 L 155.25 1032.89 L 160.07 1032.27 L 163.25 1031.56 L 165.23 1030.84 L 168.41 1029.04 L 171.30 1027.08 L 173.91 1024.94 L 177.55 1021.44 L 180.84 1017.81 L 186.97 1010.52 L 190.04 1007.12 L 193.21 1004.13 L 195.47 1002.38 L 197.90 1000.91 L 200.50 999.72 L 203.69 998.86 L 210.16 997.74 L 217.60 996.79 L 227.40 995.79 L 237.86 994.95 L 249.77 994.19 L 262.01 993.61 L 274.79 993.23 L 287.60 993.10 L 300.02 993.24 L 312.16 993.72 L 322.98 994.53 L 330.06 995.34 L 336.10 996.31 L 341.22 997.40 L 348.29 998.83 L 354.62 999.55 L 360.30 999.65 L 365.97 999.21 L 371.11 998.35 L 375.75 997.10 L 380.29 995.45 L 384.43 993.62 L 388.19 991.61 L 393.56 988.28 L 398.21 985.04 L 406.40 979.26 L 409.63 977.41 L 413.26 975.74 L 417.31 974.25 L 421.45 973.05 L 425.78 972.12 L 430.31 971.47 L 434.87 971.13 L 439.40 971.12 L 443.90 971.45 L 448.35 972.16 L 452.56 973.25 L 456.56 974.73 L 459.63 976.25 L 462.93 978.21 L 466.50 980.64 L 471.69 984.60 L 477.07 989.09 L 487.49 998.42 L 496.98 1006.94 L 501.31 1010.52 L 504.74 1012.99 L 512.80 1018.03 L 517.50 1021.05 L 522.59 1024.51 L 527.62 1028.23 L 532.47 1032.24 L 536.96 1036.56 L 540.77 1041.03 L 542.94 1044.22 L 544.62 1047.43 L 545.83 1050.68 L 548.74 1061.62 L 551.87 1073.49 L 553.64 1079.38 L 555.54 1084.87 L 557.72 1090.05 L 560.04 1094.36 L 561.85 1096.97 L 563.73 1099.01 L 565.67 1100.56 L 568.09 1102.48 L 571.86 1106.16 L 575.84 1110.49 L 580.65 1116.05 L 590.86 1128.62 L 601.32 1142.28 L 610.84 1155.41 L 618.24 1166.41 L 620.95 1170.93 L 622.34 1173.67 L 623.26 1176.58 L 623.49 1179.00 L 623.16 1181.04 L 622.53 1182.44 L 621.63 1183.60 L 620.43 1184.54 L 618.86 1185.27 L 616.62 1185.76 L 613.78 1185.74 L 610.18 1185.09 L 606.71 1183.95 L 602.63 1182.04 L 597.82 1179.20 Z" fill="#577a5e" fill-rule="nonzero" node-id="76" stroke-linecap="butt" stroke-width="1" target-height="214.6355" target-width="622.9076" target-x="0.5800171" target-y="971.12134"></path><path d="M 716.28 1950.00 L 730.82 1950.00 L 732.59 1853.81 L 733.12 1808.24 L 733.18 1765.71 L 732.86 1737.67 L 732.17 1711.04 L 731.12 1685.75 L 730.01 1666.64 L 728.59 1648.33 L 726.90 1630.79 L 724.94 1614.00 L 718.64 1562.86 L 711.80 1507.05 L 708.00 1478.12 L 703.82 1448.49 L 699.23 1418.80 L 694.13 1389.11 L 690.41 1369.37 L 686.41 1349.94 L 682.14 1330.82 L 677.49 1311.79 L 672.53 1293.37 L 667.26 1275.55 L 662.96 1262.21 L 658.46 1249.39 L 653.77 1237.07 L 648.90 1225.22 L 643.60 1213.40 L 638.09 1202.23 L 632.38 1191.70 L 626.48 1181.76 L 622.40 1175.63 L 617.62 1169.15 L 612.09 1162.31 L 606.32 1155.70 L 600.05 1148.98 L 593.25 1142.14 L 582.65 1132.25 L 571.43 1122.64 L 563.69 1116.48 L 555.92 1110.67 L 548.11 1105.19 L 540.11 1099.97 L 532.34 1095.31 L 524.78 1091.18 L 517.02 1087.40 L 509.75 1084.36 L 502.92 1081.99 L 497.61 1080.54 L 492.71 1079.59 L 488.20 1079.09 L 484.02 1079.01 L 467.97 1079.48 L 453.69 1079.71 L 439.89 1079.71 L 427.16 1079.47 L 414.65 1078.98 L 402.51 1078.23 L 390.37 1077.22 L 377.85 1075.92 L 370.14 1075.15 L 360.50 1074.38 L 339.03 1073.06 L 315.63 1071.97 L 292.46 1071.11 L 271.70 1070.48 L 255.52 1070.08 L 246.10 1069.92 L 234.96 1069.60 L 222.54 1068.74 L 209.88 1067.47 L 196.74 1065.83 L 183.62 1063.94 L 170.84 1061.89 L 146.97 1057.61 L 127.27 1053.70 L 113.88 1050.84 L 108.94 1049.73 L 116.87 1052.45 L 128.05 1055.71 L 140.27 1058.83 L 154.95 1062.13 L 170.35 1065.18 L 187.41 1068.09 L 204.90 1070.61 L 223.22 1072.70 L 235.54 1073.80 L 247.85 1074.59 L 260.16 1075.08 L 281.83 1075.98 L 306.38 1077.52 L 331.79 1079.54 L 356.02 1081.86 L 377.04 1084.32 L 388.48 1085.65 L 399.92 1086.67 L 411.36 1087.38 L 428.64 1087.98 L 446.55 1088.15 L 464.75 1088.01 L 484.15 1087.67 L 488.42 1087.81 L 492.89 1088.35 L 497.59 1089.31 L 502.55 1090.73 L 508.95 1093.06 L 515.60 1095.98 L 522.54 1099.55 L 529.29 1103.45 L 536.12 1107.77 L 543.04 1112.53 L 553.14 1120.08 L 562.99 1128.09 L 572.49 1136.40 L 581.31 1144.63 L 589.67 1152.93 L 596.93 1160.57 L 603.61 1168.06 L 608.79 1174.32 L 613.22 1180.23 L 615.81 1184.29 L 622.56 1196.59 L 628.93 1208.87 L 634.93 1221.11 L 640.63 1233.51 L 646.04 1246.18 L 651.18 1259.14 L 655.97 1272.22 L 660.57 1285.91 L 664.97 1300.22 L 669.02 1314.61 L 672.95 1329.92 L 676.75 1346.21 L 680.21 1362.54 L 683.61 1380.11 L 686.93 1398.97 L 691.48 1427.89 L 695.96 1460.35 L 700.09 1494.17 L 704.25 1532.21 L 708.19 1571.85 L 712.25 1616.41 L 714.78 1647.98 L 716.68 1677.28 L 718.09 1705.99 L 719.01 1733.23 L 719.53 1760.13 L 719.70 1786.36 L 719.56 1812.51 L 719.17 1838.79 L 717.89 1892.63 L 716.28 1950.00 Z" fill="#345b4a" fill-rule="nonzero" node-id="78" stroke-linecap="butt" stroke-width="1" target-height="900.27" target-width="624.2388" target-x="108.94" target-y="1049.73"></path><path d="M 845.75 458.81 L 848.39 460.76 L 855.16 465.82 L 864.40 472.79 L 874.40 480.49 L 883.48 487.73 L 889.95 493.31 L 893.64 496.34 L 897.78 499.02 L 902.16 501.41 L 906.65 503.67 L 911.14 505.90 L 915.36 508.19 L 919.31 510.72 L 922.67 513.49 L 924.18 515.21 L 925.60 517.31 L 926.92 519.83 L 928.61 523.85 L 930.22 528.48 L 933.27 538.29 L 934.93 543.29 L 936.80 548.11 L 938.99 552.70 L 941.52 556.77 L 944.09 560.05 L 947.21 563.55 L 950.94 567.29 L 956.92 572.55 L 963.65 577.67 L 968.37 580.82 L 973.16 583.65 L 978.02 586.15 L 982.84 588.53 L 986.75 590.80 L 989.88 592.96 L 992.04 594.84 L 993.73 596.81 L 994.99 598.88 L 995.87 601.07 L 996.62 603.11 L 997.76 605.25 L 999.36 607.50 L 1001.21 609.53 L 1003.60 611.62 L 1006.62 613.76 L 1009.82 615.60 L 1013.72 617.43 L 1018.42 619.23 L 1020.46 620.19 L 1022.58 621.67 L 1024.79 623.75 L 1027.79 627.35 L 1030.83 631.85 L 1033.64 636.71 L 1036.31 641.93 L 1038.77 647.25 L 1040.96 652.36 L 1044.55 661.54 L 1046.83 667.87 L 1047.80 669.90 L 1048.91 671.36 L 1050.13 672.36 L 1052.27 673.36 L 1054.39 673.74 L 1056.48 673.72 L 1058.07 673.48 L 1059.64 673.07 L 1058.58 648.07 L 1058.23 645.50 L 1057.23 638.98 L 1055.64 630.30 L 1053.52 621.23 L 1052.25 616.99 L 1050.95 613.58 L 1049.86 610.52 L 1049.09 607.38 L 1048.62 604.15 L 1047.92 594.27 L 1047.45 589.34 L 1046.51 584.58 L 1045.50 581.53 L 1044.02 578.58 L 1042.03 575.71 L 1038.96 571.48 L 1036.63 567.38 L 1034.75 563.21 L 1033.33 559.33 L 1031.13 552.18 L 1030.09 549.06 L 1029.03 546.61 L 1027.89 544.86 L 1025.33 541.68 L 1022.21 538.22 L 1017.93 533.86 L 1013.21 529.39 L 1007.61 524.49 L 1001.65 519.67 L 995.13 514.88 L 988.32 510.40 L 981.28 506.36 L 976.43 503.96 L 971.61 501.93 L 966.82 500.25 L 959.58 497.84 L 952.95 495.20 L 946.87 492.33 L 941.30 489.26 L 935.94 485.74 L 930.99 481.84 L 926.42 477.56 L 922.22 472.88 L 918.48 467.89 L 914.98 462.33 L 911.74 456.13 L 908.76 449.25 L 906.89 445.39 L 904.25 441.30 L 900.74 436.94 L 896.90 432.86 L 892.52 428.69 L 887.57 424.42 L 879.82 418.35 L 871.59 412.45 L 863.18 406.87 L 855.11 401.81 L 840.46 393.26 L 829.97 387.56 L 825.96 385.49 L 828.77 387.97 L 836.14 394.60 L 846.54 404.18 L 858.39 415.50 L 870.15 427.36 L 875.61 433.24 L 880.25 438.56 L 884.36 443.75 L 887.14 447.88 L 890.72 453.41 L 894.75 458.87 L 899.01 464.13 L 903.23 469.01 L 911.09 477.62 L 916.82 484.01 L 918.57 486.44 L 918.91 487.49 L 918.68 487.81 L 917.98 488.01 L 916.38 487.98 L 913.84 487.59 L 910.17 486.77 L 901.80 484.39 L 892.76 481.34 L 884.57 478.13 L 881.10 476.54 L 878.75 475.28 L 872.14 471.64 L 863.56 467.32 L 854.98 463.16 L 848.39 460.04 L 845.75 458.81 Z" fill="#e25813" fill-rule="nonzero" node-id="80" stroke-linecap="butt" stroke-width="1" target-height="288.25" target-width="233.67987" target-x="825.96" target-y="385.49"></path><path d="M 1052.34 585.77 L 1052.75 581.90 L 1053.53 571.67 L 1053.84 565.01 L 1053.99 557.12 L 1053.89 548.95 L 1053.45 540.31 L 1052.59 531.66 L 1051.23 523.29 L 1050.05 518.73 L 1048.40 514.08 L 1046.26 509.33 L 1042.50 502.45 L 1038.21 495.74 L 1033.59 489.33 L 1029.07 483.54 L 1020.85 473.73 L 1015.55 467.34 L 1015.17 466.12 L 1014.48 465.89 L 1013.90 465.69 L 1011.07 464.34 L 1007.52 462.18 L 1003.91 459.65 L 1000.00 456.60 L 996.15 453.34 L 992.38 449.90 L 988.79 446.38 L 985.67 443.06 L 982.88 439.75 L 980.90 437.02 L 977.69 432.35 L 973.99 427.57 L 970.02 423.01 L 966.01 419.00 L 963.18 416.54 L 960.55 414.61 L 958.11 413.15 L 954.15 411.55 L 949.35 410.28 L 938.44 407.98 L 932.50 406.41 L 926.02 404.09 L 922.69 402.39 L 918.55 399.69 L 914.38 396.56 L 909.88 392.87 L 901.16 385.06 L 893.51 377.70 L 888.08 372.23 L 886.02 370.09 L 887.46 373.10 L 891.28 381.16 L 896.75 392.83 L 903.15 406.66 L 909.74 421.20 L 915.78 435.01 L 920.55 446.65 L 923.29 453.28 L 925.62 458.14 L 928.06 462.44 L 930.29 465.72 L 932.65 468.66 L 935.06 471.30 L 940.44 476.81 L 943.39 480.00 L 946.94 484.18 L 950.50 488.89 L 953.80 493.75 L 956.84 498.79 L 959.62 503.98 L 962.12 509.30 L 964.34 514.77 L 1008.34 551.20 L 1051.72 584.20 L 1048.56 574.01 Z" fill="#e25813" fill-rule="nonzero" node-id="82" stroke-linecap="butt" stroke-width="1" target-height="215.68002" target-width="167.97247" target-x="886.01996" target-y="370.09"></path><path d="M 1110.30 514.62 L 1114.04 505.09 L 1117.37 495.43 L 1120.28 485.64 L 1122.77 475.73 L 1124.85 465.72 L 1126.50 455.62 L 1128.87 435.79 L 1130.77 415.91 L 1132.08 397.69 L 1132.66 382.85 L 1132.62 376.87 L 1132.37 373.12 L 1131.21 365.91 L 1129.06 354.81 L 1126.24 341.45 L 1123.07 327.47 L 1119.87 314.48 L 1116.98 304.13 L 1115.63 300.15 L 1114.71 298.03 L 1116.74 301.69 L 1121.74 311.56 L 1124.77 318.08 L 1128.12 325.94 L 1131.30 334.20 L 1134.28 343.15 L 1136.02 349.25 L 1137.46 355.37 L 1138.61 361.50 L 1139.38 367.68 L 1139.67 373.61 L 1139.50 379.31 L 1137.60 403.01 L 1136.06 422.04 L 1135.03 434.71 L 1134.66 439.31 L 1135.31 442.43 L 1135.86 445.86 L 1136.45 451.25 L 1136.82 457.25 L 1136.86 464.92 L 1136.43 473.07 L 1135.32 482.62 L 1134.21 489.07 L 1132.64 496.02 L 1130.60 503.49 L 1128.18 510.83 L 1125.16 518.56 L 1121.48 526.71 Z" fill="#e25813" fill-rule="nonzero" node-id="84" stroke-linecap="butt" stroke-width="1" target-height="228.67996" target-width="29.374268" target-x="1110.3" target-y="298.03"></path><path d="M 942.08 302.58 L 941.10 305.05 L 938.78 311.81 L 937.46 316.32 L 936.07 321.85 L 934.88 327.69 L 933.90 334.18 L 933.31 340.85 L 933.21 347.80 L 933.70 356.49 L 934.60 364.84 L 935.84 372.98 L 937.21 380.32 L 940.01 393.05 L 942.01 401.80 L 943.33 410.37 L 945.02 421.94 L 946.13 428.18 L 947.49 434.38 L 949.18 440.37 L 951.14 445.57 L 955.52 455.28 L 960.95 467.50 L 966.36 480.57 L 968.78 487.02 L 970.70 492.79 L 972.19 498.31 L 972.91 502.49 L 973.38 504.32 L 974.53 506.71 L 976.59 509.80 L 980.22 514.28 L 985.17 519.61 L 990.59 524.96 L 996.65 530.59 L 1009.05 541.44 L 1020.37 550.81 L 1028.63 557.41 L 1031.82 559.90 L 1032.13 557.22 L 1032.32 554.39 L 1032.40 550.24 L 1032.21 545.76 L 1031.60 540.53 L 1030.51 535.21 L 1028.75 529.68 L 1027.18 526.10 L 1025.22 522.63 L 1022.82 519.26 L 1018.68 514.56 L 1013.93 509.86 L 1003.51 500.41 L 998.07 495.43 L 992.52 490.00 L 987.15 484.21 L 981.91 477.73 L 978.68 473.16 L 975.59 468.16 L 972.66 462.70 L 967.61 451.99 L 963.31 442.08 L 959.69 432.93 L 956.71 424.49 L 953.10 412.84 L 950.40 402.57 L 948.51 393.56 L 944.99 374.82 L 943.44 364.95 L 942.20 354.18 L 941.67 346.89 L 941.43 339.03 L 941.51 330.56 L 941.94 315.45 L 942.10 307.02 L 942.11 303.37 L 942.08 302.58 Z" fill="#513666" fill-rule="nonzero" node-id="86" stroke-linecap="butt" stroke-width="1" target-height="257.31998" target-width="99.185974" target-x="933.21" target-y="302.58"></path><path d="M 1098.39 644.94 L 1095.84 642.56 L 1093.23 639.92 L 1089.55 635.86 L 1085.77 631.26 L 1081.58 625.53 L 1078.93 621.47 L 1076.40 617.05 L 1073.97 612.26 L 1071.87 607.32 L 1070.15 602.15 L 1068.79 596.72 L 1068.11 592.19 L 1065.51 577.62 L 1063.37 566.90 L 1060.11 551.60 L 1056.29 534.68 L 1051.05 512.66 L 1044.60 486.36 L 1039.93 467.06 L 1036.70 452.46 L 1035.51 446.11 L 1034.58 440.24 L 1033.84 434.36 L 1033.23 428.08 L 1032.32 413.66 L 1031.52 401.81 L 1030.51 392.03 L 1029.27 382.92 L 1028.05 375.58 L 1025.72 363.51 L 1024.82 358.68 L 1024.32 355.06 L 1024.09 351.69 L 1024.09 348.35 L 1024.36 344.89 L 1025.00 340.62 L 1025.94 335.99 L 1027.42 329.79 L 1031.75 313.74 L 1035.58 299.75 L 1039.60 284.67 L 1043.42 270.13 L 1046.64 257.73 L 1048.86 249.11 L 1049.69 245.87 L 1048.50 248.87 L 1045.31 256.82 L 1040.69 268.16 L 1035.21 281.32 L 1029.45 294.72 L 1023.97 306.79 L 1019.34 315.98 L 1017.16 320.30 L 1015.31 324.68 L 1013.77 329.12 L 1011.97 335.84 L 1010.80 342.15 L 1010.14 348.28 L 1009.98 353.39 L 1010.27 358.08 L 1010.87 361.15 L 1012.73 367.02 L 1015.71 376.39 L 1019.05 387.82 L 1020.64 393.88 L 1022.04 399.88 L 1023.18 405.81 L 1023.92 411.14 L 1024.21 416.21 L 1023.96 420.15 L 1022.42 428.66 L 1020.02 440.45 L 1017.20 453.93 L 1014.37 467.54 L 1011.99 479.71 L 1010.47 488.88 L 1010.16 492.20 L 1010.26 493.47 L 1010.89 494.70 L 1011.74 495.51 L 1012.82 495.97 L 1014.03 496.10 L 1015.43 495.94 L 1017.06 495.43 L 1019.42 494.20 L 1021.97 492.28 L 1023.72 490.98 L 1025.43 490.06 L 1027.12 489.49 L 1028.88 489.21 L 1030.42 489.24 L 1031.78 489.55 L 1033.00 490.16 L 1033.89 491.02 L 1034.49 492.14 L 1036.40 496.89 L 1040.12 506.13 L 1044.51 517.97 L 1046.60 524.32 L 1048.41 530.55 L 1049.85 536.69 L 1050.67 541.98 L 1050.87 545.45 L 1050.67 548.20 L 1050.15 550.37 L 1047.57 556.41 L 1044.80 561.63 L 1039.58 570.55 L 1038.19 573.23 L 1037.34 575.48 L 1036.93 577.37 L 1036.97 579.37 L 1037.39 580.61 L 1038.20 581.55 L 1039.39 582.27 L 1042.59 583.44 L 1044.48 584.15 L 1046.69 585.20 L 1051.39 587.99 L 1054.22 589.98 L 1057.31 592.56 L 1060.21 595.52 L 1062.87 599.04 L 1064.36 601.60 L 1065.56 604.43 L 1066.47 607.54 L 1066.96 610.74 L 1066.99 614.27 L 1066.51 618.20 L 1063.76 633.03 L 1061.40 646.53 L 1059.74 656.35 L 1059.12 660.14 Z" fill="#513666" fill-rule="nonzero" node-id="88" stroke-linecap="butt" stroke-width="1" target-height="414.27002" target-width="88.40973" target-x="1009.98016" target-y="245.87001"></path><path d="M 1097.58 601.36 L 1099.08 596.82 L 1101.39 591.73 L 1104.12 586.56 L 1107.36 580.84 L 1114.24 568.50 L 1117.58 561.79 L 1120.73 554.51 L 1122.58 549.51 L 1124.20 544.23 L 1125.58 538.67 L 1126.30 534.38 L 1126.61 530.56 L 1126.57 527.16 L 1126.20 524.11 L 1125.21 520.07 L 1123.79 516.43 L 1121.95 513.15 L 1119.73 510.08 L 1117.22 507.16 L 1114.43 504.38 L 1109.98 500.40 L 1105.26 496.38 L 1100.58 492.25 L 1096.06 487.75 L 1093.55 484.70 L 1091.38 481.48 L 1089.54 478.08 L 1088.03 474.48 L 1086.43 469.51 L 1085.14 464.10 L 1084.18 458.23 L 1083.17 449.18 L 1082.36 439.03 L 1081.55 428.52 L 1080.40 416.89 L 1079.66 409.05 L 1079.28 401.82 L 1079.22 395.16 L 1079.65 385.25 L 1080.60 375.82 L 1081.95 366.46 L 1083.63 356.82 L 1087.45 336.11 L 1089.04 325.32 L 1089.82 316.73 L 1090.08 308.82 L 1089.94 303.01 L 1089.51 297.91 L 1089.08 294.86 L 1088.51 292.16 L 1088.08 292.22 L 1087.70 292.54 L 1087.03 293.66 L 1086.46 295.23 L 1085.73 298.34 L 1085.13 302.13 L 1084.51 308.16 L 1083.77 314.71 L 1082.84 320.09 L 1081.77 324.44 L 1080.37 328.73 L 1078.94 332.24 L 1077.48 335.09 L 1075.01 339.07 L 1072.69 342.20 L 1070.40 345.12 L 1068.44 347.84 L 1066.82 350.87 L 1065.48 354.39 L 1064.44 358.05 L 1063.69 361.52 L 1062.81 367.24 L 1062.57 369.59 L 1062.29 370.37 L 1061.59 371.65 L 1061.14 371.97 L 1060.69 371.81 L 1060.32 371.17 L 1059.83 369.25 L 1058.55 363.75 L 1056.02 354.26 L 1052.69 342.42 L 1048.98 329.84 L 1045.32 318.16 L 1042.15 309.00 L 1040.24 304.53 L 1037.80 299.81 L 1035.06 295.19 L 1032.17 290.86 L 1029.14 286.81 L 1026.37 283.59 L 1023.57 280.90 L 1021.51 279.47 L 1020.18 279.02 L 1019.31 279.20 L 1018.69 279.93 L 1018.43 280.97 L 1018.48 282.29 L 1018.95 283.99 L 1020.08 286.71 L 1022.05 290.86 L 1024.28 295.60 L 1027.20 302.33 L 1030.16 309.93 L 1033.63 320.17 L 1036.94 331.49 L 1040.55 346.13 L 1041.72 352.81 L 1042.32 359.35 L 1042.38 365.79 L 1042.02 372.23 L 1041.36 378.46 L 1040.41 384.48 L 1038.70 393.34 L 1036.96 401.42 L 1035.35 409.20 L 1034.31 415.83 L 1033.98 418.32 L 1033.28 424.51 L 1032.61 432.51 L 1032.51 437.39 L 1032.74 442.89 L 1033.35 449.09 L 1034.74 458.44 L 1036.72 468.66 L 1039.08 479.00 L 1041.76 489.53 L 1047.49 510.01 L 1052.95 528.39 L 1055.32 536.92 L 1057.50 545.88 L 1061.34 563.91 L 1064.76 581.15 L 1068.07 596.26 L 1069.83 602.85 L 1071.54 607.92 L 1073.81 613.20 L 1076.54 618.53 L 1079.55 623.73 L 1082.69 628.65 L 1085.95 633.34 L 1089.00 637.42 L 1092.02 641.16 L 1094.46 643.97 L 1096.74 646.33 L 1098.06 647.45 L 1097.46 644.84 L 1096.24 637.74 L 1095.68 633.05 L 1095.26 627.35 L 1095.14 621.38 L 1095.42 614.82 L 1096.19 608.18 L 1097.58 601.36 Z" fill="#e25813" fill-rule="nonzero" node-id="90" stroke-linecap="butt" stroke-width="1" target-height="368.42688" target-width="108.18732" target-x="1018.4257" target-y="279.02313"></path><path d="M 1128.82 629.14 L 1129.23 626.56 L 1129.85 623.93 L 1131.03 620.29 L 1132.66 616.55 L 1135.05 612.54 L 1136.98 610.04 L 1139.33 607.71 L 1142.12 605.53 L 1146.13 603.15 L 1149.88 601.42 L 1153.38 600.27 L 1157.00 599.50 L 1160.65 599.07 L 1164.33 598.96 L 1169.96 599.18 L 1176.20 599.68 L 1180.49 599.88 L 1184.15 599.80 L 1187.27 599.47 L 1191.67 598.55 L 1194.62 597.43 L 1196.31 596.41 L 1197.25 595.50 L 1197.67 594.68 L 1197.91 593.59 L 1197.96 592.17 L 1197.64 590.69 L 1196.64 588.81 L 1195.04 586.99 L 1192.07 584.69 L 1188.36 582.54 L 1182.59 579.92 L 1180.16 578.70 L 1178.27 577.38 L 1176.83 575.97 L 1175.79 574.45 L 1174.84 572.15 L 1174.46 569.79 L 1174.65 567.32 L 1175.33 564.90 L 1176.46 562.56 L 1178.08 560.27 L 1180.03 558.26 L 1182.32 556.53 L 1184.99 555.07 L 1187.84 554.05 L 1190.92 553.51 L 1194.29 553.46 L 1199.47 553.99 L 1205.31 554.75 L 1211.35 555.53 L 1217.92 556.22 L 1224.67 556.60 L 1231.85 556.53 L 1236.66 556.17 L 1241.65 555.46 L 1246.81 554.39 L 1251.88 552.94 L 1257.12 550.98 L 1262.55 548.46 L 1270.53 544.12 L 1278.67 539.41 L 1286.87 534.64 L 1295.31 529.99 L 1301.06 527.09 L 1306.97 524.45 L 1313.05 522.07 L 1319.25 520.08 L 1325.70 518.55 L 1332.42 517.49 L 1337.46 517.07 L 1342.72 517.02 L 1348.22 517.35 L 1353.97 518.09 L 1351.46 518.34 L 1344.95 519.16 L 1335.98 520.69 L 1331.08 521.77 L 1326.10 523.07 L 1321.23 524.64 L 1316.83 526.43 L 1313.12 528.34 L 1308.27 531.21 L 1297.43 538.33 L 1285.49 546.62 L 1273.63 554.94 L 1263.02 562.15 L 1258.33 565.11 L 1254.83 567.10 L 1251.67 568.90 L 1246.72 571.99 L 1234.88 579.84 L 1221.13 589.32 L 1207.27 599.05 L 1195.13 607.68 L 1186.52 613.85 L 1183.24 616.21 Z" fill="#513666" fill-rule="nonzero" node-id="92" stroke-linecap="butt" stroke-width="1" target-height="112.12103" target-width="225.1499" target-x="1128.8201" target-y="517.019"></path><path d="M 663.34 570.76 L 666.87 569.49 L 670.75 568.31 L 676.78 566.78 L 683.51 565.43 L 692.02 564.24 L 697.91 563.72 L 704.40 563.47 L 711.56 563.52 L 718.67 563.93 L 726.25 564.83 L 734.34 566.23 L 749.16 569.46 L 762.83 572.63 L 776.15 575.69 L 788.43 578.28 L 796.54 579.75 L 804.24 580.83 L 811.53 581.55 L 818.85 581.83 L 825.85 581.56 L 832.56 580.77 L 839.27 579.87 L 845.18 579.40 L 850.34 579.31 L 857.92 579.68 L 864.28 580.44 L 875.60 582.37 L 880.73 583.10 L 885.56 583.34 L 890.45 582.92 L 895.78 581.93 L 907.08 579.49 L 911.03 578.84 L 915.15 578.46 L 919.43 578.36 L 923.69 578.66 L 928.15 579.49 L 932.85 580.90 L 935.90 582.21 L 939.28 583.99 L 943.01 586.31 L 948.50 590.14 L 954.42 594.70 L 966.34 604.66 L 978.06 614.77 L 983.73 619.52 L 988.86 623.59 L 993.87 627.21 L 998.00 629.71 L 1005.73 634.03 L 1011.97 637.98 L 1015.86 640.77 L 1019.26 643.52 L 1022.22 646.24 L 1024.98 649.16 L 1027.45 652.20 L 1029.66 655.38 L 1031.86 658.25 L 1034.70 661.09 L 1037.86 663.71 L 1041.20 666.13 L 1044.61 668.34 L 1047.69 670.16 L 1052.67 672.83 L 1054.66 673.80 L 1034.47 689.80 L 1034.08 687.76 L 1032.94 682.74 L 1031.16 676.38 L 1030.02 673.15 L 1028.79 670.29 L 1027.35 667.76 L 1025.93 666.13 L 1024.12 664.84 L 1022.19 663.86 L 1020.14 663.17 L 1016.93 662.46 L 1013.66 661.99 L 1010.41 661.54 L 1007.39 660.91 L 1005.00 659.98 L 1001.49 658.04 L 997.85 655.62 L 993.78 652.51 L 989.83 649.08 L 986.10 645.35 L 982.77 641.39 L 980.24 637.56 L 978.83 635.76 L 976.99 634.37 L 974.62 633.38 L 972.05 632.80 L 969.16 632.51 L 965.89 632.54 L 960.96 633.05 L 955.85 634.00 L 950.84 635.29 L 946.31 636.71 L 942.10 638.28 L 939.05 639.62 L 935.98 641.25 L 931.38 643.96 L 920.66 650.67 L 908.79 658.20 L 897.67 665.03 L 892.73 667.84 L 889.20 669.62 L 886.06 670.68 L 880.98 671.73 L 875.34 672.51 L 868.45 673.18 L 861.25 673.67 L 853.51 674.03 L 838.05 674.32 L 823.98 674.14 L 813.20 673.52 L 808.57 673.21 L 802.15 673.04 L 795.25 673.05 L 787.26 673.24 L 779.04 673.61 L 770.43 674.18 L 761.83 674.95 L 753.55 675.92 L 745.52 677.14 L 738.53 678.51 L 732.05 680.22 L 727.26 682.00 L 728.41 680.19 L 729.89 678.32 L 732.60 675.49 L 735.94 672.59 L 740.89 669.03 L 744.51 666.81 L 748.96 664.44 L 754.38 661.92 L 759.89 659.71 L 766.44 657.50 L 774.14 655.29 L 788.32 651.44 L 800.32 647.87 L 811.46 644.25 L 820.10 641.19 L 827.77 638.19 L 832.61 636.04 L 835.60 634.44 L 836.73 633.60 L 836.96 633.19 L 836.58 632.68 L 834.79 631.51 L 829.26 628.73 L 821.78 625.41 L 813.77 622.07 L 806.63 619.27 L 801.78 617.53 L 794.41 615.43 L 781.68 611.76 L 766.00 606.82 L 757.79 603.95 L 749.78 600.90 L 742.07 597.58 L 735.43 594.28 L 725.82 589.23 L 721.40 587.12 L 717.09 585.23 L 712.68 583.51 L 707.86 581.83 L 702.77 580.26 L 696.74 578.59 L 682.36 575.04 L 663.34 570.76 Z" fill="#e25813" fill-rule="nonzero" node-id="94" stroke-linecap="butt" stroke-width="1" target-height="126.32855" target-width="391.3199" target-x="663.34" target-y="563.47144"></path><path d="M 910.43 989.22 L 908.86 986.35 L 907.30 983.18 L 905.13 978.18 L 903.00 972.55 L 900.73 965.35 L 898.78 957.60 L 897.13 948.51 L 896.37 942.27 L 895.93 935.55 L 895.82 928.30 L 896.13 921.09 L 896.94 913.46 L 898.29 905.39 L 900.14 897.43 L 902.70 889.11 L 906.00 880.40 L 911.69 867.26 L 918.26 852.86 L 925.22 838.21 L 932.77 822.91 L 940.58 807.56 L 948.66 792.18 L 956.88 776.94 L 965.04 762.27 L 973.24 747.96 L 981.03 734.82 L 988.78 722.25 L 995.76 711.42 L 1002.62 701.41 L 1008.34 693.71 L 1013.72 687.19 L 1019.48 680.97 L 1025.64 675.03 L 1032.14 669.47 L 1039.24 664.10 L 1046.97 658.93 L 1054.98 654.20 L 1063.84 649.60 L 1073.61 645.12 L 1083.55 641.10 L 1094.60 637.16 L 1106.82 633.31 L 1119.13 629.88 L 1132.78 626.50 L 1147.85 623.20 L 1180.63 616.35 L 1204.60 611.29 L 1221.66 607.91 L 1228.45 606.78 L 1233.70 606.09 L 1238.57 605.72 L 1242.59 605.71 L 1246.46 606.01 L 1250.23 606.63 L 1252.56 606.81 L 1255.86 606.52 L 1260.41 605.60 L 1267.35 603.59 L 1276.07 600.49 L 1285.16 596.84 L 1295.30 592.42 L 1305.59 587.65 L 1316.18 582.50 L 1326.71 577.16 L 1336.80 571.84 L 1346.59 566.49 L 1355.24 561.56 L 1363.32 556.73 L 1369.58 552.76 L 1374.99 548.99 L 1377.91 546.57 L 1374.91 549.87 L 1371.47 553.38 L 1365.79 558.80 L 1359.23 564.64 L 1350.42 571.90 L 1340.68 579.31 L 1328.65 587.70 L 1320.23 593.15 L 1310.82 598.83 L 1300.33 604.74 L 1289.70 610.31 L 1278.05 615.92 L 1265.31 621.57 L 1249.46 628.44 L 1236.61 634.34 L 1224.78 640.13 L 1215.37 645.07 L 1206.79 649.96 L 1200.05 654.15 L 1193.95 658.32 L 1189.14 661.95 L 1184.75 665.57 L 1181.09 668.85 L 1174.40 675.22 L 1171.11 678.30 L 1167.52 681.45 L 1163.03 684.95 L 1158.33 688.18 L 1153.40 691.15 L 1145.77 695.22 L 1137.93 698.95 L 1122.25 705.91 L 1114.61 709.42 L 1107.46 713.06 L 1095.92 719.05 L 1078.70 727.88 L 1057.92 738.86 L 1046.92 744.91 L 1035.73 751.29 L 1024.70 757.88 L 1014.26 764.48 L 1004.28 771.27 L 995.64 777.73 L 990.19 782.25 L 985.68 786.45 L 982.01 790.35 L 978.07 795.18 L 974.09 800.51 L 970.08 806.39 L 964.40 815.51 L 958.86 825.29 L 953.63 835.32 L 948.72 845.47 L 944.13 855.65 L 940.03 865.36 L 936.27 874.90 L 933.16 883.40 L 930.43 891.51 L 928.47 898.01 L 925.29 910.85 L 921.86 926.91 L 918.46 944.30 L 915.35 961.11 L 912.79 975.47 L 911.07 985.47 L 910.43 989.22 Z" fill="#345b4a" fill-rule="nonzero" node-id="96" stroke-linecap="butt" stroke-width="1" target-height="442.64996" target-width="482.08698" target-x="895.82294" target-y="546.57"></path><path d="M 812.82 1950.12 L 814.44 1941.41 L 818.98 1916.82 L 825.96 1878.67 L 834.87 1829.26 L 845.24 1770.90 L 856.56 1705.91 L 868.37 1636.61 L 880.16 1565.29 L 891.44 1494.27 L 896.77 1459.36 L 901.73 1425.87 L 906.40 1392.99 L 910.54 1362.39 L 914.30 1332.70 L 917.38 1306.15 L 919.96 1280.80 L 921.75 1259.46 L 922.62 1245.64 L 923.08 1234.12 L 923.18 1224.63 L 918.85 1214.52 L 914.69 1203.34 L 910.72 1191.01 L 907.22 1178.58 L 903.92 1165.39 L 900.84 1151.41 L 898.10 1137.38 L 895.58 1122.93 L 893.28 1108.06 L 890.30 1085.70 L 887.80 1063.22 L 885.74 1040.81 L 884.12 1019.12 L 882.88 997.80 L 882.02 978.02 L 881.46 958.90 L 881.22 942.16 L 881.24 926.37 L 881.49 913.78 L 881.98 902.43 L 882.56 895.13 L 883.72 885.27 L 885.09 875.23 L 888.21 855.64 L 891.43 837.82 L 894.31 823.27 L 896.38 813.45 L 897.17 809.85 L 899.75 813.16 L 902.33 816.85 L 905.96 822.66 L 909.56 829.26 L 913.47 837.73 L 915.81 843.68 L 917.99 850.32 L 919.98 857.70 L 921.51 865.17 L 922.58 873.24 L 923.16 881.96 L 923.19 888.45 L 922.80 895.24 L 921.98 902.37 L 920.70 909.85 L 917.93 924.63 L 915.78 938.37 L 914.21 951.14 L 913.03 963.98 L 912.24 976.06 L 911.81 987.41 L 911.62 1004.29 L 911.83 1020.04 L 912.63 1050.37 L 913.01 1058.20 L 913.87 1068.18 L 915.07 1078.74 L 916.64 1090.78 L 920.43 1116.44 L 924.75 1143.38 L 929.11 1169.85 L 933.02 1194.10 L 935.97 1214.36 L 936.98 1222.86 L 937.48 1228.88 L 937.80 1238.49 L 937.75 1250.00 L 937.28 1263.66 L 935.95 1284.69 L 933.78 1309.48 L 931.02 1335.38 L 927.52 1364.23 L 923.56 1393.93 L 919.01 1425.79 L 914.12 1458.22 L 908.79 1492.04 L 903.21 1526.15 L 897.37 1560.86 L 885.29 1630.14 L 873.06 1697.76 L 861.20 1761.60 L 850.26 1819.56 L 840.74 1869.50 L 833.17 1909.31 L 828.08 1936.88 L 826.47 1946.42 L 825.99 1950.09 Z" fill="#577a5e" fill-rule="nonzero" node-id="98" stroke-linecap="butt" stroke-width="1" target-height="1140.27" target-width="124.97839" target-x="812.82" target-y="809.85"></path><path d="M 759.25 1416.80 L 761.46 1432.07 L 763.56 1443.34 L 764.68 1448.05 L 765.81 1452.10 L 768.49 1459.80 L 771.87 1467.94 L 774.09 1473.63 L 776.27 1480.03 L 778.49 1486.64 L 781.14 1493.86 L 783.12 1498.67 L 785.50 1503.71 L 788.31 1508.99 L 791.42 1514.08 L 795.16 1519.39 L 799.61 1524.94 L 804.32 1530.24 L 809.11 1535.18 L 813.98 1539.76 L 819.11 1544.04 L 824.62 1548.01 L 830.55 1551.68 L 836.73 1554.89 L 843.66 1557.83 L 851.41 1560.49 L 859.31 1562.62 L 868.36 1564.48 L 878.67 1566.01 L 889.10 1567.02 L 899.27 1567.42 L 909.20 1567.24 L 916.64 1566.66 L 923.84 1565.66 L 930.81 1564.26 L 937.57 1562.46 L 944.19 1560.17 L 950.52 1557.41 L 956.58 1554.15 L 962.38 1550.39 L 966.74 1547.06 L 970.90 1543.35 L 974.87 1539.24 L 978.65 1534.72 L 982.25 1529.76 L 988.77 1519.79 L 994.39 1510.89 L 1004.64 1494.50 L 1009.54 1487.01 L 1014.39 1480.10 L 1019.50 1473.50 L 1025.02 1467.22 L 1028.92 1463.25 L 1033.21 1459.30 L 1037.91 1455.37 L 1041.52 1452.82 L 1045.96 1450.21 L 1051.33 1447.54 L 1059.76 1443.95 L 1069.53 1440.33 L 1079.70 1436.93 L 1090.50 1433.54 L 1112.19 1426.96 L 1122.81 1423.64 L 1132.59 1420.38 L 1141.91 1416.92 L 1149.66 1413.58 L 1154.56 1411.08 L 1158.42 1408.67 L 1161.39 1406.37 L 1166.12 1401.83 L 1170.45 1397.18 L 1174.38 1392.43 L 1177.94 1387.57 L 1182.35 1380.80 L 1186.32 1373.97 L 1189.87 1367.08 L 1194.75 1356.57 L 1199.17 1346.29 L 1202.76 1338.64 L 1207.05 1330.77 L 1216.49 1315.19 L 1221.26 1307.44 L 1225.66 1299.95 L 1229.62 1292.46 L 1232.71 1285.47 L 1234.00 1281.67 L 1235.21 1277.29 L 1236.30 1272.27 L 1237.61 1264.57 L 1238.74 1256.00 L 1240.47 1238.15 L 1241.94 1220.20 L 1243.59 1203.64 L 1245.88 1187.27 L 1248.45 1169.89 L 1249.62 1161.19 L 1250.54 1152.95 L 1251.18 1144.93 L 1251.39 1137.92 L 1251.25 1133.33 L 1250.85 1129.47 L 1250.22 1126.24 L 1248.78 1122.19 L 1246.35 1117.21 L 1240.31 1106.17 L 1237.19 1100.04 L 1234.32 1093.41 L 1232.72 1088.84 L 1231.49 1084.12 L 1230.64 1079.22 L 1230.30 1074.29 L 1230.58 1069.19 L 1231.51 1063.90 L 1232.62 1060.08 L 1234.24 1056.13 L 1236.40 1052.02 L 1239.16 1047.73 L 1244.16 1041.36 L 1249.44 1035.62 L 1255.01 1030.50 L 1260.94 1025.79 L 1266.92 1021.64 L 1272.95 1018.02 L 1279.20 1014.77 L 1285.22 1012.03 L 1291.04 1009.76 L 1296.99 1007.79 L 1302.41 1006.27 L 1307.33 1005.16 L 1314.52 1004.03 L 1319.89 1003.68 L 1327.89 1003.35 L 1334.02 1002.63 L 1337.88 1001.84 L 1341.10 1000.91 L 1343.76 999.85 L 1346.28 998.51 L 1348.45 997.02 L 1350.30 995.38 L 1351.25 994.25 L 1351.62 993.48 L 1351.63 992.93 L 1351.18 992.22 L 1350.04 991.68 L 1348.60 991.40 L 1346.76 991.26 L 1343.03 991.29 L 1340.07 991.38 L 1338.33 991.28 L 1334.59 990.79 L 1330.32 990.02 L 1324.72 988.74 L 1318.85 987.08 L 1312.28 984.81 L 1305.71 982.03 L 1299.07 978.57 L 1285.57 970.47 L 1278.43 966.38 L 1270.95 962.55 L 1265.81 960.28 L 1260.53 958.35 L 1255.08 956.76 L 1249.53 955.63 L 1243.79 955.05 L 1237.82 955.04 L 1232.99 955.48 L 1227.73 956.26 L 1221.99 957.40 L 1213.41 959.50 L 1204.51 962.01 L 1187.22 967.45 L 1171.94 972.32 L 1165.31 974.19 L 1160.51 975.22 L 1156.26 975.74 L 1149.47 976.29 L 1132.83 977.22 L 1113.09 978.17 L 1092.72 979.30 L 1082.89 980.00 L 1074.21 980.78 L 1066.10 981.75 L 1060.06 982.77 L 1055.62 983.92 L 1050.83 985.59 L 1045.64 987.85 L 1040.60 990.42 L 1035.45 993.39 L 1030.17 996.79 L 1022.54 1002.32 L 1015.22 1008.39 L 1010.56 1012.70 L 1006.28 1017.05 L 1002.37 1021.44 L 998.71 1026.06 L 995.65 1030.49 L 993.16 1034.77 L 990.33 1040.62 L 986.98 1048.26 L 979.37 1065.89 L 974.86 1075.61 L 969.55 1086.08 L 965.71 1093.01 L 961.46 1100.05 L 956.77 1107.20 L 951.77 1114.13 L 946.27 1120.95 L 940.26 1127.68 L 933.86 1134.03 L 926.88 1140.10 L 919.26 1145.90 L 894.68 1163.01 L 876.52 1175.52 L 863.53 1184.82 L 858.42 1188.83 L 854.47 1192.29 L 850.99 1195.84 L 848.12 1199.34 L 845.38 1203.37 L 842.01 1208.98 L 834.67 1222.36 L 826.33 1238.01 L 817.22 1254.48 L 812.42 1262.63 L 807.57 1270.34 L 803.91 1276.12 L 799.38 1283.73 L 794.75 1291.98 L 789.65 1301.61 L 784.65 1311.73 L 779.57 1322.79 L 774.79 1334.20 L 770.31 1346.09 L 767.60 1354.15 L 765.18 1362.22 L 763.06 1370.31 L 761.26 1378.48 L 759.91 1386.46 L 758.97 1394.28 L 758.51 1402.12 L 758.61 1409.62 L 759.25 1416.80 Z" fill="#577a5e" fill-rule="nonzero" node-id="100" stroke-linecap="butt" stroke-width="1" target-height="612.3848" target-width="593.12054" target-x="758.51447" target-y="955.04"></path><g node-id="135"><g clip-path="url(#clip-path)" group-id="1" id="sillyvg_g_0" node-id="102"><path d="M 1240.02 1014.78 L 1233.92 1018.24 L 1228.65 1021.75 L 1224.12 1025.32 L 1219.92 1029.27 L 1216.53 1033.17 L 1213.86 1037.02 L 1212.16 1040.14 L 1210.89 1043.19 L 1210.02 1046.18 L 1209.53 1049.13 L 1200.94 1054.14 L 1185.72 1063.29 L 1165.46 1075.89 L 1141.78 1091.24 L 1129.25 1099.66 L 1116.26 1108.64 L 1103.33 1117.89 L 1090.52 1127.39 L 1077.99 1137.11 L 1066.17 1146.78 L 1054.85 1156.64 L 1044.79 1166.13 L 1034.60 1176.43 L 1024.05 1187.69 L 1013.12 1199.96 L 1001.80 1213.29 L 991.06 1226.59 L 980.05 1240.95 L 968.75 1256.43 L 957.15 1273.07 L 946.18 1289.62 L 935.01 1307.33 L 923.65 1326.26 L 912.09 1346.46 L 901.19 1366.51 L 890.18 1387.82 L 879.07 1410.46 L 867.86 1434.47 L 847.09 1480.65 L 830.89 1517.43 L 816.41 1551.25 L 806.05 1576.46 L 799.80 1592.47 L 795.32 1604.67 L 792.27 1613.71 L 790.10 1621.10 L 788.93 1626.13 L 788.47 1629.38 L 788.47 1631.36 L 801.47 1631.36 L 801.82 1628.80 L 802.39 1625.77 L 803.67 1620.20 L 805.39 1613.72 L 808.24 1604.18 L 811.70 1593.57 L 816.72 1579.37 L 822.54 1563.93 L 830.33 1544.38 L 839.10 1523.42 L 850.28 1497.84 L 862.60 1470.68 L 877.77 1438.36 L 890.06 1412.97 L 901.82 1389.48 L 913.05 1367.79 L 924.64 1346.27 L 935.86 1326.29 L 946.72 1307.77 L 957.99 1289.46 L 969.08 1272.31 L 980.00 1256.28 L 991.34 1240.50 L 1002.71 1225.51 L 1014.12 1211.28 L 1025.90 1197.36 L 1037.96 1183.85 L 1050.28 1170.76 L 1057.13 1163.91 L 1064.46 1157.01 L 1072.29 1150.04 L 1084.38 1139.90 L 1097.04 1129.91 L 1109.95 1120.24 L 1122.85 1111.01 L 1135.76 1102.11 L 1148.07 1093.92 L 1171.03 1079.26 L 1190.09 1067.63 L 1203.57 1059.65 L 1209.81 1055.93 L 1210.67 1059.05 L 1212.02 1062.12 L 1213.91 1065.15 L 1216.37 1068.18 L 1219.10 1070.83 L 1222.42 1073.42 L 1226.41 1075.95 L 1231.14 1078.41 L 1234.32 1079.57 L 1237.46 1080.18 L 1240.61 1080.26 L 1243.81 1079.83 L 1246.93 1078.97 L 1250.08 1077.72 L 1253.29 1076.05 L 1256.58 1073.93 L 1260.67 1070.78 L 1264.77 1067.12 L 1268.89 1062.91 L 1274.68 1056.20 L 1280.19 1048.97 L 1285.35 1041.51 L 1289.95 1034.30 L 1294.17 1027.19 L 1297.59 1021.10 L 1302.58 1011.57 L 1304.37 1007.90 L 1301.12 1006.82 L 1297.57 1005.92 L 1292.05 1004.94 L 1288.13 1004.49 L 1283.54 1004.26 L 1278.17 1004.29 L 1272.86 1004.66 L 1266.98 1005.51 L 1260.49 1006.89 L 1254.15 1008.74 L 1247.34 1011.35 L 1240.02 1014.78 Z" fill="#345b4a" fill-rule="nonzero" group-id="1" node-id="104" stroke-linecap="butt" stroke-width="1" target-height="627.0974" target-width="515.9001" target-x="788.47003" target-y="1004.2626"></path></g></g><path d="M 828.04 1550.14 L 825.53 1557.31 L 822.96 1565.37 L 819.09 1578.64 L 815.11 1593.72 L 810.35 1613.88 L 807.33 1627.99 L 804.19 1644.22 L 800.92 1662.76 L 798.00 1681.36 L 795.17 1702.08 L 792.45 1725.05 L 789.96 1749.65 L 787.85 1773.67 L 786.03 1797.39 L 784.55 1819.86 L 783.31 1841.79 L 782.34 1861.78 L 781.00 1897.60 L 780.31 1925.47 L 780.06 1943.54 L 780.02 1949.97 L 764.61 1950.12 L 764.75 1944.34 L 765.19 1928.48 L 765.94 1904.81 L 767.02 1875.58 L 768.46 1843.04 L 770.28 1809.44 L 772.49 1777.02 L 773.77 1761.69 L 775.11 1748.06 L 776.63 1735.16 L 778.16 1724.79 L 785.47 1679.92 L 789.36 1657.20 L 793.71 1634.34 L 796.92 1619.13 L 800.52 1603.97 L 804.48 1588.83 L 808.90 1573.83 L 813.87 1558.95 L 819.40 1544.19 L 823.61 1533.98 L 826.48 1527.62 L 829.14 1522.51 L 830.60 1520.40 L 831.53 1519.65 L 832.04 1519.68 L 832.40 1520.32 L 832.61 1522.03 L 832.48 1525.19 L 831.47 1532.81 L 829.97 1540.97 L 828.63 1547.48 L 828.04 1550.14 Z" fill="#345b4a" fill-rule="nonzero" node-id="107" stroke-linecap="butt" stroke-width="1" target-height="430.46594" target-width="67.99902" target-x="764.61005" target-y="1519.654"></path><path d="M 416.67 1678.06 L 412.20 1677.05 L 407.45 1676.30 L 402.42 1675.81 L 394.81 1675.51 L 387.12 1675.65 L 379.50 1676.16 L 372.37 1676.92 L 365.53 1677.91 L 359.78 1678.95 L 354.52 1680.10 L 350.93 1681.06 L 345.81 1681.47 L 340.74 1682.21 L 335.74 1683.27 L 330.81 1684.65 L 325.98 1686.34 L 321.25 1688.35 L 315.83 1691.05 L 310.81 1693.93 L 306.17 1697.01 L 301.83 1700.45 L 297.99 1704.24 L 294.61 1708.39 L 292.44 1711.73 L 290.58 1715.39 L 289.03 1719.41 L 287.79 1723.81 L 287.00 1728.20 L 286.57 1733.09 L 286.54 1738.54 L 286.97 1744.61 L 288.37 1742.79 L 292.37 1738.39 L 295.16 1735.79 L 298.66 1733.01 L 302.51 1730.48 L 306.91 1728.25 L 311.51 1725.92 L 316.67 1722.61 L 321.76 1718.78 L 326.96 1714.36 L 331.98 1709.64 L 336.69 1704.76 L 341.07 1699.75 L 344.75 1695.07 L 347.09 1692.16 L 349.68 1689.50 L 352.52 1687.07 L 361.69 1692.36 L 373.23 1698.67 L 385.16 1705.40 L 390.80 1708.80 L 395.52 1711.90 L 398.93 1713.99 L 402.52 1715.76 L 406.32 1717.22 L 412.14 1718.90 L 417.85 1720.04 L 423.47 1720.76 L 428.32 1721.12 L 435.93 1721.21 L 438.86 1721.07 L 448.24 1725.36 L 447.68 1722.33 L 445.76 1714.62 L 444.21 1709.78 L 442.08 1704.28 L 439.48 1698.80 L 436.26 1693.37 L 433.78 1689.94 L 431.00 1686.80 L 427.92 1683.94 L 424.54 1681.49 L 420.80 1679.53 L 416.67 1678.06 Z" fill="#577a5e" fill-rule="nonzero" node-id="109" stroke-linecap="butt" stroke-width="1" target-height="69.09924" target-width="161.69513" target-x="286.54486" target-y="1675.5107"></path><path d="M 433.38 1721.27 L 434.43 1721.67 L 436.80 1722.97 L 438.09 1723.99 L 439.29 1725.32 L 440.20 1726.90 L 440.71 1728.87 L 441.06 1734.17 L 441.76 1743.40 L 442.37 1748.90 L 443.27 1755.01 L 444.47 1761.19 L 446.06 1767.40 L 448.10 1773.45 L 450.59 1779.01 L 452.59 1782.50 L 454.83 1785.57 L 457.31 1788.26 L 461.45 1791.89 L 465.75 1795.26 L 470.21 1798.38 L 477.01 1802.77 L 483.51 1806.74 L 489.77 1810.65 L 495.04 1814.28 L 498.26 1816.88 L 500.75 1819.42 L 502.60 1821.90 L 504.48 1825.38 L 506.58 1829.93 L 510.90 1840.20 L 513.25 1845.66 L 515.75 1851.08 L 518.48 1856.32 L 521.33 1860.99 L 523.45 1863.89 L 525.62 1866.31 L 527.83 1868.30 L 531.05 1870.54 L 534.89 1872.69 L 539.43 1874.71 L 544.11 1876.37 L 549.27 1877.77 L 554.95 1878.89 L 560.69 1879.62 L 566.76 1879.95 L 573.18 1879.86 L 579.57 1879.32 L 586.14 1878.26 L 592.90 1876.65 L 599.52 1874.52 L 606.18 1871.74 L 612.90 1868.29 L 617.72 1865.35 L 622.49 1861.97 L 627.24 1858.13 L 631.97 1853.80 L 633.62 1851.82 L 634.85 1849.69 L 635.67 1847.37 L 636.10 1844.84 L 636.08 1841.39 L 635.44 1837.74 L 634.10 1833.83 L 632.25 1830.12 L 629.81 1826.42 L 626.72 1822.70 L 623.26 1819.32 L 619.27 1816.20 L 614.72 1813.32 L 610.13 1810.50 L 605.78 1807.39 L 601.67 1803.98 L 597.78 1800.27 L 592.98 1794.94 L 588.68 1789.33 L 584.87 1783.42 L 581.52 1777.24 L 578.76 1771.05 L 576.56 1764.83 L 573.42 1754.18 L 572.31 1750.92 L 571.01 1747.96 L 569.53 1745.29 L 567.73 1742.88 L 565.46 1740.76 L 562.68 1738.92 L 559.62 1737.57 L 555.68 1736.51 L 550.66 1735.83 L 545.61 1735.64 L 539.22 1735.92 L 531.28 1736.76 L 524.66 1737.46 L 519.23 1737.73 L 514.84 1737.63 L 510.45 1737.16 L 506.94 1736.46 L 504.17 1735.56 L 501.52 1734.32 L 499.41 1732.99 L 497.75 1731.57 L 495.63 1729.13 L 494.06 1726.67 L 491.59 1721.88 L 490.30 1719.80 L 488.80 1718.20 L 486.37 1716.65 L 482.51 1714.93 L 478.16 1713.44 L 472.82 1711.96 L 467.20 1710.68 L 461.10 1709.53 L 454.90 1708.59 L 448.72 1707.89 L 442.61 1707.44 L 437.04 1707.29 L 434.04 1707.45 L 431.92 1707.82 L 430.48 1708.33 L 429.21 1709.12 L 428.43 1709.97 L 428.04 1710.91 L 427.95 1712.51 L 428.41 1714.28 L 429.25 1716.01 L 430.30 1717.65 L 432.39 1720.23 L 433.38 1721.27 Z" fill="#577a5e" fill-rule="nonzero" node-id="111" stroke-linecap="butt" stroke-width="1" target-height="172.65552" target-width="208.14587" target-x="427.95197" target-y="1707.29"></path><path d="M 673.82 1950.00 L 668.80 1939.10 L 662.48 1926.52 L 655.41 1913.61 L 646.88 1899.32 L 640.79 1889.82 L 634.00 1879.86 L 626.47 1869.40 L 618.66 1859.19 L 610.08 1848.64 L 600.69 1837.74 L 590.91 1827.13 L 580.64 1816.65 L 569.88 1806.30 L 558.85 1796.23 L 547.63 1786.44 L 536.23 1776.92 L 518.91 1763.12 L 501.90 1750.25 L 484.92 1737.99 L 469.01 1726.96 L 453.45 1716.57 L 439.70 1707.70 L 426.62 1699.51 L 416.12 1693.13 L 400.40 1683.90 L 394.69 1680.68 L 392.86 1680.18 L 388.49 1679.20 L 385.86 1678.79 L 383.21 1678.57 L 380.66 1678.64 L 378.69 1679.07 L 384.15 1682.29 L 399.19 1691.41 L 421.77 1705.63 L 434.95 1714.20 L 449.86 1724.13 L 465.15 1734.59 L 481.45 1746.10 L 497.83 1758.06 L 514.50 1770.73 L 530.96 1783.80 L 546.99 1797.21 L 557.45 1806.40 L 567.41 1815.58 L 576.88 1824.74 L 586.10 1834.18 L 594.51 1843.42 L 602.16 1852.49 L 612.87 1866.13 L 622.27 1878.78 L 630.46 1890.48 L 638.35 1902.43 L 645.13 1913.31 L 650.89 1923.19 L 656.38 1933.25 L 660.94 1942.15 L 664.67 1950.00 Z" fill="#577a5e" fill-rule="nonzero" node-id="113" stroke-linecap="butt" stroke-width="1" target-height="271.4336" target-width="295.13" target-x="378.69" target-y="1678.5664"></path><path d="M 849.38 1950.12 L 852.50 1936.00 L 855.55 1923.67 L 858.86 1911.88 L 862.34 1901.21 L 866.23 1890.92 L 870.55 1881.05 L 875.40 1871.38 L 881.00 1861.48 L 887.18 1851.58 L 894.48 1840.80 L 902.40 1829.79 L 911.78 1817.32 L 921.85 1804.34 L 933.72 1789.32 L 961.10 1755.12 L 972.27 1765.12 L 968.69 1768.74 L 959.08 1778.92 L 952.79 1785.88 L 945.11 1794.67 L 937.18 1804.11 L 928.44 1814.99 L 919.72 1826.41 L 910.76 1838.87 L 902.09 1851.78 L 893.72 1865.31 L 888.46 1874.55 L 883.56 1883.88 L 879.02 1893.31 L 874.88 1902.91 L 871.31 1912.43 L 868.31 1921.87 L 866.42 1929.09 L 864.95 1936.17 L 863.91 1943.14 L 863.27 1949.99 Z" fill="#577a5e" fill-rule="nonzero" node-id="115" stroke-linecap="butt" stroke-width="1" target-height="195" target-width="122.88989" target-x="849.38007" target-y="1755.12"></path><path d="M 1018.09 1678.49 L 1015.51 1678.16 L 1008.63 1677.78 L 1004.14 1677.85 L 998.76 1678.27 L 993.20 1679.12 L 987.20 1680.57 L 983.23 1681.87 L 979.26 1683.54 L 975.26 1685.59 L 971.46 1687.99 L 967.79 1690.86 L 964.24 1694.26 L 958.99 1699.51 L 953.40 1704.54 L 947.47 1709.36 L 938.25 1716.16 L 928.86 1722.49 L 910.45 1734.03 L 901.77 1739.43 L 894.24 1744.34 L 891.23 1746.76 L 888.65 1749.58 L 886.46 1752.81 L 884.72 1756.32 L 883.40 1760.06 L 882.51 1764.07 L 882.08 1768.17 L 882.11 1772.32 L 882.61 1776.55 L 883.57 1780.70 L 885.02 1784.73 L 886.96 1788.66 L 889.37 1792.31 L 892.31 1795.68 L 895.80 1798.80 L 898.65 1800.80 L 901.83 1802.57 L 905.38 1804.11 L 909.33 1805.39 L 915.57 1807.43 L 921.11 1809.81 L 926.00 1812.53 L 930.66 1815.66 L 934.84 1818.90 L 938.57 1822.25 L 943.80 1827.52 L 948.30 1832.45 L 952.60 1837.20 L 956.42 1841.02 L 959.09 1843.25 L 961.68 1844.83 L 964.20 1845.86 L 966.50 1846.32 L 969.45 1846.57 L 973.18 1846.55 L 978.90 1846.09 L 985.65 1845.10 L 992.59 1843.70 L 999.95 1841.87 L 1007.29 1839.71 L 1014.43 1837.25 L 1021.32 1834.48 L 1027.42 1831.59 L 1031.30 1829.44 L 1034.56 1827.34 L 1037.26 1825.28 L 1040.04 1823.39 L 1043.46 1821.82 L 1047.64 1820.60 L 1051.94 1819.85 L 1056.66 1819.46 L 1061.84 1819.46 L 1067.01 1819.83 L 1072.27 1820.57 L 1077.65 1821.68 L 1082.93 1823.15 L 1087.99 1824.94 L 1092.82 1827.07 L 1097.45 1829.59 L 1101.54 1832.37 L 1105.14 1835.43 L 1107.57 1838.02 L 1109.57 1840.73 L 1111.16 1843.58 L 1112.37 1846.59 L 1113.34 1850.83 L 1113.77 1855.36 L 1113.63 1860.22 L 1113.05 1865.08 L 1112.12 1870.04 L 1110.82 1875.11 L 1108.47 1882.57 L 1105.85 1889.67 L 1100.66 1902.36 L 1098.47 1907.79 L 1097.16 1911.59 L 1096.65 1914.00 L 1096.79 1915.24 L 1097.28 1915.82 L 1098.98 1916.20 L 1102.72 1916.25 L 1107.03 1915.92 L 1112.78 1915.15 L 1118.86 1914.05 L 1125.78 1912.52 L 1132.82 1910.65 L 1140.08 1908.38 L 1147.22 1905.73 L 1154.00 1902.73 L 1158.36 1900.47 L 1162.31 1898.09 L 1165.87 1895.59 L 1169.15 1892.77 L 1172.31 1889.48 L 1175.37 1885.69 L 1179.52 1879.58 L 1183.40 1872.75 L 1186.93 1865.62 L 1190.18 1858.25 L 1193.18 1850.81 L 1195.90 1843.66 L 1200.76 1830.46 L 1203.02 1824.64 L 1204.97 1820.13 L 1207.74 1814.64 L 1210.67 1809.68 L 1213.76 1805.21 L 1217.18 1801.00 L 1220.92 1797.13 L 1224.99 1793.57 L 1229.34 1790.36 L 1234.20 1787.32 L 1239.61 1784.46 L 1243.59 1782.20 L 1247.00 1779.69 L 1249.89 1776.93 L 1252.30 1773.92 L 1254.33 1770.59 L 1255.96 1767.04 L 1257.19 1763.24 L 1258.03 1759.16 L 1258.53 1753.64 L 1258.43 1747.75 L 1257.69 1741.45 L 1256.40 1735.21 L 1254.57 1728.75 L 1252.16 1722.03 L 1249.36 1715.46 L 1246.09 1708.83 L 1242.35 1702.15 L 1233.49 1687.56 L 1227.94 1678.89 L 1221.36 1669.12 L 1214.30 1659.25 L 1206.45 1649.03 L 1200.94 1642.34 L 1195.20 1635.83 L 1189.23 1629.50 L 1183.00 1623.42 L 1176.65 1617.83 L 1170.17 1612.70 L 1165.09 1609.12 L 1160.00 1605.96 L 1154.90 1603.21 L 1149.77 1600.86 L 1144.45 1598.89 L 1139.14 1597.46 L 1133.83 1596.55 L 1128.49 1596.15 L 1121.64 1596.20 L 1113.59 1596.69 L 1105.28 1597.69 L 1096.23 1599.40 L 1090.19 1600.92 L 1084.01 1602.85 L 1077.70 1605.22 L 1071.55 1607.98 L 1065.42 1611.26 L 1059.31 1615.10 L 1053.51 1619.38 L 1047.87 1624.33 L 1042.38 1629.97 L 1038.60 1634.46 L 1034.98 1639.41 L 1031.51 1644.84 L 1028.20 1650.79 L 1025.32 1656.81 L 1022.67 1663.40 L 1020.25 1670.61 L 1018.09 1678.49 Z" fill="#577a5e" fill-rule="nonzero" node-id="117" stroke-linecap="butt" stroke-width="1" target-height="320.09973" target-width="376.4511" target-x="882.0833" target-y="1596.15"></path><path d="M 1019.54 1672.98 L 1023.65 1674.70 L 1034.76 1679.91 L 1042.07 1683.69 L 1051.06 1688.70 L 1060.37 1694.32 L 1070.75 1701.14 L 1077.64 1706.02 L 1084.72 1711.40 L 1092.02 1717.32 L 1099.08 1723.49 L 1106.09 1730.15 L 1113.05 1737.31 L 1119.66 1744.79 L 1125.99 1752.74 L 1132.03 1761.20 L 1136.23 1767.74 L 1140.15 1774.56 L 1143.79 1781.66 L 1147.16 1789.06 L 1150.11 1796.58 L 1152.67 1804.39 L 1154.85 1812.52 L 1156.62 1820.98 L 1155.16 1816.39 L 1153.38 1811.48 L 1150.31 1803.99 L 1146.56 1795.86 L 1141.33 1785.82 L 1137.44 1779.07 L 1132.85 1771.78 L 1127.49 1763.93 L 1121.82 1756.33 L 1115.36 1748.48 L 1108.05 1740.35 L 1102.37 1734.55 L 1096.20 1728.75 L 1089.51 1722.94 L 1082.29 1717.14 L 1074.95 1711.73 L 1067.05 1706.46 L 1058.57 1701.32 L 1049.47 1696.33 L 1040.31 1691.84 L 1030.52 1687.60 L 1020.05 1683.65 L 1008.87 1679.98 L 1002.98 1677.98 L 1008.03 1677.84 L 1013.06 1678.02 L 1018.09 1678.53 L 1018.63 1676.24 L 1019.25 1673.99 L 1019.54 1672.98 Z" fill="#345b4a" fill-rule="nonzero" node-id="119" stroke-linecap="butt" stroke-width="1" target-height="148" target-width="153.64008" target-x="1002.98004" target-y="1672.98"></path><path d="M 502.57 702.06 L 502.01 698.16 L 500.79 687.39 L 500.18 680.16 L 499.64 671.16 L 499.31 661.65 L 499.26 650.88 L 499.58 639.80 L 500.37 627.96 L 501.70 616.00 L 503.69 603.81 L 505.41 595.71 L 507.49 587.72 L 509.93 579.82 L 514.72 566.15 L 519.73 552.64 L 524.90 539.35 L 529.99 526.82 L 539.82 503.90 L 548.31 485.43 L 554.56 472.96 L 556.89 468.96 L 557.66 468.05 L 558.36 467.88 L 558.73 468.08 L 558.91 468.69 L 558.85 469.94 L 558.48 471.75 L 557.49 475.25 L 555.47 481.30 L 554.12 486.27 L 552.68 493.67 L 551.99 498.91 L 551.52 505.26 L 551.35 512.88 L 551.42 525.67 L 551.48 540.07 L 551.53 554.33 L 551.56 566.68 L 551.58 575.38 L 551.59 578.67 L 543.59 628.22 Z" fill="#e25813" fill-rule="nonzero" node-id="121" stroke-linecap="butt" stroke-width="1" target-height="234.17554" target-width="59.648865" target-x="499.25812" target-y="467.88446"></path><path d="M 534.89 821.26 L 533.44 817.99 L 529.93 809.14 L 527.86 803.25 L 525.60 796.09 L 523.54 788.56 L 521.69 780.27 L 520.28 771.79 L 519.44 763.09 L 519.26 757.26 L 519.48 751.55 L 520.09 745.95 L 521.17 740.44 L 522.77 735.22 L 524.89 730.26 L 528.54 723.69 L 532.56 717.45 L 536.98 711.55 L 544.17 703.05 L 552.02 694.67 L 568.82 677.64 L 577.40 668.55 L 586.16 658.45 L 591.74 651.40 L 597.29 643.64 L 602.82 635.12 L 604.83 631.37 L 606.68 627.09 L 608.37 622.23 L 610.50 614.70 L 612.48 606.45 L 616.33 589.52 L 618.52 581.09 L 621.05 573.14 L 623.06 568.00 L 625.32 563.31 L 627.82 559.04 L 643.55 534.74 L 654.95 516.54 L 662.88 503.84 L 666.00 499.11 L 668.24 496.04 L 668.88 494.97 L 668.73 494.76 L 667.61 495.16 L 665.09 496.67 L 660.23 500.00 L 647.52 509.45 L 630.92 522.41 L 611.86 537.81 L 591.78 554.53 L 572.11 571.48 L 562.74 579.82 L 554.27 587.57 L 546.29 595.15 L 539.71 601.70 L 534.25 607.62 L 529.18 613.67 L 524.50 619.86 L 520.18 626.19 L 514.89 634.95 L 510.25 643.80 L 506.22 652.75 L 502.73 661.92 L 499.84 671.01 L 497.53 680.04 L 495.74 689.18 L 494.52 698.07 L 493.83 706.73 L 493.66 715.41 L 493.99 723.65 L 494.82 731.49 L 496.69 743.12 L 498.92 754.21 L 501.46 764.99 L 504.02 774.62 L 506.69 783.74 L 509.02 791.15 L 512.83 802.22 L 514.34 806.26 Z" fill="#e25813" fill-rule="nonzero" node-id="123" stroke-linecap="butt" stroke-width="1" target-height="326.50104" target-width="175.22717" target-x="493.65607" target-y="494.75897"></path><path d="M 867.82 742.38 L 864.81 740.77 L 861.49 739.19 L 856.28 737.04 L 850.43 734.98 L 842.98 732.85 L 837.78 731.66 L 832.02 730.66 L 825.64 729.86 L 819.25 729.42 L 812.39 729.37 L 805.02 729.74 L 791.45 731.04 L 778.91 732.42 L 766.69 733.75 L 755.47 734.75 L 748.08 735.18 L 741.10 735.30 L 734.52 735.11 L 727.98 734.51 L 721.78 733.43 L 715.88 731.89 L 709.99 730.24 L 704.79 729.10 L 700.20 728.41 L 693.41 727.87 L 687.66 727.84 L 677.36 728.33 L 672.71 728.41 L 668.38 728.07 L 664.07 727.10 L 659.42 725.53 L 649.63 721.90 L 644.39 720.37 L 638.75 719.38 L 634.92 719.16 L 630.86 719.42 L 626.51 720.20 L 623.65 721.08 L 620.44 722.36 L 616.85 724.10 L 611.54 727.07 L 605.75 730.68 L 594.01 738.68 L 582.44 746.83 L 576.86 750.65 L 571.84 753.89 L 566.97 756.72 L 563.03 758.59 L 555.68 761.76 L 549.66 764.75 L 544.16 768.01 L 539.59 771.33 L 535.50 775.03 L 531.93 779.09 L 529.65 781.55 L 526.81 783.89 L 523.70 785.99 L 520.46 787.87 L 514.23 790.90 L 509.50 792.82 L 507.62 793.49 L 523.82 811.04 L 524.40 809.16 L 525.97 804.56 L 528.27 798.76 L 529.64 795.84 L 531.05 793.29 L 532.63 791.07 L 534.06 789.70 L 535.82 788.69 L 537.64 787.99 L 539.54 787.58 L 542.48 787.30 L 545.45 787.24 L 548.40 787.20 L 551.17 786.96 L 553.40 786.36 L 556.75 784.94 L 560.25 783.08 L 564.23 780.63 L 568.13 777.85 L 571.87 774.77 L 575.27 771.43 L 577.95 768.12 L 579.41 766.58 L 581.21 765.50 L 583.43 764.84 L 585.78 764.60 L 588.39 764.67 L 591.31 765.09 L 595.64 766.14 L 600.09 767.65 L 604.42 769.45 L 608.29 771.33 L 611.86 773.30 L 614.42 774.92 L 616.96 776.81 L 620.76 779.92 L 629.57 787.51 L 639.32 796.03 L 648.48 803.79 L 652.56 807.03 L 655.50 809.13 L 658.18 810.51 L 662.58 812.10 L 667.51 813.51 L 673.58 814.95 L 679.95 816.26 L 686.82 817.50 L 700.57 819.60 L 713.13 821.08 L 722.80 821.77 L 726.96 822.02 L 732.69 822.62 L 738.84 823.44 L 745.93 824.56 L 753.22 825.88 L 760.83 827.43 L 768.41 829.17 L 775.67 831.06 L 782.70 833.15 L 788.78 835.27 L 794.37 837.64 L 798.44 839.89 L 797.61 838.04 L 796.51 836.11 L 794.41 833.12 L 791.75 829.98 L 787.74 826.04 L 784.75 823.52 L 781.05 820.76 L 776.51 817.75 L 771.84 815.01 L 766.25 812.15 L 759.64 809.16 L 747.44 803.86 L 737.14 799.07 L 727.62 794.35 L 720.25 790.44 L 713.75 786.71 L 709.68 784.10 L 707.20 782.26 L 706.29 781.33 L 706.12 780.91 L 706.66 780.38 L 709.08 779.23 L 716.15 776.73 L 725.05 774.00 L 733.49 771.65 L 739.21 770.27 L 746.01 769.15 L 757.76 767.19 L 772.28 764.37 L 779.91 762.64 L 787.39 760.69 L 794.63 758.48 L 800.91 756.14 L 811.71 751.89 L 816.63 750.24 L 821.58 748.83 L 826.72 747.64 L 832.75 746.53 L 839.23 745.55 L 847.42 744.52 L 867.82 742.38 Z" fill="#e25813" fill-rule="nonzero" node-id="125" stroke-linecap="butt" stroke-width="1" target-height="120.726746" target-width="360.2" target-x="507.62" target-y="719.16327"></path><path d="M 266.50 540.72 L 270.20 545.21 L 280.39 557.34 L 295.74 575.05 L 314.91 596.31 L 325.44 607.56 L 336.56 619.08 L 347.92 630.42 L 359.33 641.31 L 370.88 651.72 L 381.90 660.97 L 389.40 666.80 L 396.40 671.79 L 402.92 676.02 L 408.09 679.00 L 412.81 681.35 L 417.12 683.13 L 421.05 684.41 L 435.12 688.10 L 446.25 690.81 L 456.47 693.11 L 464.22 694.66 L 471.23 695.86 L 476.23 696.55 L 480.65 696.97 L 483.54 697.10 L 487.41 696.93 L 488.02 697.07 L 488.60 697.64 L 489.19 698.87 L 489.68 701.04 L 489.87 704.09 L 489.63 707.33 L 488.88 710.85 L 488.09 713.15 L 487.02 715.33 L 485.67 717.40 L 484.03 719.23 L 482.04 720.76 L 479.66 722.01 L 477.09 722.79 L 474.00 723.12 L 470.28 722.93 L 465.76 722.57 L 462.68 722.71 L 460.67 723.17 L 458.90 724.08 L 457.93 725.14 L 457.55 726.40 L 457.62 727.79 L 458.09 729.32 L 459.02 731.01 L 460.87 733.31 L 463.20 735.39 L 465.77 737.03 L 468.16 737.93 L 473.90 739.01 L 482.27 740.74 L 486.94 741.95 L 491.84 743.51 L 496.64 745.42 L 501.19 747.74 L 504.04 749.56 L 506.59 751.58 L 508.87 753.82 L 510.81 756.33 L 512.34 759.10 L 513.45 762.18 L 514.30 766.09 L 514.85 770.09 L 515.12 774.18 L 515.10 780.29 L 514.68 786.09 L 513.95 791.69 L 513.12 796.43 L 511.45 803.72 L 510.67 806.48 L 510.10 806.21 L 504.04 802.78 L 496.79 798.31 L 485.07 790.43 L 476.86 784.55 L 466.97 777.01 L 455.16 767.58 L 443.61 757.85 L 430.50 746.18 L 415.70 732.35 L 401.26 718.17 L 385.42 701.75 L 368.07 682.89 L 355.54 668.68 L 342.32 653.08 L 328.38 635.99 L 313.67 617.33 L 300.86 600.26 L 291.36 586.81 L 283.13 574.31 L 277.48 564.99 L 272.84 556.52 L 270.05 550.77 L 267.97 545.77 L 267.05 543.05 L 266.50 540.72 Z" fill="#513666" fill-rule="nonzero" node-id="127" stroke-linecap="butt" stroke-width="1" target-height="265.76" target-width="248.62317" target-x="266.5" target-y="540.72"></path><path d="M 216.67 663.93 L 220.34 667.99 L 230.77 678.90 L 237.96 686.04 L 247.11 694.77 L 256.99 703.77 L 268.49 713.71 L 280.65 723.62 L 294.07 733.84 L 303.32 740.44 L 312.95 746.92 L 322.98 753.25 L 332.49 759.35 L 342.74 766.49 L 353.00 774.08 L 363.50 782.19 L 384.09 798.80 L 403.35 814.78 L 420.10 828.58 L 427.48 834.41 L 433.19 838.66 L 439.20 842.53 L 447.68 847.25 L 456.98 851.97 L 468.04 857.22 L 479.63 862.46 L 492.24 867.96 L 518.22 878.90 L 543.94 889.44 L 567.36 898.98 L 578.03 903.62 L 587.40 908.28 L 595.59 912.95 L 601.57 916.84 L 607.01 920.87 L 611.97 925.04 L 616.45 929.35 L 620.65 933.98 L 624.52 938.92 L 628.07 944.17 L 631.31 949.75 L 634.16 955.46 L 636.82 961.66 L 639.29 968.40 L 641.56 975.69 L 646.72 994.43 L 652.30 1015.89 L 657.86 1038.03 L 662.95 1058.79 L 667.14 1076.15 L 669.98 1088.07 L 671.02 1092.49 L 675.76 1042.38 L 675.12 1037.23 L 674.24 1031.63 L 672.60 1022.88 L 670.47 1013.21 L 667.33 1000.96 L 663.50 988.04 L 658.41 973.10 L 654.60 963.04 L 650.13 952.33 L 644.98 940.94 L 631.78 912.73 L 624.88 898.75 L 617.38 884.93 L 611.98 875.93 L 606.05 867.07 L 599.58 858.34 L 594.45 852.06 L 588.85 845.87 L 582.78 839.78 L 576.21 833.77 L 569.45 828.18 L 562.03 822.69 L 553.92 817.31 L 545.07 812.03 L 536.18 807.30 L 526.41 802.70 L 515.70 798.24 L 503.98 793.94 L 476.18 784.77 L 450.99 777.01 L 426.72 770.02 L 405.85 764.40 L 386.22 759.45 L 370.80 755.80 L 348.11 750.87 L 340.05 749.30 L 335.30 747.28 L 330.15 744.91 L 322.11 740.93 L 313.26 736.23 L 302.06 729.84 L 290.32 722.61 L 276.75 713.58 L 267.67 707.14 L 258.01 699.88 L 247.75 691.75 L 237.76 683.36 L 227.40 674.10 L 216.67 663.93 Z" fill="#345b4a" fill-rule="nonzero" node-id="129" stroke-linecap="butt" stroke-width="1" target-height="428.56" target-width="459.09003" target-x="216.66998" target-y="663.93"></path><path d="M 687.13 999.23 L 685.20 1002.98 L 683.38 1007.29 L 680.90 1014.51 L 679.41 1019.73 L 677.93 1026.23 L 676.47 1034.19 L 675.39 1042.17 L 674.60 1051.53 L 674.16 1062.42 L 674.22 1073.28 L 674.87 1085.62 L 676.21 1099.60 L 678.07 1113.54 L 680.22 1127.43 L 682.66 1141.26 L 686.65 1161.86 L 690.79 1181.82 L 698.75 1219.96 L 702.13 1238.03 L 704.67 1254.39 L 705.91 1265.18 L 706.56 1274.95 L 706.68 1283.78 L 705.98 1306.03 L 704.92 1327.61 L 703.50 1348.56 L 701.72 1369.50 L 699.72 1389.61 L 697.51 1408.89 L 693.76 1437.43 L 689.84 1463.72 L 685.66 1489.15 L 681.63 1511.94 L 674.00 1552.50 L 672.64 1561.52 L 671.42 1574.26 L 670.57 1588.14 L 669.93 1604.98 L 669.54 1622.70 L 669.35 1642.61 L 669.36 1663.13 L 669.54 1685.06 L 670.31 1730.28 L 671.52 1776.18 L 672.99 1820.70 L 674.56 1861.77 L 676.07 1897.32 L 677.35 1925.27 L 678.24 1943.56 L 678.57 1950.12 L 665.20 1950.12 L 664.81 1943.83 L 663.76 1926.23 L 662.26 1899.25 L 660.49 1864.79 L 658.65 1824.78 L 656.94 1781.12 L 655.54 1735.75 L 655.03 1712.94 L 654.67 1690.57 L 654.48 1668.46 L 654.50 1647.50 L 654.75 1627.05 L 655.23 1608.46 L 656.03 1590.62 L 657.07 1575.36 L 658.01 1565.46 L 659.07 1557.10 L 660.20 1550.12 L 665.45 1521.03 L 671.26 1486.77 L 677.14 1449.25 L 679.94 1429.88 L 682.57 1410.37 L 684.97 1390.91 L 687.06 1372.03 L 688.81 1353.43 L 690.10 1336.13 L 690.94 1319.34 L 691.20 1304.57 L 691.04 1294.90 L 690.58 1286.50 L 689.86 1279.25 L 688.56 1271.05 L 686.72 1262.19 L 684.30 1252.64 L 680.10 1238.30 L 675.11 1222.97 L 664.16 1191.53 L 658.60 1175.52 L 653.33 1159.63 L 650.02 1148.98 L 647.08 1138.63 L 644.49 1128.56 L 642.26 1118.41 L 640.61 1108.78 L 639.52 1099.64 L 639.08 1092.69 L 639.07 1086.15 L 639.48 1079.98 L 640.28 1074.16 L 642.25 1065.15 L 644.56 1057.03 L 647.20 1049.71 L 650.30 1042.55 L 653.52 1036.18 L 656.84 1030.54 L 660.49 1025.08 L 664.02 1020.35 L 667.43 1016.28 L 672.72 1010.68 L 677.19 1006.56 L 681.46 1003.09 L 684.35 1001.00 L 687.13 999.23 Z" fill="#577a5e" fill-rule="nonzero" node-id="131" stroke-linecap="butt" stroke-width="1" target-height="950.89" target-width="67.60797" target-x="639.072" target-y="999.23"></path><path d="M 515.17 785.40 L 517.36 783.74 L 519.51 781.72 L 522.54 778.23 L 524.46 775.60 L 526.48 772.26 L 528.62 768.10 L 530.40 763.82 L 532.03 758.68 L 533.49 752.57 L 534.45 748.47 L 535.79 743.97 L 537.56 739.06 L 540.65 731.77 L 544.42 724.08 L 548.61 716.48 L 553.19 708.99 L 558.07 701.77 L 563.00 695.16 L 568.15 689.00 L 573.00 683.94 L 576.40 680.85 L 579.49 678.47 L 582.29 676.69 L 594.12 670.26 L 607.97 662.71 L 622.51 654.35 L 629.68 649.94 L 636.42 645.51 L 642.82 640.92 L 648.36 636.49 L 651.44 634.13 L 655.21 631.73 L 659.74 629.27 L 666.86 626.00 L 674.89 622.88 L 683.20 620.11 L 691.63 617.69 L 700.04 615.64 L 707.77 614.08 L 715.21 612.96 L 721.15 612.45 L 725.00 612.42 L 727.72 612.69 L 729.56 613.16 L 726.91 613.75 L 720.12 615.32 L 710.94 617.62 L 701.12 620.35 L 696.40 621.83 L 692.40 623.25 L 687.49 625.34 L 681.77 628.19 L 676.00 631.41 L 670.21 634.95 L 664.64 638.69 L 659.81 642.28 L 655.50 645.93 L 652.64 648.90 L 649.62 653.02 L 646.71 657.73 L 643.80 662.63 L 640.45 667.87 L 638.00 671.27 L 635.09 674.73 L 631.70 678.23 L 626.63 683.20 L 622.59 687.58 L 619.04 692.07 L 616.11 696.59 L 613.62 701.43 L 611.39 707.00 L 609.32 713.66 L 606.30 722.96 L 604.35 728.06 L 601.98 733.37 L 599.22 738.53 L 596.01 743.40 L 593.59 746.42 L 590.93 749.12 L 588.05 751.53 L 583.93 754.37 L 578.48 757.78 L 566.04 764.95 L 552.44 772.38 L 539.40 779.39 L 528.62 785.31 L 524.34 787.83 L 521.82 789.49 Z" fill="#e25813" fill-rule="nonzero" node-id="133" stroke-linecap="butt" stroke-width="1" target-height="177.07349" target-width="214.39001" target-x="515.17" target-y="612.4165"></path></svg>