<?xml version="1.0" standalone="no"?><!DOCTYPE svg PUBLIC "-//W3C//DTD SVG 1.1//EN" "http://www.w3.org/Graphics/SVG/1.1/DTD/svg11.dtd"><svg height="1024" legacy-metrics="false" node-id="1" sillyvg="true" template-height="1024" template-width="1024" version="1.1" viewBox="0 0 1024 1024" width="1024" xmlns="http://www.w3.org/2000/svg" xmlns:xlink="http://www.w3.org/1999/xlink"><defs node-id="46"></defs><path d="M 897.79 512.00 C 897.79 618.09 855.65 719.83 780.63 794.84 C 705.62 869.86 603.88 912.00 497.79 912.00 C 391.70 912.00 289.96 869.86 214.95 794.84 C 139.93 719.83 97.79 618.09 97.79 512.00 C 97.79 405.91 139.93 304.17 214.95 229.16 C 289.96 154.14 391.70 112.00 497.79 112.00 C 603.88 112.00 705.62 154.14 780.63 229.16 C 855.65 304.17 897.79 405.91 897.79 512.00 Z" fill="#c1f8f4" fill-rule="nonzero" node-id="48" stroke="none" target-height="800" target-width="800" target-x="97.79" target-y="112"></path><path d="M 105.44 584.00 L 104.22 583.77 C 104.22 584.05 104.33 584.33 104.38 584.61 Z" fill="#c1f8f4" fill-rule="nonzero" node-id="50" stroke="none" target-height="0.8399658" target-width="1.2200012" target-x="104.22" target-y="583.77"></path><path d="M 702.89 350.28 C 703.16 348.07 703.30 345.84 703.31 343.61 C 703.31 325.16 694.03 307.95 678.61 297.82 C 663.20 287.68 643.72 285.97 626.78 293.28 C 603.91 274.49 572.31 270.41 545.43 282.79 C 518.54 295.17 501.09 321.83 500.50 351.42 C 475.07 358.29 458.66 382.93 462.12 409.05 C 465.59 435.16 487.85 454.67 514.19 454.68 C 515.58 454.68 516.95 454.61 518.31 454.51 L 690.42 454.51 C 691.77 454.61 693.12 454.68 694.50 454.68 C 721.87 454.66 744.64 433.63 746.84 406.35 C 749.03 379.07 729.91 354.67 702.89 350.28 Z" fill="#ffffff" fill-rule="nonzero" node-id="52" stroke="none" target-height="178.96375" target-width="285.27795" target-x="461.71155" target-y="275.71625"></path><path d="M 475.95 475.41 L 358.75 475.41 L 358.75 203.57 L 475.95 150.33 L 475.95 475.41 Z" fill="#70c6da" fill-rule="nonzero" node-id="54" stroke="none" target-height="325.08002" target-width="117.20001" target-x="358.75" target-y="150.33"></path><path d="M 204.38 312.87 L 279.73 312.87 L 279.73 533.39 L 204.38 533.39 Z" fill="#93ede7" fill-rule="nonzero" node-id="56" stroke="none" target-height="220.52002" target-width="75.350006" target-x="204.38" target-y="312.87"></path><path d="M 242.05 360.77 L 317.40 360.77 L 317.40 562.69 L 242.05 562.69 Z" fill="#93d8e4" fill-rule="nonzero" node-id="58" stroke="none" target-height="201.92001" target-width="75.34999" target-x="242.05" target-y="360.77"></path><path d="M 475.96 127.75 L 551.31 127.75 L 551.31 470.36 L 475.96 470.36 Z" fill="#93d8e4" fill-rule="nonzero" node-id="60" stroke="none" target-height="342.61" target-width="75.350006" target-x="475.96" target-y="127.75"></path><path d="M 887.54 226.38 C 887.78 224.45 887.91 222.50 887.91 220.55 C 887.91 204.40 879.79 189.33 866.29 180.45 C 852.80 171.57 835.74 170.08 820.91 176.47 C 800.89 160.01 773.22 156.44 749.67 167.28 C 726.12 178.12 710.84 201.46 710.33 227.38 C 688.02 233.36 673.61 254.96 676.64 277.86 C 679.68 300.76 699.23 317.85 722.33 317.81 C 723.54 317.81 724.74 317.75 725.93 317.66 L 876.62 317.66 C 877.80 317.75 878.99 317.81 880.20 317.81 C 904.22 317.87 924.25 299.44 926.17 275.49 C 928.10 251.54 911.27 230.15 887.54 226.38 Z" fill="#dafffb" fill-rule="nonzero" node-id="62" stroke="none" target-height="156.68588" target-width="250.02618" target-x="676.28235" target-y="161.12411"></path><path d="M 163.00 293.15 C 160.18 297.45 157.44 301.81 154.79 306.22 L 184.79 293.15 Z" fill="#c1f8f4" fill-rule="nonzero" node-id="64" stroke="none" target-height="13.070007" target-width="30" target-x="154.79" target-y="293.15"></path><path d="M 204.38 284.64 L 204.38 293.15 L 287.08 293.15 C 288.26 293.24 289.45 293.31 290.65 293.31 C 314.68 293.38 334.71 274.95 336.63 251.00 C 338.56 227.05 321.73 205.65 298.00 201.88 C 298.24 199.94 298.36 197.99 298.36 196.04 C 298.37 186.72 295.66 177.60 290.55 169.81 C 239.38 200.91 195.80 243.05 163.00 293.15 L 184.84 293.15 Z" fill="#dafffb" fill-rule="nonzero" node-id="66" stroke="none" target-height="123.5" target-width="173.7688" target-x="163" target-y="169.81"></path><path d="M 591.89 176.67 L 690.67 176.67 L 690.67 519.28 L 591.89 519.28 Z" fill="#70c6da" fill-rule="nonzero" node-id="68" stroke="none" target-height="342.61005" target-width="98.77997" target-x="591.89" target-y="176.67"></path><path d="M 591.89 192.02 L 690.67 192.02 L 690.67 214.95 L 591.89 214.95 Z" fill="#93d8e4" fill-rule="nonzero" node-id="70" stroke="none" target-height="22.929993" target-width="98.77997" target-x="591.89" target-y="192.02"></path><path d="M 591.89 237.87 L 690.67 237.87 L 690.67 260.80 L 591.89 260.80 Z" fill="#93d8e4" fill-rule="nonzero" node-id="72" stroke="none" target-height="22.929993" target-width="98.77997" target-x="591.89" target-y="237.87"></path><path d="M 591.89 283.72 L 690.67 283.72 L 690.67 306.65 L 591.89 306.65 Z" fill="#93d8e4" fill-rule="nonzero" node-id="74" stroke="none" target-height="22.929993" target-width="98.77997" target-x="591.89" target-y="283.72"></path><path d="M 591.89 329.57 L 690.67 329.57 L 690.67 352.50 L 591.89 352.50 Z" fill="#93d8e4" fill-rule="nonzero" node-id="76" stroke="none" target-height="22.929993" target-width="98.77997" target-x="591.89" target-y="329.57"></path><path d="M 591.89 375.43 L 690.67 375.43 L 690.67 398.36 L 591.89 398.36 Z" fill="#93d8e4" fill-rule="nonzero" node-id="78" stroke="none" target-height="22.929993" target-width="98.77997" target-x="591.89" target-y="375.43"></path><path d="M 551.30 294.85 L 626.65 294.85 L 626.65 637.46 L 551.30 637.46 Z" fill="#70c6da" fill-rule="nonzero" node-id="80" stroke="none" target-height="342.61002" target-width="75.35004" target-x="551.3" target-y="294.85"></path><path d="M 822.41 603.74 L 723.64 603.74 L 723.64 261.12 L 822.41 312.87 L 822.41 603.74 Z" fill="#93d8e4" fill-rule="nonzero" node-id="82" stroke="none" target-height="342.62" target-width="98.76996" target-x="723.64" target-y="261.12"></path><path d="M 751.86 356.86 L 850.64 356.86 L 850.64 699.47 L 751.86 699.47 Z" fill="#5ea5ec" fill-rule="nonzero" node-id="84" stroke="none" target-height="342.61" target-width="98.78003" target-x="751.86" target-y="356.86"></path><path d="M 377.87 229.91 L 409.08 229.91 L 409.08 261.12 L 377.87 261.12 Z" fill="#93d8e4" fill-rule="nonzero" node-id="86" stroke="none" target-height="31.209991" target-width="31.209991" target-x="377.87" target-y="229.91"></path><path d="M 425.62 229.91 L 456.83 229.91 L 456.83 261.12 L 425.62 261.12 Z" fill="#93d8e4" fill-rule="nonzero" node-id="88" stroke="none" target-height="31.209991" target-width="31.209991" target-x="425.62" target-y="229.91"></path><path d="M 377.87 275.01 L 409.08 275.01 L 409.08 306.22 L 377.87 306.22 Z" fill="#93d8e4" fill-rule="nonzero" node-id="90" stroke="none" target-height="31.209991" target-width="31.209991" target-x="377.87" target-y="275.01"></path><path d="M 425.62 275.01 L 456.83 275.01 L 456.83 306.22 L 425.62 306.22 Z" fill="#93d8e4" fill-rule="nonzero" node-id="92" stroke="none" target-height="31.209991" target-width="31.209991" target-x="425.62" target-y="275.01"></path><path d="M 377.87 320.10 L 409.08 320.10 L 409.08 351.31 L 377.87 351.31 Z" fill="#93d8e4" fill-rule="nonzero" node-id="94" stroke="none" target-height="31.209991" target-width="31.209991" target-x="377.87" target-y="320.1"></path><path d="M 425.62 320.10 L 456.83 320.10 L 456.83 351.31 L 425.62 351.31 Z" fill="#93d8e4" fill-rule="nonzero" node-id="96" stroke="none" target-height="31.209991" target-width="31.209991" target-x="425.62" target-y="320.1"></path><path d="M 377.87 365.19 L 409.08 365.19 L 409.08 396.40 L 377.87 396.40 Z" fill="#93d8e4" fill-rule="nonzero" node-id="98" stroke="none" target-height="31.209991" target-width="31.209991" target-x="377.87" target-y="365.19"></path><path d="M 425.62 365.19 L 456.83 365.19 L 456.83 396.40 L 425.62 396.40 Z" fill="#93d8e4" fill-rule="nonzero" node-id="100" stroke="none" target-height="31.209991" target-width="31.209991" target-x="425.62" target-y="365.19"></path><path d="M 377.87 410.29 L 409.08 410.29 L 409.08 441.50 L 377.87 441.50 Z" fill="#93d8e4" fill-rule="nonzero" node-id="102" stroke="none" target-height="31.209991" target-width="31.209991" target-x="377.87" target-y="410.29"></path><path d="M 425.62 410.29 L 456.83 410.29 L 456.83 441.50 L 425.62 441.50 Z" fill="#93d8e4" fill-rule="nonzero" node-id="104" stroke="none" target-height="31.209991" target-width="31.209991" target-x="425.62" target-y="410.29"></path><path d="M 541.33 683.20 C 531.91 689.28 522.54 695.56 513.23 702.04 C 493.02 716.14 473.63 730.81 455.06 746.04 C 408.22 784.21 365.39 827.05 327.21 873.88 C 459.45 936.30 615.23 921.49 733.34 835.28 C 682.07 734.00 599.16 696.78 541.33 683.20 Z" fill="#8bc852" fill-rule="nonzero" node-id="106" stroke="none" target-height="228.88678" target-width="406.13004" target-x="327.21" target-y="683.2"></path><path d="M 782.90 792.51 C 847.27 727.23 887.18 641.77 895.90 550.51 C 797.70 562.10 693.66 595.86 593.47 651.81 C 693.91 679.31 754.91 751.00 782.90 792.51 Z" fill="#8bc852" fill-rule="nonzero" node-id="108" stroke="none" target-height="242" target-width="302.43005" target-x="593.47" target-y="550.51"></path><path d="M 782.90 792.51 C 754.90 751.03 693.90 679.31 593.47 651.81 C 575.96 661.59 558.58 672.05 541.33 683.20 C 599.16 696.78 682.07 734.01 733.33 835.28 C 750.99 822.39 767.57 808.09 782.90 792.51 Z" fill="#aad540" fill-rule="nonzero" node-id="110" stroke="none" target-height="183.47003" target-width="241.57" target-x="541.33" target-y="651.81"></path><path d="M 455.06 746.05 C 427.28 724.68 398.30 704.89 368.28 686.80 L 407.19 788.05 C 422.48 773.68 438.44 759.68 455.06 746.05 Z" fill="#5ea55c" fill-rule="nonzero" node-id="112" stroke="none" target-height="101.25" target-width="86.78" target-x="368.28" target-y="686.8"></path><path d="M 105.44 584.00 L 104.38 584.61 C 127.89 712.93 212.64 819.83 327.21 873.93 C 340.62 857.41 354.85 841.19 369.88 825.28 C 360.40 779.06 321.36 700.00 292.82 646.16 C 230.30 616.36 167.00 595.55 105.44 584.00 Z" fill="#5ea55c" fill-rule="nonzero" node-id="114" stroke="none" target-height="289.93" target-width="265.5" target-x="104.38" target-y="584"></path><path d="M 407.19 788.05 L 368.28 686.80 C 343.37 671.79 318.22 658.25 292.82 646.16 C 321.36 699.99 360.40 779.06 369.88 825.23 C 381.82 812.61 394.26 800.22 407.19 788.05 Z" fill="#8bc852" fill-rule="nonzero" node-id="116" stroke="none" target-height="179.07" target-width="114.369995" target-x="292.82" target-y="646.16"></path><path d="M 570.05 425.00 C 503.78 434.55 438.33 449.13 374.27 468.60 C 275.93 498.39 185.37 537.88 105.44 584.00 C 195.62 601.00 289.50 637.75 379.25 693.56 C 386.35 665.40 424.44 542.49 570.05 425.00 Z" fill="#4f8980" fill-rule="nonzero" node-id="118" stroke="none" target-height="268.56" target-width="464.61" target-x="105.44" target-y="425"></path><path d="M 888.28 425.00 C 819.15 413.62 743.49 410.17 663.96 415.21 C 598.00 458.84 431.76 581.68 418.23 719.16 C 430.62 727.76 442.89 736.72 455.06 746.05 C 473.64 730.85 493.03 716.18 513.23 702.05 C 637.00 615.72 771.13 565.22 895.94 550.54 C 897.15 537.86 897.79 525.00 897.79 512.00 C 897.80 482.74 894.61 453.57 888.28 425.00 Z" fill="#4f8980" fill-rule="nonzero" node-id="120" stroke="none" target-height="333.1004" target-width="479.55997" target-x="418.23" target-y="412.9496"></path><path d="M 377.87 699.48 L 417.35 733.66 C 417.44 728.81 417.76 723.98 418.23 719.16 C 405.34 710.21 392.34 701.66 379.23 693.51 C 378.26 697.39 377.87 699.48 377.87 699.48 Z" fill="#5ea55c" fill-rule="nonzero" node-id="122" stroke="none" target-height="40.149963" target-width="40.360016" target-x="377.87" target-y="693.51"></path><path d="M 664.00 415.22 C 633.23 417.17 601.93 420.41 570.09 424.95 C 424.44 542.49 386.35 665.40 379.25 693.51 C 392.34 701.65 405.34 710.20 418.25 719.16 C 431.76 581.68 598.00 458.84 664.00 415.22 Z" fill="#5ea55c" fill-rule="nonzero" node-id="124" stroke="none" target-height="303.93997" target-width="284.75" target-x="379.25" target-y="415.22"></path><path d="M 184.79 293.15 L 154.79 306.22 C 104.90 389.55 86.95 488.15 104.27 583.72 L 105.49 583.95 C 136.88 565.84 169.86 548.82 204.43 532.89 L 204.43 284.64 Z" fill="#70c6da" fill-rule="nonzero" node-id="126" stroke="none" target-height="299.31" target-width="106.58934" target-x="97.84065" target-y="284.64"></path></svg>