<?xml version="1.0" standalone="no"?><!DOCTYPE svg PUBLIC "-//W3C//DTD SVG 1.1//EN" "http://www.w3.org/Graphics/SVG/1.1/DTD/svg11.dtd"><svg height="1024" legacy-metrics="false" node-id="1" sillyvg="true" template-height="1024" template-width="1024" version="1.1" viewBox="0 0 1024 1024" width="1024" xmlns="http://www.w3.org/2000/svg" xmlns:xlink="http://www.w3.org/1999/xlink"><defs node-id="21"></defs><path d="M 909.02 514.98 C 909.02 620.28 867.19 721.26 792.74 795.72 C 718.28 870.17 617.30 912.00 512.00 912.00 C 406.70 912.00 305.72 870.17 231.26 795.72 C 156.81 721.26 114.98 620.28 114.98 514.98 C 114.98 409.68 156.81 308.70 231.26 234.24 C 305.72 159.79 406.70 117.96 512.00 117.96 C 617.30 117.96 718.28 159.79 792.74 234.24 C 867.19 308.70 909.02 409.68 909.02 514.98 Z" fill="#93ede7" fill-rule="nonzero" node-id="23" stroke="none" target-height="794.04" target-width="794.04004" target-x="114.98" target-y="117.96"></path><path d="M 512.00 118.00 C 447.88 117.91 384.71 133.42 327.92 163.19 C 321.99 190.06 319.00 217.49 319.00 245.00 C 319.00 454.15 488.55 623.71 697.70 623.71 C 771.88 623.82 844.45 602.04 906.31 561.09 C 908.09 545.79 908.99 530.40 909.00 515.00 C 909.00 295.71 731.27 118.00 512.00 118.00 Z" fill="#c1f8f4" fill-rule="nonzero" node-id="25" stroke="none" target-height="505.71002" target-width="590" target-x="319" target-y="118"></path><path d="M 624.00 311.17 L 513.46 541.59 C 509.34 550.18 514.46 560.97 522.63 560.97 L 662.79 560.97 C 670.23 560.97 675.36 569.97 672.71 578.44 L 634.00 701.59 C 629.64 715.46 644.88 725.81 652.33 714.04 L 793.60 491.14 C 798.98 482.67 794.00 470.40 785.19 470.40 L 631.19 470.40 C 624.46 470.40 619.43 462.91 620.79 454.92 L 643.56 320.25 C 646.00 306.00 630.07 298.56 624.00 311.17 Z" fill="#f4dd45" fill-rule="nonzero" node-id="27" stroke="none" target-height="414.38287" target-width="283.7887" target-x="512.0058" target-y="304.74805"></path><path d="M 776.43 365.53 L 642.67 365.53 C 606.17 365.54 575.14 338.91 569.60 302.84 C 564.06 266.77 585.67 232.05 620.49 221.11 C 611.02 182.10 627.19 141.35 660.84 119.45 C 626.36 131.48 598.20 156.92 582.74 190.00 C 550.81 165.89 507.16 164.46 473.72 186.44 C 440.28 208.41 424.28 249.04 433.74 287.92 C 398.92 298.86 377.31 333.58 382.85 369.65 C 388.39 405.72 419.42 432.35 455.92 432.34 L 786.22 432.34 C 787.22 432.34 788.15 432.29 789.09 432.20 C 790.03 432.11 790.99 432.34 791.96 432.34 C 830.02 432.34 861.86 403.43 865.52 365.54 L 776.43 365.54 Z" fill="#4278c3" fill-rule="nonzero" node-id="29" stroke="none" target-height="312.89" target-width="483.50397" target-x="382.01605" target-y="119.45"></path><path d="M 831.06 295.79 C 850.04 246.73 838.80 191.11 802.26 153.26 C 765.73 115.41 710.54 102.22 660.84 119.45 C 627.19 141.35 611.02 182.10 620.49 221.11 C 585.67 232.05 564.06 266.77 569.60 302.84 C 575.14 338.91 606.17 365.54 642.67 365.53 L 865.52 365.53 C 865.75 363.19 865.87 360.82 865.87 358.42 C 865.87 332.93 852.70 309.25 831.06 295.79 Z" fill="#5ea5ec" fill-rule="nonzero" node-id="31" stroke="none" target-height="253.52473" target-width="297.10394" target-x="568.76605" target-y="112.005264"></path><path d="M 395.50 780.51 L 255.35 780.51 C 247.15 780.51 242.05 769.73 246.17 761.14 L 290.68 668.38 L 179.82 668.38 C 166.27 668.40 152.97 664.67 141.40 657.62 C 182.88 765.00 268.79 849.18 377.00 888.45 L 405.42 798.00 C 408.07 789.55 402.94 780.51 395.50 780.51 Z" fill="#93ede7" fill-rule="nonzero" node-id="33" stroke="none" target-height="230.83002" target-width="264.69943" target-x="141.4" target-y="657.62"></path><path d="M 376.31 539.79 C 378.73 525.49 362.78 518.10 356.73 530.71 L 327.95 590.71 C 339.36 597.72 352.47 601.48 365.86 601.58 Z" fill="#f4dd45" fill-rule="nonzero" node-id="35" stroke="none" target-height="77.3031" target-width="48.599976" target-x="327.95" target-y="524.2769"></path><path d="M 517.94 689.94 L 363.94 689.94 C 357.22 689.94 352.19 682.46 353.54 674.46 L 354.54 668.38 L 290.68 668.38 L 246.17 761.14 C 242.05 769.73 247.17 780.51 255.35 780.51 L 395.50 780.51 C 402.94 780.51 408.07 789.51 405.42 797.99 L 377.00 888.45 C 387.00 892.06 397.19 895.27 407.56 898.09 L 526.34 710.69 C 531.73 702.21 526.75 689.94 517.94 689.94 Z" fill="#f4dd45" fill-rule="nonzero" node-id="37" stroke="none" target-height="229.71002" target-width="283.8244" target-x="244.71593" target-y="668.38"></path><path d="M 266.69 668.38 L 290.69 668.38 L 328.00 590.69 C 303.30 575.56 289.72 547.39 293.25 518.63 C 296.79 489.88 316.80 465.85 344.43 457.15 C 334.93 418.15 351.09 377.40 384.73 355.50 C 350.26 367.52 322.10 392.94 306.62 426.00 C 274.68 401.91 231.05 400.50 197.62 422.47 C 164.19 444.44 148.18 485.06 157.62 523.93 C 140.75 529.27 126.34 540.46 117.00 555.50 C 120.55 590.47 128.76 624.82 141.40 657.62 C 152.97 664.67 166.27 668.40 179.82 668.38 Z" fill="#5ea5ec" fill-rule="nonzero" node-id="39" stroke="none" target-height="312.88" target-width="267.73" target-x="117" target-y="355.5"></path><path d="M 431.84 668.38 L 510.11 668.38 C 511.07 668.38 512.03 668.33 512.98 668.23 C 513.93 668.23 514.88 668.38 515.85 668.38 C 553.92 668.38 585.75 639.46 589.41 601.57 L 365.86 601.57 L 354.56 668.39 Z" fill="#5ea5ec" fill-rule="nonzero" node-id="41" stroke="none" target-height="66.82001" target-width="234.84998" target-x="354.56" target-y="601.57"></path><path d="M 313.58 668.38 L 354.58 668.38 L 365.88 601.56 C 352.50 601.45 339.40 597.69 328.00 590.69 L 290.73 668.38 Z" fill="#5ea5ec" fill-rule="nonzero" node-id="43" stroke="none" target-height="77.69" target-width="75.149994" target-x="290.73" target-y="590.69"></path><path d="M 554.94 531.83 C 573.92 482.77 562.68 427.15 526.15 389.31 C 489.61 351.46 434.43 338.27 384.73 355.50 C 351.07 377.38 334.89 418.14 344.38 457.15 C 309.56 468.09 287.95 502.81 293.49 538.88 C 299.03 574.95 330.06 601.58 366.56 601.57 L 589.41 601.57 C 589.63 599.23 589.75 596.87 589.75 594.47 C 589.74 568.98 576.58 545.30 554.94 531.83 Z" fill="#70c6da" fill-rule="nonzero" node-id="45" stroke="none" target-height="253.51575" target-width="297.09393" target-x="292.65607" target-y="348.05426"></path><path d="M 555.09 447.00 L 298.28 447.00 C 289.51 447.00 282.40 439.89 282.40 431.12 C 282.40 422.35 289.51 415.24 298.28 415.24 L 555.09 415.24 C 599.60 415.24 635.69 379.15 635.69 334.64 C 635.69 290.13 599.60 254.04 555.09 254.04 L 490.09 254.04 C 481.47 253.82 474.60 246.78 474.60 238.16 C 474.60 229.53 481.47 222.49 490.09 222.27 L 555.09 222.27 C 616.73 222.85 666.40 272.99 666.40 334.63 C 666.40 396.28 616.73 446.42 555.09 447.00 Z" fill="#ffffff" fill-rule="nonzero" node-id="47" stroke="none" target-height="224.73" target-width="383.99997" target-x="282.4" target-y="222.27"></path><path d="M 694.00 747.36 L 276.41 747.36 C 267.64 747.36 260.53 740.25 260.53 731.48 C 260.53 722.71 267.64 715.60 276.41 715.60 L 694.00 715.60 C 738.51 715.60 774.60 679.51 774.60 635.00 C 774.60 590.49 738.51 554.40 694.00 554.40 L 629.00 554.40 C 620.23 554.40 613.12 547.29 613.12 538.52 C 613.12 529.75 620.23 522.64 629.00 522.64 L 694.00 522.64 C 756.05 522.64 806.36 572.95 806.36 635.00 C 806.36 697.05 756.05 747.36 694.00 747.36 Z" fill="#ffffff" fill-rule="nonzero" node-id="49" stroke="none" target-height="224.71997" target-width="545.82996" target-x="260.53" target-y="522.64"></path><path d="M 386.65 527.82 L 188.05 527.82 C 179.28 527.82 172.17 520.71 172.17 511.94 C 172.17 503.17 179.28 496.06 188.05 496.06 L 386.65 496.06 C 395.42 496.06 402.53 503.17 402.53 511.94 C 402.53 520.71 395.42 527.82 386.65 527.82 Z" fill="#ffffff" fill-rule="nonzero" node-id="51" stroke="none" target-height="31.76001" target-width="230.36" target-x="172.17" target-y="496.06"></path></svg>