<?xml version="1.0" standalone="no"?><!DOCTYPE svg PUBLIC "-//W3C//DTD SVG 1.1//EN" "http://www.w3.org/Graphics/SVG/1.1/DTD/svg11.dtd"><svg height="1024" legacy-metrics="false" node-id="1" sillyvg="true" template-height="1024" template-width="1024" version="1.1" viewBox="0 0 1024 1024" width="1024" xmlns="http://www.w3.org/2000/svg" xmlns:xlink="http://www.w3.org/1999/xlink"><defs node-id="34"></defs><path d="M 791.62 424.23 L 939.34 424.23 C 930.85 386.32 916.85 349.85 897.78 316.00 L 517.07 197.70 C 485.55 187.91 451.29 193.02 424.00 211.59 L 417.52 215.82 L 595.00 497.00 L 687.29 497.00 Z" fill="#5ea55c" fill-rule="nonzero" node-id="36" stroke="none" target-height="304.1775" target-width="521.82007" target-x="417.52" target-y="192.8225"></path><path d="M 949.05 512.00 C 949.05 618.09 906.91 719.83 831.89 794.84 C 756.88 869.86 655.14 912.00 549.05 912.00 C 442.96 912.00 341.22 869.86 266.21 794.84 C 191.19 719.83 149.05 618.09 149.05 512.00 C 149.05 405.91 191.19 304.17 266.21 229.16 C 341.22 154.14 442.96 112.00 549.05 112.00 C 655.14 112.00 756.88 154.14 831.89 229.16 C 906.91 304.17 949.05 405.91 949.05 512.00 Z" fill="#eab1b7" fill-rule="nonzero" node-id="38" stroke="none" target-height="800" target-width="800" target-x="149.05" target-y="112"></path><path d="M 154.72 579.35 C 160.02 610.63 169.05 641.16 181.62 670.29 L 916.48 670.29 C 929.04 641.16 938.07 610.63 943.37 579.35 Z" fill="#c8a06e" fill-rule="nonzero" node-id="40" stroke="none" target-height="90.94" target-width="788.65" target-x="154.72" target-y="579.35"></path><path d="M 584.24 523.98 C 584.24 583.58 535.92 631.90 476.32 631.90 C 416.72 631.90 368.40 583.58 368.40 523.98 C 368.40 464.38 416.72 416.06 476.32 416.06 C 535.92 416.06 584.24 464.38 584.24 523.98 Z" fill="#ffffff" fill-rule="nonzero" node-id="42" stroke="none" target-height="215.84003" target-width="215.84" target-x="368.4" target-y="416.06"></path><path d="M 405.13 569.96 C 405.13 618.24 366.00 657.37 317.72 657.37 C 269.44 657.37 230.31 618.24 230.31 569.96 C 230.31 521.68 269.44 482.55 317.72 482.55 C 366.00 482.55 405.13 521.68 405.13 569.96 Z" fill="#ffffff" fill-rule="nonzero" node-id="44" stroke="none" target-height="174.82" target-width="174.82" target-x="230.31" target-y="482.55"></path><path d="M 602.15 644.53 C 602.15 692.81 563.02 731.94 514.74 731.94 C 466.46 731.94 427.33 692.81 427.33 644.53 C 427.33 596.25 466.46 557.12 514.74 557.12 C 563.02 557.12 602.15 596.25 602.15 644.53 Z" fill="#ffffff" fill-rule="nonzero" node-id="46" stroke="none" target-height="174.82" target-width="174.82004" target-x="427.33" target-y="557.12"></path><path d="M 671.65 634.67 C 671.65 682.95 632.52 722.08 584.24 722.08 C 535.96 722.08 496.83 682.95 496.83 634.67 C 496.83 586.39 535.96 547.26 584.24 547.26 C 632.52 547.26 671.65 586.39 671.65 634.67 Z" fill="#ffffff" fill-rule="nonzero" node-id="48" stroke="none" target-height="174.82" target-width="174.82004" target-x="496.83" target-y="547.26"></path><path d="M 438.91 652.42 C 438.91 700.70 399.78 739.83 351.50 739.83 C 303.22 739.83 264.09 700.70 264.09 652.42 C 264.09 604.14 303.22 565.01 351.50 565.01 C 399.78 565.01 438.91 604.14 438.91 652.42 Z" fill="#ffffff" fill-rule="nonzero" node-id="50" stroke="none" target-height="174.82" target-width="174.82" target-x="264.09" target-y="565.01"></path><path d="M 295.00 662.06 L 172.12 642.49 L 165.65 624.82 L 192.92 505.82 C 194.07 500.82 198.06 497.40 202.11 498.03 L 308.69 514.61 C 312.74 515.24 315.51 519.67 315.08 524.82 L 304.42 652.50 C 303.93 658.35 299.55 662.77 295.00 662.06 Z" fill="#664545" fill-rule="nonzero" node-id="52" stroke="none" target-height="164.07645" target-width="149.43" target-x="165.65" target-y="498.03"></path><path d="M 622.03 590.90 C 622.03 614.47 602.92 633.58 579.35 633.58 C 555.78 633.58 536.67 614.47 536.67 590.90 C 536.67 567.33 555.78 548.22 579.35 548.22 C 602.92 548.22 622.03 567.33 622.03 590.90 Z" fill="#dafffb" fill-rule="nonzero" node-id="54" stroke="none" target-height="85.36005" target-width="85.36005" target-x="536.67" target-y="548.22"></path><path d="M 768.48 583.22 C 768.48 606.79 749.37 625.90 725.80 625.90 C 702.23 625.90 683.12 606.79 683.12 583.22 C 683.12 559.65 702.23 540.54 725.80 540.54 C 749.37 540.54 768.48 559.65 768.48 583.22 Z" fill="#dafffb" fill-rule="nonzero" node-id="56" stroke="none" target-height="85.36005" target-width="85.359985" target-x="683.12" target-y="540.54"></path><path d="M 694.07 583.22 C 694.07 606.79 674.96 625.90 651.39 625.90 C 627.82 625.90 608.71 606.79 608.71 583.22 C 608.71 559.65 627.82 540.54 651.39 540.54 C 674.96 540.54 694.07 559.65 694.07 583.22 Z" fill="#dafffb" fill-rule="nonzero" node-id="58" stroke="none" target-height="85.36005" target-width="85.359985" target-x="608.71" target-y="540.54"></path><path d="M 665.29 538.49 C 665.29 566.92 642.25 589.96 613.82 589.96 C 585.39 589.96 562.35 566.92 562.35 538.49 C 562.35 510.06 585.39 487.02 613.82 487.02 C 642.25 487.02 665.29 510.06 665.29 538.49 Z" fill="#dafffb" fill-rule="nonzero" node-id="60" stroke="none" target-height="102.94003" target-width="102.94" target-x="562.35" target-y="487.02"></path><path d="M 731.96 515.55 C 731.96 548.17 705.51 574.62 672.89 574.62 C 640.27 574.62 613.82 548.17 613.82 515.55 C 613.82 482.93 640.27 456.48 672.89 456.48 C 705.51 456.48 731.96 482.93 731.96 515.55 Z" fill="#dafffb" fill-rule="nonzero" node-id="62" stroke="none" target-height="118.139984" target-width="118.140015" target-x="613.82" target-y="456.48"></path><path d="M 362.48 324.22 L 244.28 280.50 C 239.92 278.88 238.28 272.88 240.67 267.50 L 293.53 150.79 C 295.66 146.07 300.24 143.56 304.09 144.98 L 405.24 182.40 C 409.09 183.82 410.93 188.71 409.48 193.68 L 373.66 316.68 C 372.00 322.37 366.85 325.84 362.48 324.22 Z" fill="#664545" fill-rule="nonzero" node-id="64" stroke="none" target-height="179.99254" target-width="170.3649" target-x="239.5748" target-y="144.58961"></path><path d="M 334.68 418.63 L 219.68 391.13 C 215.43 390.13 213.17 384.83 214.80 379.71 L 250.29 267.91 C 251.72 263.40 255.69 260.63 259.43 261.52 L 357.89 285.06 C 361.63 285.95 363.89 290.22 363.15 294.89 L 344.20 410.65 C 343.34 416.00 338.93 419.65 334.68 418.63 Z" fill="#664545" fill-rule="nonzero" node-id="66" stroke="none" target-height="157.426" target-width="148.97784" target-x="214.29773" target-y="261.3711"></path><path d="M 313.93 532.12 L 194.09 507.91 C 189.67 507.01 187.09 502.05 188.46 497.18 L 218.94 390.85 C 220.17 386.56 224.09 383.85 227.99 384.67 L 330.54 405.39 C 334.44 406.18 337.02 410.18 336.49 414.61 L 323.29 524.42 C 322.68 529.45 318.35 533.00 313.93 532.12 Z" fill="#664545" fill-rule="nonzero" node-id="68" stroke="none" target-height="147.70343" target-width="148.39687" target-x="188.09367" target-y="384.54572"></path><path d="M 299.15 330.00 C 202.67 404.35 75.00 400.42 75.00 400.42 L 424.32 131.08 C 439.39 154.26 395.62 255.60 299.15 330.00 Z" fill="#8bc852" fill-rule="nonzero" node-id="70" stroke="none" target-height="269.36365" target-width="352.19406" target-x="75" target-y="131.08"></path><path d="M 424.32 131.08 L 75.00 400.42 C 75.00 400.42 103.70 275.90 200.17 201.53 C 296.64 127.16 409.88 108.88 424.32 131.08 Z" fill="#5ea55c" fill-rule="nonzero" node-id="72" stroke="none" target-height="278.14474" target-width="349.32" target-x="75" target-y="122.275276"></path><path d="M 361.22 579.35 L 154.72 579.35 C 160.02 610.63 169.05 641.16 181.62 670.29 C 243.00 812.47 384.37 912.00 549.05 912.00 C 713.73 912.00 855.14 812.47 916.48 670.29 C 929.04 641.16 938.07 610.63 943.37 579.35 Z" fill="#55c7a6" fill-rule="nonzero" node-id="74" stroke="none" target-height="332.65002" target-width="788.65" target-x="154.72" target-y="579.35"></path><path d="M 502.47 114.71 C 517.63 140.01 532.64 178.43 541.32 223.88 C 558.58 252.03 579.10 278.05 602.44 301.41 C 688.58 387.55 815.75 400.00 815.75 400.00 L 528.25 112.50 C 519.58 113.00 511.00 113.73 502.47 114.71 Z" fill="#5ea55c" fill-rule="nonzero" node-id="76" stroke="none" target-height="287.5" target-width="313.28" target-x="502.47" target-y="112.5"></path><path d="M 528.25 112.53 L 815.75 400.00 C 815.75 400.00 803.26 272.83 717.12 186.69 C 691.31 160.96 662.30 138.66 630.79 120.34 C 603.90 114.77 576.51 111.98 549.05 112.00 C 542.07 112.00 535.14 112.18 528.25 112.53 Z" fill="#8bc852" fill-rule="nonzero" node-id="78" stroke="none" target-height="288" target-width="287.5" target-x="528.25" target-y="112"></path><path d="M 467.77 523.50 L 467.77 120.27 C 453.05 123.32 438.51 127.20 424.23 131.89 C 404.13 172.11 386.68 233.40 386.68 302.89 C 386.68 424.75 467.77 523.50 467.77 523.50 Z" fill="#5ea55c" fill-rule="nonzero" node-id="80" stroke="none" target-height="403.23" target-width="81.09" target-x="386.68" target-y="120.27"></path><path d="M 467.77 120.27 L 467.77 523.50 C 467.77 523.50 513.57 467.73 536.33 388.31 C 513.71 378.16 472.06 354.76 472.06 354.76 L 543.62 357.65 C 547.07 339.61 548.83 321.29 548.87 302.93 C 548.84 276.40 546.31 249.93 541.32 223.88 C 515.32 181.38 501.55 141.29 499.24 115.08 C 488.61 116.40 478.12 118.13 467.77 120.27 Z" fill="#8bc852" fill-rule="nonzero" node-id="82" stroke="none" target-height="408.41998" target-width="81.100006" target-x="467.77" target-y="115.08"></path><path d="M 499.24 115.08 C 501.55 141.29 515.31 181.38 541.32 223.88 C 532.64 178.43 517.63 140.01 502.47 114.71 Z" fill="#8bc852" fill-rule="nonzero" node-id="84" stroke="none" target-height="109.170006" target-width="42.080017" target-x="499.24" target-y="114.71"></path><path d="M 363.25 706.16 L 918.75 664.93 C 920.34 661.07 921.87 657.18 923.36 653.26 L 288.74 631.90 Z" fill="#96dbbf" fill-rule="nonzero" node-id="86" stroke="none" target-height="74.25995" target-width="634.62" target-x="288.74" target-y="631.9"></path><path d="M 851.92 773.29 L 582.44 792.84 L 798.44 824.69 C 817.81 809.24 835.72 792.03 851.92 773.29 Z" fill="#39ae96" fill-rule="nonzero" node-id="88" stroke="none" target-height="51.400024" target-width="269.47998" target-x="582.44" target-y="773.29"></path><path d="M 218.11 568.66 C 196.57 568.64 175.08 570.42 153.84 574.00 C 181.75 753.21 328.63 893.00 511.18 910.16 C 523.83 882.59 530.39 852.62 530.43 822.29 C 530.43 682.23 390.60 568.66 218.11 568.66 Z" fill="#e29375" fill-rule="nonzero" node-id="90" stroke="none" target-height="341.5" target-width="376.59" target-x="153.84" target-y="568.66"></path></svg>