<?xml version="1.0" standalone="no"?><!DOCTYPE svg PUBLIC "-//W3C//DTD SVG 1.1//EN" "http://www.w3.org/Graphics/SVG/1.1/DTD/svg11.dtd"><svg height="1024" legacy-metrics="false" node-id="1" sillyvg="true" template-height="1024" template-width="1024" version="1.1" viewBox="0 0 1024 1024" width="1024" xmlns="http://www.w3.org/2000/svg" xmlns:xlink="http://www.w3.org/1999/xlink"><defs node-id="31"></defs><path d="M 754.57 444.86 L 902.29 444.86 C 893.80 406.94 879.80 370.48 860.73 336.63 L 480.00 218.34 C 448.50 208.57 414.27 213.68 387.00 232.22 L 380.52 236.46 L 558.00 517.60 L 650.29 517.60 Z" fill="#5ea55c" fill-rule="nonzero" node-id="33" stroke="none" target-height="304.12668" target-width="521.77" target-x="380.52" target-y="213.4733"></path><path d="M 912.00 532.64 C 912.00 638.73 869.86 740.47 794.84 815.48 C 719.83 890.50 618.09 932.64 512.00 932.64 C 405.91 932.64 304.17 890.50 229.16 815.48 C 154.14 740.47 112.00 638.73 112.00 532.64 C 112.00 426.55 154.14 324.81 229.16 249.80 C 304.17 174.78 405.91 132.64 512.00 132.64 C 618.09 132.64 719.83 174.78 794.84 249.80 C 869.86 324.81 912.00 426.55 912.00 532.64 Z" fill="#c1f8f4" fill-rule="nonzero" node-id="35" stroke="none" target-height="800" target-width="800" target-x="112" target-y="132.64"></path><path d="M 512.00 932.64 C 676.68 932.64 818.10 833.11 879.43 690.93 L 144.57 690.93 C 205.90 833.11 347.32 932.64 512.00 932.64 Z" fill="#93d8e4" fill-rule="nonzero" node-id="37" stroke="none" target-height="241.71002" target-width="734.86" target-x="144.57" target-y="690.93"></path><path d="M 912.00 532.64 C 912.10 463.98 894.43 396.46 860.73 336.64 L 480.00 218.34 C 448.50 208.57 414.27 213.68 387.00 232.22 L 135.79 396.47 C 112.32 461.62 106.08 531.73 117.67 600.00 L 906.33 600.00 C 910.10 577.75 912.00 555.21 912.00 532.64 Z" fill="#5ea55c" fill-rule="nonzero" node-id="39" stroke="none" target-height="386.5267" target-width="799.9991" target-x="112.0009" target-y="213.4733"></path><path d="M 135.79 396.47 C 112.32 461.62 106.08 531.73 117.67 600.00 L 716.67 601.52 L 380.53 236.52 Z" fill="#4f8980" fill-rule="nonzero" node-id="41" stroke="none" target-height="365" target-width="604.66907" target-x="112.0009" target-y="236.52"></path><path d="M 264.67 346.00 C 264.67 450.87 297.00 535.90 336.88 535.90 C 376.76 535.90 409.09 450.90 409.09 346.00 C 409.09 241.10 336.88 156.10 336.88 156.10 C 336.88 156.10 264.67 241.15 264.67 346.00 Z" fill="#5ea55c" fill-rule="nonzero" node-id="43" stroke="none" target-height="379.80002" target-width="144.41998" target-x="264.67" target-y="156.1"></path><path d="M 337.11 156.40 C 318.67 185.15 309.62 230.89 315.37 280.51 C 324.03 355.19 363.07 411.86 404.55 412.51 C 407.62 390.47 409.14 368.25 409.09 346.00 C 409.09 244.56 341.50 161.68 337.11 156.40 Z" fill="#8bc852" fill-rule="nonzero" node-id="45" stroke="none" target-height="256.11002" target-width="95.392365" target-x="313.69763" target-y="156.4"></path><path d="M 327.20 505.60 L 346.57 505.60 C 351.92 505.60 356.25 509.93 356.25 515.28 L 356.25 610.49 L 356.25 610.49 L 317.51 610.49 L 317.51 610.49 L 317.51 515.29 C 317.51 512.72 318.53 510.25 320.35 508.44 C 322.16 506.62 324.63 505.60 327.20 505.60 Z" fill="#664545" fill-rule="nonzero" node-id="47" stroke="none" target-height="104.889984" target-width="38.73999" target-x="317.51" target-y="505.6"></path><path d="M 130.36 345.91 C 130.36 450.73 162.69 535.70 202.57 535.70 C 242.45 535.70 274.78 450.70 274.78 345.91 C 274.78 241.12 202.57 156.13 202.57 156.13 C 202.57 156.13 130.36 241.10 130.36 345.91 Z" fill="#5ea55c" fill-rule="nonzero" node-id="49" stroke="none" target-height="379.57" target-width="144.42" target-x="130.36" target-y="156.13"></path><path d="M 202.80 156.40 C 184.35 185.13 175.30 230.84 181.06 280.40 C 189.71 355.04 228.75 411.67 270.23 412.27 C 273.30 390.27 274.82 368.08 274.78 345.87 C 274.78 244.50 207.19 161.68 202.80 156.40 Z" fill="#8bc852" fill-rule="nonzero" node-id="51" stroke="none" target-height="255.87" target-width="95.396515" target-x="179.38348" target-y="156.4"></path><path d="M 192.88 505.39 L 212.25 505.39 C 217.60 505.39 221.93 509.72 221.93 515.07 L 221.93 610.21 L 221.93 610.21 L 183.20 610.21 L 183.20 610.21 L 183.20 515.08 C 183.20 509.73 187.53 505.40 192.88 505.40 Z" fill="#664545" fill-rule="nonzero" node-id="53" stroke="none" target-height="104.82001" target-width="38.729996" target-x="183.2" target-y="505.39"></path><path d="M 117.67 600.00 C 122.98 631.28 132.01 661.82 144.57 690.95 L 879.43 690.95 C 891.99 661.82 901.02 631.28 906.33 600.00 Z" fill="#c8a06e" fill-rule="nonzero" node-id="55" stroke="none" target-height="90.95001" target-width="788.66003" target-x="117.67" target-y="600"></path><path d="M 902.29 444.86 L 754.57 444.86 L 650.27 517.60 L 530.19 517.60 L 432.90 600.00 L 906.33 600.00 C 915.08 548.52 913.72 495.84 902.33 444.88 Z" fill="#87a0af" fill-rule="nonzero" node-id="57" stroke="none" target-height="155.14001" target-width="479.08383" target-x="432.9" target-y="444.86"></path><path d="M 902.29 444.86 L 755.66 444.86 C 743.54 491.34 708.52 528.41 662.81 543.17 C 617.10 557.93 567.02 548.34 530.00 517.73 L 432.90 600.00 L 906.33 600.00 C 915.08 548.52 913.72 495.84 902.33 444.88 Z" fill="#87a0af" fill-rule="nonzero" node-id="59" stroke="none" target-height="155.14001" target-width="479.08383" target-x="432.9" target-y="444.86"></path><path d="M 755.66 444.86 L 754.57 444.86 L 650.27 517.60 L 530.19 517.60 L 530.03 517.73 C 567.05 548.33 617.12 557.91 662.82 543.15 C 708.52 528.39 743.53 491.33 755.66 444.86 Z" fill="#738c96" fill-rule="nonzero" node-id="61" stroke="none" target-height="105.095825" target-width="225.62994" target-x="530.03" target-y="444.86"></path><path d="M 355.89 690.93 L 144.57 690.93 C 205.90 833.11 347.32 932.64 512.00 932.64 C 549.87 932.67 587.56 927.32 623.93 916.76 C 505.73 883.08 408.41 799.84 355.89 690.93 Z" fill="#70c6da" fill-rule="nonzero" node-id="63" stroke="none" target-height="241.71002" target-width="479.36" target-x="144.57" target-y="690.93"></path><path d="M 324.17 600.00 L 117.67 600.00 C 122.98 631.28 132.01 661.82 144.57 690.95 L 355.89 690.95 C 341.90 661.94 331.26 631.42 324.17 600.00 Z" fill="#c8a06e" fill-rule="nonzero" node-id="65" stroke="none" target-height="90.95001" target-width="238.22002" target-x="117.67" target-y="600"></path><path d="M 879.43 690.93 C 891.99 661.80 901.02 631.27 906.33 600.00 L 324.17 600.00 C 331.26 631.42 341.90 661.94 355.89 690.95 Z" fill="#dcbe82" fill-rule="nonzero" node-id="67" stroke="none" target-height="90.95001" target-width="582.16003" target-x="324.17" target-y="600"></path><path d="M 785.21 824.77 L 465.27 832.05 C 511.54 871.24 565.62 900.12 623.93 916.76 C 684.17 899.19 739.42 867.67 785.21 824.77 Z" fill="#93d8e4" fill-rule="nonzero" node-id="69" stroke="none" target-height="91.98999" target-width="319.94003" target-x="465.27" target-y="824.77"></path><path d="M 879.43 690.93 L 355.89 690.93 C 362.14 703.87 369.03 716.48 376.55 728.72 L 868.93 713.28 C 872.64 706.00 876.16 698.51 879.43 690.93 Z" fill="#93d8e4" fill-rule="nonzero" node-id="71" stroke="none" target-height="37.789978" target-width="523.54" target-x="355.89" target-y="690.93"></path><path d="M 848.31 749.24 L 382.82 738.64 C 398.52 762.70 416.59 785.12 436.76 805.58 L 793.52 816.76 C 814.17 796.30 832.54 773.66 848.31 749.24 Z" fill="#93d8e4" fill-rule="nonzero" node-id="73" stroke="none" target-height="78.119995" target-width="465.49" target-x="382.82" target-y="738.64"></path><path d="M 195.71 734.38 L 382.82 738.64 C 380.69 735.37 378.60 732.05 376.55 728.72 Z" fill="#93ede7" fill-rule="nonzero" node-id="75" stroke="none" target-height="9.920044" target-width="187.11" target-x="195.71" target-y="728.72"></path><path d="M 868.93 713.28 L 376.55 728.72 C 378.60 732.05 380.69 735.37 382.82 738.64 L 848.31 749.24 C 855.80 737.62 862.68 725.61 868.93 713.28 Z" fill="#93ede7" fill-rule="nonzero" node-id="77" stroke="none" target-height="35.95996" target-width="492.38" target-x="376.55" target-y="713.28"></path><path d="M 436.76 805.58 L 264.67 800.18 L 271.97 836.45 L 465.27 832.05 C 455.36 823.67 445.86 814.85 436.76 805.58 Z" fill="#70c6da" fill-rule="nonzero" node-id="79" stroke="none" target-height="36.27002" target-width="200.59998" target-x="264.67" target-y="800.18"></path><path d="M 793.52 816.76 L 436.76 805.58 C 445.86 814.82 455.36 823.64 465.27 832.05 L 785.21 824.77 C 788.02 822.14 790.79 819.47 793.52 816.76 Z" fill="#70c6da" fill-rule="nonzero" node-id="81" stroke="none" target-height="26.46997" target-width="356.76" target-x="436.76" target-y="805.58"></path></svg>