<?xml version="1.0" standalone="no"?><!DOCTYPE svg PUBLIC "-//W3C//DTD SVG 1.1//EN" "http://www.w3.org/Graphics/SVG/1.1/DTD/svg11.dtd"><svg height="1024" legacy-metrics="false" node-id="1" sillyvg="true" template-height="1024" template-width="1024" version="1.1" viewBox="0 0 1024 1024" width="1024" xmlns="http://www.w3.org/2000/svg" xmlns:xlink="http://www.w3.org/1999/xlink"><defs node-id="34"></defs><path d="M 886.95 503.81 C 886.95 603.25 847.45 698.62 777.13 768.94 C 706.81 839.26 611.44 878.76 512.00 878.76 C 412.56 878.76 317.19 839.26 246.87 768.94 C 176.55 698.62 137.05 603.25 137.05 503.81 C 137.05 404.37 176.55 309.00 246.87 238.68 C 317.19 168.36 412.56 128.86 512.00 128.86 C 611.44 128.86 706.81 168.36 777.13 238.68 C 847.45 309.00 886.95 404.37 886.95 503.81 Z" fill="#c1f8f4" fill-rule="nonzero" node-id="36" stroke="none" target-height="749.9" target-width="749.9" target-x="137.05" target-y="128.86"></path><path d="M 812.49 728.11 C 909.86 597.62 911.92 419.21 817.59 286.50 C 813.48 289.96 768.38 329.31 763.98 333.07 C 788.66 379.51 842.49 460.81 812.49 728.11 Z" fill="#87a0af" fill-rule="nonzero" node-id="38" stroke="none" target-height="441.61" target-width="122.96399" target-x="763.98" target-y="286.5"></path><path d="M 681.18 550.56 C 485.10 678.44 549.00 704.00 561.79 772.22 C 565.58 792.36 572.20 815.56 573.79 841.04 L 586.95 871.27 C 677.15 852.85 757.43 801.90 812.49 728.11 C 833.94 536.97 833.42 422.65 822.35 356.05 C 817.62 327.63 783.43 315.60 761.93 334.78 C 747.66 347.50 732.49 361.30 716.58 376.12 C 762.49 417.64 789.58 479.87 681.18 550.56 Z" fill="#738c96" fill-rule="nonzero" node-id="40" stroke="none" target-height="545.7999" target-width="288.16833" target-x="541.67084" target-y="325.47006"></path><path d="M 573.75 841.00 C 572.20 815.52 565.58 792.32 561.75 772.18 C 549.00 704.00 485.10 678.44 681.18 550.56 C 789.58 479.87 762.49 417.64 716.58 376.12 C 642.96 444.66 573.06 517.10 507.19 593.12 C 515.53 629.01 526.95 694.60 537.19 757.27 C 550.00 786.57 562.58 815.41 573.75 841.00 Z" fill="#617e87" fill-rule="nonzero" node-id="42" stroke="none" target-height="464.88" target-width="249.56104" target-x="507.19" target-y="376.12"></path><path d="M 885.77 474.00 C 872.56 466.42 857.62 462.39 842.39 462.31 C 795.09 462.31 754.14 501.87 734.27 559.51 C 731.49 559.25 728.69 559.10 725.85 559.10 C 674.01 559.10 639.26 601.52 639.26 655.58 C 639.26 709.64 674.01 754.84 725.85 754.84 C 733.91 754.84 741.93 753.76 749.70 751.64 C 754.97 760.90 761.15 769.61 768.16 777.64 C 844.07 706.82 887.12 607.63 887.00 503.81 C 887.00 493.77 886.59 483.83 885.77 474.00 Z" fill="#8bc852" fill-rule="nonzero" node-id="44" stroke="none" target-height="315.33002" target-width="247.73999" target-x="639.26" target-y="462.31"></path><path d="M 580.80 525.91 C 593.17 492.84 577.33 455.89 544.85 442.06 C 512.37 428.22 474.75 442.40 459.48 474.23 C 445.48 463.67 426.71 461.94 411.01 469.77 C 395.31 477.59 385.40 493.62 385.40 511.16 C 385.40 514.84 385.84 518.50 386.70 522.07 C 369.70 527.43 359.16 544.38 361.86 561.99 C 364.57 579.61 379.72 592.61 397.54 592.62 L 558.89 592.62 C 559.36 592.62 559.82 592.60 560.29 592.55 C 560.76 592.55 561.22 592.62 561.70 592.62 C 577.81 592.62 591.96 581.95 596.39 566.46 C 600.83 550.98 594.46 534.43 580.80 525.91 Z" fill="#ffffff" fill-rule="nonzero" node-id="46" stroke="none" target-height="155.84647" target-width="236.29211" target-x="361.46155" target-y="436.77353"></path><path d="M 353.00 714.15 L 375.71 682.00 L 349.71 711.00 C 350.79 712.14 351.89 713.19 353.00 714.15 Z" fill="#738c96" fill-rule="nonzero" node-id="48" stroke="none" target-height="32.150024" target-width="26" target-x="349.71" target-y="682"></path><path d="M 397.11 491.31 L 396.22 491.31 C 390.03 490.82 385.40 485.40 385.89 479.21 L 390.59 419.75 C 391.32 413.78 396.63 409.44 402.63 409.91 C 408.63 410.37 413.20 415.48 413.00 421.49 L 408.32 481.00 C 407.83 486.83 402.96 491.30 397.11 491.31 Z" fill="#c8a06e" fill-rule="nonzero" node-id="50" stroke="none" target-height="81.404175" target-width="27.109985" target-x="385.89" target-y="409.90582"></path><path d="M 461.65 498.35 C 455.44 498.35 450.40 493.31 450.40 487.10 L 450.40 427.54 C 450.40 421.33 455.44 416.29 461.65 416.29 C 467.86 416.29 472.90 421.33 472.90 427.54 L 472.90 487.10 C 472.90 493.31 467.86 498.35 461.65 498.35 Z" fill="#c8a06e" fill-rule="nonzero" node-id="52" stroke="none" target-height="82.06" target-width="22.5" target-x="450.4" target-y="416.29"></path><path d="M 529.76 498.26 C 524.00 498.25 519.17 493.89 518.58 488.16 L 512.51 428.77 C 512.03 424.73 513.76 420.75 517.04 418.36 C 520.32 415.96 524.64 415.52 528.34 417.20 C 532.04 418.88 534.54 422.43 534.89 426.48 L 541.00 485.87 C 541.32 489.04 540.28 492.19 538.15 494.55 C 536.01 496.91 532.98 498.26 529.80 498.26 Z" fill="#c8a06e" fill-rule="nonzero" node-id="54" stroke="none" target-height="82.04379" target-width="28.545227" target-x="512.4548" target-y="416.21622"></path><path d="M 599.40 494.00 C 594.31 493.99 589.86 490.57 588.54 485.66 L 572.86 427.24 C 571.77 423.34 572.85 419.15 575.70 416.28 C 578.55 413.40 582.73 412.28 586.64 413.34 C 590.55 414.40 593.59 417.49 594.59 421.41 L 610.27 479.83 C 611.17 483.21 610.45 486.81 608.32 489.59 C 606.19 492.36 602.90 493.99 599.40 494.00 Z" fill="#c8a06e" fill-rule="nonzero" node-id="56" stroke="none" target-height="81.00922" target-width="38.169617" target-x="572.47516" target-y="412.99078"></path><path d="M 667.79 487.11 C 662.70 487.10 658.25 483.68 656.93 478.77 L 641.25 420.35 C 639.64 414.34 643.20 408.17 649.21 406.56 C 655.22 404.95 661.39 408.51 663.00 414.52 L 678.68 472.94 C 679.58 476.32 678.86 479.92 676.73 482.70 C 674.60 485.47 671.31 487.10 667.81 487.11 Z" fill="#c8a06e" fill-rule="nonzero" node-id="58" stroke="none" target-height="80.89722" target-width="38.1521" target-x="640.9027" target-y="406.21277"></path><path d="M 522.36 433.93 C 495.62 433.93 470.91 432.55 449.36 430.60 C 371.78 423.60 318.36 408.33 316.11 407.69 C 310.14 405.97 306.70 399.73 308.42 393.76 C 310.14 387.79 316.38 384.35 322.35 386.07 C 324.47 386.68 536.16 446.31 719.56 380.18 C 725.41 378.07 731.85 381.10 733.96 386.95 C 736.07 392.80 733.04 399.24 727.19 401.35 C 657.49 426.47 584.49 433.93 522.36 433.93 Z" fill="#dcbe82" fill-rule="nonzero" node-id="60" stroke="none" target-height="54.422028" target-width="426.62674" target-x="308.00522" target-y="379.50797"></path><path d="M 507.42 506.60 C 483.03 506.60 460.34 505.60 440.22 504.04 C 360.00 498.00 304.00 483.69 301.66 483.08 C 295.79 481.41 292.31 475.36 293.84 469.45 C 295.37 463.53 301.33 459.92 307.28 461.30 C 309.51 461.87 532.12 517.91 715.72 451.72 C 721.51 449.79 727.79 452.83 729.87 458.57 C 731.94 464.32 729.05 470.67 723.35 472.88 C 650.77 499.05 573.00 506.60 507.42 506.60 Z" fill="#dcbe82" fill-rule="nonzero" node-id="62" stroke="none" target-height="55.45999" target-width="437.02313" target-x="293.5152" target-y="451.14"></path><path d="M 572.47 873.88 C 577.32 873.09 582.13 872.23 586.91 871.27 L 573.75 841.00 C 574.47 851.97 574.04 862.99 572.47 873.88 Z" fill="#738c96" fill-rule="nonzero" node-id="64" stroke="none" target-height="32.880005" target-width="14.440002" target-x="572.47" target-y="841"></path><path d="M 561.34 912.00 C 561.34 911.88 561.34 911.76 561.29 911.63 L 561.29 911.72 Z" fill="#738c96" fill-rule="nonzero" node-id="66" stroke="none" target-height="0.36999512" target-width="0.050048828" target-x="561.29" target-y="911.63"></path><path d="M 631.63 681.38 C 631.28 640.01 597.90 606.52 556.54 606.03 C 515.17 605.54 481.01 638.22 479.67 679.57 C 478.34 720.92 510.32 755.74 551.63 757.92 C 551.98 799.29 585.36 832.78 626.72 833.27 C 668.09 833.76 702.25 801.08 703.59 759.73 C 704.92 718.38 672.94 683.56 631.63 681.38 Z" fill="#4f8980" fill-rule="nonzero" node-id="68" stroke="none" target-height="227.23828" target-width="223.91528" target-x="479.67236" target-y="606.0309"></path><path d="M 507.19 593.14 C 505.34 585.20 503.65 578.68 502.19 574.01 C 499.61 566.29 496.26 558.86 492.19 551.82 C 488.83 545.82 484.95 539.82 480.65 533.73 C 450.09 490.38 398.65 443.89 367.92 403.50 C 341.00 368.18 319.26 259.00 307.63 189.43 C 278.73 208.25 252.55 230.96 229.83 256.91 C 237.16 338.91 253.50 422.99 288.94 452.52 C 365.67 516.46 423.85 505.81 450.17 561.22 C 451.40 563.79 452.86 566.94 454.54 570.58 C 456.54 575.01 458.94 580.19 461.54 586.01 C 466.54 597.17 472.62 610.70 479.35 625.86 C 496.00 663.36 516.86 710.86 537.16 757.29 C 527.00 694.62 515.53 629.00 507.19 593.14 Z" fill="#9bb9c3" fill-rule="nonzero" node-id="70" stroke="none" target-height="567.86" target-width="307.32996" target-x="229.83" target-y="189.43"></path><path d="M 573.75 841.00 C 562.58 815.37 550.00 786.53 537.19 757.25 C 544.59 802.53 551.37 846.25 555.93 876.14 C 561.49 875.47 567.00 874.71 572.47 873.84 C 574.04 862.97 574.47 851.96 573.75 841.00 Z" fill="#738c96" fill-rule="nonzero" node-id="72" stroke="none" target-height="118.890015" target-width="36.88385" target-x="537.19" target-y="757.25"></path><path d="M 537.19 757.29 C 516.89 710.87 496.03 663.36 479.38 625.86 C 472.65 610.70 466.61 597.17 461.57 586.01 C 458.94 580.19 456.57 575.01 454.57 570.58 C 452.89 566.94 451.43 563.79 450.20 561.22 C 423.88 505.81 365.70 516.46 288.97 452.52 C 253.50 423.00 237.16 338.87 229.83 256.91 C 201.96 288.71 179.67 325.01 163.91 364.25 C 177.06 431.10 202.91 527.82 234.91 471.97 C 278.00 396.82 293.79 653.26 349.74 711.06 L 351.42 712.78 L 352.98 714.15 C 356.57 717.40 360.81 719.85 365.42 721.33 C 375.56 724.33 386.02 727.21 396.66 730.52 C 448.29 746.59 504.15 773.05 548.07 877.02 C 550.70 876.77 553.32 876.49 555.93 876.18 C 551.37 846.30 544.59 802.57 537.19 757.29 Z" fill="#87a0af" fill-rule="nonzero" node-id="74" stroke="none" target-height="620.11" target-width="392.02" target-x="163.91" target-y="256.91"></path><path d="M 396.66 730.52 C 386.02 727.21 375.56 724.34 365.42 721.33 C 360.82 719.85 356.58 717.40 353.00 714.15 C 351.90 713.19 350.82 712.16 349.76 711.06 C 293.79 653.26 278.00 396.82 234.93 472.00 C 202.93 527.85 177.06 431.13 163.93 364.28 C 146.13 408.65 137.01 456.03 137.07 503.84 C 137.07 621.08 190.89 725.74 275.16 794.49 C 279.60 798.11 284.12 801.63 288.71 805.05 C 353.27 853.00 431.58 878.85 512.00 878.76 C 524.17 878.76 536.19 878.18 548.07 877.02 C 504.15 773.05 448.29 746.59 396.66 730.52 Z" fill="#738c96" fill-rule="nonzero" node-id="76" stroke="none" target-height="514.48" target-width="411" target-x="137.07" target-y="364.28"></path><path d="M 794.27 750.58 L 493.93 750.58 C 427.88 750.50 364.70 777.57 319.20 825.44 C 474.82 918.68 674.87 887.16 794.27 750.58 Z" fill="#664545" fill-rule="nonzero" node-id="78" stroke="none" target-height="128.13434" target-width="475.07" target-x="319.2" target-y="750.58"></path><path d="M 840.00 233.00 C 857.33 188.29 836.07 137.89 791.96 119.09 C 747.84 100.29 696.77 119.87 676.52 163.34 C 655.49 147.49 626.77 146.56 604.77 161.02 C 582.76 175.49 572.22 202.22 578.44 227.81 C 555.53 235.01 541.30 257.86 544.93 281.60 C 548.57 305.34 568.98 322.87 593.00 322.89 L 810.47 322.89 C 811.14 322.89 811.77 322.86 812.36 322.80 C 812.99 322.80 813.61 322.89 814.25 322.89 C 835.96 322.91 855.06 308.53 861.04 287.66 C 867.02 266.79 858.43 244.48 840.00 233.00 Z" fill="#ffffff" fill-rule="nonzero" node-id="80" stroke="none" target-height="210.92276" target-width="318.4715" target-x="544.392" target-y="111.96725"></path><path d="M 567.89 814.23 L 551.61 814.23 C 544.36 814.23 538.49 808.36 538.49 801.11 C 538.49 793.86 544.36 787.99 551.61 787.99 L 567.89 787.99 C 575.14 787.99 581.01 793.86 581.01 801.11 C 581.01 808.36 575.14 814.23 567.89 814.23 Z" fill="#523838" fill-rule="nonzero" node-id="82" stroke="none" target-height="26.23999" target-width="42.52002" target-x="538.49" target-y="787.99"></path><path d="M 510.68 814.23 L 448.55 814.23 C 441.30 814.23 435.43 808.36 435.43 801.11 C 435.43 793.86 441.30 787.99 448.55 787.99 L 510.68 787.99 C 517.93 787.99 523.80 793.86 523.80 801.11 C 523.80 808.36 517.93 814.23 510.68 814.23 Z" fill="#523838" fill-rule="nonzero" node-id="84" stroke="none" target-height="26.23999" target-width="88.369995" target-x="435.43" target-y="787.99"></path><path d="M 552.34 864.91 L 490.21 864.91 C 483.10 864.71 477.44 858.90 477.44 851.78 C 477.44 844.67 483.10 838.86 490.21 838.66 L 552.34 838.66 C 559.45 838.86 565.11 844.67 565.11 851.78 C 565.11 858.90 559.45 864.71 552.34 864.91 Z" fill="#523838" fill-rule="nonzero" node-id="86" stroke="none" target-height="26.25" target-width="87.665344" target-x="477.44232" target-y="838.66"></path><path d="M 437.84 846.43 L 375.71 846.43 C 368.60 846.23 362.94 840.42 362.94 833.30 C 362.94 826.19 368.60 820.38 375.71 820.18 L 437.84 820.18 C 444.95 820.38 450.61 826.19 450.61 833.30 C 450.61 840.42 444.95 846.23 437.84 846.43 Z" fill="#523838" fill-rule="nonzero" node-id="88" stroke="none" target-height="26.25" target-width="87.665344" target-x="362.94232" target-y="820.18"></path><path d="M 701.39 797.65 L 639.26 797.65 C 632.01 797.65 626.14 791.78 626.14 784.53 C 626.14 777.28 632.01 771.41 639.26 771.41 L 701.39 771.41 C 708.64 771.41 714.51 777.28 714.51 784.53 C 714.51 791.78 708.64 797.65 701.39 797.65 Z" fill="#523838" fill-rule="nonzero" node-id="90" stroke="none" target-height="26.240051" target-width="88.369995" target-x="626.14" target-y="771.41"></path></svg>