<?xml version="1.0" standalone="no"?><!DOCTYPE svg PUBLIC "-//W3C//DTD SVG 1.1//EN" "http://www.w3.org/Graphics/SVG/1.1/DTD/svg11.dtd"><svg height="1024" legacy-metrics="false" node-id="1" sillyvg="true" template-height="1024" template-width="1024" version="1.1" viewBox="0 0 1024 1024" width="1024" xmlns="http://www.w3.org/2000/svg" xmlns:xlink="http://www.w3.org/1999/xlink"><defs node-id="34"></defs><path d="M 907.66 512.00 C 907.66 618.09 865.52 719.83 790.50 794.84 C 715.49 869.86 613.75 912.00 507.66 912.00 C 401.57 912.00 299.83 869.86 224.82 794.84 C 149.80 719.83 107.66 618.09 107.66 512.00 C 107.66 405.91 149.80 304.17 224.82 229.16 C 299.83 154.14 401.57 112.00 507.66 112.00 C 613.75 112.00 715.49 154.14 790.50 229.16 C 865.52 304.17 907.66 405.91 907.66 512.00 Z" fill="#93ede7" fill-rule="nonzero" node-id="36" stroke="none" target-height="800" target-width="800" target-x="107.66" target-y="112"></path><path d="M 507.66 112.00 C 443.06 111.91 379.41 127.54 322.20 157.53 C 316.22 184.61 313.21 212.26 313.20 239.99 C 313.20 450.71 484.02 621.53 694.74 621.53 C 769.51 621.66 842.65 599.71 905.00 558.45 C 906.79 543.03 907.69 527.52 907.70 512.00 C 907.66 291.09 728.57 112.00 507.66 112.00 Z" fill="#c1f8f4" fill-rule="nonzero" node-id="38" stroke="none" target-height="509.53003" target-width="594.5" target-x="313.2" target-y="112"></path><path d="M 610.34 414.37 C 610.35 440.37 628.43 462.87 653.82 468.47 C 679.22 474.07 705.08 461.25 716.02 437.66 C 726.96 414.07 720.02 386.05 699.34 370.29 L 611.21 404.85 C 610.65 407.99 610.35 411.18 610.34 414.37 Z" fill="none" node-id="40" stroke="none" target-height="99.44034" target-width="110.81995" target-x="610.34" target-y="370.29"></path><path d="M 507.66 912.00 C 723.20 912.00 898.90 741.51 907.31 528.00 L 414.39 294.88 C 414.39 294.88 197.25 458.88 108.45 536.88 C 121.29 746.19 295.10 912.00 507.66 912.00 Z" fill="#5a915a" fill-rule="nonzero" node-id="42" stroke="none" target-height="617.12" target-width="798.86" target-x="108.45" target-y="294.88"></path><path d="M 406.00 681.67 C 439.41 674.53 473.49 670.96 507.66 671.00 C 628.45 671.00 735.59 714.67 802.66 782.06 C 866.56 712.46 903.65 622.42 907.31 528.00 L 414.39 294.88 C 414.39 294.88 197.25 458.88 108.45 536.88 C 114.02 628.13 150.79 714.70 212.61 782.05 C 260.11 734.33 327.71 698.51 406.00 681.67 Z" fill="#5a915a" fill-rule="nonzero" node-id="44" stroke="none" target-height="487.18" target-width="798.86" target-x="108.45" target-y="294.88"></path><path d="M 507.66 912.00 C 582.88 912.11 656.60 890.91 720.27 850.85 C 578.27 843.55 458.33 775.85 406.02 681.67 C 327.71 698.51 260.11 734.33 212.61 782.05 C 288.29 864.95 395.41 912.13 507.66 912.00 Z" fill="#93ede7" fill-rule="nonzero" node-id="46" stroke="none" target-height="230.33002" target-width="507.66003" target-x="212.61" target-y="681.67"></path><path d="M 507.66 671.00 C 473.49 670.96 439.41 674.53 406.00 681.67 C 458.31 775.82 578.20 843.55 720.25 850.85 C 750.67 831.71 778.39 808.57 802.66 782.06 C 735.59 714.67 628.45 671.00 507.66 671.00 Z" fill="#c1f8f4" fill-rule="nonzero" node-id="48" stroke="none" target-height="179.84998" target-width="396.65997" target-x="406" target-y="671"></path><path d="M 906.86 536.87 C 906.66 540.05 906.44 543.23 906.17 546.39 C 906.44 543.23 906.67 540.05 906.86 536.87 Z" fill="#5a915a" fill-rule="nonzero" node-id="50" stroke="none" target-height="9.52002" target-width="0.69000244" target-x="906.17" target-y="536.87"></path><path d="M 907.31 528.00 L 907.31 528.00 C 907.31 528.80 907.24 529.60 907.20 530.40 C 907.23 529.62 907.28 528.83 907.31 528.00 Z" fill="#5a915a" fill-rule="nonzero" node-id="52" stroke="none" target-height="2.4000244" target-width="0.10998535" target-x="907.2" target-y="528"></path><path d="M 905.10 557.00 C 905.38 554.49 905.63 552.00 905.87 549.46 C 905.63 552.00 905.38 554.53 905.10 557.00 Z" fill="#5a915a" fill-rule="nonzero" node-id="54" stroke="none" target-height="7.539978" target-width="0.77001953" target-x="905.1" target-y="549.46"></path><path d="M 906.17 546.39 C 906.08 547.39 905.96 548.46 905.87 549.50 C 906.00 548.46 906.08 547.43 906.17 546.39 Z" fill="#c1f8f4" fill-rule="nonzero" node-id="56" stroke="none" target-height="3.1099854" target-width="0.2999878" target-x="905.87" target-y="546.39"></path><path d="M 905.00 558.45 C 905.00 557.98 905.09 557.45 905.14 557.04 C 905.09 557.51 905.03 558.04 904.97 558.46 Z" fill="#c1f8f4" fill-rule="nonzero" node-id="58" stroke="none" target-height="1.420044" target-width="0.17004395" target-x="904.97" target-y="557.04"></path><path d="M 772.89 366.23 C 773.65 369.31 774.32 372.40 774.96 375.48 L 813.78 365.89 C 813.13 362.81 812.44 359.73 811.68 356.65 C 775.26 209.18 626.18 119.15 478.68 155.58 L 488.27 194.38 C 614.33 163.24 741.75 240.19 772.89 366.23 Z" fill="#ff3c3c" fill-rule="nonzero" node-id="60" stroke="none" target-height="227.97165" target-width="335.10004" target-x="478.68" target-y="147.50836"></path><path d="M 488.29 194.38 L 499.00 237.81 C 601.08 212.60 704.25 274.90 729.46 377.00 C 730.22 380.08 730.89 383.17 731.46 386.25 L 775.00 375.48 C 774.36 372.40 773.69 369.31 772.93 366.23 C 741.75 240.19 614.33 163.24 488.29 194.38 Z" fill="#f9ef63" fill-rule="nonzero" node-id="62" stroke="none" target-height="198.76996" target-width="286.71" target-x="488.29" target-y="187.48004"></path><path d="M 684.66 388.00 C 685.42 391.10 686.04 394.19 686.60 397.28 L 731.50 386.19 C 730.89 383.11 730.22 380.02 729.50 376.94 C 704.25 274.90 601.08 212.60 499.00 237.81 L 510.07 282.60 C 587.39 263.50 665.55 310.69 684.66 388.00 Z" fill="#70c6da" fill-rule="nonzero" node-id="64" stroke="none" target-height="165.0558" target-width="232.5" target-x="499" target-y="232.2242"></path><path d="M 645.46 397.71 C 646.22 400.81 646.82 403.91 647.29 407.01 L 686.60 397.30 C 686.04 394.21 685.42 391.12 684.66 388.02 C 665.56 310.70 587.40 263.51 510.08 282.60 L 519.76 321.80 C 575.43 308.05 631.71 342.04 645.46 397.71 Z" fill="#6e64c3" fill-rule="nonzero" node-id="66" stroke="none" target-height="128.6063" target-width="176.51999" target-x="510.08" target-y="278.40372"></path><path d="M 907.19 530.42 C 907.09 532.58 906.99 534.73 906.86 536.87 C 907.00 534.73 907.09 532.57 907.19 530.42 Z" fill="#c1f8f4" fill-rule="nonzero" node-id="68" stroke="none" target-height="6.450012" target-width="0.3300171" target-x="906.86" target-y="530.42"></path><path d="M 866.28 349.85 C 868.49 332.18 863.00 314.41 851.19 301.07 C 839.39 287.73 822.42 280.11 804.61 280.15 C 796.15 280.14 787.77 281.87 780.00 285.22 C 774.23 280.48 767.88 276.49 761.10 273.35 C 734.26 260.98 702.99 262.98 677.94 278.66 C 652.89 294.34 637.43 321.59 636.82 351.14 C 607.99 358.94 589.40 386.88 593.33 416.48 C 597.25 446.09 622.49 468.21 652.35 468.23 C 653.92 468.23 655.47 468.15 657.01 468.03 L 852.15 468.03 C 853.67 468.15 855.21 468.23 856.77 468.23 C 887.83 468.24 913.69 444.39 916.17 413.43 C 918.66 382.47 896.94 354.80 866.28 349.85 Z" fill="#ffffff" fill-rule="nonzero" node-id="70" stroke="none" target-height="202.90588" target-width="323.49066" target-x="592.85693" target-y="265.32413"></path><path d="M 906.17 546.39 C 906.44 543.23 906.66 540.05 906.86 536.87 C 906.99 534.73 907.09 532.58 907.19 530.42 C 907.19 529.62 907.26 528.82 907.30 528.02 L 414.39 294.88 C 414.39 294.88 379.39 321.29 331.85 357.93 C 381.53 510.93 525.23 621.53 694.78 621.53 C 769.51 621.64 842.61 599.71 904.93 558.46 C 904.99 557.99 905.05 557.46 905.10 557.04 C 905.38 554.53 905.63 552.04 905.87 549.50 C 906.00 548.46 906.08 547.43 906.17 546.39 Z" fill="#8bc852" fill-rule="nonzero" node-id="72" stroke="none" target-height="326.65002" target-width="575.44995" target-x="331.85" target-y="294.88"></path><path d="M 394.31 359.09 C 394.31 405.55 431.98 443.22 478.44 443.22 L 478.44 275.00 C 431.99 275.00 394.33 312.64 394.31 359.09 Z" fill="none" node-id="74" stroke="none" target-height="168.22" target-width="84.130005" target-x="394.31" target-y="275"></path><path d="M 562.57 359.09 C 562.55 312.64 524.89 275.00 478.44 275.00 L 478.44 443.22 C 524.90 443.22 562.57 405.55 562.57 359.09 Z" fill="none" node-id="76" stroke="none" target-height="168.22" target-width="84.130005" target-x="478.44" target-y="275"></path><path d="M 316.43 479.00 C 285.30 353.00 362.24 225.53 488.29 194.40 L 478.70 155.60 C 331.23 192.02 241.21 341.10 277.63 488.60 C 278.39 491.68 279.22 494.72 280.08 497.75 L 318.90 488.16 C 318.00 485.10 317.19 482.06 316.43 479.00 Z" fill="#dc1428" fill-rule="nonzero" node-id="78" stroke="none" target-height="342.15" target-width="218.72849" target-x="269.56152" target-y="155.6"></path><path d="M 359.86 468.25 C 334.65 366.19 397.00 263.00 499.00 237.81 L 488.28 194.38 C 362.28 225.51 285.28 352.93 316.42 478.98 C 317.18 482.06 318.02 485.10 318.89 488.12 L 362.35 477.39 C 361.46 474.38 360.62 471.33 359.86 468.25 Z" fill="#f4dd45" fill-rule="nonzero" node-id="80" stroke="none" target-height="293.74" target-width="189.47733" target-x="309.52267" target-y="194.38"></path><path d="M 359.86 468.25 C 360.62 471.33 361.46 474.38 362.36 477.39 L 407.26 466.30 C 406.32 463.30 405.42 460.30 404.66 457.18 C 385.56 379.86 432.76 301.70 510.08 282.60 L 499.00 237.81 C 397.00 263.00 334.65 366.19 359.86 468.25 Z" fill="#00aff4" fill-rule="nonzero" node-id="82" stroke="none" target-height="239.58002" target-width="155.80313" target-x="354.27686" target-y="237.81"></path><path d="M 443.86 447.50 C 430.11 391.83 464.09 335.56 519.76 321.80 L 510.08 282.60 C 432.76 301.70 385.56 379.86 404.66 457.18 C 405.42 460.28 406.32 463.30 407.26 466.30 L 446.57 456.59 C 445.54 453.63 444.63 450.60 443.86 447.50 Z" fill="#5046af" fill-rule="nonzero" node-id="84" stroke="none" target-height="183.69998" target-width="119.29822" target-x="400.4618" target-y="282.6"></path><path d="M 562.21 366.77 L 394.67 366.77 C 398.63 410.08 434.95 443.22 478.44 443.22 C 521.93 443.22 558.25 410.08 562.21 366.77 Z" fill="none" node-id="86" stroke="none" target-height="76.45441" target-width="167.54001" target-x="394.67" target-y="366.77"></path><path d="M 362.47 549.50 C 328.70 549.51 300.15 524.51 295.71 491.03 C 291.27 457.55 312.31 425.97 344.92 417.18 C 345.31 396.15 352.42 375.79 365.21 359.09 C 334.88 345.09 299.53 347.34 271.21 365.06 C 242.89 382.79 225.42 413.60 224.75 447.00 C 192.14 455.79 171.10 487.37 175.54 520.85 C 179.98 554.33 208.53 579.33 242.30 579.32 C 244.08 579.32 245.83 579.24 247.57 579.10 L 468.11 579.10 C 469.84 579.23 471.58 579.32 473.34 579.32 C 495.87 579.34 516.92 568.08 529.40 549.32 L 367.74 549.32 C 366.00 549.41 364.24 549.50 362.47 549.50 Z" fill="#dafffb" fill-rule="nonzero" node-id="88" stroke="none" target-height="229.33936" target-width="354.3944" target-x="175.0056" target-y="349.98065"></path><path d="M 484.09 445.54 C 487.12 420.58 476.58 395.89 456.45 380.82 C 436.32 365.75 409.67 362.59 386.57 372.54 C 380.05 367.18 372.87 362.67 365.21 359.13 C 352.42 375.83 345.31 396.19 344.92 417.22 C 312.39 426.07 291.42 457.61 295.85 491.03 C 300.29 524.45 328.76 549.44 362.47 549.50 C 364.24 549.50 366.00 549.41 367.74 549.28 L 529.40 549.28 C 542.07 530.22 544.19 506.03 535.03 485.06 C 525.87 464.08 506.68 449.20 484.09 445.54 Z" fill="#ffffff" fill-rule="nonzero" node-id="90" stroke="none" target-height="190.37" target-width="245.33429" target-x="295.32343" target-y="359.13"></path></svg>