<?xml version="1.0" standalone="no"?><!DOCTYPE svg PUBLIC "-//W3C//DTD SVG 1.1//EN" "http://www.w3.org/Graphics/SVG/1.1/DTD/svg11.dtd"><svg height="1024" legacy-metrics="false" node-id="1" sillyvg="true" template-height="1024" template-width="1024" version="1.1" viewBox="0 0 1024 1024" width="1024" xmlns="http://www.w3.org/2000/svg" xmlns:xlink="http://www.w3.org/1999/xlink"><defs node-id="35"></defs><path d="M 895.93 528.07 C 895.93 629.89 855.48 727.55 783.48 799.55 C 711.48 871.55 613.82 912.00 512.00 912.00 C 410.18 912.00 312.52 871.55 240.52 799.55 C 168.52 727.55 128.07 629.89 128.07 528.07 C 128.07 426.25 168.52 328.59 240.52 256.59 C 312.52 184.59 410.18 144.14 512.00 144.14 C 613.82 144.14 711.48 184.59 783.48 256.59 C 855.48 328.59 895.93 426.25 895.93 528.07 Z" fill="#4278c3" fill-rule="nonzero" node-id="37" stroke="none" target-height="767.86" target-width="767.86" target-x="128.07" target-y="144.14"></path><path d="M 512.00 144.14 C 450.00 144.05 388.91 159.05 334.00 187.84 C 328.28 213.83 325.39 240.37 325.40 266.98 C 325.40 469.24 489.40 633.20 691.62 633.20 C 763.36 633.31 833.53 612.25 893.35 572.65 C 895.07 557.85 895.93 542.97 895.94 528.07 C 895.93 316.00 724.00 144.14 512.00 144.14 Z" fill="#5ea5ec" fill-rule="nonzero" node-id="39" stroke="none" target-height="489.06" target-width="570.54004" target-x="325.4" target-y="144.14"></path><path d="M 390.90 738.75 C 580.17 738.75 733.61 585.31 733.61 396.04 C 733.73 312.24 703.02 231.32 647.33 168.70 C 604.07 152.41 558.22 144.09 512.00 144.14 C 300.00 144.14 128.07 316.03 128.07 528.07 C 128.05 563.18 132.84 598.13 142.30 631.94 C 206.94 700.23 296.87 738.86 390.90 738.75 Z" fill="#70c6da" fill-rule="nonzero" node-id="41" stroke="none" target-height="594.61" target-width="605.54" target-x="128.07" target-y="144.14"></path><path d="M 710.22 758.00 C 706.86 753.31 706.86 747.00 710.22 742.31 L 783.00 640.83 C 784.29 639.03 784.09 636.56 782.52 634.99 C 780.95 633.42 778.48 633.22 776.68 634.51 L 675.21 707.28 C 670.52 710.64 664.21 710.64 659.52 707.28 L 558.05 634.51 C 556.25 633.22 553.78 633.42 552.21 634.99 C 550.64 636.56 550.44 639.03 551.73 640.83 L 624.50 742.30 C 627.86 746.99 627.86 753.30 624.50 757.99 L 551.73 859.45 C 550.44 861.25 550.64 863.72 552.21 865.29 C 553.78 866.86 556.25 867.06 558.05 865.77 L 659.52 793.00 C 664.21 789.64 670.52 789.64 675.21 793.00 L 738.27 838.23 C 744.74 833.51 751.05 828.60 757.20 823.49 Z" fill="#ecbe6b" fill-rule="nonzero" node-id="43" stroke="none" target-height="232.9209" target-width="232.93097" target-x="550.89954" target-y="633.67957"></path><path d="M 300.88 484.00 C 197.11 385.00 189.74 223.00 281.54 115.13 C 281.82 114.13 282.12 113.04 282.42 112.00 C 264.09 124.22 247.18 138.43 232.00 154.39 C 122.64 269.09 123.85 447.74 234.69 553.39 C 345.53 659.04 524.00 651.81 633.36 537.11 C 648.57 521.17 661.97 503.60 673.30 484.70 C 672.30 485.04 671.30 485.39 670.21 485.70 C 566.88 582.55 404.66 582.90 300.88 484.00 Z" fill="#f4dd45" fill-rule="nonzero" node-id="45" stroke="none" target-height="516.0657" target-width="522.5048" target-x="150.79518" target-y="112"></path><path d="M 365.79 415.88 C 281.93 335.88 253.47 219.68 281.54 115.13 C 189.74 223.00 197.11 385.00 300.88 484.00 C 404.65 583.00 566.88 582.59 670.21 485.76 C 567.12 518.74 449.66 495.84 365.79 415.88 Z" fill="#f9ef63" fill-rule="nonzero" node-id="47" stroke="none" target-height="443.141" target-width="452.65796" target-x="217.55206" target-y="115.13"></path><path d="M 650.00 725.05 L 661.13 657.48 C 662.28 650.48 672.38 650.48 673.54 657.48 L 684.67 725.05 C 685.33 729.03 688.45 732.15 692.43 732.81 L 760.00 743.94 C 767.00 745.09 767.00 755.19 760.00 756.35 L 692.44 767.48 C 688.46 768.13 685.33 771.26 684.68 775.24 L 673.57 842.80 C 672.41 849.80 662.31 849.80 661.16 842.80 L 650.00 775.24 C 649.34 771.26 646.22 768.14 642.24 767.48 L 574.70 756.35 C 567.70 755.19 567.70 745.09 574.70 743.94 L 642.27 732.81 C 646.24 732.14 649.34 729.02 650.00 725.05 Z" fill="#f9ef63" fill-rule="nonzero" node-id="49" stroke="none" target-height="195.81995" target-width="195.79999" target-x="569.45" target-y="652.23"></path><path d="M 727.94 210.59 C 719.76 205.02 711.37 199.76 702.76 194.81 L 707.76 225.08 Z" fill="#4278c3" fill-rule="nonzero" node-id="51" stroke="none" target-height="30.270004" target-width="25.179993" target-x="702.76" target-y="194.81"></path><path d="M 676.69 247.05 L 680.31 225.05 L 584.72 156.49 C 582.92 155.20 580.45 155.40 578.88 156.97 C 577.31 158.54 577.11 161.01 578.40 162.81 L 647.00 258.44 L 669.00 254.82 C 672.96 254.14 676.05 251.02 676.69 247.05 Z" fill="#ecbe6b" fill-rule="nonzero" node-id="53" stroke="none" target-height="102.78044" target-width="102.74042" target-x="577.5696" target-y="155.65956"></path><path d="M 668.93 289.48 L 646.93 285.86 L 578.37 381.46 C 577.08 383.26 577.28 385.73 578.85 387.30 C 580.42 388.87 582.89 389.07 584.69 387.78 L 680.28 319.22 L 676.66 297.22 C 676.00 293.25 672.90 290.14 668.93 289.48 Z" fill="#ecbe6b" fill-rule="nonzero" node-id="55" stroke="none" target-height="102.75046" target-width="102.74048" target-x="577.53955" target-y="285.86"></path><path d="M 711.36 297.25 L 707.74 319.25 L 803.34 387.81 C 805.14 389.10 807.61 388.90 809.18 387.33 C 810.75 385.76 810.95 383.29 809.66 381.49 L 741.10 285.89 L 719.10 289.51 C 715.13 290.18 712.03 293.28 711.36 297.25 Z" fill="#ecbe6b" fill-rule="nonzero" node-id="57" stroke="none" target-height="102.75043" target-width="102.75049" target-x="707.74" target-y="285.89"></path><path d="M 711.36 247.05 C 712.02 251.04 715.14 254.16 719.13 254.82 L 741.13 258.44 L 758.72 233.90 C 748.88 225.64 738.63 217.87 727.97 210.59 L 707.77 225.08 Z" fill="#ecbe6b" fill-rule="nonzero" node-id="59" stroke="none" target-height="47.850006" target-width="50.94995" target-x="707.77" target-y="210.59"></path><path d="M 736.89 280.00 L 741.10 285.87 L 786.69 278.36 C 793.69 277.21 793.69 267.11 786.69 265.95 L 741.10 258.45 L 736.89 264.32 C 733.53 269.01 733.53 275.31 736.89 280.00 Z" fill="#f9ef63" fill-rule="nonzero" node-id="61" stroke="none" target-height="27.419983" target-width="57.56891" target-x="734.3711" target-y="258.45"></path><path d="M 651.17 264.31 L 647.00 258.44 L 601.41 265.94 C 594.41 267.10 594.41 277.20 601.41 278.35 L 647.00 285.86 L 651.21 279.99 C 654.56 275.29 654.54 268.99 651.17 264.31 Z" fill="#f9ef63" fill-rule="nonzero" node-id="63" stroke="none" target-height="27.419983" target-width="57.54895" target-x="596.16003" target-y="258.44"></path><path d="M 686.19 229.29 C 690.88 232.65 697.18 232.65 701.87 229.29 L 707.74 225.08 L 702.74 194.81 C 697.47 191.79 692.14 188.89 686.74 186.11 L 680.32 225.11 Z" fill="#f9ef63" fill-rule="nonzero" node-id="65" stroke="none" target-height="45.69899" target-width="27.419983" target-x="680.32" target-y="186.11"></path><path d="M 686.19 315.00 L 680.31 319.21 L 687.82 364.80 C 688.98 371.80 699.08 371.80 700.23 364.80 L 707.74 319.21 L 701.87 315.00 C 697.18 311.64 690.88 311.64 686.19 315.00 Z" fill="#f9ef63" fill-rule="nonzero" node-id="67" stroke="none" target-height="57.56897" target-width="27.429993" target-x="680.31" target-y="312.48102"></path><path d="M 711.36 247.05 L 707.74 225.05 L 701.87 229.26 C 697.18 232.62 690.88 232.62 686.19 229.26 L 680.31 225.05 L 676.69 247.05 C 676.04 251.04 672.92 254.16 668.93 254.82 L 646.93 258.44 L 651.14 264.31 C 654.50 269.00 654.50 275.30 651.14 279.99 L 647.00 285.86 L 669.00 289.48 C 672.99 290.14 676.11 293.26 676.76 297.25 L 680.38 319.25 L 686.26 315.04 C 690.95 311.68 697.25 311.68 701.94 315.04 L 707.81 319.25 L 711.43 297.25 C 712.09 293.26 715.21 290.14 719.20 289.48 L 741.20 285.86 L 736.89 280.00 C 733.53 275.31 733.53 269.01 736.89 264.32 L 741.10 258.45 L 719.10 254.83 C 715.12 254.16 712.01 251.03 711.36 247.05 Z" fill="#f9ef63" fill-rule="nonzero" node-id="69" stroke="none" target-height="94.2" target-width="94.27002" target-x="646.93" target-y="225.05"></path><path d="M 235.48 786.58 L 239.10 764.58 L 181.28 723.11 C 195.88 747.80 213.18 770.79 232.88 791.64 C 234.24 790.26 235.15 788.49 235.48 786.58 Z" fill="#ecbe6b" fill-rule="nonzero" node-id="71" stroke="none" target-height="68.53003" target-width="57.820007" target-x="181.28" target-y="723.11"></path><path d="M 277.91 794.35 L 299.91 797.97 L 368.47 702.37 C 369.76 700.57 369.56 698.10 367.99 696.53 C 366.42 694.96 363.95 694.76 362.15 696.05 L 266.56 764.61 L 270.18 786.61 C 270.84 790.58 273.95 793.68 277.91 794.35 Z" fill="#ecbe6b" fill-rule="nonzero" node-id="73" stroke="none" target-height="102.75049" target-width="102.74045" target-x="266.56" target-y="695.2195"></path><path d="M 277.91 829.00 C 276.86 829.18 275.84 829.54 274.91 830.06 C 291.79 843.33 309.76 855.16 328.61 865.44 L 299.88 825.38 Z" fill="#ecbe6b" fill-rule="nonzero" node-id="75" stroke="none" target-height="40.059998" target-width="53.69998" target-x="274.91" target-y="825.38"></path><path d="M 295.67 819.52 L 299.88 825.39 L 345.47 817.88 C 352.47 816.73 352.47 806.63 345.47 805.47 L 299.88 798.00 L 295.67 803.87 C 292.33 808.55 292.33 814.84 295.67 819.52 Z" fill="#f9ef63" fill-rule="nonzero" node-id="77" stroke="none" target-height="27.390015" target-width="57.558258" target-x="293.16174" target-y="798"></path><path d="M 260.66 768.82 L 266.53 764.61 L 259.00 719.00 C 257.84 712.00 247.74 712.00 246.59 719.00 L 239.08 764.59 L 244.95 768.80 C 249.64 772.18 255.96 772.18 260.66 768.82 Z" fill="#f9ef63" fill-rule="nonzero" node-id="79" stroke="none" target-height="57.587463" target-width="27.449997" target-x="239.08" target-y="713.75"></path><path d="M 232.88 791.67 C 245.92 805.49 259.95 818.32 274.88 830.07 C 275.81 829.55 276.83 829.19 277.88 829.01 L 299.88 825.39 L 295.67 819.52 C 292.31 814.83 292.31 808.53 295.67 803.84 L 299.88 797.97 L 277.88 794.35 C 273.90 793.69 270.77 790.57 270.12 786.58 L 266.50 764.58 L 260.63 768.79 C 255.94 772.15 249.63 772.15 244.94 768.79 L 239.07 764.58 L 235.45 786.58 C 235.14 788.50 234.24 790.28 232.88 791.67 Z" fill="#f9ef63" fill-rule="nonzero" node-id="81" stroke="none" target-height="65.48999" target-width="67" target-x="232.88" target-y="764.58"></path><path d="M 422.76 261.74 C 422.76 276.49 410.80 288.45 396.05 288.45 C 381.30 288.45 369.34 276.49 369.34 261.74 C 369.34 246.99 381.30 235.03 396.05 235.03 C 410.80 235.03 422.76 246.99 422.76 261.74 Z" fill="#ffffff" fill-rule="nonzero" node-id="83" stroke="none" target-height="53.420013" target-width="53.420013" target-x="369.34" target-y="235.03"></path><path d="M 818.66 501.85 C 818.66 516.60 806.70 528.56 791.95 528.56 C 777.20 528.56 765.24 516.60 765.24 501.85 C 765.24 487.10 777.20 475.14 791.95 475.14 C 806.70 475.14 818.66 487.10 818.66 501.85 Z" fill="#ffffff" fill-rule="nonzero" node-id="85" stroke="none" target-height="53.419983" target-width="53.419983" target-x="765.24" target-y="475.14"></path><path d="M 465.43 797.37 C 465.43 812.12 453.47 824.08 438.72 824.08 C 423.97 824.08 412.01 812.12 412.01 797.37 C 412.01 782.62 423.97 770.66 438.72 770.66 C 453.47 770.66 465.43 782.62 465.43 797.37 Z" fill="#ffffff" fill-rule="nonzero" node-id="87" stroke="none" target-height="53.420044" target-width="53.419983" target-x="412.01" target-y="770.66"></path><path d="M 512.00 388.68 C 512.00 398.95 503.67 407.28 493.40 407.28 C 483.13 407.28 474.80 398.95 474.80 388.68 C 474.80 378.41 483.13 370.08 493.40 370.08 C 503.67 370.08 512.00 378.41 512.00 388.68 Z" fill="#ffffff" fill-rule="nonzero" node-id="89" stroke="none" target-height="37.200012" target-width="37.200012" target-x="474.8" target-y="370.08"></path><path d="M 577.51 229.76 C 577.51 237.13 571.54 243.10 564.17 243.10 C 556.80 243.10 550.83 237.13 550.83 229.76 C 550.83 222.39 556.80 216.42 564.17 216.42 C 571.54 216.42 577.51 222.39 577.51 229.76 Z" fill="#ffffff" fill-rule="nonzero" node-id="91" stroke="none" target-height="26.680008" target-width="26.679993" target-x="550.83" target-y="216.42"></path><path d="M 259.86 684.42 C 259.86 691.79 253.89 697.76 246.52 697.76 C 239.15 697.76 233.18 691.79 233.18 684.42 C 233.18 677.05 239.15 671.08 246.52 671.08 C 253.89 671.08 259.86 677.05 259.86 684.42 Z" fill="#ffffff" fill-rule="nonzero" node-id="93" stroke="none" target-height="26.679993" target-width="26.679993" target-x="233.18" target-y="671.08"></path></svg>