<?xml version="1.0" standalone="no"?><!DOCTYPE svg PUBLIC "-//W3C//DTD SVG 1.1//EN" "http://www.w3.org/Graphics/SVG/1.1/DTD/svg11.dtd"><svg height="1024" legacy-metrics="false" node-id="1" sillyvg="true" template-height="1024" template-width="1024" version="1.1" viewBox="0 0 1024 1024" width="1024" xmlns="http://www.w3.org/2000/svg" xmlns:xlink="http://www.w3.org/1999/xlink"><defs node-id="45"></defs><path d="M 898.44 558.46 C 898.44 658.31 858.78 754.07 788.17 824.67 C 717.57 895.28 621.81 934.94 521.96 934.94 C 422.11 934.94 326.35 895.28 255.75 824.67 C 185.14 754.07 145.48 658.31 145.48 558.46 C 145.48 458.61 185.14 362.85 255.75 292.25 C 326.35 221.64 422.11 181.98 521.96 181.98 C 621.81 181.98 717.57 221.64 788.17 292.25 C 858.78 362.85 898.44 458.61 898.44 558.46 Z" fill="#93ede7" fill-rule="nonzero" node-id="47" stroke="none" target-height="752.96" target-width="752.96" target-x="145.48" target-y="181.98"></path><path d="M 522.00 182.00 C 461.19 181.90 401.26 196.61 347.40 224.84 C 341.79 250.33 338.96 276.34 338.97 302.44 C 338.97 500.78 499.75 661.56 698.08 661.56 C 768.43 661.66 837.24 641.01 895.90 602.18 C 897.58 587.67 898.43 573.07 898.44 558.46 C 898.44 350.54 729.88 182.00 522.00 182.00 Z" fill="#c1f8f4" fill-rule="nonzero" node-id="49" stroke="none" target-height="479.56" target-width="559.47" target-x="338.97" target-y="182"></path><path d="M 220.56 360.30 L 448.82 364.81" fill="none" node-id="51" stroke="none" target-height="4.51001" target-width="228.26001" target-x="220.56" target-y="360.3"></path><path d="M 703.07 759.23 L 203.45 759.23 C 272.35 868.69 392.66 935.06 522.00 934.94 C 656.10 934.94 773.79 864.81 840.48 759.23 Z" fill="#5ea570" fill-rule="nonzero" node-id="53" stroke="none" target-height="175.71002" target-width="637.02997" target-x="203.45" target-y="759.23"></path><path d="M 619.39 457.61 L 702.39 425.08 C 687.90 414.03 668.70 411.35 651.74 418.00 C 634.78 424.64 622.51 439.66 619.39 457.61 Z" fill="none" node-id="55" stroke="none" target-height="43.187683" target-width="83" target-x="619.39" target-y="414.4223"></path><path d="M 618.60 466.58 C 618.59 491.07 635.62 512.26 659.53 517.53 C 683.44 522.80 707.80 510.73 718.09 488.51 C 728.38 466.29 721.83 439.90 702.34 425.08 L 619.34 457.61 C 618.83 460.57 618.59 463.57 618.60 466.58 Z" fill="none" node-id="57" stroke="none" target-height="93.63803" target-width="104.32019" target-x="618.6" target-y="425.08"></path><path d="M 323.46 320.32 C 309.49 320.32 296.10 325.87 286.23 335.75 C 276.35 345.63 270.81 359.03 270.82 373.00 L 376.11 373.00 C 376.12 359.03 370.57 345.63 360.70 335.75 C 350.83 325.87 337.43 320.32 323.46 320.32 Z" fill="none" node-id="59" stroke="none" target-height="52.679993" target-width="105.28998" target-x="270.82" target-y="320.32"></path><path d="M 549.00 703.10 L 549.00 703.18 L 174.33 703.18 C 182.44 722.65 192.18 741.40 203.45 759.23 L 840.45 759.23 C 851.73 741.37 861.48 722.60 869.60 703.10 L 549.00 703.10 Z" fill="#93ede7" fill-rule="nonzero" node-id="61" stroke="none" target-height="56.130005" target-width="695.26996" target-x="174.33" target-y="703.1"></path><path d="M 575.28 485.96 L 615.15 485.96 L 615.15 846.71 L 575.28 846.71 Z" fill="#523838" fill-rule="nonzero" node-id="63" stroke="none" target-height="360.75003" target-width="39.869995" target-x="575.28" target-y="485.96"></path><path d="M 610.91 486.21 L 644.99 486.21 L 644.99 846.96 L 610.91 846.96 Z" fill="#664545" fill-rule="nonzero" node-id="65" stroke="none" target-height="360.75003" target-width="34.080017" target-x="610.91" target-y="486.21"></path><path d="M 460.16 571.40 C 486.24 594.52 515.55 613.72 547.16 628.40 L 601.16 548.26 L 691.52 414.26 L 608.28 290.73 L 469.28 496.91 L 439.61 540.91 L 453.10 560.91 Z" fill="#4f8980" fill-rule="nonzero" node-id="67" stroke="none" target-height="337.67" target-width="251.91003" target-x="439.61" target-y="290.73"></path><path d="M 608.28 510.13 L 819.18 510.13 L 713.73 353.73 L 608.28 197.33 L 502.84 353.73 L 397.39 510.13 L 608.28 510.13 Z" fill="#4f8980" fill-rule="nonzero" node-id="69" stroke="none" target-height="312.8" target-width="421.78998" target-x="397.39" target-y="197.33"></path><path d="M 608.28 343.29 L 748.75 343.29 L 678.52 239.11 L 608.28 134.94 L 538.05 239.11 L 467.82 343.29 L 608.28 343.29 Z" fill="#4f8980" fill-rule="nonzero" node-id="71" stroke="none" target-height="208.35" target-width="280.93" target-x="467.82" target-y="134.94"></path><path d="M 748.75 343.29 L 678.52 239.11 L 650.35 197.33 L 604.70 265.04 L 551.94 343.29 L 608.28 343.29 L 748.75 343.29 Z" fill="#5ea55c" fill-rule="nonzero" node-id="73" stroke="none" target-height="145.96" target-width="196.81" target-x="551.94" target-y="197.33"></path><path d="M 313.51 542.04 L 345.06 542.04 L 345.06 846.88 L 313.51 846.88 Z" fill="#523838" fill-rule="nonzero" node-id="75" stroke="none" target-height="304.84003" target-width="31.549988" target-x="313.51" target-y="542.04"></path><path d="M 341.71 542.25 L 368.68 542.25 L 368.68 847.09 L 341.71 847.09 Z" fill="#664545" fill-rule="nonzero" node-id="77" stroke="none" target-height="304.84003" target-width="26.970001" target-x="341.71" target-y="542.25"></path><path d="M 875.71 687.38 C 885.75 659.87 892.52 631.27 895.89 602.18 C 877.89 614.09 858.85 624.36 839.00 632.85 L 851.31 651.11 Z" fill="#93ede7" fill-rule="nonzero" node-id="79" stroke="none" target-height="85.20001" target-width="56.890015" target-x="839" target-y="602.18"></path><path d="M 357.19 418.67 L 359.32 421.84 C 337.12 358.56 332.99 290.34 347.40 224.84 C 227.40 287.77 145.48 413.54 145.48 558.46 C 145.44 605.12 154.09 651.38 171.00 694.87 L 261.31 560.93 Z" fill="#93ede7" fill-rule="nonzero" node-id="81" stroke="none" target-height="470.03" target-width="213.84001" target-x="145.48" target-y="224.84"></path><path d="M 838.95 632.85 L 838.95 632.85 L 747.30 496.91 L 719.21 455.25 L 747.30 496.91 L 838.95 632.85 Z" fill="#4f8980" fill-rule="nonzero" node-id="83" stroke="none" target-height="177.59998" target-width="119.73999" target-x="719.21" target-y="455.25"></path><path d="M 851.26 651.12 L 838.95 632.85 L 838.95 632.85 L 851.26 651.12 Z" fill="#4f8980" fill-rule="nonzero" node-id="85" stroke="none" target-height="18.27002" target-width="12.309998" target-x="838.95" target-y="632.85"></path><path d="M 608.28 703.10 L 548.95 703.10 L 548.95 703.10 L 608.28 703.10 L 869.59 703.10 L 869.59 703.10 L 608.28 703.10 Z" fill="#4f8980" fill-rule="nonzero" node-id="87" stroke="none" target-height="0" target-width="320.64" target-x="548.95" target-y="703.1"></path><path d="M 547.15 628.37 C 515.54 613.69 486.23 594.49 460.15 571.37 L 522.85 664.37 Z" fill="#4f8980" fill-rule="nonzero" node-id="89" stroke="none" target-height="93" target-width="87.00003" target-x="460.15" target-y="571.37"></path><path d="M 691.54 414.21 L 691.54 414.21 L 719.21 455.25 L 691.54 414.21 Z" fill="#5ea55c" fill-rule="nonzero" node-id="91" stroke="none" target-height="41.04001" target-width="27.670044" target-x="691.54" target-y="414.21"></path><path d="M 875.71 687.38 L 875.71 687.38 L 851.26 651.12 L 875.71 687.38 Z" fill="#5ea55c" fill-rule="nonzero" node-id="93" stroke="none" target-height="36.26001" target-width="24.450012" target-x="851.26" target-y="651.12"></path><path d="M 547.15 628.37 C 639.43 671.02 745.45 672.65 839.00 632.85 L 747.30 496.91 L 719.21 455.25 L 691.54 414.25 L 601.18 548.25 Z" fill="#5ea55c" fill-rule="nonzero" node-id="95" stroke="none" target-height="247.27856" target-width="291.84998" target-x="547.15" target-y="414.25"></path><path d="M 839.00 632.85 C 745.47 672.63 639.47 671.01 547.20 628.37 L 522.91 664.37 L 549.00 703.10 L 869.59 703.10 C 871.75 697.92 873.79 692.68 875.71 687.38 L 851.26 651.11 Z" fill="#5ea55c" fill-rule="nonzero" node-id="97" stroke="none" target-height="74.72998" target-width="352.80005" target-x="522.91" target-y="628.37"></path><path d="M 439.60 540.92 L 359.32 421.84 C 375.75 468.42 401.63 511.10 435.32 547.22 Z" fill="#5ea55c" fill-rule="nonzero" node-id="99" stroke="none" target-height="125.379974" target-width="80.28" target-x="359.32" target-y="421.84"></path><path d="M 549.00 703.18 L 549.00 703.10 L 330.26 703.10 L 435.35 547.22 C 401.66 511.10 375.78 468.42 359.35 421.84 L 357.22 418.67 L 261.28 560.93 L 171.00 694.87 C 172.09 697.65 173.21 700.42 174.36 703.18 L 549.00 703.18 Z" fill="#5ea55c" fill-rule="nonzero" node-id="101" stroke="none" target-height="284.50998" target-width="378" target-x="171" target-y="418.67"></path><path d="M 460.16 571.40 L 453.09 560.93 L 439.60 540.93 L 435.35 547.23 C 443.23 555.68 451.50 563.73 460.16 571.40 Z" fill="#5ea55c" fill-rule="nonzero" node-id="103" stroke="none" target-height="30.470032" target-width="24.809998" target-x="435.35" target-y="540.93"></path><path d="M 522.86 664.40 L 460.16 571.40 C 451.49 563.74 443.22 555.68 435.35 547.22 L 330.26 703.10 L 496.77 703.10 Z" fill="#5ea55c" fill-rule="nonzero" node-id="105" stroke="none" target-height="155.88" target-width="192.59998" target-x="330.26" target-y="547.22"></path><path d="M 496.77 703.10 L 548.95 703.10 L 522.86 664.40 L 496.77 703.10 Z" fill="#5ea55c" fill-rule="nonzero" node-id="107" stroke="none" target-height="38.69995" target-width="52.180023" target-x="496.77" target-y="664.4"></path><path d="M 549.00 703.18 L 453.09 560.93 L 414.63 503.87 L 352.29 596.33 L 280.25 703.18 L 357.19 703.18 L 549.00 703.18 Z" fill="#aad540" fill-rule="nonzero" node-id="109" stroke="none" target-height="199.31" target-width="268.75" target-x="280.25" target-y="503.87"></path><path d="M 357.19 577.38 L 503.95 577.38 L 430.57 468.54 L 357.19 359.69 L 283.80 468.54 L 210.42 577.38 L 357.19 577.38 Z" fill="#5ea55c" fill-rule="nonzero" node-id="111" stroke="none" target-height="217.69" target-width="293.53003" target-x="210.42" target-y="359.69"></path><path d="M 503.95 577.38 L 430.57 468.54 L 401.13 424.88 L 353.44 495.63 L 298.31 577.38 L 357.19 577.38 L 503.95 577.38 Z" fill="#aad540" fill-rule="nonzero" node-id="113" stroke="none" target-height="152.5" target-width="205.64001" target-x="298.31" target-y="424.88"></path><path d="M 357.19 451.86 L 445.89 451.86 L 401.54 386.08 L 357.19 320.30 L 312.83 386.08 L 268.48 451.86 L 357.19 451.86 Z" fill="#5ea55c" fill-rule="nonzero" node-id="115" stroke="none" target-height="131.56" target-width="177.41" target-x="268.48" target-y="320.3"></path><path d="M 445.89 451.86 L 401.54 386.08 L 383.75 359.69 L 354.92 402.45 L 321.61 451.86 L 357.19 451.86 L 445.89 451.86 Z" fill="#aad540" fill-rule="nonzero" node-id="117" stroke="none" target-height="92.16998" target-width="124.28003" target-x="321.61" target-y="359.69"></path><path d="M 341.71 703.18 L 368.68 703.18 L 368.68 717.00 L 341.71 717.00 Z" fill="#523838" fill-rule="nonzero" node-id="119" stroke="none" target-height="13.820007" target-width="26.970001" target-x="341.71" target-y="703.18"></path><path d="M 610.42 703.18 L 644.98 703.18 L 644.98 728.71 L 610.42 728.71 Z" fill="#523838" fill-rule="nonzero" node-id="121" stroke="none" target-height="25.53003" target-width="34.559998" target-x="610.42" target-y="703.18"></path><path d="M 819.18 510.13 L 713.73 353.73 L 671.44 291.00 L 602.90 392.65 L 523.69 510.13 L 608.28 510.13 L 819.18 510.13 Z" fill="#5ea55c" fill-rule="nonzero" node-id="123" stroke="none" target-height="219.13" target-width="295.49" target-x="523.69" target-y="291"></path></svg>