<?xml version="1.0" standalone="no"?><!DOCTYPE svg PUBLIC "-//W3C//DTD SVG 1.1//EN" "http://www.w3.org/Graphics/SVG/1.1/DTD/svg11.dtd"><svg height="1024" legacy-metrics="false" node-id="1" sillyvg="true" template-height="1024" template-width="1024" version="1.1" viewBox="0 0 1024 1024" width="1024" xmlns="http://www.w3.org/2000/svg" xmlns:xlink="http://www.w3.org/1999/xlink"><defs node-id="30"></defs><path d="M 912.00 508.11 C 912.00 614.20 869.86 715.94 794.84 790.95 C 719.83 865.97 618.09 908.11 512.00 908.11 C 405.91 908.11 304.17 865.97 229.16 790.95 C 154.14 715.94 112.00 614.20 112.00 508.11 C 112.00 402.02 154.14 300.28 229.16 225.27 C 304.17 150.25 405.91 108.11 512.00 108.11 C 618.09 108.11 719.83 150.25 794.84 225.27 C 869.86 300.28 912.00 402.02 912.00 508.11 Z" fill="#93ede7" fill-rule="nonzero" node-id="32" stroke="none" target-height="800" target-width="800" target-x="112" target-y="108.11"></path><path d="M 512.00 108.11 C 447.40 108.02 383.75 123.65 326.54 153.64 C 320.56 180.72 317.55 208.37 317.54 236.10 C 317.54 446.82 488.36 617.64 699.09 617.64 C 773.84 617.76 846.97 595.82 909.30 554.56 C 911.09 539.14 911.99 523.63 912.00 508.11 C 912.00 287.20 732.91 108.11 512.00 108.11 Z" fill="#c1f8f4" fill-rule="nonzero" node-id="34" stroke="none" target-height="509.53003" target-width="594.45996" target-x="317.54" target-y="108.11"></path><path d="M 699.13 617.64 C 488.40 617.64 317.58 446.82 317.58 236.10 C 317.59 208.37 320.60 180.72 326.58 153.64 C 199.00 220.50 112.00 354.13 112.00 508.11 C 111.88 583.62 133.25 657.60 173.59 721.42 L 850.38 721.42 C 882.30 670.93 902.44 613.90 909.30 554.56 C 846.98 595.81 773.87 617.76 699.13 617.64 Z" fill="#93ede7" fill-rule="nonzero" node-id="36" stroke="none" target-height="567.77997" target-width="797.3" target-x="112" target-y="153.64"></path><path d="M 499.25 325.03 C 499.25 430.12 414.06 515.31 308.97 515.31 C 203.88 515.31 118.69 430.12 118.69 325.03 C 118.69 219.94 203.88 134.75 308.97 134.75 C 414.06 134.75 499.25 219.94 499.25 325.03 Z" fill="#5ea55c" fill-rule="nonzero" node-id="38" stroke="none" target-height="380.56" target-width="380.56" target-x="118.69" target-y="134.75"></path><path d="M 309.00 134.75 C 296.85 134.76 284.73 135.92 272.80 138.23 C 260.25 164.10 253.76 192.48 253.80 221.23 C 253.80 326.32 338.99 411.51 444.08 411.51 C 456.21 411.49 468.31 410.32 480.22 408.00 C 492.77 382.13 499.27 353.75 499.22 325.00 C 499.25 219.94 414.06 134.75 309.00 134.75 Z" fill="#8bc852" fill-rule="nonzero" node-id="40" stroke="none" target-height="276.76" target-width="245.42" target-x="253.8" target-y="134.75"></path><path d="M 280.17 370.16 L 313.70 370.16 L 313.70 722.15 L 280.17 722.15 Z" fill="#523838" fill-rule="nonzero" node-id="42" stroke="none" target-height="351.99002" target-width="33.53" target-x="280.17" target-y="370.16"></path><path d="M 293.38 370.41 L 322.04 370.41 L 322.04 722.40 L 293.38 722.40 Z" fill="#664545" fill-rule="nonzero" node-id="44" stroke="none" target-height="351.99002" target-width="28.660004" target-x="293.38" target-y="370.41"></path><path d="M 191.77 297.57 L 434.29 302.36" fill="none" node-id="46" stroke="none" target-height="4.789978" target-width="242.52" target-x="191.77" target-y="297.57"></path><path d="M 868.68 412.25 C 868.68 516.36 784.29 600.75 680.18 600.75 C 576.07 600.75 491.68 516.36 491.68 412.25 C 491.68 308.14 576.07 223.75 680.18 223.75 C 784.29 223.75 868.68 308.14 868.68 412.25 Z" fill="#5ea55c" fill-rule="nonzero" node-id="48" stroke="none" target-height="377" target-width="377" target-x="491.68" target-y="223.75"></path><path d="M 680.18 223.75 C 668.14 223.76 656.14 224.91 644.32 227.20 C 631.88 252.82 625.43 280.94 625.47 309.43 C 625.47 413.53 709.87 497.93 813.97 497.93 C 826.01 497.92 838.01 496.77 849.83 494.48 C 862.26 468.85 868.71 440.73 868.67 412.25 C 868.67 308.14 784.28 223.75 680.18 223.75 Z" fill="#8bc852" fill-rule="nonzero" node-id="50" stroke="none" target-height="274.18" target-width="243.20001" target-x="625.47" target-y="223.75"></path><path d="M 649.17 480.40 L 682.70 480.40 L 682.70 721.43 L 649.17 721.43 Z" fill="#523838" fill-rule="nonzero" node-id="52" stroke="none" target-height="241.03" target-width="33.53003" target-x="649.17" target-y="480.4"></path><path d="M 662.37 480.57 L 691.03 480.57 L 691.03 721.60 L 662.37 721.60 Z" fill="#664545" fill-rule="nonzero" node-id="54" stroke="none" target-height="241.02997" target-width="28.660034" target-x="662.37" target-y="480.57"></path><path d="M 704.43 721.42 L 411.11 895.24 C 444.06 903.80 477.96 908.13 512.00 908.11 C 654.48 908.11 779.53 833.60 850.38 721.42 Z" fill="#c8bec3" fill-rule="nonzero" node-id="56" stroke="none" target-height="186.69" target-width="439.27002" target-x="411.11" target-y="721.42"></path><path d="M 173.59 721.42 C 227.84 807.40 312.75 869.53 411.11 895.24 L 704.43 721.42 Z" fill="#5ea570" fill-rule="nonzero" node-id="58" stroke="none" target-height="173.82" target-width="530.83997" target-x="173.59" target-y="721.42"></path><path d="M 615.52 401.00 L 703.65 366.44 C 688.26 354.73 667.88 351.89 649.87 358.95 C 631.86 366.01 618.84 381.95 615.52 401.00 Z" fill="none" node-id="60" stroke="none" target-height="45.852264" target-width="88.130005" target-x="615.52" target-y="355.14774"></path><path d="M 614.69 410.48 C 614.70 436.48 632.78 458.98 658.17 464.58 C 683.57 470.18 709.43 457.36 720.37 433.77 C 731.31 410.18 724.37 382.16 703.69 366.40 L 615.52 401.00 C 614.97 404.13 614.69 407.30 614.69 410.48 Z" fill="none" node-id="62" stroke="none" target-height="99.44034" target-width="110.81995" target-x="614.69" target-y="366.4"></path><path d="M 703.65 366.40 C 725.32 382.87 731.82 412.64 718.99 436.64 C 706.16 460.65 677.80 471.79 652.07 462.92 C 626.33 454.06 610.84 427.81 615.52 401.00 L 590.94 410.64 C 590.97 446.08 614.56 477.18 648.67 486.77 C 682.78 496.36 719.12 482.11 737.62 451.89 C 756.12 421.66 752.27 382.82 728.21 356.81 Z" fill="#664545" fill-rule="nonzero" node-id="64" stroke="none" target-height="132.89886" target-width="158.30792" target-x="590.94" target-y="356.81"></path><path d="M 664.50 370.28 C 664.50 420.78 623.56 461.72 573.06 461.72 C 522.56 461.72 481.62 420.78 481.62 370.28 C 481.62 319.78 522.56 278.84 573.06 278.84 C 623.56 278.84 664.50 319.78 664.50 370.28 Z" fill="#aad540" fill-rule="nonzero" node-id="66" stroke="none" target-height="182.88" target-width="182.88" target-x="481.62" target-y="278.84"></path><path d="M 815.44 351.29 C 815.44 387.85 785.81 417.48 749.25 417.48 C 712.69 417.48 683.06 387.85 683.06 351.29 C 683.06 314.73 712.69 285.10 749.25 285.10 C 785.81 285.10 815.44 314.73 815.44 351.29 Z" fill="#aad540" fill-rule="nonzero" node-id="68" stroke="none" target-height="132.38" target-width="132.38" target-x="683.06" target-y="285.1"></path><path d="M 301.11 255.09 C 270.23 255.09 245.19 280.12 245.17 311.00 L 357.00 311.00 C 356.98 280.14 331.97 255.12 301.11 255.09 Z" fill="none" node-id="70" stroke="none" target-height="55.910004" target-width="111.83" target-x="245.17" target-y="255.09"></path><path d="M 245.17 311.00 C 246.07 341.23 270.84 365.27 301.08 365.27 C 331.33 365.27 356.10 341.23 357.00 311.00 L 245.17 311.00 Z" fill="none" node-id="72" stroke="none" target-height="54.26776" target-width="111.83" target-x="245.17" target-y="311"></path><path d="M 357.00 311.00 L 357.00 311.00 C 356.59 341.60 331.67 366.19 301.06 366.19 C 270.46 366.19 245.54 341.60 245.13 311.00 L 221.13 311.00 C 221.13 355.15 256.92 390.93 301.06 390.93 C 345.21 390.93 381.00 355.15 381.00 311.00 L 357.00 311.00 Z" fill="#664545" fill-rule="nonzero" node-id="74" stroke="none" target-height="79.935" target-width="159.87" target-x="221.13" target-y="311"></path><path d="M 308.97 276.84 C 308.97 314.68 278.30 345.35 240.46 345.35 C 202.62 345.35 171.95 314.68 171.95 276.84 C 171.95 239.00 202.62 208.33 240.46 208.33 C 278.30 208.33 308.97 239.00 308.97 276.84 Z" fill="#aad540" fill-rule="nonzero" node-id="76" stroke="none" target-height="137.02" target-width="137.02" target-x="171.95" target-y="208.33"></path><path d="M 508.61 238.12 C 508.61 297.34 460.60 345.35 401.38 345.35 C 342.16 345.35 294.15 297.34 294.15 238.12 C 294.15 178.90 342.16 130.89 401.38 130.89 C 460.60 130.89 508.61 178.90 508.61 238.12 Z" fill="#aad540" fill-rule="nonzero" node-id="78" stroke="none" target-height="214.46" target-width="214.45999" target-x="294.15" target-y="130.89"></path></svg>