<?xml version="1.0" standalone="no"?><!DOCTYPE svg PUBLIC "-//W3C//DTD SVG 1.1//EN" "http://www.w3.org/Graphics/SVG/1.1/DTD/svg11.dtd"><svg height="1024" legacy-metrics="false" node-id="1" sillyvg="true" template-height="1024" template-width="1024" version="1.1" viewBox="0 0 1024 1024" width="1024" xmlns="http://www.w3.org/2000/svg" xmlns:xlink="http://www.w3.org/1999/xlink"><defs node-id="26"></defs><path d="M 899.68 524.32 C 899.68 627.14 858.84 725.75 786.13 798.45 C 713.43 871.16 614.82 912.00 512.00 912.00 C 409.18 912.00 310.57 871.16 237.87 798.45 C 165.16 725.75 124.32 627.14 124.32 524.32 C 124.32 421.50 165.16 322.89 237.87 250.19 C 310.57 177.48 409.18 136.64 512.00 136.64 C 614.82 136.64 713.43 177.48 786.13 250.19 C 858.84 322.89 899.68 421.50 899.68 524.32 Z" fill="#93ede7" fill-rule="nonzero" node-id="28" stroke="none" target-height="775.36" target-width="775.36" target-x="124.32" target-y="136.64"></path><path d="M 512.00 136.64 C 449.39 136.55 387.70 151.70 332.25 180.77 C 326.47 207.01 323.56 233.81 323.57 260.68 C 323.57 464.91 489.13 630.48 693.36 630.48 C 765.80 630.59 836.67 609.32 897.07 569.33 C 898.80 554.39 899.67 539.37 899.68 524.33 C 899.68 310.21 726.11 136.64 512.00 136.64 Z" fill="#c1f8f4" fill-rule="nonzero" node-id="30" stroke="none" target-height="493.83997" target-width="576.11" target-x="323.57" target-y="136.64"></path><path d="M 656.37 273.00 C 669.37 202.76 734.14 151.35 775.12 125.24 C 774.93 123.93 774.81 123.24 774.81 123.24 C 774.81 123.24 637.43 85.44 567.14 148.81 C 496.85 212.18 520.29 352.73 520.29 352.73 C 520.29 352.73 596.01 373.56 663.78 358.36 C 655.10 331.27 651.00 302.00 656.37 273.00 Z" fill="#8bc852" fill-rule="nonzero" node-id="32" stroke="none" target-height="251.82217" target-width="258.5722" target-x="516.5478" target-y="112.06887"></path><path d="M 775.12 125.21 C 734.12 151.32 669.32 202.73 656.37 272.97 C 651.00 302.04 655.10 331.27 663.78 358.31 C 687.30 353.03 709.86 343.44 727.96 327.11 C 793.31 268.18 777.64 142.56 775.12 125.21 Z" fill="#aad540" fill-rule="nonzero" node-id="34" stroke="none" target-height="233.1" target-width="124.5611" target-x="653.9755" target-y="125.21"></path><path d="M 500.77 136.64 L 523.23 136.64 C 529.84 136.64 535.20 142.00 535.20 148.61 L 535.20 659.48 C 535.20 666.09 529.84 671.45 523.23 671.45 L 500.77 671.45 C 494.16 671.45 488.80 666.09 488.80 659.48 L 488.80 148.61 C 488.80 142.00 494.16 136.64 500.77 136.64 Z" fill="#4f8980" fill-rule="nonzero" node-id="36" stroke="none" target-height="534.81" target-width="46.400024" target-x="488.8" target-y="136.64"></path><path d="M 418.00 413.16 C 354.00 403.78 305.29 346.85 280.29 310.63 L 278.47 310.98 C 278.47 310.98 248.86 436.59 308.58 498.07 C 368.30 559.55 494.71 533.64 494.71 533.64 C 494.71 533.64 511.02 464.41 494.99 403.58 C 470.76 412.35 444.44 417.00 418.00 413.16 Z" fill="#5ea55c" fill-rule="nonzero" node-id="38" stroke="none" target-height="228.4173" target-width="230.87445" target-x="271.12958" target-y="310.63"></path><path d="M 280.24 310.63 C 305.24 346.85 353.94 403.78 417.95 413.16 C 444.44 417.04 470.76 412.35 494.95 403.58 C 489.39 382.48 479.95 362.38 464.56 346.58 C 409.00 289.37 295.86 307.76 280.24 310.63 Z" fill="#8bc852" fill-rule="nonzero" node-id="40" stroke="none" target-height="108.95395" target-width="214.71002" target-x="280.24" target-y="305.57883"></path><path d="M 272.17 604.26 C 280.93 556.77 324.75 522.02 352.45 504.37 C 352.33 503.48 352.25 503.00 352.25 503.00 C 352.25 503.00 259.36 477.44 211.84 520.29 C 164.32 563.14 180.17 658.16 180.17 658.16 C 180.17 658.16 231.36 672.23 277.17 661.96 C 271.31 643.68 268.54 623.92 272.17 604.26 Z" fill="#8bc852" fill-rule="nonzero" node-id="42" stroke="none" target-height="170.28412" target-width="174.78911" target-x="177.6609" target-y="495.42944"></path><path d="M 352.45 504.37 C 324.75 522.02 280.93 556.77 272.17 604.26 C 268.54 623.92 271.31 643.68 277.17 661.96 C 293.07 658.39 308.32 651.90 320.56 640.87 C 364.75 601.00 354.16 516.10 352.45 504.37 Z" fill="#aad540" fill-rule="nonzero" node-id="44" stroke="none" target-height="157.59003" target-width="84.23016" target-x="270.55072" target-y="504.37"></path><path d="M 834.45 739.59 C 840.89 729.95 846.89 720.02 852.45 709.80 L 852.45 338.80 C 839.43 314.99 823.96 292.60 806.29 272.00 C 806.17 272.95 806.10 273.90 806.10 274.86 L 806.10 739.28 L 828.10 739.28 C 830.23 739.28 832.35 739.39 834.45 739.59 Z" fill="#4f8980" fill-rule="nonzero" node-id="46" stroke="none" target-height="467.59003" target-width="46.350037" target-x="806.1" target-y="272"></path><path d="M 166.63 348.00 L 166.63 700.50 C 173.46 713.87 181.06 726.84 189.40 739.33 C 190.55 739.27 191.71 739.24 192.87 739.24 L 213.00 739.24 L 213.00 277.50 C 195.03 299.24 179.48 322.88 166.63 348.00 Z" fill="#4f8980" fill-rule="nonzero" node-id="48" stroke="none" target-height="461.83002" target-width="46.369995" target-x="166.63" target-y="277.5"></path><path d="M 340.74 803.64 C 340.74 770.28 367.78 743.24 401.14 743.24 C 437.54 743.24 467.05 713.73 467.05 677.33 L 467.05 669.00 C 467.05 651.51 474.00 634.74 486.37 622.38 C 498.74 610.02 515.51 603.08 533.00 603.09 L 401.84 603.09 C 364.23 603.09 333.75 633.57 333.74 671.18 L 333.74 671.18 C 333.74 708.79 303.26 739.27 265.65 739.27 L 192.87 739.27 C 191.71 739.27 190.55 739.27 189.40 739.36 C 258.92 843.44 377.45 912.00 512.00 912.00 C 577.35 912.08 641.64 895.56 698.86 864.00 L 401.14 864.00 C 367.80 863.99 340.77 836.98 340.74 803.64 Z" fill="#523838" fill-rule="nonzero" node-id="50" stroke="none" target-height="308.90997" target-width="509.46" target-x="189.4" target-y="603.09"></path><path d="M 828.07 739.28 L 755.30 739.28 C 717.69 739.28 687.21 708.80 687.20 671.19 L 687.20 671.19 C 687.20 633.58 656.72 603.10 619.11 603.10 L 533.00 603.10 C 515.51 603.09 498.74 610.03 486.37 622.39 C 474.00 634.75 467.05 651.51 467.05 669.00 L 467.05 677.33 C 467.05 713.73 437.54 743.24 401.14 743.24 C 368.08 743.67 341.51 770.58 341.51 803.64 C 341.51 836.71 368.08 863.62 401.14 864.05 L 698.86 864.05 C 752.03 834.70 797.59 793.33 831.93 743.24 C 832.77 742.02 833.63 740.82 834.45 739.59 C 832.35 739.39 830.23 739.28 828.07 739.28 Z" fill="#664545" fill-rule="nonzero" node-id="52" stroke="none" target-height="260.95" target-width="492.94278" target-x="341.50723" target-y="603.1"></path><path d="M 747.68 509.35 C 683.67 500.00 635.00 443.00 610.00 406.82 L 608.17 407.17 C 608.17 407.17 578.57 532.78 638.28 594.27 C 697.99 655.76 824.42 629.83 824.42 629.83 C 824.42 629.83 840.73 560.60 824.70 499.78 C 800.48 508.54 774.17 513.23 747.68 509.35 Z" fill="#5ea55c" fill-rule="nonzero" node-id="54" stroke="none" target-height="228.42474" target-width="230.88062" target-x="600.8334" target-y="406.82"></path><path d="M 610.00 406.82 C 635.00 443.00 683.67 500.00 747.68 509.35 C 774.17 513.23 800.48 508.54 824.68 499.78 C 819.12 478.67 809.68 458.57 794.29 442.78 C 738.76 385.56 625.58 404.00 610.00 406.82 Z" fill="#8bc852" fill-rule="nonzero" node-id="56" stroke="none" target-height="108.932526" target-width="214.68" target-x="610" target-y="401.7904"></path><path d="M 516.54 681.22 L 452.31 681.22 C 446.64 681.42 441.31 678.51 438.41 673.64 C 435.52 668.76 435.52 662.68 438.41 657.80 C 441.31 652.93 446.64 650.02 452.31 650.22 L 516.54 650.22 C 522.21 650.02 527.54 652.93 530.44 657.80 C 533.33 662.68 533.33 668.76 530.44 673.64 C 527.54 678.51 522.21 681.42 516.54 681.22 Z" fill="#523838" fill-rule="nonzero" node-id="58" stroke="none" target-height="31" target-width="96.36371" target-x="436.2431" target-y="650.22"></path><path d="M 597.61 681.22 L 569.00 681.22 C 560.66 680.92 554.05 674.07 554.05 665.72 C 554.05 657.37 560.66 650.52 569.00 650.22 L 597.57 650.22 C 605.91 650.52 612.52 657.37 612.52 665.72 C 612.52 674.07 605.91 680.92 597.57 681.22 Z" fill="#523838" fill-rule="nonzero" node-id="60" stroke="none" target-height="31" target-width="58.476257" target-x="554.0469" target-y="650.22"></path><path d="M 580.71 770.91 L 516.48 770.91 C 510.81 771.11 505.48 768.20 502.58 763.33 C 499.69 758.45 499.69 752.37 502.58 747.49 C 505.48 742.62 510.81 739.71 516.48 739.91 L 580.71 739.91 C 586.38 739.71 591.71 742.62 594.61 747.49 C 597.50 752.37 597.50 758.45 594.61 763.33 C 591.71 768.20 586.38 771.11 580.71 770.91 Z" fill="#523838" fill-rule="nonzero" node-id="62" stroke="none" target-height="31" target-width="96.36371" target-x="500.41315" target-y="739.91"></path><path d="M 461.34 826.74 L 397.10 826.74 C 388.76 826.44 382.15 819.59 382.15 811.24 C 382.15 802.89 388.76 796.04 397.10 795.74 L 461.34 795.74 C 467.01 795.54 472.34 798.45 475.24 803.32 C 478.13 808.20 478.13 814.28 475.24 819.16 C 472.34 824.03 467.01 826.94 461.34 826.74 Z" fill="#523838" fill-rule="nonzero" node-id="64" stroke="none" target-height="31" target-width="95.25998" target-x="382.14688" target-y="795.74"></path><path d="M 698.86 826.74 L 653.08 826.74 C 647.41 826.94 642.08 824.03 639.18 819.16 C 636.29 814.28 636.29 808.20 639.18 803.32 C 642.08 798.45 647.41 795.54 653.08 795.74 L 698.86 795.74 C 704.53 795.54 709.86 798.45 712.76 803.32 C 715.65 808.20 715.65 814.28 712.76 819.16 C 709.86 824.03 704.53 826.94 698.86 826.74 Z" fill="#523838" fill-rule="nonzero" node-id="66" stroke="none" target-height="31" target-width="77.913635" target-x="637.0131" target-y="795.74"></path></svg>