<?xml version="1.0" standalone="no"?><!DOCTYPE svg PUBLIC "-//W3C//DTD SVG 1.1//EN" "http://www.w3.org/Graphics/SVG/1.1/DTD/svg11.dtd"><svg height="1024" legacy-metrics="false" node-id="1" sillyvg="true" template-height="1024" template-width="1024" version="1.1" viewBox="0 0 1024 1024" width="1024" xmlns="http://www.w3.org/2000/svg" xmlns:xlink="http://www.w3.org/1999/xlink"><defs node-id="39"></defs><path d="M 897.89 526.11 C 897.89 628.45 857.23 726.61 784.87 798.98 C 712.50 871.34 614.34 912.00 512.00 912.00 C 409.66 912.00 311.50 871.34 239.13 798.98 C 166.77 726.61 126.11 628.45 126.11 526.11 C 126.11 423.77 166.77 325.61 239.13 253.24 C 311.50 180.88 409.66 140.22 512.00 140.22 C 614.34 140.22 712.50 180.88 784.87 253.24 C 857.23 325.61 897.89 423.77 897.89 526.11 Z" fill="#eab1b7" fill-rule="nonzero" node-id="41" stroke="none" target-height="771.78" target-width="771.78" target-x="126.11" target-y="140.22"></path><path d="M 322.24 291.90 C 300.39 290.62 281.93 275.23 276.74 253.97 C 271.56 232.70 280.86 210.54 299.67 199.35 C 285.85 175.26 284.40 146.01 295.79 120.68 C 261.54 104.08 220.47 111.73 194.51 139.56 C 168.54 167.39 163.75 208.89 182.68 241.91 C 163.87 253.10 154.57 275.27 159.75 296.53 C 164.94 317.80 183.41 333.19 205.26 334.46 L 205.26 334.55 L 435.13 334.55 L 435.13 334.31 C 457.93 332.11 476.29 314.66 479.64 292.00 L 322.24 292.00 Z" fill="#ffdcd7" fill-rule="nonzero" node-id="43" stroke="none" target-height="222.52888" target-width="321.29868" target-x="158.34134" target-y="112.0211"></path><path d="M 446.93 237.75 C 446.68 210.13 433.29 184.28 410.88 168.14 C 388.46 152.00 359.71 147.49 333.43 156.00 C 324.73 140.71 311.61 128.41 295.79 120.72 C 284.40 146.05 285.85 175.30 299.67 199.39 C 280.86 210.58 271.56 232.74 276.74 254.01 C 281.93 275.27 300.39 290.66 322.24 291.94 L 322.24 292.00 L 479.64 292.00 C 479.99 289.60 480.17 287.17 480.17 284.74 C 480.17 263.61 466.85 244.78 446.93 237.75 Z" fill="#ffffff" fill-rule="nonzero" node-id="45" stroke="none" target-height="171.28" target-width="204.83966" target-x="275.33035" target-y="120.72"></path><path d="M 353.81 795.59 L 353.81 305.76 C 262.18 305.74 178.21 356.87 136.16 438.28 C 113.54 535.60 129.43 637.90 180.53 723.76 C 226.42 769.82 288.79 795.68 353.81 795.59 Z" fill="#c8a06e" fill-rule="nonzero" node-id="47" stroke="none" target-height="489.83002" target-width="227.69798" target-x="126.112015" target-y="305.76"></path><path d="M 353.81 305.76 L 353.81 795.59 C 489.07 795.59 598.73 685.94 598.73 550.68 C 598.73 415.42 489.07 305.76 353.81 305.76 Z" fill="#dcbe82" fill-rule="nonzero" node-id="49" stroke="none" target-height="489.83002" target-width="244.91998" target-x="353.81" target-y="305.76"></path><path d="M 128.66 570.38 C 133.20 571.06 137.79 571.40 142.38 571.38 C 173.48 571.38 189.22 557.53 204.45 544.14 C 219.98 530.47 234.66 517.56 264.74 517.56 C 294.82 517.56 309.50 530.50 325.00 544.17 C 340.23 557.56 356.00 571.41 387.07 571.41 C 418.14 571.41 433.92 557.56 449.14 544.17 C 464.68 530.50 479.36 517.59 509.44 517.59 C 539.52 517.59 554.20 530.50 569.73 544.17 C 584.96 557.56 600.73 571.41 631.80 571.41 C 662.87 571.41 678.65 557.56 693.88 544.17 C 709.42 530.50 724.09 517.59 754.18 517.59 C 784.27 517.59 799.00 530.50 814.51 544.17 C 829.74 557.56 845.51 571.41 876.59 571.41 C 882.93 571.44 889.26 570.77 895.45 569.41 C 899.90 529.92 898.25 489.98 890.55 451.00 C 885.92 451.72 881.24 452.08 876.55 452.07 C 845.45 452.07 829.70 438.21 814.47 424.82 C 798.94 411.15 784.26 398.25 754.18 398.25 C 724.10 398.25 709.42 411.15 693.88 424.82 C 678.65 438.21 662.88 452.07 631.80 452.07 C 600.72 452.07 585.00 438.20 569.77 424.80 C 554.24 411.13 539.56 398.23 509.48 398.23 C 479.40 398.23 464.72 411.13 449.18 424.80 C 433.96 438.19 418.18 452.05 387.11 452.05 C 356.04 452.05 340.27 438.20 325.00 424.80 C 309.46 411.13 294.79 398.23 264.70 398.23 C 234.61 398.23 220.00 411.13 204.45 424.80 C 189.22 438.19 173.45 452.05 142.38 452.05 C 139.19 452.05 136.21 451.87 133.38 451.59 C 125.72 490.71 124.14 530.78 128.71 570.38 Z" fill="#05cdff" fill-rule="nonzero" node-id="51" stroke="none" target-height="173.17996" target-width="771.72595" target-x="126.15976" target-y="398.23"></path><path d="M 814.51 544.17 C 799.00 530.50 784.30 517.59 754.22 517.59 C 724.14 517.59 709.46 530.50 693.92 544.17 C 678.69 557.56 662.92 571.41 631.84 571.41 C 600.76 571.41 585.00 557.56 569.77 544.17 C 554.24 530.50 539.56 517.59 509.48 517.59 C 479.40 517.59 464.72 530.50 449.18 544.17 C 433.96 557.56 418.18 571.41 387.11 571.41 C 356.04 571.41 340.27 557.56 325.00 544.17 C 309.46 530.50 294.79 517.59 264.70 517.59 C 234.61 517.59 220.00 530.50 204.45 544.17 C 189.22 557.56 173.45 571.41 142.38 571.41 C 137.79 571.43 133.20 571.09 128.66 570.41 C 150.62 762.65 313.85 912.00 512.00 912.00 C 710.47 912.00 873.92 762.15 895.45 569.43 C 889.26 570.79 882.93 571.46 876.59 571.43 C 845.49 571.41 829.74 557.56 814.51 544.17 Z" fill="#93d8e4" fill-rule="nonzero" node-id="53" stroke="none" target-height="394.40997" target-width="766.79004" target-x="128.66" target-y="517.59"></path><path d="M 731.71 208.87 C 719.44 200.36 706.69 192.56 693.52 185.53 L 379.91 237.38 C 379.91 237.38 486.66 299.00 602.60 279.85 C 612.77 278.17 622.69 276.12 632.32 273.78 C 638.22 268.27 644.41 262.93 650.95 257.84 C 675.87 238.43 702.98 221.99 731.71 208.87 Z" fill="#8bc852" fill-rule="nonzero" node-id="55" stroke="none" target-height="97.993256" target-width="351.80002" target-x="379.91" target-y="185.53"></path><path d="M 379.91 237.38 L 693.52 185.53 C 640.78 157.35 582.18 141.89 522.40 140.37 C 436.40 172.90 379.91 237.38 379.91 237.38 Z" fill="#5ea55c" fill-rule="nonzero" node-id="57" stroke="none" target-height="97.01001" target-width="313.61002" target-x="379.91" target-y="140.37"></path><path d="M 802.81 328.63 C 787.09 346.56 769.84 363.08 751.25 378.00 C 750.88 379.00 750.50 380.05 750.14 381.10 C 712.48 492.42 756.05 607.74 756.05 607.74 L 847.93 336.17 C 839.24 320.86 829.52 306.15 818.82 292.17 C 812.83 304.02 807.48 316.20 802.81 328.63 Z" fill="#5ea55c" fill-rule="nonzero" node-id="59" stroke="none" target-height="315.56998" target-width="113.101135" target-x="734.82886" target-y="292.17"></path><path d="M 756.05 607.70 C 756.05 607.70 848.13 550.35 890.62 451.36 C 882.68 410.90 868.27 371.99 847.93 336.13 Z" fill="#8bc852" fill-rule="nonzero" node-id="61" stroke="none" target-height="271.57" target-width="134.57" target-x="756.05" target-y="336.13"></path><path d="M 751.00 223.12 C 721.60 242.72 680.55 262.04 632.34 273.78 C 554.60 346.44 531.21 450.34 531.21 450.34 L 784.53 252.92 C 773.93 242.35 762.74 232.40 751.00 223.12 Z" fill="#5ea55c" fill-rule="nonzero" node-id="63" stroke="none" target-height="227.22" target-width="253.32" target-x="531.21" target-y="223.12"></path><path d="M 731.71 208.87 C 702.97 222.00 675.87 238.45 650.95 257.87 C 644.41 262.96 638.22 268.30 632.32 273.81 C 680.53 262.00 721.58 242.72 751.00 223.12 C 744.72 218.17 738.29 213.42 731.71 208.87 Z" fill="#5ea55c" fill-rule="nonzero" node-id="65" stroke="none" target-height="64.94" target-width="118.67999" target-x="632.32" target-y="208.87"></path><path d="M 809.45 280.27 C 801.58 270.76 793.28 261.64 784.53 252.92 L 531.19 450.34 C 531.19 450.34 600.79 452.12 674.73 422.34 C 669.03 399.11 662.14 353.54 662.14 353.54 L 702.37 409.71 C 718.14 401.64 733.12 392.11 747.12 381.26 C 748.52 380.17 749.87 379.06 751.25 377.96 C 761.34 348.91 774.69 321.10 791.06 295.06 C 797.48 290.20 803.61 285.25 809.45 280.27 Z" fill="#8bc852" fill-rule="nonzero" node-id="67" stroke="none" target-height="197.42" target-width="278.26" target-x="531.19" target-y="252.92"></path><path d="M 802.81 328.63 C 807.48 316.17 812.82 303.98 818.81 292.10 C 815.76 288.10 812.63 284.16 809.44 280.27 C 803.60 285.27 797.44 290.20 791.05 295.06 C 774.68 321.11 761.33 348.93 751.25 378.00 C 769.84 363.08 787.09 346.56 802.81 328.63 Z" fill="#8bc852" fill-rule="nonzero" node-id="69" stroke="none" target-height="97.73001" target-width="67.56" target-x="751.25" target-y="280.27"></path><path d="M 176.34 716.58 C 213.92 782.61 270.07 836.15 337.82 870.53 L 305.42 663.29 C 244.47 675.65 201.50 699.17 176.34 716.58 Z" fill="#ecbe6b" fill-rule="nonzero" node-id="71" stroke="none" target-height="207.24005" target-width="161.48001" target-x="176.34" target-y="663.29"></path><path d="M 577.00 687.75 C 476.86 654.00 394.49 650.00 329.71 659.13 L 364.71 882.87 C 411.42 902.16 461.47 912.06 512.00 912.00 C 660.31 912.00 789.06 828.31 853.66 705.60 C 776.89 721.77 682.73 723.37 577.00 687.75 Z" fill="#ecbe6b" fill-rule="nonzero" node-id="73" stroke="none" target-height="257.0907" target-width="523.94995" target-x="329.71" target-y="654.9093"></path><path d="M 332.67 801.93 L 255.16 801.93 C 250.94 802.05 246.99 799.88 244.85 796.24 C 242.70 792.61 242.70 788.10 244.85 784.47 C 246.99 780.83 250.94 778.66 255.16 778.78 L 332.67 778.78 C 336.89 778.66 340.84 780.83 342.98 784.47 C 345.13 788.10 345.13 792.61 342.98 796.24 C 340.84 799.88 336.89 802.05 332.67 801.93 Z" fill="#e29375" fill-rule="nonzero" node-id="75" stroke="none" target-height="23.149963" target-width="101.350525" target-x="243.23975" target-y="778.78"></path><path d="M 266.82 336.62 C 260.10 337.68 255.50 343.98 256.55 350.70 L 261.55 382.58 C 265.55 381.76 269.59 381.03 273.68 380.38 C 277.76 379.74 281.84 379.22 285.90 378.78 L 280.90 346.89 C 279.84 340.17 273.54 335.57 266.82 336.62 Z" fill="#523838" fill-rule="nonzero" node-id="77" stroke="none" target-height="46.09964" target-width="29.489655" target-x="256.41034" target-y="336.48035"></path><path d="M 329.71 659.13 L 318.25 585.80 C 314.35 585.90 310.46 586.25 306.61 586.85 C 302.32 587.52 298.08 588.48 293.92 589.72 L 305.42 663.29 L 337.82 870.53 C 346.58 874.98 355.54 879.10 364.69 882.87 Z" fill="#523838" fill-rule="nonzero" node-id="79" stroke="none" target-height="297.07" target-width="70.76999" target-x="293.92" target-y="585.8"></path><path d="M 225.58 676.25 L 225.58 676.25 C 223.48 666.00 221.59 655.53 219.92 644.84 C 200.08 517.92 218.83 407.62 261.82 384.46 L 261.53 382.61 C 212.84 392.60 168.21 416.77 133.24 452.09 C 122.24 508.67 123.99 566.99 138.37 622.80 C 175.71 620.82 210.40 642.08 225.58 676.25 Z" fill="#fa2d14" fill-rule="nonzero" node-id="81" stroke="none" target-height="293.64" target-width="135.7006" target-x="126.1194" target-y="382.61"></path><path d="M 273.66 380.38 C 269.58 381.05 265.54 381.78 261.53 382.58 L 261.82 384.43 C 265.51 382.42 269.51 381.05 273.66 380.38 Z" fill="#fa2d14" fill-rule="nonzero" node-id="83" stroke="none" target-height="4.049988" target-width="12.130005" target-x="261.53" target-y="380.38"></path><path d="M 405.54 615.79 C 406.96 624.88 409.05 635.91 410.08 644.79 C 414.73 610.93 438.14 582.61 470.52 571.67 C 502.90 560.73 538.68 569.04 562.92 593.14 C 562.83 592.50 562.74 591.85 562.64 591.21 C 541.70 457.21 419.24 364.41 285.88 378.76 L 286.17 380.60 C 334.18 389.56 385.70 488.87 405.54 615.79 Z" fill="#fa2d14" fill-rule="nonzero" node-id="85" stroke="none" target-height="267.45032" target-width="277.03998" target-x="285.88" target-y="377.33966"></path><path d="M 286.17 380.62 L 285.88 378.78 C 281.82 379.22 277.74 379.78 273.66 380.38 C 277.81 379.75 282.04 379.83 286.17 380.62 Z" fill="#fa2d14" fill-rule="nonzero" node-id="87" stroke="none" target-height="1.8399963" target-width="12.51001" target-x="273.66" target-y="378.78"></path><path d="M 409.21 642.78 C 408.18 633.89 406.96 624.89 405.54 615.78 C 385.70 488.87 334.18 389.56 286.17 380.62 C 277.86 378.99 269.24 380.34 261.82 384.43 C 218.82 407.59 200.08 517.89 219.92 644.81 C 221.59 655.48 223.48 665.95 225.58 676.22 C 227.91 635.89 255.22 601.32 293.92 589.72 C 298.08 588.48 302.32 587.52 306.61 586.85 C 310.46 586.25 314.35 585.90 318.25 585.80 C 357.82 584.73 394.43 609.48 410.08 644.80 C 409.79 644.13 409.51 643.45 409.21 642.78 Z" fill="#ffffff" fill-rule="nonzero" node-id="89" stroke="none" target-height="296.24622" target-width="198.03476" target-x="212.04523" target-y="379.97375"></path><path d="M 409.21 642.78 C 409.51 643.45 409.79 644.13 410.08 644.78 C 409.08 635.88 406.96 624.85 405.54 615.78 C 406.96 624.87 408.18 633.87 409.21 642.78 Z" fill="#ffffff" fill-rule="nonzero" node-id="91" stroke="none" target-height="29" target-width="4.539978" target-x="405.54" target-y="615.78"></path><path d="M 225.59 676.29 L 225.59 676.29 Z" fill="#bc9191" fill-rule="nonzero" node-id="93" stroke="none" target-height="0" target-width="0" target-x="225.59" target-y="676.29"></path><path d="M 557.68 775.41 L 480.17 775.41 C 475.95 775.53 472.00 773.36 469.86 769.72 C 467.71 766.09 467.71 761.58 469.86 757.95 C 472.00 754.31 475.95 752.14 480.17 752.26 L 557.68 752.26 C 561.90 752.14 565.85 754.31 567.99 757.95 C 570.14 761.58 570.14 766.09 567.99 769.72 C 565.85 773.36 561.90 775.53 557.68 775.41 Z" fill="#e29375" fill-rule="nonzero" node-id="95" stroke="none" target-height="23.149963" target-width="101.350525" target-x="468.24976" target-y="752.26"></path><path d="M 435.08 700.76 L 357.57 700.76 C 351.17 700.76 345.99 695.58 345.99 689.18 C 345.99 682.78 351.17 677.60 357.57 677.60 L 435.08 677.60 C 441.48 677.60 446.66 682.78 446.66 689.18 C 446.66 695.58 441.48 700.76 435.08 700.76 Z" fill="#e29375" fill-rule="nonzero" node-id="97" stroke="none" target-height="23.160034" target-width="100.67001" target-x="345.99" target-y="677.6"></path><path d="M 544.73 894.45 L 467.21 894.45 C 460.81 894.45 455.63 889.27 455.63 882.87 C 455.63 876.47 460.81 871.29 467.21 871.29 L 544.73 871.29 C 551.13 871.29 556.31 876.47 556.31 882.87 C 556.31 889.27 551.13 894.45 544.73 894.45 Z" fill="#e29375" fill-rule="nonzero" node-id="99" stroke="none" target-height="23.160034" target-width="100.67999" target-x="455.63" target-y="871.29"></path><path d="M 643.60 834.10 L 591.68 834.10 C 585.42 833.92 580.44 828.79 580.44 822.52 C 580.44 816.26 585.42 811.13 591.68 810.95 L 643.60 810.95 C 647.82 810.83 651.77 813.00 653.91 816.64 C 656.06 820.27 656.06 824.78 653.91 828.41 C 651.77 832.05 647.82 834.22 643.60 834.10 Z" fill="#e29375" fill-rule="nonzero" node-id="101" stroke="none" target-height="23.149963" target-width="75.08002" target-x="580.44025" target-y="810.95"></path><path d="M 734.81 778.49 L 682.89 778.49 C 678.67 778.61 674.72 776.44 672.58 772.80 C 670.43 769.17 670.43 764.66 672.58 761.03 C 674.72 757.39 678.67 755.22 682.89 755.34 L 734.81 755.34 C 741.07 755.52 746.05 760.65 746.05 766.91 C 746.05 773.18 741.07 778.31 734.81 778.49 Z" fill="#e29375" fill-rule="nonzero" node-id="103" stroke="none" target-height="23.149963" target-width="75.08002" target-x="670.9697" target-y="755.34"></path><path d="M 422.52 840.44 L 385.64 840.44 C 379.24 840.44 374.06 835.26 374.06 828.86 C 374.06 822.46 379.24 817.28 385.64 817.28 L 422.52 817.28 C 428.92 817.28 434.10 822.46 434.10 828.86 C 434.10 835.26 428.92 840.44 422.52 840.44 Z" fill="#e29375" fill-rule="nonzero" node-id="105" stroke="none" target-height="23.159973" target-width="60.04001" target-x="374.06" target-y="817.28"></path></svg>