<?xml version="1.0" standalone="no"?><!DOCTYPE svg PUBLIC "-//W3C//DTD SVG 1.1//EN" "http://www.w3.org/Graphics/SVG/1.1/DTD/svg11.dtd"><svg height="1024" legacy-metrics="false" node-id="1" sillyvg="true" template-height="1024" template-width="1024" version="1.1" viewBox="0 0 1024 1024" width="1024" xmlns="http://www.w3.org/2000/svg" xmlns:xlink="http://www.w3.org/1999/xlink"><defs node-id="58"></defs><path d="M 904.11 519.89 C 904.11 623.88 862.80 723.62 789.26 797.15 C 715.73 870.69 615.99 912.00 512.00 912.00 C 408.01 912.00 308.27 870.69 234.74 797.15 C 161.20 723.62 119.89 623.88 119.89 519.89 C 119.89 415.90 161.20 316.16 234.74 242.63 C 308.27 169.09 408.01 127.78 512.00 127.78 C 615.99 127.78 715.73 169.09 789.26 242.63 C 862.80 316.16 904.11 415.90 904.11 519.89 Z" fill="#fac855" fill-rule="nonzero" node-id="60" stroke="none" target-height="784.22" target-width="784.22" target-x="119.89" target-y="127.78"></path><path d="M 615.43 728.29 C 627.83 734.08 690.58 729.88 844.09 728.62 L 844.30 728.29 Z" fill="#fac855" fill-rule="nonzero" node-id="62" stroke="none" target-height="2.9804077" target-width="228.87" target-x="615.43" target-y="728.29"></path><path d="M 453.84 311.81 L 577.61 774.59 L 577.72 774.59 L 810.18 774.59 C 843.91 735.22 869.48 689.54 885.40 640.20 Z" fill="#e27d47" fill-rule="nonzero" node-id="64" stroke="none" target-height="462.78003" target-width="431.56003" target-x="453.84" target-y="311.81"></path><path d="M 577.61 774.59 L 453.84 311.81 C 418.60 299.94 380.28 306.14 349.77 328.65 L 121.12 549.48 C 127.29 632.53 159.86 711.42 214.06 774.64 L 577.72 774.64 Z" fill="#d82e3d" fill-rule="nonzero" node-id="66" stroke="none" target-height="468.7419" target-width="456.59998" target-x="121.12" target-y="305.8981"></path><path d="M 201.12 274.63 L 201.12 290.14 L 180.38 290.14 L 180.38 379.51 C 180.38 392.12 190.61 402.35 203.22 402.35 L 257.37 402.35 L 257.37 368.69 L 272.58 368.69 L 272.58 439.76 L 206.72 439.76 C 179.44 439.76 157.33 417.65 157.33 390.37 L 157.33 274.63 C 157.33 268.82 159.63 263.25 163.74 259.14 C 167.85 255.03 173.42 252.73 179.23 252.73 L 179.23 252.73 C 185.04 252.73 190.61 255.04 194.71 259.14 C 198.82 263.25 201.12 268.82 201.12 274.63 Z" fill="#8bc852" fill-rule="nonzero" node-id="68" stroke="none" target-height="187.03001" target-width="115.249985" target-x="157.33" target-y="252.73"></path><path d="M 201.12 337.80 L 201.12 382.31 C 201.12 385.99 202.59 389.51 205.19 392.10 C 207.80 394.70 211.32 396.15 215.00 396.14 L 256.48 396.14 L 256.48 416.08 L 209.25 416.08 C 193.31 416.08 180.38 403.15 180.38 387.21 L 180.38 252.88 L 180.38 252.88 C 185.88 252.88 191.16 255.07 195.05 258.96 C 198.94 262.85 201.12 268.13 201.12 273.63 L 201.12 337.80 Z" fill="#5ea55c" fill-rule="nonzero" node-id="70" stroke="none" target-height="163.19998" target-width="76.100006" target-x="180.38" target-y="252.88"></path><path d="M 820.54 691.11 C 820.54 776.31 751.47 845.38 666.27 845.38 C 581.07 845.38 512.00 776.31 512.00 691.11 C 512.00 605.91 581.07 536.84 666.27 536.84 C 751.47 536.84 820.54 605.91 820.54 691.11 Z" fill="#f4dd45" fill-rule="nonzero" node-id="72" stroke="none" target-height="308.53998" target-width="308.53998" target-x="512" target-y="536.84"></path><path d="M 338.16 112.00 C 293.08 112.00 256.53 148.55 256.53 193.63 L 256.53 794.28 L 338.16 794.28 L 338.16 112.00 Z" fill="#8bc852" fill-rule="nonzero" node-id="74" stroke="none" target-height="682.28" target-width="81.630005" target-x="256.53" target-y="112"></path><path d="M 419.79 193.63 C 419.79 148.55 383.24 112.00 338.16 112.00 L 338.16 112.00 L 338.16 794.28 L 419.79 794.28 Z" fill="#8bc852" fill-rule="nonzero" node-id="76" stroke="none" target-height="682.28" target-width="81.630005" target-x="338.16" target-y="112"></path><path d="M 700.75 729.00 L 180.39 729.00 C 252.13 842.99 377.43 912.11 512.12 912.00 C 651.79 912.00 774.38 839.00 843.83 729.00 Z" fill="#e27d47" fill-rule="nonzero" node-id="78" stroke="none" target-height="183" target-width="663.44" target-x="180.39" target-y="729"></path><path d="M 843.83 729.00 L 478.00 729.00 C 517.24 804.89 588.04 859.54 671.39 878.29 C 742.34 846.63 802.34 794.68 843.83 729.00 Z" fill="#e29375" fill-rule="nonzero" node-id="80" stroke="none" target-height="149.28998" target-width="365.83002" target-x="478" target-y="729"></path><path d="M 298.16 112.00 L 378.16 112.00 C 401.16 112.00 419.80 130.64 419.80 153.64 L 419.80 794.28 L 419.80 794.28 L 256.53 794.28 L 256.53 794.28 L 256.53 153.64 C 256.53 130.65 275.17 112.01 298.16 112.00 Z" fill="#8bc852" fill-rule="nonzero" node-id="82" stroke="none" target-height="682.28" target-width="163.26999" target-x="256.53" target-y="112"></path><path d="M 298.16 112.00 L 338.16 112.00 L 338.16 112.00 L 338.16 794.28 L 338.16 794.28 L 256.53 794.28 L 256.53 794.28 L 256.53 153.64 C 256.53 130.65 275.17 112.01 298.16 112.00 Z" fill="#5ea55c" fill-rule="nonzero" node-id="84" stroke="none" target-height="682.28" target-width="81.630005" target-x="256.53" target-y="112"></path><path d="M 322.16 112.00 L 354.16 112.00 C 363.36 112.00 370.81 119.45 370.81 128.65 L 370.81 794.28 L 370.81 794.28 L 305.51 794.28 L 305.51 794.28 L 305.51 128.65 C 305.51 119.45 312.96 112.00 322.16 112.00 Z" fill="#4f8980" fill-rule="nonzero" node-id="86" stroke="none" target-height="682.28" target-width="65.29999" target-x="305.51" target-y="112"></path><path d="M 282.48 164.89 C 280.62 164.89 278.80 164.36 277.23 163.36 L 244.54 142.56 C 239.97 139.65 238.61 133.59 241.52 129.02 C 244.43 124.45 250.49 123.09 255.06 126.00 L 287.75 146.80 C 291.43 149.14 293.12 153.63 291.90 157.81 C 290.68 162.00 286.84 164.88 282.48 164.87 Z" fill="#5ea55c" fill-rule="nonzero" node-id="88" stroke="none" target-height="40.41436" target-width="52.27368" target-x="239.99564" target-y="124.47564"></path><path d="M 272.58 222.35 L 234.94 222.35 C 229.65 222.18 225.44 217.84 225.44 212.54 C 225.44 207.25 229.65 202.91 234.94 202.74 L 272.58 202.74 C 276.16 202.63 279.51 204.47 281.34 207.55 C 283.16 210.63 283.16 214.46 281.34 217.54 C 279.51 220.62 276.16 222.46 272.58 222.35 Z" fill="#5ea55c" fill-rule="nonzero" node-id="90" stroke="none" target-height="19.61" target-width="57.25998" target-x="225.44318" target-y="202.74"></path><path d="M 272.58 300.11 L 234.94 300.11 C 229.65 299.94 225.44 295.60 225.44 290.31 C 225.44 285.01 229.65 280.67 234.94 280.50 L 272.58 280.50 C 276.16 280.39 279.51 282.23 281.34 285.31 C 283.16 288.39 283.16 292.22 281.34 295.30 C 279.51 298.38 276.16 300.22 272.58 300.11 Z" fill="#5ea55c" fill-rule="nonzero" node-id="92" stroke="none" target-height="19.609985" target-width="57.25998" target-x="225.44318" target-y="280.5"></path><path d="M 272.58 377.87 L 234.94 377.87 C 229.53 377.87 225.14 373.48 225.14 368.07 C 225.14 362.66 229.53 358.27 234.94 358.27 L 272.58 358.27 C 277.99 358.27 282.38 362.66 282.38 368.07 C 282.38 373.48 277.99 377.87 272.58 377.87 Z" fill="#5ea55c" fill-rule="nonzero" node-id="94" stroke="none" target-height="19.600006" target-width="57.240005" target-x="225.14" target-y="358.27"></path><path d="M 272.58 455.63 L 234.94 455.63 C 229.53 455.63 225.14 451.24 225.14 445.83 C 225.14 440.42 229.53 436.03 234.94 436.03 L 272.58 436.03 C 277.99 436.03 282.38 440.42 282.38 445.83 C 282.38 451.24 277.99 455.63 272.58 455.63 Z" fill="#5ea55c" fill-rule="nonzero" node-id="96" stroke="none" target-height="19.600006" target-width="57.240005" target-x="225.14" target-y="436.03"></path><path d="M 272.58 533.40 L 234.94 533.40 C 229.65 533.23 225.44 528.89 225.44 523.60 C 225.44 518.30 229.65 513.96 234.94 513.79 L 272.58 513.79 C 276.16 513.68 279.51 515.52 281.34 518.60 C 283.16 521.68 283.16 525.51 281.34 528.59 C 279.51 531.67 276.16 533.51 272.58 533.40 Z" fill="#5ea55c" fill-rule="nonzero" node-id="98" stroke="none" target-height="19.610046" target-width="57.25998" target-x="225.44318" target-y="513.79"></path><path d="M 272.58 611.16 L 234.94 611.16 C 229.65 610.99 225.44 606.65 225.44 601.36 C 225.44 596.06 229.65 591.72 234.94 591.55 L 272.58 591.55 C 276.16 591.44 279.51 593.28 281.34 596.36 C 283.16 599.44 283.16 603.27 281.34 606.35 C 279.51 609.43 276.16 611.27 272.58 611.16 Z" fill="#5ea55c" fill-rule="nonzero" node-id="100" stroke="none" target-height="19.609985" target-width="57.25998" target-x="225.44318" target-y="591.55"></path><path d="M 272.58 688.92 L 234.94 688.92 C 229.65 688.75 225.44 684.41 225.44 679.12 C 225.44 673.82 229.65 669.48 234.94 669.31 L 272.58 669.31 C 276.16 669.20 279.51 671.04 281.34 674.12 C 283.16 677.20 283.16 681.03 281.34 684.11 C 279.51 687.19 276.16 689.03 272.58 688.92 Z" fill="#5ea55c" fill-rule="nonzero" node-id="102" stroke="none" target-height="19.609985" target-width="57.25998" target-x="225.44318" target-y="669.31"></path><path d="M 272.58 766.68 L 234.94 766.68 C 229.53 766.68 225.14 762.29 225.14 756.88 C 225.14 751.47 229.53 747.08 234.94 747.08 L 272.58 747.08 C 277.99 747.08 282.38 751.47 282.38 756.88 C 282.38 762.29 277.99 766.68 272.58 766.68 Z" fill="#5ea55c" fill-rule="nonzero" node-id="104" stroke="none" target-height="19.599976" target-width="57.240005" target-x="225.14" target-y="747.08"></path><path d="M 326.05 222.84 L 288.41 222.84 C 283.00 222.84 278.61 218.45 278.61 213.04 C 278.61 207.63 283.00 203.24 288.41 203.24 L 326.05 203.24 C 331.46 203.24 335.85 207.63 335.85 213.04 C 335.85 218.45 331.46 222.84 326.05 222.84 Z" fill="#5ea55c" fill-rule="nonzero" node-id="106" stroke="none" target-height="19.59999" target-width="57.24002" target-x="278.61" target-y="203.24"></path><path d="M 326.05 300.61 L 288.41 300.61 C 283.12 300.44 278.91 296.10 278.91 290.81 C 278.91 285.51 283.12 281.17 288.41 281.00 L 326.05 281.00 C 329.63 280.89 332.98 282.73 334.81 285.81 C 336.63 288.89 336.63 292.72 334.81 295.80 C 332.98 298.88 329.63 300.72 326.05 300.61 Z" fill="#5ea55c" fill-rule="nonzero" node-id="108" stroke="none" target-height="19.609985" target-width="57.25998" target-x="278.91318" target-y="281"></path><path d="M 326.05 378.37 L 288.41 378.37 C 283.12 378.20 278.91 373.86 278.91 368.56 C 278.91 363.27 283.12 358.93 288.41 358.76 L 326.05 358.76 C 329.63 358.65 332.98 360.49 334.81 363.57 C 336.63 366.65 336.63 370.48 334.81 373.56 C 332.98 376.64 329.63 378.48 326.05 378.37 Z" fill="#5ea55c" fill-rule="nonzero" node-id="110" stroke="none" target-height="19.609985" target-width="57.25998" target-x="278.91318" target-y="358.76"></path><path d="M 326.05 456.13 L 288.41 456.13 C 283.12 455.96 278.91 451.62 278.91 446.32 C 278.91 441.03 283.12 436.69 288.41 436.52 L 326.05 436.52 C 329.63 436.41 332.98 438.25 334.81 441.33 C 336.63 444.41 336.63 448.24 334.81 451.32 C 332.98 454.40 329.63 456.24 326.05 456.13 Z" fill="#5ea55c" fill-rule="nonzero" node-id="112" stroke="none" target-height="19.610016" target-width="57.25998" target-x="278.91318" target-y="436.52"></path><path d="M 326.05 533.89 L 288.41 533.89 C 283.00 533.89 278.61 529.50 278.61 524.09 C 278.61 518.68 283.00 514.29 288.41 514.29 L 326.05 514.29 C 331.46 514.29 335.85 518.68 335.85 524.09 C 335.85 529.50 331.46 533.89 326.05 533.89 Z" fill="#5ea55c" fill-rule="nonzero" node-id="114" stroke="none" target-height="19.600037" target-width="57.24002" target-x="278.61" target-y="514.29"></path><path d="M 326.05 611.65 L 288.41 611.65 C 283.00 611.65 278.61 607.26 278.61 601.85 C 278.61 596.44 283.00 592.05 288.41 592.05 L 326.05 592.05 C 331.46 592.05 335.85 596.44 335.85 601.85 C 335.85 607.26 331.46 611.65 326.05 611.65 Z" fill="#5ea55c" fill-rule="nonzero" node-id="116" stroke="none" target-height="19.600037" target-width="57.24002" target-x="278.61" target-y="592.05"></path><path d="M 326.05 689.42 L 288.41 689.42 C 283.12 689.25 278.91 684.91 278.91 679.62 C 278.91 674.32 283.12 669.98 288.41 669.81 L 326.05 669.81 C 329.63 669.70 332.98 671.54 334.81 674.62 C 336.63 677.70 336.63 681.53 334.81 684.61 C 332.98 687.69 329.63 689.53 326.05 689.42 Z" fill="#5ea55c" fill-rule="nonzero" node-id="118" stroke="none" target-height="19.609985" target-width="57.25998" target-x="278.91318" target-y="669.81"></path><path d="M 326.05 767.18 L 288.41 767.18 C 283.12 767.01 278.91 762.67 278.91 757.38 C 278.91 752.08 283.12 747.74 288.41 747.57 L 326.05 747.57 C 329.63 747.46 332.98 749.30 334.81 752.38 C 336.63 755.46 336.63 759.29 334.81 762.37 C 332.98 765.45 329.63 767.29 326.05 767.18 Z" fill="#5ea55c" fill-rule="nonzero" node-id="120" stroke="none" target-height="19.609985" target-width="57.25998" target-x="278.91318" target-y="747.57"></path><path d="M 393.75 164.89 C 389.39 164.90 385.55 162.02 384.33 157.83 C 383.11 153.65 384.80 149.16 388.48 146.82 L 421.17 126.00 C 425.74 123.09 431.80 124.44 434.71 129.00 C 437.61 133.57 436.27 139.63 431.70 142.54 L 399.00 163.36 C 397.43 164.36 395.61 164.89 393.75 164.89 Z" fill="#8bc852" fill-rule="nonzero" node-id="122" stroke="none" target-height="40.418266" target-width="52.272583" target-x="383.96063" target-y="124.47173"></path><path d="M 441.29 222.35 L 403.65 222.35 C 398.36 222.18 394.15 217.84 394.15 212.54 C 394.15 207.25 398.36 202.91 403.65 202.74 L 441.29 202.74 C 444.87 202.63 448.22 204.47 450.05 207.55 C 451.87 210.63 451.87 214.46 450.05 217.54 C 448.22 220.62 444.87 222.46 441.29 222.35 Z" fill="#8bc852" fill-rule="nonzero" node-id="124" stroke="none" target-height="19.61" target-width="57.25998" target-x="394.15317" target-y="202.74"></path><path d="M 441.29 300.11 L 403.65 300.11 C 398.36 299.94 394.15 295.60 394.15 290.31 C 394.15 285.01 398.36 280.67 403.65 280.50 L 441.29 280.50 C 444.87 280.39 448.22 282.23 450.05 285.31 C 451.87 288.39 451.87 292.22 450.05 295.30 C 448.22 298.38 444.87 300.22 441.29 300.11 Z" fill="#8bc852" fill-rule="nonzero" node-id="126" stroke="none" target-height="19.609985" target-width="57.25998" target-x="394.15317" target-y="280.5"></path><path d="M 441.29 377.87 L 403.65 377.87 C 398.24 377.87 393.85 373.48 393.85 368.07 C 393.85 362.66 398.24 358.27 403.65 358.27 L 441.29 358.27 C 446.70 358.27 451.09 362.66 451.09 368.07 C 451.09 373.48 446.70 377.87 441.29 377.87 Z" fill="#8bc852" fill-rule="nonzero" node-id="128" stroke="none" target-height="19.600006" target-width="57.23999" target-x="393.85" target-y="358.27"></path><path d="M 441.29 455.63 L 403.65 455.63 C 398.24 455.63 393.85 451.24 393.85 445.83 C 393.85 440.42 398.24 436.03 403.65 436.03 L 441.29 436.03 C 446.70 436.03 451.09 440.42 451.09 445.83 C 451.09 451.24 446.70 455.63 441.29 455.63 Z" fill="#8bc852" fill-rule="nonzero" node-id="130" stroke="none" target-height="19.600006" target-width="57.23999" target-x="393.85" target-y="436.03"></path><path d="M 441.29 533.40 L 403.65 533.40 C 398.36 533.23 394.15 528.89 394.15 523.60 C 394.15 518.30 398.36 513.96 403.65 513.79 L 441.29 513.79 C 444.87 513.68 448.22 515.52 450.05 518.60 C 451.87 521.68 451.87 525.51 450.05 528.59 C 448.22 531.67 444.87 533.51 441.29 533.40 Z" fill="#8bc852" fill-rule="nonzero" node-id="132" stroke="none" target-height="19.610046" target-width="57.25998" target-x="394.15317" target-y="513.79"></path><path d="M 441.29 611.16 L 403.65 611.16 C 398.36 610.99 394.15 606.65 394.15 601.36 C 394.15 596.06 398.36 591.72 403.65 591.55 L 441.29 591.55 C 444.87 591.44 448.22 593.28 450.05 596.36 C 451.87 599.44 451.87 603.27 450.05 606.35 C 448.22 609.43 444.87 611.27 441.29 611.16 Z" fill="#8bc852" fill-rule="nonzero" node-id="134" stroke="none" target-height="19.609985" target-width="57.25998" target-x="394.15317" target-y="591.55"></path><path d="M 441.29 688.92 L 403.65 688.92 C 398.36 688.75 394.15 684.41 394.15 679.12 C 394.15 673.82 398.36 669.48 403.65 669.31 L 441.29 669.31 C 444.87 669.20 448.22 671.04 450.05 674.12 C 451.87 677.20 451.87 681.03 450.05 684.11 C 448.22 687.19 444.87 689.03 441.29 688.92 Z" fill="#8bc852" fill-rule="nonzero" node-id="136" stroke="none" target-height="19.609985" target-width="57.25998" target-x="394.15317" target-y="669.31"></path><path d="M 441.29 766.68 L 403.65 766.68 C 398.24 766.68 393.85 762.29 393.85 756.88 C 393.85 751.47 398.24 747.08 403.65 747.08 L 441.29 747.08 C 446.70 747.08 451.09 751.47 451.09 756.88 C 451.09 762.29 446.70 766.68 441.29 766.68 Z" fill="#8bc852" fill-rule="nonzero" node-id="138" stroke="none" target-height="19.599976" target-width="57.23999" target-x="393.85" target-y="747.08"></path><path d="M 391.78 224.21 L 354.14 224.21 C 348.85 224.04 344.64 219.70 344.64 214.41 C 344.64 209.11 348.85 204.77 354.14 204.60 L 391.78 204.60 C 395.36 204.49 398.71 206.33 400.54 209.41 C 402.36 212.49 402.36 216.32 400.54 219.40 C 398.71 222.48 395.36 224.32 391.78 224.21 Z" fill="#4f8980" fill-rule="nonzero" node-id="140" stroke="none" target-height="19.61" target-width="57.25998" target-x="344.64316" target-y="204.6"></path><path d="M 391.78 302.00 L 354.14 302.00 C 348.85 301.83 344.64 297.49 344.64 292.19 C 344.64 286.90 348.85 282.56 354.14 282.39 L 391.78 282.39 C 395.36 282.28 398.71 284.12 400.54 287.20 C 402.36 290.28 402.36 294.11 400.54 297.19 C 398.71 300.27 395.36 302.11 391.78 302.00 Z" fill="#4f8980" fill-rule="nonzero" node-id="142" stroke="none" target-height="19.609985" target-width="57.25998" target-x="344.64316" target-y="282.39"></path><path d="M 391.78 379.73 L 354.14 379.73 C 348.85 379.56 344.64 375.22 344.64 369.93 C 344.64 364.63 348.85 360.29 354.14 360.12 L 391.78 360.12 C 395.36 360.01 398.71 361.85 400.54 364.93 C 402.36 368.01 402.36 371.84 400.54 374.92 C 398.71 378.00 395.36 379.84 391.78 379.73 Z" fill="#4f8980" fill-rule="nonzero" node-id="144" stroke="none" target-height="19.610016" target-width="57.25998" target-x="344.64316" target-y="360.12"></path><path d="M 391.78 457.49 L 354.14 457.49 C 348.73 457.49 344.34 453.10 344.34 447.69 C 344.34 442.28 348.73 437.89 354.14 437.89 L 391.78 437.89 C 397.19 437.89 401.58 442.28 401.58 447.69 C 401.58 453.10 397.19 457.49 391.78 457.49 Z" fill="#4f8980" fill-rule="nonzero" node-id="146" stroke="none" target-height="19.599976" target-width="57.23999" target-x="344.34" target-y="437.89"></path><path d="M 391.78 535.25 L 354.14 535.25 C 348.73 535.25 344.34 530.86 344.34 525.45 C 344.34 520.04 348.73 515.65 354.14 515.65 L 391.78 515.65 C 397.19 515.65 401.58 520.04 401.58 525.45 C 401.58 530.86 397.19 535.25 391.78 535.25 Z" fill="#4f8980" fill-rule="nonzero" node-id="148" stroke="none" target-height="19.599976" target-width="57.23999" target-x="344.34" target-y="515.65"></path><path d="M 391.78 613.00 L 354.14 613.00 C 348.85 612.83 344.64 608.49 344.64 603.20 C 344.64 597.90 348.85 593.56 354.14 593.39 L 391.78 593.39 C 395.36 593.28 398.71 595.12 400.54 598.20 C 402.36 601.28 402.36 605.11 400.54 608.19 C 398.71 611.27 395.36 613.11 391.78 613.00 Z" fill="#4f8980" fill-rule="nonzero" node-id="150" stroke="none" target-height="19.609985" target-width="57.25998" target-x="344.64316" target-y="593.39"></path><path d="M 391.78 690.78 L 354.14 690.78 C 348.85 690.61 344.64 686.27 344.64 680.98 C 344.64 675.68 348.85 671.34 354.14 671.17 L 391.78 671.17 C 395.36 671.06 398.71 672.90 400.54 675.98 C 402.36 679.06 402.36 682.89 400.54 685.97 C 398.71 689.05 395.36 690.89 391.78 690.78 Z" fill="#4f8980" fill-rule="nonzero" node-id="152" stroke="none" target-height="19.610046" target-width="57.25998" target-x="344.64316" target-y="671.17"></path><path d="M 391.78 768.54 L 354.14 768.54 C 348.85 768.37 344.64 764.03 344.64 758.74 C 344.64 753.44 348.85 749.10 354.14 748.93 L 391.78 748.93 C 395.36 748.82 398.71 750.66 400.54 753.74 C 402.36 756.82 402.36 760.65 400.54 763.73 C 398.71 766.81 395.36 768.65 391.78 768.54 Z" fill="#4f8980" fill-rule="nonzero" node-id="154" stroke="none" target-height="19.609985" target-width="57.25998" target-x="344.64316" target-y="748.93"></path><path d="M 475.11 484.03 L 475.11 453.14 L 475.11 439.14 L 447.45 439.14 L 447.45 484.03 L 461.28 484.03 L 475.11 484.03 Z" fill="none" node-id="156" stroke="none" target-height="44.889984" target-width="27.659973" target-x="447.45" target-y="439.14"></path><path d="M 475.11 390.00 L 475.11 405.51 L 495.85 405.51 L 495.85 494.88 C 495.84 500.93 493.43 506.74 489.15 511.02 C 484.86 515.30 479.05 517.70 473.00 517.69 L 418.86 517.69 L 418.86 484.00 L 403.65 484.00 L 403.65 555.10 L 469.52 555.10 C 496.80 555.10 518.91 532.99 518.91 505.71 L 518.91 390.00 C 518.91 377.90 509.11 368.10 497.01 368.10 L 497.01 368.10 C 491.20 368.10 485.63 370.40 481.52 374.51 C 477.41 378.62 475.11 384.19 475.11 390.00 Z" fill="#8bc852" fill-rule="nonzero" node-id="158" stroke="none" target-height="186.99997" target-width="115.25998" target-x="403.65" target-y="368.1"></path><path d="M 475.11 453.14 L 475.11 497.65 C 475.11 505.29 468.92 511.48 461.28 511.48 L 419.79 511.48 L 419.79 531.42 L 467.00 531.42 C 482.94 531.42 495.87 518.49 495.87 502.55 L 495.87 368.23 L 495.87 368.23 C 490.36 368.22 485.08 370.41 481.18 374.31 C 477.29 378.20 475.10 383.49 475.11 389.00 L 475.11 453.17 Z" fill="#5ea55c" fill-rule="nonzero" node-id="160" stroke="none" target-height="163.18997" target-width="76.07999" target-x="419.79" target-y="368.23"></path><path d="M 666.73 278.62 C 664.81 278.43 662.87 278.34 660.91 278.33 C 629.76 278.36 604.13 302.83 602.64 333.94 C 601.16 365.05 624.36 391.85 655.36 394.84 L 883.74 394.84 C 858.25 319.30 810.38 253.29 746.50 205.59 C 708.38 218.26 678.73 245.18 666.73 278.62 Z" fill="#ffe678" fill-rule="nonzero" node-id="162" stroke="none" target-height="189.25" target-width="281.09546" target-x="602.64453" target-y="205.59"></path></svg>