<?xml version="1.0" standalone="no"?><!DOCTYPE svg PUBLIC "-//W3C//DTD SVG 1.1//EN" "http://www.w3.org/Graphics/SVG/1.1/DTD/svg11.dtd"><svg height="1024" legacy-metrics="false" node-id="1" sillyvg="true" template-height="1024" template-width="1024" version="1.1" viewBox="0 0 1024 1024" width="1024" xmlns="http://www.w3.org/2000/svg" xmlns:xlink="http://www.w3.org/1999/xlink"><defs node-id="31"></defs><path d="M 885.40 536.19 C 885.40 640.25 844.06 740.05 770.48 813.64 C 696.89 887.22 597.09 928.56 493.03 928.56 C 388.97 928.56 289.17 887.22 215.58 813.64 C 142.00 740.05 100.66 640.25 100.66 536.19 C 100.66 432.13 142.00 332.33 215.58 258.74 C 289.17 185.16 388.97 143.82 493.03 143.82 C 597.09 143.82 696.89 185.16 770.48 258.74 C 844.06 332.33 885.40 432.13 885.40 536.19 Z" fill="#c1f8f4" fill-rule="nonzero" node-id="33" stroke="none" target-height="784.74" target-width="784.74" target-x="100.66" target-y="143.82"></path><path d="M 869.27 424.58 L 724.08 367.58 C 732.51 389.51 731.75 413.92 721.98 435.29 L 721.98 435.29 C 712.34 456.46 694.67 472.94 672.88 481.09 C 651.09 489.24 626.95 488.40 605.78 478.75 L 335.84 355.75 C 314.67 346.10 298.20 328.44 290.05 306.65 C 281.90 284.86 282.74 260.72 292.39 239.55 L 292.39 239.55 C 298.02 227.15 306.48 216.24 317.08 207.69 L 293.40 198.39 C 183.40 263.54 107.92 380.88 101.15 516.33 L 884.90 516.33 C 883.36 485.23 878.12 454.43 869.27 424.58 Z" fill="#5ea55c" fill-rule="nonzero" node-id="35" stroke="none" target-height="317.94" target-width="783.75" target-x="101.15" target-y="198.39"></path><path d="M 694.75 293.27 C 694.75 338.11 658.40 374.46 613.56 374.46 C 568.72 374.46 532.37 338.11 532.37 293.27 C 532.37 248.43 568.72 212.08 613.56 212.08 C 658.40 212.08 694.75 248.43 694.75 293.27 Z" fill="#ffffff" fill-rule="nonzero" node-id="37" stroke="none" target-height="162.37999" target-width="162.38" target-x="532.37" target-y="212.08"></path><path d="M 822.68 330.13 C 822.68 374.97 786.33 411.32 741.49 411.32 C 696.65 411.32 660.30 374.97 660.30 330.13 C 660.30 285.29 696.65 248.94 741.49 248.94 C 786.33 248.94 822.68 285.29 822.68 330.13 Z" fill="#ffffff" fill-rule="nonzero" node-id="39" stroke="none" target-height="162.38" target-width="162.38" target-x="660.3" target-y="248.94"></path><path d="M 116.69 424.89 C 106.04 461.03 100.65 498.51 100.69 536.19 C 100.69 752.89 276.36 928.56 493.07 928.56 C 709.78 928.56 885.40 752.89 885.40 536.19 C 885.44 498.51 880.05 461.03 869.40 424.89 Z" fill="#05cdff" fill-rule="nonzero" node-id="41" stroke="none" target-height="503.66998" target-width="784.71" target-x="100.69" target-y="424.89"></path><path d="M 753.51 785.12 C 753.51 805.57 632.91 822.14 484.15 822.14 C 335.39 822.14 214.79 805.57 214.79 785.12 C 214.79 764.67 335.39 748.10 484.15 748.10 C 632.91 748.10 753.51 764.67 753.51 785.12 Z" fill="#6ee1ff" fill-rule="nonzero" node-id="43" stroke="none" target-height="74.04004" target-width="538.72003" target-x="214.79" target-y="748.1"></path><path d="M 337.94 650.71 L 843.31 650.71 C 850.04 650.71 855.50 656.17 855.50 662.90 L 855.50 686.35 C 855.50 693.08 850.04 698.54 843.31 698.54 L 337.94 698.54 C 331.21 698.54 325.75 693.08 325.75 686.35 L 325.75 662.90 C 325.75 656.17 331.21 650.71 337.94 650.71 Z" fill="#00aff4" fill-rule="nonzero" node-id="45" stroke="none" target-height="47.829956" target-width="529.75" target-x="325.75" target-y="650.71"></path><path d="M 688.44 525.73 L 690.32 526.66 L 800.81 515.11 L 103.81 486.63 C 99.56 520.27 99.65 554.32 104.09 587.93 L 687.66 526.93 Z" fill="#00aff4" fill-rule="nonzero" node-id="47" stroke="none" target-height="101.29999" target-width="700.1185" target-x="100.69148" target-y="486.63"></path><path d="M 871.25 640.90 C 776.86 638.28 674.67 667.90 584.02 731.11 C 509.70 783.00 454.00 849.93 419.69 921.69 C 443.86 926.26 468.40 928.56 493.00 928.56 C 673.46 928.56 825.43 806.76 871.25 640.90 Z" fill="#aad540" fill-rule="nonzero" node-id="49" stroke="none" target-height="287.81268" target-width="451.56" target-x="419.69" target-y="640.7473"></path><path d="M 467.29 538.86 L 500.99 538.86 L 500.99 666.73 L 467.29 666.73 Z" fill="#523838" fill-rule="nonzero" node-id="51" stroke="none" target-height="127.869995" target-width="33.69998" target-x="467.29" target-y="538.86"></path><path d="M 667.78 538.86 L 701.48 538.86 L 701.48 666.73 L 667.78 666.73 Z" fill="#523838" fill-rule="nonzero" node-id="53" stroke="none" target-height="127.869995" target-width="33.69995" target-x="667.78" target-y="538.86"></path><path d="M 702.28 632.87 L 685.43 657.89 L 469.03 550.76 L 485.88 525.73 L 702.28 632.87 Z" fill="#523838" fill-rule="nonzero" node-id="55" stroke="none" target-height="132.16003" target-width="233.25003" target-x="469.03" target-y="525.73"></path><path d="M 469.03 632.87 L 485.88 657.89 L 702.28 550.76 L 685.43 525.73 L 469.03 632.87 Z" fill="#523838" fill-rule="nonzero" node-id="57" stroke="none" target-height="132.16003" target-width="233.25003" target-x="469.03" target-y="525.73"></path><path d="M 876.63 618.90 C 880.74 599.75 883.42 580.32 884.63 560.77 L 821.92 591.77 Z" fill="#05cdff" fill-rule="nonzero" node-id="59" stroke="none" target-height="58.130005" target-width="62.710022" target-x="821.92" target-y="560.77"></path><path d="M 688.44 525.73 L 671.59 550.76 L 754.51 591.81 L 788.22 575.13 L 688.44 525.73 Z" fill="#523838" fill-rule="nonzero" node-id="61" stroke="none" target-height="66.08002" target-width="116.629944" target-x="671.59" target-y="525.73"></path><path d="M 871.25 640.90 C 873.25 633.65 875.04 626.32 876.63 618.90 L 821.92 591.81 L 788.21 608.50 L 853.43 640.79 C 859.40 640.70 865.34 640.74 871.25 640.90 Z" fill="#523838" fill-rule="nonzero" node-id="63" stroke="none" target-height="49.090027" target-width="88.41998" target-x="788.21" target-y="591.81"></path><path d="M 821.92 591.81 L 884.63 560.81 C 885.13 552.68 885.39 544.49 885.40 536.23 C 885.40 533.18 885.40 530.14 885.28 527.11 L 788.21 575.17 Z" fill="#523838" fill-rule="nonzero" node-id="65" stroke="none" target-height="64.70001" target-width="97.19" target-x="788.21" target-y="527.11"></path><path d="M 671.59 632.87 L 688.44 657.89 L 788.22 608.50 L 754.51 591.81 L 671.59 632.87 Z" fill="#523838" fill-rule="nonzero" node-id="67" stroke="none" target-height="66.08002" target-width="116.629944" target-x="671.59" target-y="591.81"></path><path d="M 754.51 591.81 L 788.22 608.50 L 821.92 591.81 L 788.22 575.13 L 754.51 591.81 Z" fill="#523838" fill-rule="nonzero" node-id="69" stroke="none" target-height="33.369995" target-width="67.40997" target-x="754.51" target-y="575.13"></path><path d="M 292.39 239.51 L 292.39 239.51 C 282.74 260.68 281.90 284.82 290.05 306.61 C 298.20 328.40 314.67 346.06 335.84 355.71 L 605.78 478.71 C 626.95 488.36 651.10 489.21 672.89 481.06 C 694.69 472.91 712.36 456.43 722.00 435.25 L 722.00 435.25 C 731.77 413.88 732.53 389.47 724.10 367.54 L 317.10 207.65 C 306.49 216.20 298.03 227.11 292.39 239.51 Z" fill="#8bc852" fill-rule="nonzero" node-id="71" stroke="none" target-height="278.9238" target-width="445.3448" target-x="284.53217" target-y="207.65"></path><path d="M 690.32 526.66 L 788.21 575.13 L 885.28 527.07 C 884.51 492.46 879.16 458.10 869.36 424.89 L 116.69 424.89 C 110.73 445.09 106.41 465.74 103.77 486.63 L 800.77 515.11 Z" fill="#05cdff" fill-rule="nonzero" node-id="73" stroke="none" target-height="150.23999" target-width="781.51" target-x="103.77" target-y="424.89"></path><path d="M 687.62 526.94 L 690.32 526.66 L 688.44 525.73 L 687.62 526.94 Z" fill="#05cdff" fill-rule="nonzero" node-id="75" stroke="none" target-height="1.210022" target-width="2.7000122" target-x="687.62" target-y="525.73"></path><path d="M 800.81 212.07 C 800.81 258.19 763.42 295.58 717.30 295.58 C 671.18 295.58 633.79 258.19 633.79 212.07 C 633.79 165.95 671.18 128.56 717.30 128.56 C 763.42 128.56 800.81 165.95 800.81 212.07 Z" fill="#ffffff" fill-rule="nonzero" node-id="77" stroke="none" target-height="167.01999" target-width="167.02002" target-x="633.79" target-y="128.56"></path><path d="M 883.48 497.31 L 443.61 497.31 C 430.40 497.31 419.70 508.01 419.69 521.22 L 419.69 521.22 C 419.69 534.43 430.40 545.14 443.61 545.14 L 885.29 545.14 C 885.35 542.14 885.40 539.14 885.40 536.19 C 885.40 523.07 884.76 510.11 883.48 497.31 Z" fill="#664545" fill-rule="nonzero" node-id="79" stroke="none" target-height="47.830017" target-width="465.71002" target-x="419.69" target-y="497.31"></path><path d="M 869.34 424.83 C 856.16 380.23 835.12 338.33 807.22 301.12 C 758.00 312.32 686.47 343.00 604.54 424.58 Z" fill="#aad540" fill-rule="nonzero" node-id="81" stroke="none" target-height="123.70999" target-width="264.80005" target-x="604.54" target-y="301.12"></path></svg>