<?xml version="1.0" standalone="no"?><!DOCTYPE svg PUBLIC "-//W3C//DTD SVG 1.1//EN" "http://www.w3.org/Graphics/SVG/1.1/DTD/svg11.dtd"><svg height="1024" legacy-metrics="false" node-id="1" sillyvg="true" template-height="1024" template-width="1024" version="1.1" viewBox="0 0 1024 1024" width="1024" xmlns="http://www.w3.org/2000/svg" xmlns:xlink="http://www.w3.org/1999/xlink"><defs node-id="40"></defs><path d="M 902.89 521.11 C 902.89 624.78 861.71 724.20 788.40 797.51 C 715.09 870.82 615.67 912.00 512.00 912.00 C 408.33 912.00 308.91 870.82 235.60 797.51 C 162.29 724.20 121.11 624.78 121.11 521.11 C 121.11 417.44 162.29 318.02 235.60 244.71 C 308.91 171.40 408.33 130.22 512.00 130.22 C 615.67 130.22 715.09 171.40 788.40 244.71 C 861.71 318.02 902.89 417.44 902.89 521.11 Z" fill="#e490b7" fill-rule="nonzero" node-id="42" stroke="none" target-height="781.78" target-width="781.78" target-x="121.11" target-y="130.22"></path><path d="M 512.00 130.22 C 448.87 130.13 386.67 145.40 330.76 174.71 C 324.93 201.17 322.00 228.19 322.00 255.29 C 322.00 461.21 488.93 628.15 694.86 628.15 C 767.90 628.26 839.35 606.82 900.25 566.50 C 902.00 551.43 902.89 536.28 902.89 521.11 C 902.89 305.22 727.88 130.22 512.00 130.22 Z" fill="#eab1b7" fill-rule="nonzero" node-id="44" stroke="none" target-height="497.93002" target-width="580.89" target-x="322" target-y="130.22"></path><path d="M 750.87 493.47 C 750.87 625.39 643.92 732.34 512.00 732.34 C 380.08 732.34 273.13 625.39 273.13 493.47 C 273.13 361.55 380.08 254.60 512.00 254.60 C 643.92 254.60 750.87 361.55 750.87 493.47 Z" fill="#ecbe6b" fill-rule="nonzero" node-id="46" stroke="none" target-height="477.74002" target-width="477.74" target-x="273.13" target-y="254.6"></path><path d="M 654.18 493.47 C 654.18 571.99 590.52 635.65 512.00 635.65 C 433.48 635.65 369.82 571.99 369.82 493.47 C 369.82 414.95 433.48 351.29 512.00 351.29 C 590.52 351.29 654.18 414.95 654.18 493.47 Z" fill="#f9ef63" fill-rule="nonzero" node-id="48" stroke="none" target-height="284.36002" target-width="284.36" target-x="369.82" target-y="351.29"></path><path d="M 181.64 602.34 L 300.21 602.34 C 300.68 602.34 301.14 602.32 301.61 602.27 C 302.07 602.27 302.53 602.34 303.00 602.34 C 319.04 602.31 333.13 591.68 337.55 576.25 C 341.97 560.83 335.65 544.35 322.05 535.83 C 335.17 502.67 319.47 465.09 286.65 451.12 C 253.84 437.14 215.87 451.86 201.05 484.30 C 185.49 472.61 164.27 471.94 148.01 482.64 C 131.75 493.33 123.96 513.08 128.53 532.00 C 126.04 532.78 123.65 533.84 121.39 535.16 C 122.16 557.25 124.79 579.24 129.27 600.89 C 132.54 601.85 135.92 602.34 139.33 602.34 Z" fill="#dafffb" fill-rule="nonzero" node-id="50" stroke="none" target-height="156.49033" target-width="217.51854" target-x="121.39" target-y="445.8497"></path><path d="M 833.54 234.68 C 851.06 189.35 829.50 138.30 784.79 119.25 C 740.09 100.21 688.33 120.03 667.78 164.06 C 646.46 147.97 617.33 147.02 595.01 161.69 C 572.70 176.36 562.01 203.48 568.33 229.43 C 545.11 236.75 530.69 259.91 534.39 283.98 C 538.08 308.04 558.78 325.82 583.13 325.83 L 803.61 325.83 C 804.25 325.83 804.89 325.83 805.52 325.74 C 806.15 325.65 806.79 325.83 807.44 325.83 C 829.46 325.85 848.82 311.27 854.88 290.10 C 860.94 268.94 852.23 246.32 833.54 234.68 Z" fill="#dafffb" fill-rule="nonzero" node-id="52" stroke="none" target-height="213.79892" target-width="322.89435" target-x="533.8332" target-y="112.03106"></path><path d="M 826.24 472.86 C 800.42 472.84 776.14 485.18 760.94 506.06 C 721.57 498.34 682.49 520.66 669.14 558.49 C 655.79 596.33 672.20 638.23 707.70 656.93 C 743.20 675.63 787.04 665.47 810.69 633.06 C 844.41 639.68 878.63 624.26 896.00 594.60 C 900.19 572.57 902.48 550.21 902.85 527.79 C 891.73 494.95 860.91 472.85 826.24 472.86 Z" fill="#ffffff" fill-rule="nonzero" node-id="54" stroke="none" target-height="193.38483" target-width="238.30493" target-x="664.54504" target-y="472.86"></path><path d="M 837.51 737.56 L 339.00 673.60 L 872.00 673.60 C 883.80 645.79 892.31 616.70 897.37 586.92 L 126.65 586.92 C 136.20 643.14 157.99 696.58 190.49 743.44 L 833.49 743.44 C 834.86 741.49 836.20 739.53 837.51 737.56 Z" fill="#70c6da" fill-rule="nonzero" node-id="56" stroke="none" target-height="156.52002" target-width="770.72" target-x="126.65" target-y="586.92"></path><path d="M 871.98 673.60 L 354.85 635.65 L 339.00 673.60 L 871.98 673.60 Z" fill="#5ea5ec" fill-rule="nonzero" node-id="58" stroke="none" target-height="37.94995" target-width="532.98" target-x="339" target-y="635.65"></path><path d="M 403.23 440.56 L 506.70 440.56 L 506.70 477.61 L 403.23 477.61 Z" fill="#dd542e" fill-rule="nonzero" node-id="60" stroke="none" target-height="37.049988" target-width="103.47" target-x="403.23" target-y="440.56"></path><path d="M 403.23 440.56 L 437.88 440.56 L 437.88 477.61 L 403.23 477.61 Z" fill="#d82e3d" fill-rule="nonzero" node-id="62" stroke="none" target-height="37.049988" target-width="34.649994" target-x="403.23" target-y="440.56"></path><path d="M 247.28 362.88 L 311.12 362.88 L 311.12 477.61 L 247.28 477.61 Z" fill="#dd542e" fill-rule="nonzero" node-id="64" stroke="none" target-height="114.72998" target-width="63.839996" target-x="247.28" target-y="362.88"></path><path d="M 247.28 362.88 L 269.69 362.88 L 269.69 477.61 L 247.28 477.61 Z" fill="#d82e3d" fill-rule="nonzero" node-id="66" stroke="none" target-height="114.72998" target-width="22.410004" target-x="247.28" target-y="362.88"></path><path d="M 247.28 385.82 L 311.12 385.82 L 311.12 477.60 L 247.28 477.60 Z" fill="#c1f8f4" fill-rule="nonzero" node-id="68" stroke="none" target-height="91.78" target-width="63.839996" target-x="247.28" target-y="385.82"></path><path d="M 247.28 385.82 L 269.69 385.82 L 269.69 477.60 L 247.28 477.60 Z" fill="#93ede7" fill-rule="nonzero" node-id="70" stroke="none" target-height="91.78" target-width="22.410004" target-x="247.28" target-y="385.82"></path><path d="M 423.05 325.83 L 486.89 325.83 L 486.89 440.56 L 423.05 440.56 Z" fill="#dd542e" fill-rule="nonzero" node-id="72" stroke="none" target-height="114.73001" target-width="63.840027" target-x="423.05" target-y="325.83"></path><path d="M 423.05 325.83 L 445.46 325.83 L 445.46 440.56 L 423.05 440.56 Z" fill="#d82e3d" fill-rule="nonzero" node-id="74" stroke="none" target-height="114.73001" target-width="22.410004" target-x="423.05" target-y="325.83"></path><path d="M 423.05 348.78 L 486.89 348.78 L 486.89 440.56 L 423.05 440.56 Z" fill="#c1f8f4" fill-rule="nonzero" node-id="76" stroke="none" target-height="91.78" target-width="63.840027" target-x="423.05" target-y="348.78"></path><path d="M 423.05 348.78 L 445.46 348.78 L 445.46 440.56 L 423.05 440.56 Z" fill="#93ede7" fill-rule="nonzero" node-id="78" stroke="none" target-height="91.78" target-width="22.410004" target-x="423.05" target-y="348.78"></path><path d="M 224.61 474.00 L 528.68 474.00 C 531.51 474.00 533.80 476.29 533.80 479.12 L 533.80 529.31 L 533.80 529.31 L 219.49 529.31 L 219.49 529.31 L 219.49 479.14 C 219.48 477.78 220.02 476.47 220.98 475.51 C 221.94 474.54 223.25 474.00 224.61 474.00 Z" fill="#aa321e" fill-rule="nonzero" node-id="80" stroke="none" target-height="55.309998" target-width="314.31" target-x="219.49" target-y="474"></path><path d="M 293.60 584.05 L 251.05 509.87 L 151.68 509.87 C 146.44 509.88 141.60 512.67 138.97 517.20 C 136.34 521.73 136.32 527.32 138.91 531.87 L 195.61 630.70 C 210.81 657.22 239.04 673.57 269.61 673.56 L 627.84 673.56 L 597.64 626.86 L 367.64 626.86 C 337.07 626.89 308.83 610.56 293.60 584.05 Z" fill="#d82e3d" fill-rule="nonzero" node-id="82" stroke="none" target-height="163.69" target-width="490.85614" target-x="136.98387" target-y="509.87"></path><path d="M 599.48 509.87 L 251.05 509.87 L 293.60 584.05 C 308.81 610.56 337.04 626.91 367.60 626.90 L 597.64 626.90 L 614.00 527.00 C 614.71 522.73 613.51 518.37 610.71 515.07 C 607.91 511.77 603.81 509.87 599.48 509.87 Z" fill="#dd542e" fill-rule="nonzero" node-id="84" stroke="none" target-height="117.03003" target-width="363.14655" target-x="251.05" target-y="509.87"></path><path d="M 299.75 569.55 C 299.75 581.80 289.82 591.73 277.57 591.73 C 265.32 591.73 255.39 581.80 255.39 569.55 C 255.39 557.30 265.32 547.37 277.57 547.37 C 289.82 547.37 299.75 557.30 299.75 569.55 Z" fill="#ffffff" fill-rule="nonzero" node-id="86" stroke="none" target-height="44.359985" target-width="44.36" target-x="255.39" target-y="547.37"></path><path d="M 293.42 569.55 C 293.42 578.30 286.32 585.40 277.57 585.40 C 268.82 585.40 261.72 578.30 261.72 569.55 C 261.72 560.80 268.82 553.70 277.57 553.70 C 286.32 553.70 293.42 560.80 293.42 569.55 Z" fill="#93ede7" fill-rule="nonzero" node-id="88" stroke="none" target-height="31.700012" target-width="31.700012" target-x="261.72" target-y="553.7"></path><path d="M 377.03 569.55 C 377.03 581.80 367.10 591.73 354.85 591.73 C 342.60 591.73 332.67 581.80 332.67 569.55 C 332.67 557.30 342.60 547.37 354.85 547.37 C 367.10 547.37 377.03 557.30 377.03 569.55 Z" fill="#ffffff" fill-rule="nonzero" node-id="90" stroke="none" target-height="44.359985" target-width="44.359985" target-x="332.67" target-y="547.37"></path><path d="M 370.70 569.55 C 370.70 578.30 363.60 585.40 354.85 585.40 C 346.10 585.40 339.00 578.30 339.00 569.55 C 339.00 560.80 346.10 553.70 354.85 553.70 C 363.60 553.70 370.70 560.80 370.70 569.55 Z" fill="#93ede7" fill-rule="nonzero" node-id="92" stroke="none" target-height="31.700012" target-width="31.700012" target-x="339" target-y="553.7"></path><path d="M 454.31 569.55 C 454.31 581.80 444.38 591.73 432.13 591.73 C 419.88 591.73 409.95 581.80 409.95 569.55 C 409.95 557.30 419.88 547.37 432.13 547.37 C 444.38 547.37 454.31 557.30 454.31 569.55 Z" fill="#ffffff" fill-rule="nonzero" node-id="94" stroke="none" target-height="44.359985" target-width="44.359985" target-x="409.95" target-y="547.37"></path><path d="M 447.98 569.55 C 447.98 578.30 440.88 585.40 432.13 585.40 C 423.38 585.40 416.28 578.30 416.28 569.55 C 416.28 560.80 423.38 553.70 432.13 553.70 C 440.88 553.70 447.98 560.80 447.98 569.55 Z" fill="#93ede7" fill-rule="nonzero" node-id="96" stroke="none" target-height="31.700012" target-width="31.700012" target-x="416.28" target-y="553.7"></path><path d="M 531.59 569.55 C 531.59 581.80 521.66 591.73 509.41 591.73 C 497.16 591.73 487.23 581.80 487.23 569.55 C 487.23 557.30 497.16 547.37 509.41 547.37 C 521.66 547.37 531.59 557.30 531.59 569.55 Z" fill="#ffffff" fill-rule="nonzero" node-id="98" stroke="none" target-height="44.359985" target-width="44.360016" target-x="487.23" target-y="547.37"></path><path d="M 525.26 569.55 C 525.26 578.30 518.16 585.40 509.41 585.40 C 500.66 585.40 493.56 578.30 493.56 569.55 C 493.56 560.80 500.66 553.70 509.41 553.70 C 518.16 553.70 525.26 560.80 525.26 569.55 Z" fill="#93ede7" fill-rule="nonzero" node-id="100" stroke="none" target-height="31.700012" target-width="31.700012" target-x="493.56" target-y="553.7"></path><path d="M 833.51 743.44 L 883.37 743.44 L 837.51 737.56 C 836.19 739.53 834.86 741.49 833.51 743.44 Z" fill="none" node-id="102" stroke="none" target-height="5.880005" target-width="49.859985" target-x="833.51" target-y="737.56"></path><path d="M 512.00 912.00 C 641.27 912.00 755.86 849.23 827.00 752.53 L 285.64 839.81 C 351.72 886.89 430.87 912.13 512.00 912.00 Z" fill="#70c6da" fill-rule="nonzero" node-id="104" stroke="none" target-height="159.46997" target-width="541.36" target-x="285.64" target-y="752.53"></path><path d="M 190.49 743.44 C 216.39 780.83 248.59 813.43 285.64 839.81 L 827.00 752.53 C 829.21 749.53 831.38 746.53 833.50 743.44 Z" fill="#5ea5ec" fill-rule="nonzero" node-id="106" stroke="none" target-height="96.369995" target-width="643.01" target-x="190.49" target-y="743.44"></path><path d="M 837.51 737.56 C 850.97 717.35 862.51 695.92 871.98 673.56 L 339.00 673.56 Z" fill="#93d8e4" fill-rule="nonzero" node-id="108" stroke="none" target-height="64" target-width="532.98" target-x="339" target-y="673.56"></path></svg>