<?xml version="1.0" standalone="no"?><!DOCTYPE svg PUBLIC "-//W3C//DTD SVG 1.1//EN" "http://www.w3.org/Graphics/SVG/1.1/DTD/svg11.dtd"><svg height="1024" legacy-metrics="false" node-id="1" sillyvg="true" template-height="1024" template-width="1024" version="1.1" viewBox="0 0 1024 1024" width="1024" xmlns="http://www.w3.org/2000/svg" xmlns:xlink="http://www.w3.org/1999/xlink"><defs node-id="40"></defs><path d="M 916.05 496.24 C 916.05 602.33 873.91 704.07 798.89 779.08 C 723.88 854.10 622.14 896.24 516.05 896.24 C 409.96 896.24 308.22 854.10 233.21 779.08 C 158.19 704.07 116.05 602.33 116.05 496.24 C 116.05 390.15 158.19 288.41 233.21 213.40 C 308.22 138.38 409.96 96.24 516.05 96.24 C 622.14 96.24 723.88 138.38 798.89 213.40 C 873.91 288.41 916.05 390.15 916.05 496.24 Z" fill="#eab1b7" fill-rule="nonzero" node-id="42" stroke="none" target-height="800" target-width="800" target-x="116.05" target-y="96.24"></path><path d="M 758.15 346.12 L 752.41 346.12 C 747.93 346.10 743.66 344.21 740.62 340.91 C 737.59 337.61 736.06 333.20 736.41 328.73 C 737.18 317.73 730.46 306.10 716.23 306.10 L 551.67 306.10 C 537.67 306.10 530.96 317.33 531.46 328.17 C 531.90 337.86 524.60 346.12 514.90 346.12 L 469.72 346.12 C 442.72 346.12 442.72 388.04 469.72 388.04 L 758.15 388.04 C 785.12 388.00 785.16 346.12 758.15 346.12 Z" fill="#f9ef63" fill-rule="nonzero" node-id="44" stroke="none" target-height="81.94" target-width="328.92245" target-x="449.47" target-y="306.1"></path><path d="M 132.40 382.78 C 120.55 422.96 115.08 464.75 116.18 506.62 C 121.68 722.78 300.00 896.36 516.27 896.24 C 737.08 896.13 916.05 717.09 916.05 496.24 L 916.05 495.06 C 915.86 432.88 864.91 382.78 802.73 382.78 Z" fill="#664545" fill-rule="nonzero" node-id="46" stroke="none" target-height="513.45996" target-width="799.9746" target-x="116.07536" target-y="382.78"></path><path d="M 714.43 486.82 L 717.17 486.53 L 715.26 485.59 L 714.43 486.82 Z" fill="#05cdff" fill-rule="nonzero" node-id="48" stroke="none" target-height="1.230011" target-width="2.7399902" target-x="714.43" target-y="485.59"></path><path d="M 648.34 189.94 L 643.77 189.94 C 640.19 189.93 636.78 188.43 634.36 185.80 C 631.94 183.17 630.72 179.65 631.00 176.08 C 631.61 167.32 626.26 158.08 614.93 158.08 L 483.89 158.08 C 472.76 158.08 467.39 167.03 467.78 175.66 C 468.04 179.33 466.77 182.95 464.27 185.65 C 461.78 188.36 458.28 189.92 454.60 189.96 L 418.60 189.96 C 397.12 189.96 397.08 223.34 418.60 223.34 L 648.34 223.34 C 669.82 223.32 669.86 189.94 648.34 189.94 Z" fill="#f9ef63" fill-rule="nonzero" node-id="50" stroke="none" target-height="65.259995" target-width="261.98996" target-x="402.475" target-y="158.08"></path><path d="M 207.33 241.88 C 271.59 258.55 318.98 315.25 319.33 382.78 L 546.71 382.78 C 546.71 382.28 546.71 381.78 546.71 381.29 C 546.71 270.57 449.89 180.81 330.46 180.81 C 304.63 180.77 278.99 185.06 254.58 193.51 C 237.50 208.28 221.70 224.46 207.33 241.88 Z" fill="#8bc852" fill-rule="nonzero" node-id="52" stroke="none" target-height="201.97" target-width="339.38" target-x="207.33" target-y="180.81"></path><path d="M 595.00 382.78 L 319.34 382.78 C 319.34 382.85 319.34 382.91 319.34 382.98 C 379.27 386.45 426.09 436.06 426.10 496.09 L 426.10 886.09 C 427.56 886.42 429.03 886.72 430.49 887.04 C 434.96 846.43 456.04 809.48 488.71 784.95 C 521.39 760.43 562.76 750.51 603.00 757.56 C 619.36 709.63 659.05 673.36 708.26 661.39 L 708.26 496.09 C 708.25 433.53 657.56 382.81 595.00 382.78 Z" fill="#93ede7" fill-rule="nonzero" node-id="54" stroke="none" target-height="504.25998" target-width="388.92" target-x="319.34" target-y="382.78"></path><path d="M 312.79 382.78 L 319.34 382.78 C 318.98 315.25 271.59 258.55 207.34 241.88 C 173.13 283.32 147.64 331.25 132.41 382.78 L 312.79 382.78 Z" fill="#5ea55c" fill-rule="nonzero" node-id="56" stroke="none" target-height="140.9" target-width="186.93" target-x="132.41" target-y="241.88"></path><path d="M 319.35 383.00 C 319.35 382.93 319.35 382.87 319.35 382.80 L 312.80 382.80 C 315.00 382.78 317.18 382.86 319.35 383.00 Z" fill="#5ea55c" fill-rule="nonzero" node-id="58" stroke="none" target-height="0.2000122" target-width="6.5500183" target-x="312.8" target-y="382.8"></path><path d="M 319.35 383.00 C 317.18 382.88 314.99 382.80 312.79 382.80 L 210.70 382.80 C 273.26 382.82 323.97 433.53 324.00 496.09 L 324.00 847.20 C 356.08 864.80 390.44 877.89 426.10 886.09 L 426.10 496.09 C 426.08 436.07 379.27 386.47 319.35 383.00 Z" fill="#93d8e4" fill-rule="nonzero" node-id="60" stroke="none" target-height="503.29004" target-width="215.40001" target-x="210.7" target-y="382.8"></path><path d="M 308.33 438.58 C 287.97 404.00 250.83 382.77 210.70 382.78 L 132.40 382.78 C 127.63 398.93 123.89 415.37 121.21 432.00 C 117.78 453.25 116.05 474.74 116.05 496.27 C 116.05 504.77 116.34 513.20 116.87 521.56 C 125.64 662.14 207.00 783.06 324.00 847.20 L 324.00 496.09 C 324.03 475.86 318.62 456.00 308.33 438.58 Z" fill="#664545" fill-rule="nonzero" node-id="62" stroke="none" target-height="464.42" target-width="207.95" target-x="116.05" target-y="382.78"></path><path d="M 595.12 805.25 C 595.11 789.03 597.78 772.91 603.02 757.56 C 562.78 750.51 521.41 760.41 488.73 784.93 C 456.05 809.45 434.97 846.39 430.49 887.00 C 492.22 900.43 556.23 899.14 617.37 883.24 C 602.80 859.84 595.09 832.82 595.12 805.25 Z" fill="#93d8e4" fill-rule="nonzero" node-id="64" stroke="none" target-height="140.78644" target-width="186.88" target-x="430.49" target-y="755.34186"></path><path d="M 743.15 657.22 C 689.42 657.21 639.90 686.31 613.78 733.26 C 587.66 780.21 589.03 837.63 617.37 883.28 C 649.05 875.01 679.59 862.86 708.28 847.09 C 709.97 846.16 711.66 845.22 713.33 844.27 C 771.09 811.43 819.81 764.77 855.12 708.49 C 827.05 675.91 786.16 657.19 743.15 657.22 Z" fill="#d2f0ff" fill-rule="nonzero" node-id="66" stroke="none" target-height="226.06006" target-width="259.9673" target-x="595.1527" target-y="657.22"></path><path d="M 709.28 326.00 C 760.45 326.06 809.09 303.78 842.46 265.00 C 774.61 169.40 665.83 104.93 541.66 97.08 C 524.79 150.51 534.37 208.79 567.48 254.00 C 600.58 299.21 653.24 325.95 709.28 326.00 Z" fill="#ecbe6b" fill-rule="nonzero" node-id="68" stroke="none" target-height="228.92" target-width="308.9544" target-x="533.5056" target-y="97.08"></path><path d="M 637.56 85.56 C 637.57 76.61 638.62 67.70 640.71 59.00 C 600.46 89.24 584.77 142.27 602.09 189.54 C 619.42 236.81 665.66 267.15 715.91 264.22 C 766.17 261.29 808.57 225.79 820.29 176.83 C 785.71 202.81 739.41 207.02 700.71 187.69 C 662.01 168.36 637.56 128.82 637.56 85.56 Z" fill="#f4dd45" fill-rule="nonzero" node-id="70" stroke="none" target-height="205.40616" target-width="225.1272" target-x="595.1628" target-y="59"></path><path d="M 709.28 36.08 C 684.54 36.05 660.46 44.10 640.71 59.00 C 629.51 105.80 648.87 154.60 689.10 181.01 C 729.34 207.41 781.81 205.74 820.29 176.83 C 828.45 142.84 820.58 106.98 798.93 79.53 C 777.28 52.08 744.25 36.07 709.29 36.08 Z" fill="#f9ef63" fill-rule="nonzero" node-id="72" stroke="none" target-height="163.59036" target-width="185.87024" target-x="637.57263" target-y="36.08"></path><path d="M 828.92 314.00 C 816.08 314.00 805.68 324.40 805.68 337.24 L 805.68 337.24 C 805.68 343.41 808.12 349.32 812.48 353.68 C 816.84 358.04 822.75 360.49 828.92 360.49 L 892.39 360.49 C 886.65 344.58 879.90 329.05 872.18 314.00 Z" fill="#f9ef63" fill-rule="nonzero" node-id="74" stroke="none" target-height="46.48999" target-width="86.71002" target-x="805.68" target-y="314"></path><path d="M 556.13 580.84 C 556.13 594.56 545.01 605.68 531.29 605.68 C 517.57 605.68 506.45 594.56 506.45 580.84 C 506.45 567.12 517.57 556.00 531.29 556.00 C 545.01 556.00 556.13 567.12 556.13 580.84 Z" fill="#d2f0ff" fill-rule="nonzero" node-id="76" stroke="none" target-height="49.679993" target-width="49.679993" target-x="506.45" target-y="556"></path><path d="M 830.52 609.59 C 830.52 623.31 819.40 634.43 805.68 634.43 C 791.96 634.43 780.84 623.31 780.84 609.59 C 780.84 595.87 791.96 584.75 805.68 584.75 C 819.40 584.75 830.52 595.87 830.52 609.59 Z" fill="#d2f0ff" fill-rule="nonzero" node-id="78" stroke="none" target-height="49.679993" target-width="49.679993" target-x="780.84" target-y="584.75"></path><path d="M 252.16 555.99 C 252.16 562.62 246.79 567.99 240.16 567.99 C 233.53 567.99 228.16 562.62 228.16 555.99 C 228.16 549.36 233.53 543.99 240.16 543.99 C 246.79 543.99 252.16 549.36 252.16 555.99 Z" fill="#523838" fill-rule="nonzero" node-id="80" stroke="none" target-height="24" target-width="24" target-x="228.16" target-y="543.99"></path><path d="M 228.91 724.90 C 228.91 731.53 223.54 736.90 216.91 736.90 C 210.28 736.90 204.91 731.53 204.91 724.90 C 204.91 718.27 210.28 712.90 216.91 712.90 C 223.54 712.90 228.91 718.27 228.91 724.90 Z" fill="#523838" fill-rule="nonzero" node-id="82" stroke="none" target-height="24" target-width="24" target-x="204.91" target-y="712.9"></path><path d="M 406.02 787.24 C 406.02 802.32 393.79 814.55 378.71 814.55 C 363.63 814.55 351.40 802.32 351.40 787.24 C 351.40 772.16 363.63 759.93 378.71 759.93 C 393.79 759.93 406.02 772.16 406.02 787.24 Z" fill="#93ede7" fill-rule="nonzero" node-id="84" stroke="none" target-height="54.619995" target-width="54.619995" target-x="351.4" target-y="759.93"></path><path d="M 340.49 741.34 C 340.49 750.44 333.12 757.81 324.02 757.81 C 314.92 757.81 307.55 750.44 307.55 741.34 C 307.55 732.24 314.92 724.87 324.02 724.87 C 333.12 724.87 340.49 732.24 340.49 741.34 Z" fill="#93ede7" fill-rule="nonzero" node-id="86" stroke="none" target-height="32.940002" target-width="32.940002" target-x="307.55" target-y="724.87"></path><path d="M 608.01 668.21 C 608.01 686.60 593.10 701.51 574.71 701.51 C 556.32 701.51 541.41 686.60 541.41 668.21 C 541.41 649.82 556.32 634.91 574.71 634.91 C 593.10 634.91 608.01 649.82 608.01 668.21 Z" fill="#d2f0ff" fill-rule="nonzero" node-id="88" stroke="none" target-height="66.60004" target-width="66.60004" target-x="541.41" target-y="634.91"></path><path d="M 634.34 580.43 C 634.34 587.46 628.65 593.15 621.62 593.15 C 614.59 593.15 608.90 587.46 608.90 580.43 C 608.90 573.40 614.59 567.71 621.62 567.71 C 628.65 567.71 634.34 573.40 634.34 580.43 Z" fill="#d2f0ff" fill-rule="nonzero" node-id="90" stroke="none" target-height="25.440002" target-width="25.440002" target-x="608.9" target-y="567.71"></path><path d="M 228.16 454.69 L 176.63 454.69 C 170.00 454.69 164.63 449.32 164.63 442.69 C 164.63 436.06 170.00 430.69 176.63 430.69 L 228.16 430.69 C 234.79 430.69 240.16 436.06 240.16 442.69 C 240.16 449.32 234.79 454.69 228.16 454.69 Z" fill="#523838" fill-rule="nonzero" node-id="92" stroke="none" target-height="24" target-width="75.53" target-x="164.63" target-y="430.69"></path><path d="M 202.40 568.00 L 150.86 568.00 C 144.23 568.00 138.86 562.63 138.86 556.00 C 138.86 549.37 144.23 544.00 150.86 544.00 L 202.40 544.00 C 209.03 544.00 214.40 549.37 214.40 556.00 C 214.40 562.63 209.03 568.00 202.40 568.00 Z" fill="#523838" fill-rule="nonzero" node-id="94" stroke="none" target-height="24" target-width="75.53999" target-x="138.86" target-y="544"></path><path d="M 858.60 472.60 C 858.60 479.23 853.23 484.60 846.60 484.60 C 839.97 484.60 834.60 479.23 834.60 472.60 C 834.60 465.97 839.97 460.60 846.60 460.60 C 853.23 460.60 858.60 465.97 858.60 472.60 Z" fill="#523838" fill-rule="nonzero" node-id="96" stroke="none" target-height="24" target-width="24" target-x="834.6" target-y="460.6"></path><path d="M 808.84 484.60 L 757.30 484.60 C 750.67 484.60 745.30 479.23 745.30 472.60 C 745.30 465.97 750.67 460.60 757.30 460.60 L 808.84 460.60 C 815.47 460.60 820.84 465.97 820.84 472.60 C 820.84 479.23 815.47 484.60 808.84 484.60 Z" fill="#523838" fill-rule="nonzero" node-id="98" stroke="none" target-height="24" target-width="75.54004" target-x="745.3" target-y="460.6"></path><path d="M 830.52 546.77 L 773.59 546.77 C 766.96 546.77 761.59 541.40 761.59 534.77 C 761.59 528.14 766.96 522.77 773.59 522.77 L 830.52 522.77 C 837.15 522.77 842.52 528.14 842.52 534.77 C 842.52 541.40 837.15 546.77 830.52 546.77 Z" fill="#523838" fill-rule="nonzero" node-id="100" stroke="none" target-height="24" target-width="80.92999" target-x="761.59" target-y="522.77"></path><path d="M 879.88 637.00 L 855.12 637.00 C 848.49 637.00 843.12 631.63 843.12 625.00 C 843.12 618.37 848.49 613.00 855.12 613.00 L 879.88 613.00 C 886.51 613.00 891.88 618.37 891.88 625.00 C 891.88 631.63 886.51 637.00 879.88 637.00 Z" fill="#523838" fill-rule="nonzero" node-id="102" stroke="none" target-height="24" target-width="48.76001" target-x="843.12" target-y="613"></path><path d="M 284.25 627.00 L 232.71 627.00 C 226.08 627.00 220.71 621.63 220.71 615.00 C 220.71 608.37 226.08 603.00 232.71 603.00 L 284.25 603.00 C 290.88 603.00 296.25 608.37 296.25 615.00 C 296.25 621.63 290.88 627.00 284.25 627.00 Z" fill="#523838" fill-rule="nonzero" node-id="104" stroke="none" target-height="24" target-width="75.53999" target-x="220.71" target-y="603"></path><path d="M 236.47 681.30 L 184.93 681.30 C 178.30 681.30 172.93 675.93 172.93 669.30 C 172.93 662.67 178.30 657.30 184.93 657.30 L 236.47 657.30 C 243.10 657.30 248.47 662.67 248.47 669.30 C 248.47 675.93 243.10 681.30 236.47 681.30 Z" fill="#523838" fill-rule="nonzero" node-id="106" stroke="none" target-height="24" target-width="75.54001" target-x="172.93" target-y="657.3"></path><path d="M 287.42 738.64 L 251.88 738.64 C 245.25 738.64 239.88 733.27 239.88 726.64 C 239.88 720.01 245.25 714.64 251.88 714.64 L 287.42 714.64 C 294.05 714.64 299.42 720.01 299.42 726.64 C 299.42 733.27 294.05 738.64 287.42 738.64 Z" fill="#523838" fill-rule="nonzero" node-id="108" stroke="none" target-height="24" target-width="59.54001" target-x="239.88" target-y="714.64"></path></svg>