<?xml version="1.0" standalone="no"?><!DOCTYPE svg PUBLIC "-//W3C//DTD SVG 1.1//EN" "http://www.w3.org/Graphics/SVG/1.1/DTD/svg11.dtd"><svg height="1024" legacy-metrics="false" node-id="1" sillyvg="true" template-height="1024" template-width="1024" version="1.1" viewBox="0 0 1024 1024" width="1024" xmlns="http://www.w3.org/2000/svg" xmlns:xlink="http://www.w3.org/1999/xlink"><defs node-id="173"></defs><path d="M 906.09 517.91 C 906.09 622.43 864.57 722.67 790.66 796.57 C 716.76 870.48 616.52 912.00 512.00 912.00 C 407.48 912.00 307.24 870.48 233.34 796.57 C 159.43 722.67 117.91 622.43 117.91 517.91 C 117.91 413.39 159.43 313.15 233.34 239.25 C 307.24 165.34 407.48 123.82 512.00 123.82 C 616.52 123.82 716.76 165.34 790.66 239.25 C 864.57 313.15 906.09 413.39 906.09 517.91 Z" fill="#ffaa50" fill-rule="nonzero" node-id="175" stroke="none" target-height="788.18" target-width="788.18005" target-x="117.91" target-y="123.82"></path><path d="M 512.00 912.00 C 686.06 912.00 833.75 799.15 885.93 642.62 C 684.77 674.23 450.07 510.48 450.07 510.48 C 324.57 556.00 206.00 511.29 122.27 459.20 C 119.37 478.64 117.91 498.26 117.91 517.91 C 117.91 735.56 294.35 912.00 512.00 912.00 Z" fill="#415050" fill-rule="nonzero" node-id="177" stroke="none" target-height="452.8" target-width="768.02" target-x="117.91" target-y="459.2"></path><path d="M 512.00 123.82 C 448.36 123.74 385.65 139.13 329.28 168.68 C 323.41 195.36 320.45 222.60 320.45 249.92 C 320.45 457.53 488.75 625.83 696.36 625.83 C 770.00 625.94 842.03 604.32 903.43 563.67 C 905.19 548.48 906.08 533.20 906.09 517.91 C 906.09 300.26 729.65 123.82 512.00 123.82 Z" fill="#fac855" fill-rule="nonzero" node-id="179" stroke="none" target-height="502.01" target-width="585.64" target-x="320.45" target-y="123.82"></path><path d="M 824.05 470.42 C 862.13 426.09 858.22 359.56 815.20 320.00 C 772.19 280.45 705.55 282.11 664.57 323.77 C 646.86 296.98 614.23 284.22 583.05 291.87 C 551.87 299.53 528.86 325.95 525.57 357.89 C 496.29 356.82 470.61 377.27 465.12 406.05 C 459.62 434.83 475.96 463.31 503.57 473.10 L 569.29 496.40 L 604.81 509.00 L 632.00 518.61 L 694.29 540.70 L 753.51 561.70 C 754.23 561.96 754.97 562.18 755.72 562.36 C 756.43 562.64 757.12 562.98 757.85 563.24 C 782.79 572.10 810.59 563.35 825.96 541.80 C 841.33 520.25 840.56 491.12 824.06 470.42 Z" fill="#ffffff" fill-rule="nonzero" node-id="181" stroke="none" target-height="276.98508" target-width="386.15228" target-x="464.05896" target-y="289.6719"></path><path d="M 730.79 614.10 C 731.70 616.05 732.60 617.99 733.51 619.92 C 732.60 618.00 731.70 616.05 730.79 614.10 Z" fill="#c10a54" fill-rule="nonzero" node-id="183" stroke="none" target-height="5.8200073" target-width="2.7200317" target-x="730.79" target-y="614.1"></path><path d="M 722.00 595.15 C 724.54 600.68 727.09 606.19 729.64 611.68 C 727.11 606.20 724.56 600.69 722.00 595.15 Z" fill="#c10a54" fill-rule="nonzero" node-id="185" stroke="none" target-height="16.529968" target-width="7.6400146" target-x="722" target-y="595.15"></path><path d="M 710.69 570.30 L 712.91 575.20 Z" fill="#c10a54" fill-rule="nonzero" node-id="187" stroke="none" target-height="4.9000244" target-width="2.2199707" target-x="710.69" target-y="570.3"></path><path d="M 718.22 586.87 L 721.22 593.46 Z" fill="#c10a54" fill-rule="nonzero" node-id="189" stroke="none" target-height="6.590027" target-width="3" target-x="718.22" target-y="586.87"></path><path d="M 382.00 298.77 C 382.31 297.69 382.66 296.62 383.00 295.57 C 382.64 296.62 382.29 297.69 382.00 298.77 Z" fill="#c10a54" fill-rule="nonzero" node-id="191" stroke="none" target-height="3.1999817" target-width="1" target-x="382" target-y="295.57"></path><path d="M 734.76 622.59 C 735.59 624.40 736.43 626.20 737.30 628.00 C 736.43 626.20 735.59 624.40 734.76 622.59 Z" fill="#c10a54" fill-rule="nonzero" node-id="193" stroke="none" target-height="5.409973" target-width="2.539978" target-x="734.76" target-y="622.59"></path><path d="M 714.43 578.56 C 715.27 580.39 716.10 582.23 716.94 584.06 C 716.10 582.23 715.27 580.39 714.43 578.56 Z" fill="#c10a54" fill-rule="nonzero" node-id="195" stroke="none" target-height="5.5" target-width="2.5100098" target-x="714.43" target-y="578.56"></path><path d="M 742.64 639.26 L 744.92 644.03 Z" fill="#c10a54" fill-rule="nonzero" node-id="197" stroke="none" target-height="4.7700195" target-width="2.2799683" target-x="742.64" target-y="639.26"></path><path d="M 746.52 647.37 L 748.71 651.91 Z" fill="#c10a54" fill-rule="nonzero" node-id="199" stroke="none" target-height="4.539978" target-width="2.1900024" target-x="746.52" target-y="647.37"></path><path d="M 750.35 655.31 C 751.07 656.79 751.78 658.31 752.50 659.73 C 751.78 658.27 751.07 656.79 750.35 655.31 Z" fill="#c10a54" fill-rule="nonzero" node-id="201" stroke="none" target-height="4.419983" target-width="2.1500244" target-x="750.35" target-y="655.31"></path><path d="M 761.67 678.38 L 763.77 682.60 Z" fill="#c10a54" fill-rule="nonzero" node-id="203" stroke="none" target-height="4.2199707" target-width="2.1000366" target-x="761.67" target-y="678.38"></path><path d="M 649.32 385.14 C 647.64 386.25 645.86 387.21 644.00 388.00 C 645.86 387.21 647.64 386.25 649.32 385.14 Z" fill="#c10a54" fill-rule="nonzero" node-id="205" stroke="none" target-height="2.8599854" target-width="5.3200073" target-x="644" target-y="385.14"></path><path d="M 328.65 372.61 C 329.26 370.97 329.95 369.37 330.71 367.82 C 329.95 369.37 329.26 370.97 328.65 372.61 Z" fill="#c10a54" fill-rule="nonzero" node-id="207" stroke="none" target-height="4.789978" target-width="2.0599976" target-x="328.65" target-y="367.82"></path><path d="M 754.13 663.09 L 756.29 667.49 Z" fill="#c10a54" fill-rule="nonzero" node-id="209" stroke="none" target-height="4.3999634" target-width="2.1599731" target-x="754.13" target-y="663.09"></path><path d="M 738.76 631.07 L 741.13 636.07 Z" fill="#c10a54" fill-rule="nonzero" node-id="211" stroke="none" target-height="5" target-width="2.369995" target-x="738.76" target-y="631.07"></path><path d="M 765.40 685.84 C 766.10 687.24 766.80 688.63 767.50 690.01 C 766.80 688.63 766.10 687.24 765.40 685.84 Z" fill="#c10a54" fill-rule="nonzero" node-id="213" stroke="none" target-height="4.169983" target-width="2.0999756" target-x="765.4" target-y="685.84"></path><path d="M 706.93 562.00 C 707.62 563.54 708.32 565.09 709.02 566.63 C 708.32 565.05 707.62 563.50 706.93 562.00 Z" fill="#c10a54" fill-rule="nonzero" node-id="215" stroke="none" target-height="4.630005" target-width="2.0900269" target-x="706.93" target-y="562"></path><path d="M 667.94 473.23 L 669.32 476.43 Z" fill="#c10a54" fill-rule="nonzero" node-id="217" stroke="none" target-height="3.1999817" target-width="1.3800049" target-x="667.94" target-y="473.23"></path><path d="M 665.00 466.33 L 666.00 468.58 Z" fill="#c10a54" fill-rule="nonzero" node-id="219" stroke="none" target-height="2.25" target-width="1" target-x="665" target-y="466.33"></path><path d="M 609.30 333.00 C 611.89 330.70 614.83 328.83 618.00 327.44 C 614.83 328.83 611.89 330.70 609.30 333.00 Z" fill="#c10a54" fill-rule="nonzero" node-id="221" stroke="none" target-height="5.5599976" target-width="8.700012" target-x="609.3" target-y="327.44"></path><path d="M 477.89 290.00 C 478.56 291.37 479.17 292.78 479.74 294.22 C 479.19 292.78 478.58 291.37 477.89 290.00 Z" fill="#c10a54" fill-rule="nonzero" node-id="223" stroke="none" target-height="4.220001" target-width="1.8499756" target-x="477.89" target-y="290"></path><path d="M 703.20 553.64 C 703.87 555.17 704.55 556.70 705.26 558.23 C 704.57 556.70 703.89 555.17 703.20 553.64 Z" fill="#c10a54" fill-rule="nonzero" node-id="225" stroke="none" target-height="4.589966" target-width="2.0599976" target-x="703.2" target-y="553.64"></path><path d="M 769.08 693.14 L 771.20 697.30 Z" fill="#c10a54" fill-rule="nonzero" node-id="227" stroke="none" target-height="4.159973" target-width="2.119995" target-x="769.08" target-y="693.14"></path><path d="M 647.44 425.10 L 647.71 425.73 Z" fill="#c10a54" fill-rule="nonzero" node-id="229" stroke="none" target-height="0.6300049" target-width="0.27001953" target-x="647.44" target-y="425.1"></path><path d="M 588.00 318.47 L 588.00 318.47 C 592.97 318.47 597.80 320.09 601.76 323.08 C 597.80 320.09 592.97 318.47 588.00 318.47 Z" fill="#c10a54" fill-rule="nonzero" node-id="231" stroke="none" target-height="4.6099854" target-width="13.76001" target-x="588" target-y="318.47"></path><path d="M 662.39 460.30 L 662.63 460.85 Z" fill="#c10a54" fill-rule="nonzero" node-id="233" stroke="none" target-height="0.5500183" target-width="0.23999023" target-x="662.39" target-y="460.3"></path><path d="M 636.32 398.60 C 636.80 399.74 637.27 400.88 637.76 402.04 C 637.27 400.88 636.80 399.74 636.32 398.60 Z" fill="#c10a54" fill-rule="nonzero" node-id="235" stroke="none" target-height="3.4400024" target-width="1.4400024" target-x="636.32" target-y="398.6"></path><path d="M 653.57 381.85 C 653.45 381.97 653.30 382.07 653.17 382.19 C 653.30 382.07 653.45 382.00 653.57 381.85 Z" fill="#c10a54" fill-rule="nonzero" node-id="237" stroke="none" target-height="0.33999634" target-width="0.4000244" target-x="653.17" target-y="381.85"></path><path d="M 644.61 418.38 L 644.82 418.88 Z" fill="#c10a54" fill-rule="nonzero" node-id="239" stroke="none" target-height="0.5" target-width="0.21002197" target-x="644.61" target-y="418.38"></path><path d="M 633.00 390.52 L 635.37 396.21 Z" fill="#c10a54" fill-rule="nonzero" node-id="241" stroke="none" target-height="5.6900024" target-width="2.369995" target-x="633" target-y="390.52"></path><path d="M 639.00 405.10 C 639.36 405.97 639.72 406.84 640.09 407.71 C 639.76 406.84 639.40 406.00 639.00 405.10 Z" fill="#c10a54" fill-rule="nonzero" node-id="243" stroke="none" target-height="2.6099854" target-width="1.0900269" target-x="639" target-y="405.1"></path><path d="M 660.12 373.44 C 659.74 374.14 659.33 374.82 658.89 375.49 C 659.33 374.82 659.74 374.14 660.12 373.44 Z" fill="#c10a54" fill-rule="nonzero" node-id="245" stroke="none" target-height="2.0499878" target-width="1.2299805" target-x="658.89" target-y="373.44"></path><path d="M 671.20 480.80 C 671.70 481.96 672.20 483.12 672.71 484.28 C 672.20 483.12 671.70 482.00 671.20 480.80 Z" fill="#c10a54" fill-rule="nonzero" node-id="247" stroke="none" target-height="3.480011" target-width="1.5100098" target-x="671.2" target-y="480.8"></path><path d="M 695.79 537.00 L 697.79 541.53 Z" fill="#c10a54" fill-rule="nonzero" node-id="249" stroke="none" target-height="4.5300293" target-width="2" target-x="695.79" target-y="537"></path><path d="M 402.86 270.09 C 403.96 269.34 405.11 268.64 406.27 267.97 C 405.11 268.64 404.00 269.34 402.86 270.09 Z" fill="#c10a54" fill-rule="nonzero" node-id="251" stroke="none" target-height="2.119995" target-width="3.4100037" target-x="402.86" target-y="267.97"></path><path d="M 692.17 528.83 C 692.84 530.28 693.48 531.73 694.10 533.20 C 693.45 531.73 692.81 530.28 692.17 528.83 Z" fill="#c10a54" fill-rule="nonzero" node-id="253" stroke="none" target-height="4.369995" target-width="1.9299927" target-x="692.17" target-y="528.83"></path><path d="M 435.69 261.38 L 436.59 261.46 Z" fill="#c10a54" fill-rule="nonzero" node-id="255" stroke="none" target-height="0.07998657" target-width="0.8999939" target-x="435.69" target-y="261.38"></path><path d="M 699.48 545.32 C 700.15 546.82 700.81 548.33 701.48 549.84 C 700.81 548.33 700.15 546.83 699.48 545.32 Z" fill="#c10a54" fill-rule="nonzero" node-id="257" stroke="none" target-height="4.5200195" target-width="2" target-x="699.48" target-y="545.32"></path><path d="M 392.00 279.93 C 393.05 278.67 394.16 277.47 395.31 276.32 C 394.14 277.44 393.04 278.64 392.00 279.93 Z" fill="#c10a54" fill-rule="nonzero" node-id="259" stroke="none" target-height="3.6099854" target-width="3.3099976" target-x="392" target-y="276.32"></path><path d="M 474.44 284.06 C 475.29 285.32 476.09 286.62 476.83 287.96 C 476.09 286.65 475.29 285.35 474.44 284.06 Z" fill="#c10a54" fill-rule="nonzero" node-id="261" stroke="none" target-height="3.899994" target-width="2.3899841" target-x="474.44" target-y="284.06"></path><path d="M 678.00 496.41 L 679.68 500.29 Z" fill="#c10a54" fill-rule="nonzero" node-id="263" stroke="none" target-height="3.880005" target-width="1.6799927" target-x="678" target-y="496.41"></path><path d="M 688.58 520.69 C 689.19 522.07 689.79 523.45 690.40 524.82 C 689.79 523.45 689.19 522.07 688.58 520.69 Z" fill="#c10a54" fill-rule="nonzero" node-id="265" stroke="none" target-height="4.130005" target-width="1.8200073" target-x="688.58" target-y="520.69"></path><path d="M 681.46 504.44 L 683.23 508.49 Z" fill="#c10a54" fill-rule="nonzero" node-id="267" stroke="none" target-height="4.049988" target-width="1.7699585" target-x="681.46" target-y="504.44"></path><path d="M 674.54 488.51 L 676.19 492.33 Z" fill="#c10a54" fill-rule="nonzero" node-id="269" stroke="none" target-height="3.8199768" target-width="1.6500244" target-x="674.54" target-y="488.51"></path><path d="M 447.58 263.73 L 447.90 263.85 Z" fill="#c10a54" fill-rule="nonzero" node-id="271" stroke="none" target-height="0.11999512" target-width="0.32000732" target-x="447.58" target-y="263.73"></path><path d="M 685.00 512.46 L 686.81 516.60 Z" fill="#c10a54" fill-rule="nonzero" node-id="273" stroke="none" target-height="4.1399536" target-width="1.8099976" target-x="685" target-y="512.46"></path><path d="M 757.90 670.77 L 760.03 675.08 Z" fill="#c10a54" fill-rule="nonzero" node-id="275" stroke="none" target-height="4.3099976" target-width="2.130005" target-x="757.9" target-y="670.77"></path><path d="M 813.00 772.21 L 813.00 772.21 L 811.73 770.21 Z" fill="#c10a54" fill-rule="nonzero" node-id="277" stroke="none" target-height="2" target-width="1.2700195" target-x="811.73" target-y="770.21"></path><path d="M 801.87 753.88 L 804.05 757.59 Z" fill="#c10a54" fill-rule="nonzero" node-id="279" stroke="none" target-height="3.710022" target-width="2.1799927" target-x="801.87" target-y="753.88"></path><path d="M 473.13 282.19 C 467.27 274.26 459.27 268.16 450.07 264.62 C 459.27 268.16 467.27 274.26 473.13 282.19 Z" fill="#c10a54" fill-rule="nonzero" node-id="281" stroke="none" target-height="17.570007" target-width="23.059998" target-x="450.07" target-y="264.62"></path><path d="M 798.13 747.41 C 799.02 748.96 799.90 750.50 800.77 752.00 C 799.90 750.50 799.00 749.00 798.13 747.41 Z" fill="#c10a54" fill-rule="nonzero" node-id="283" stroke="none" target-height="4.590027" target-width="2.6400146" target-x="798.13" target-y="747.41"></path><path d="M 794.00 740.16 C 795.15 742.21 796.29 744.23 797.42 746.21 C 796.30 744.23 795.16 742.21 794.00 740.16 Z" fill="#c10a54" fill-rule="nonzero" node-id="285" stroke="none" target-height="6.050049" target-width="3.419983" target-x="794" target-y="740.16"></path><path d="M 805.31 759.69 L 807.31 762.94 Z" fill="#c10a54" fill-rule="nonzero" node-id="287" stroke="none" target-height="3.25" target-width="2" target-x="805.31" target-y="759.69"></path><path d="M 808.60 765.11 C 809.21 766.11 809.82 767.11 810.43 768.11 C 809.82 767.11 809.21 766.11 808.60 765.11 Z" fill="#c10a54" fill-rule="nonzero" node-id="289" stroke="none" target-height="3" target-width="1.8300171" target-x="808.6" target-y="765.11"></path><path d="M 642.00 412.24 L 641.79 411.75 L 641.85 411.89 Z" fill="#c10a54" fill-rule="nonzero" node-id="291" stroke="none" target-height="0.48999023" target-width="0.21002197" target-x="641.79" target-y="411.75"></path><path d="M 662.34 368.57 C 663.83 364.33 664.44 359.83 664.13 355.34 C 663.79 350.21 662.22 345.23 659.56 340.82 C 662.22 345.23 663.79 350.21 664.13 355.34 C 664.44 359.83 663.83 364.33 662.34 368.57 Z" fill="#c10a54" fill-rule="nonzero" node-id="293" stroke="none" target-height="27.75" target-width="4.5706177" target-x="659.56" target-y="340.82"></path><path d="M 656.00 336.00 C 654.68 334.50 653.23 333.11 651.66 331.87 C 653.23 333.11 654.68 334.50 656.00 336.00 Z" fill="#c10a54" fill-rule="nonzero" node-id="295" stroke="none" target-height="4.130005" target-width="4.340027" target-x="651.66" target-y="331.87"></path><path d="M 790.59 734.00 C 791.62 735.88 792.64 737.73 793.67 739.56 C 792.65 737.71 791.62 735.86 790.59 734.00 Z" fill="#c10a54" fill-rule="nonzero" node-id="297" stroke="none" target-height="5.5599976" target-width="3.079956" target-x="790.59" target-y="734"></path><path d="M 780.00 714.28 C 780.72 715.66 781.44 717.01 782.16 718.36 C 781.45 717.00 780.73 715.66 780.00 714.28 Z" fill="#c10a54" fill-rule="nonzero" node-id="299" stroke="none" target-height="4.079956" target-width="2.1599731" target-x="780" target-y="714.28"></path><path d="M 325.54 393.83 C 325.14 387.50 325.91 381.15 327.80 375.09 C 320.68 397.80 330.01 422.43 350.39 434.72 L 350.39 434.72 C 335.93 425.97 326.65 410.70 325.54 393.83 Z" fill="#c10a54" fill-rule="nonzero" node-id="301" stroke="none" target-height="59.630005" target-width="24.930847" target-x="325.45917" target-y="375.09"></path><path d="M 776.41 707.40 C 777.11 708.76 777.81 710.10 778.52 711.40 C 777.81 710.10 777.11 708.76 776.41 707.40 Z" fill="#c10a54" fill-rule="nonzero" node-id="303" stroke="none" target-height="4" target-width="2.1100464" target-x="776.41" target-y="707.4"></path><path d="M 783.58 721.00 L 785.79 725.13 Z" fill="#c10a54" fill-rule="nonzero" node-id="305" stroke="none" target-height="4.130005" target-width="2.209961" target-x="783.58" target-y="721"></path><path d="M 772.76 700.34 C 773.46 701.71 774.17 703.07 774.87 704.43 C 774.17 703.07 773.46 701.71 772.76 700.34 Z" fill="#c10a54" fill-rule="nonzero" node-id="307" stroke="none" target-height="4.089966" target-width="2.1099854" target-x="772.76" target-y="700.34"></path><path d="M 787.11 727.58 L 789.49 731.96 Z" fill="#c10a54" fill-rule="nonzero" node-id="309" stroke="none" target-height="4.380005" target-width="2.380005" target-x="787.11" target-y="727.58"></path><path d="M 435.69 261.38 C 434.20 261.26 432.69 261.20 431.15 261.21 C 422.41 261.30 413.84 263.64 406.27 268.00 C 413.85 263.65 422.41 261.33 431.15 261.24 C 432.68 261.20 434.20 261.26 435.69 261.38 Z" fill="#c10a54" fill-rule="nonzero" node-id="311" stroke="none" target-height="6.7900085" target-width="29.420013" target-x="406.27" target-y="261.21"></path><path d="M 358.67 342.33 C 360.31 341.71 361.98 341.17 363.67 340.71 C 361.98 341.17 360.31 341.71 358.67 342.33 Z" fill="#c10a54" fill-rule="nonzero" node-id="313" stroke="none" target-height="1.6199951" target-width="5" target-x="358.67" target-y="340.71"></path><path d="M 436.59 261.46 C 440.33 261.81 444.02 262.57 447.59 263.73 C 444.02 262.57 440.33 261.81 436.59 261.46 Z" fill="#c10a54" fill-rule="nonzero" node-id="315" stroke="none" target-height="2.2700195" target-width="11" target-x="436.59" target-y="261.46"></path><path d="M 343.22 351.59 C 341.92 352.72 340.69 353.91 339.51 355.15 C 340.69 353.91 341.92 352.72 343.22 351.59 Z" fill="#c10a54" fill-rule="nonzero" node-id="317" stroke="none" target-height="3.5599976" target-width="3.7099915" target-x="339.51" target-y="351.59"></path><path d="M 383.00 295.57 C 383.38 294.51 383.78 293.46 384.23 292.44 C 383.80 293.46 383.40 294.51 383.00 295.57 Z" fill="#c10a54" fill-rule="nonzero" node-id="319" stroke="none" target-height="3.130005" target-width="1.230011" target-x="383" target-y="292.44"></path><path d="M 382.00 298.77 C 380.74 303.10 380.07 307.57 380.00 312.08 C 379.86 320.75 381.93 329.32 386.00 336.98 C 381.93 329.32 379.86 320.75 380.00 312.08 C 380.07 307.57 380.74 303.10 382.00 298.77 Z" fill="#c10a54" fill-rule="nonzero" node-id="321" stroke="none" target-height="38.210022" target-width="6" target-x="380" target-y="298.77"></path><path d="M 351.62 345.65 C 353.88 344.37 356.24 343.26 358.67 342.33 C 356.24 343.26 353.88 344.37 351.62 345.65 Z" fill="#c10a54" fill-rule="nonzero" node-id="323" stroke="none" target-height="3.3200073" target-width="7.0500183" target-x="351.62" target-y="342.33"></path><path d="M 398.93 273.00 C 400.19 271.95 401.50 270.97 402.86 270.06 C 401.50 270.97 400.19 271.95 398.93 273.00 Z" fill="#c10a54" fill-rule="nonzero" node-id="325" stroke="none" target-height="2.9400024" target-width="3.9299927" target-x="398.93" target-y="270.06"></path><path d="M 230.59 242.07 C 245.81 240.55 261.17 241.02 276.27 243.47 C 282.63 244.70 286.82 250.83 285.65 257.21 C 284.48 263.59 278.39 267.83 272.00 266.72 C 271.51 266.63 246.11 262.17 220.41 267.51 C 220.64 272.21 221.22 276.89 222.13 281.51 C 200.11 290.38 186.64 312.78 189.13 336.39 C 191.61 360.01 209.45 379.11 232.84 383.20 C 233.53 383.32 234.21 383.37 234.90 383.46 C 235.59 383.55 236.23 383.80 236.90 383.92 L 292.40 393.65 L 350.79 403.88 L 376.26 408.34 L 409.51 414.17 L 471.14 425.00 C 497.01 429.52 522.31 414.49 530.72 389.61 C 539.12 364.73 528.13 337.44 504.82 325.34 C 516.38 298.94 510.09 268.13 489.11 248.38 C 468.12 228.63 436.99 224.21 411.34 237.34 C 401.53 200.84 371.46 173.34 334.23 166.82 L 333.14 166.66 C 295.10 186.09 260.47 211.55 230.59 242.07 Z" fill="#b9cdd2" fill-rule="nonzero" node-id="327" stroke="none" target-height="259.13693" target-width="344.65698" target-x="188.83801" target-y="166.66"></path><path d="M 330.71 367.82 C 331.48 366.26 332.32 364.75 333.23 363.29 C 332.32 364.75 331.48 366.26 330.71 367.82 Z" fill="#c10a54" fill-rule="nonzero" node-id="329" stroke="none" target-height="4.529999" target-width="2.5200195" target-x="330.71" target-y="363.29"></path><path d="M 447.90 263.85 C 448.63 264.09 449.35 264.35 450.07 264.62 C 449.35 264.35 448.63 264.09 447.90 263.85 Z" fill="#c10a54" fill-rule="nonzero" node-id="331" stroke="none" target-height="0.769989" target-width="2.1700134" target-x="447.9" target-y="263.85"></path><path d="M 334.65 361.14 C 335.63 359.73 336.68 358.38 337.79 357.07 C 336.68 358.36 335.64 359.71 334.65 361.14 Z" fill="#c10a54" fill-rule="nonzero" node-id="333" stroke="none" target-height="4.0700073" target-width="3.1400146" target-x="334.65" target-y="357.07"></path><path d="M 343.22 351.59 C 345.17 349.90 347.23 348.36 349.41 346.98 C 347.23 348.36 345.17 349.90 343.22 351.59 Z" fill="#c10a54" fill-rule="nonzero" node-id="335" stroke="none" target-height="4.6099854" target-width="6.1900024" target-x="343.22" target-y="346.98"></path><path d="M 443.34 318.47 C 443.34 318.47 533.75 316.21 541.92 318.47 C 539.41 305.53 529.44 295.32 516.56 292.52 C 503.68 289.71 490.36 294.83 482.69 305.55 C 482.14 301.67 481.15 297.87 479.74 294.22 C 479.19 292.78 478.57 291.37 477.89 290.00 C 477.55 289.31 477.19 288.63 476.83 288.00 C 476.09 286.67 475.29 285.37 474.44 284.10 C 474.02 283.46 473.58 282.84 473.13 282.23 C 467.27 274.30 459.27 268.20 450.07 264.66 C 449.35 264.39 448.63 264.13 447.90 263.89 L 447.58 263.77 C 444.01 262.61 440.32 261.85 436.58 261.50 L 435.68 261.42 C 434.19 261.30 432.68 261.24 431.14 261.25 C 422.41 261.33 413.85 263.66 406.27 268.00 C 405.11 268.67 403.96 269.37 402.86 270.12 C 401.50 271.03 400.19 272.01 398.93 273.06 C 397.67 274.06 396.46 275.19 395.30 276.35 C 394.14 277.51 393.04 278.70 391.99 279.96 C 388.83 283.74 386.22 287.95 384.25 292.47 C 383.80 293.47 383.40 294.54 383.02 295.60 C 382.64 296.66 382.29 297.72 382.02 298.80 C 380.76 303.13 380.09 307.60 380.02 312.11 C 379.88 320.78 381.95 329.35 386.02 337.01 C 386.58 338.07 387.18 339.11 387.82 340.12 C 384.26 339.37 380.64 339.00 377.00 339.00 C 372.49 339.00 368.00 339.59 363.64 340.75 C 361.94 341.21 360.27 341.75 358.64 342.37 C 356.21 343.30 353.85 344.41 351.59 345.69 C 350.84 346.11 350.10 346.56 349.38 347.02 C 347.20 348.40 345.14 349.94 343.19 351.63 C 341.89 352.76 340.66 353.95 339.48 355.19 C 338.89 355.82 338.32 356.45 337.76 357.11 C 336.65 358.41 335.60 359.77 334.62 361.18 C 334.13 361.88 333.62 362.60 333.20 363.33 C 332.29 364.79 331.45 366.30 330.68 367.86 C 329.91 369.42 329.23 371.02 328.62 372.65 C 328.32 373.47 328.03 374.29 327.77 375.13 C 320.65 397.84 329.98 422.47 350.36 434.76 L 370.17 401.31 L 370.80 400.25 C 473.26 404.02 438.60 415.32 510.17 552.43 C 517.16 565.70 523.31 579.39 528.57 593.43 C 569.64 704.29 515.57 764.92 420.57 784.43 C 362.77 796.32 331.07 830.29 314.18 858.79 C 423.98 922.43 557.69 929.38 673.50 877.48 C 615.90 801.88 597.14 638.13 572.17 510.58 C 537.51 333.53 443.34 318.47 443.34 318.47 Z" fill="#c10a54" fill-rule="nonzero" node-id="337" stroke="none" target-height="650.74036" target-width="359.32" target-x="314.18" target-y="261.25"></path><path d="M 277.73 834.82 L 315.52 699.46 C 277.05 707.72 305.04 581.36 346.25 528.28 C 367.00 501.54 373.00 469.21 373.45 442.00 C 372.32 441.93 371.18 441.85 370.03 441.69 C 364.18 440.90 358.52 439.10 353.29 436.37 L 353.08 436.27 C 352.16 435.79 351.28 435.27 350.39 434.71 L 177.60 726.48 C 203.90 768.54 237.87 805.29 277.73 834.82 Z" fill="#596c70" fill-rule="nonzero" node-id="339" stroke="none" target-height="400.11002" target-width="195.85" target-x="177.6" target-y="434.71"></path><path d="M 350.39 434.72 C 351.28 435.25 352.16 435.80 353.08 436.28 C 352.16 435.80 351.28 435.28 350.39 434.72 Z" fill="#596c70" fill-rule="nonzero" node-id="341" stroke="none" target-height="1.5599976" target-width="2.689972" target-x="350.39" target-y="434.72"></path><path d="M 370.00 441.70 C 364.15 440.91 358.49 439.11 353.26 436.38 C 358.49 439.11 364.15 440.91 370.00 441.70 C 371.15 441.86 372.29 441.94 373.42 442.01 L 373.42 442.01 C 372.32 441.94 371.18 441.86 370.00 441.70 Z" fill="#596c70" fill-rule="nonzero" node-id="343" stroke="none" target-height="5.630005" target-width="20.160004" target-x="353.26" target-y="436.38"></path><path d="M 353.29 436.38 L 353.08 436.28 Z" fill="#596c70" fill-rule="nonzero" node-id="345" stroke="none" target-height="0.1000061" target-width="0.21002197" target-x="353.08" target-y="436.28"></path><path d="M 420.55 784.43 C 515.65 764.87 569.67 704.24 528.60 593.43 C 510.69 585.85 486.60 579.00 455.87 576.93 C 394.37 572.78 398.48 634.51 334.95 688.24 C 327.16 694.83 320.74 698.39 315.52 699.51 L 277.73 834.82 C 289.42 843.48 301.58 851.50 314.16 858.82 C 331.05 830.29 362.75 796.32 420.55 784.43 Z" fill="#596c70" fill-rule="nonzero" node-id="347" stroke="none" target-height="282.08167" target-width="264.76572" target-x="277.73" target-y="576.73834"></path><path d="M 373.45 442.00 C 373.62 428.35 372.54 414.71 370.20 401.26 L 350.39 434.71 C 351.28 435.24 352.16 435.79 353.08 436.27 L 353.29 436.37 C 358.51 439.10 364.16 440.91 370.00 441.70 C 371.18 441.86 372.32 441.94 373.45 442.00 Z" fill="#596c70" fill-rule="nonzero" node-id="349" stroke="none" target-height="40.73999" target-width="23.059998" target-x="350.39" target-y="401.26"></path><path d="M 379.00 442.14 C 377.14 442.20 375.28 442.15 373.42 442.01 C 373.00 469.21 366.99 501.54 346.22 528.28 C 305.01 581.36 277.02 707.72 315.49 699.46 L 387.61 441.08 C 384.77 441.67 381.89 442.02 379.00 442.14 Z" fill="#738c96" fill-rule="nonzero" node-id="351" stroke="none" target-height="258.75168" target-width="90.40851" target-x="297.20148" target-y="441.08"></path><path d="M 379.00 442.14 C 377.14 442.20 375.28 442.15 373.42 442.01 L 373.42 442.01 C 375.28 442.15 377.14 442.20 379.00 442.14 Z" fill="#738c96" fill-rule="nonzero" node-id="353" stroke="none" target-height="0.13000488" target-width="5.5799866" target-x="373.42" target-y="442.01"></path><path d="M 387.64 441.08 C 384.80 441.67 381.92 442.02 379.03 442.14 C 381.92 442.02 384.80 441.67 387.64 441.08 Z" fill="#738c96" fill-rule="nonzero" node-id="355" stroke="none" target-height="1.0600281" target-width="8.610016" target-x="379.03" target-y="441.08"></path><path d="M 455.87 576.88 C 486.64 578.95 510.69 585.80 528.60 593.38 C 523.34 579.34 517.19 565.65 510.20 552.38 C 438.63 415.28 473.29 404.00 370.83 400.21 L 370.20 401.27 C 372.53 414.72 373.62 428.35 373.45 442.00 C 375.31 442.14 377.17 442.19 379.03 442.13 C 381.92 442.01 384.80 441.66 387.64 441.07 L 315.52 699.46 C 320.74 698.34 327.16 694.78 334.95 688.19 C 398.48 634.46 394.37 572.73 455.87 576.88 Z" fill="#738c96" fill-rule="nonzero" node-id="357" stroke="none" target-height="299.25003" target-width="213.07999" target-x="315.52" target-y="400.21"></path><path d="M 722.69 851.00 C 724.69 849.73 726.69 848.44 728.69 847.13 C 707.16 824.83 688.19 800.19 672.15 773.67 C 601.63 658.00 586.93 519.00 584.47 445.91 C 583.51 417.54 604.75 393.30 633.00 390.52 L 584.65 395.31 C 584.65 395.31 559.39 702.42 722.69 851.00 Z" fill="#d82e3d" fill-rule="nonzero" node-id="359" stroke="none" target-height="460.48" target-width="145.44238" target-x="583.2476" target-y="390.52"></path><path d="M 662.34 368.57 C 661.74 370.25 660.99 371.88 660.12 373.44 C 660.99 371.88 661.74 370.25 662.34 368.57 Z" fill="#d82e3d" fill-rule="nonzero" node-id="361" stroke="none" target-height="4.869995" target-width="2.2200317" target-x="660.12" target-y="368.57"></path><path d="M 653.17 382.19 C 651.96 383.26 650.67 384.25 649.32 385.14 C 650.67 384.25 651.96 383.26 653.17 382.19 Z" fill="#d82e3d" fill-rule="nonzero" node-id="363" stroke="none" target-height="2.9500122" target-width="3.8499756" target-x="649.32" target-y="382.19"></path><path d="M 618.00 327.46 C 622.38 325.52 627.12 324.56 631.91 324.65 C 627.12 324.56 622.38 325.52 618.00 327.46 Z" fill="#d82e3d" fill-rule="nonzero" node-id="365" stroke="none" target-height="2.8099976" target-width="13.909973" target-x="618" target-y="324.65"></path><path d="M 639.56 389.51 C 637.40 390.07 635.18 390.40 632.95 390.51 C 635.18 390.40 637.40 390.07 639.56 389.51 Z" fill="#d82e3d" fill-rule="nonzero" node-id="367" stroke="none" target-height="1" target-width="6.6099854" target-x="632.95" target-y="389.51"></path><path d="M 638.10 325.38 C 643.06 326.46 647.70 328.66 651.67 331.83 C 647.70 328.66 643.06 326.46 638.10 325.38 Z" fill="#d82e3d" fill-rule="nonzero" node-id="369" stroke="none" target-height="6.4499817" target-width="13.570007" target-x="638.1" target-y="325.38"></path><path d="M 644.00 388.00 C 642.57 388.61 641.11 389.12 639.61 389.52 C 641.11 389.12 642.57 388.61 644.00 388.00 Z" fill="#d82e3d" fill-rule="nonzero" node-id="371" stroke="none" target-height="1.519989" target-width="4.3900146" target-x="639.61" target-y="388"></path><path d="M 609.19 332.74 C 609.19 332.83 609.26 332.93 609.30 333.02 C 609.30 332.93 609.23 332.83 609.19 332.74 C 607.63 328.91 605.06 325.57 601.75 323.08 C 605.06 325.57 607.63 328.91 609.19 332.74 Z" fill="#d82e3d" fill-rule="nonzero" node-id="373" stroke="none" target-height="9.940002" target-width="7.549988" target-x="601.75" target-y="323.08"></path><path d="M 658.89 375.49 C 657.39 377.82 655.60 379.96 653.57 381.85 C 655.60 379.96 657.39 377.82 658.89 375.49 Z" fill="#d82e3d" fill-rule="nonzero" node-id="375" stroke="none" target-height="6.360016" target-width="5.3200073" target-x="653.57" target-y="375.49"></path><path d="M 584.60 395.31 L 633.00 390.52 C 636.79 390.35 640.52 389.50 644.00 388.00 C 647.37 386.59 650.49 384.63 653.22 382.20 C 653.35 382.08 653.50 381.98 653.62 381.86 C 655.65 379.97 657.44 377.83 658.94 375.50 C 659.38 374.83 659.79 374.15 660.17 373.45 C 661.04 371.89 661.79 370.26 662.39 368.58 C 663.88 364.34 664.49 359.84 664.18 355.35 C 663.84 350.22 662.27 345.24 659.61 340.83 C 654.88 332.95 647.12 327.37 638.15 325.39 C 636.11 324.95 634.04 324.70 631.96 324.66 C 623.63 324.52 615.55 327.49 609.30 333.00 C 609.30 332.91 609.23 332.81 609.19 332.72 C 605.67 324.11 597.30 318.48 588.00 318.47 L 541.92 318.47 C 533.75 316.21 443.34 318.47 443.34 318.47 C 443.34 318.47 537.51 333.53 572.17 510.58 C 597.17 638.13 615.90 801.88 673.50 877.48 C 690.50 869.83 706.94 860.98 722.69 851.00 C 559.39 702.42 584.60 395.31 584.60 395.31 Z" fill="#d82e3d" fill-rule="nonzero" node-id="377" stroke="none" target-height="560.0032" target-width="279.35" target-x="443.34" target-y="317.47684"></path><path d="M 760.00 675.08 C 760.55 676.19 761.09 677.29 761.64 678.38 C 761.12 677.29 760.58 676.19 760.00 675.08 Z" fill="#738c96" fill-rule="nonzero" node-id="379" stroke="none" target-height="3.2999878" target-width="1.6400146" target-x="760" target-y="675.08"></path><path d="M 763.77 682.60 L 765.40 685.84 Z" fill="#738c96" fill-rule="nonzero" node-id="381" stroke="none" target-height="3.2400513" target-width="1.6300049" target-x="763.77" target-y="682.6"></path><path d="M 767.50 690.00 L 769.08 693.13 Z" fill="#738c96" fill-rule="nonzero" node-id="383" stroke="none" target-height="3.130005" target-width="1.5800171" target-x="767.5" target-y="690"></path><path d="M 756.29 667.49 C 756.82 668.59 757.36 669.68 757.90 670.77 C 757.36 669.68 756.82 668.59 756.29 667.49 Z" fill="#738c96" fill-rule="nonzero" node-id="385" stroke="none" target-height="3.2800293" target-width="1.6100464" target-x="756.29" target-y="667.49"></path><path d="M 771.20 697.30 L 772.76 700.30 Z" fill="#738c96" fill-rule="nonzero" node-id="387" stroke="none" target-height="3" target-width="1.5599976" target-x="771.2" target-y="697.3"></path><path d="M 744.92 644.00 C 745.45 645.11 745.99 646.22 746.52 647.34 C 746.00 646.25 745.45 645.14 744.92 644.00 Z" fill="#738c96" fill-rule="nonzero" node-id="389" stroke="none" target-height="3.3400269" target-width="1.6000366" target-x="744.92" target-y="644"></path><path d="M 737.30 628.00 C 737.79 629.00 738.30 630.00 738.76 631.07 C 738.27 630.00 737.79 629.00 737.30 628.00 Z" fill="#738c96" fill-rule="nonzero" node-id="391" stroke="none" target-height="3.0700073" target-width="1.460022" target-x="737.3" target-y="628"></path><path d="M 741.13 636.08 L 742.64 639.26 Z" fill="#738c96" fill-rule="nonzero" node-id="393" stroke="none" target-height="3.1799927" target-width="1.5100098" target-x="741.13" target-y="636.08"></path><path d="M 752.50 659.73 C 753.04 660.86 753.59 661.97 754.13 663.09 C 753.59 662.00 753.00 660.86 752.50 659.73 Z" fill="#738c96" fill-rule="nonzero" node-id="395" stroke="none" target-height="3.3600464" target-width="1.6300049" target-x="752.5" target-y="659.73"></path><path d="M 774.87 704.43 C 775.38 705.43 775.87 706.43 776.41 707.43 C 775.89 706.42 775.38 705.42 774.87 704.43 Z" fill="#738c96" fill-rule="nonzero" node-id="397" stroke="none" target-height="3" target-width="1.539978" target-x="774.87" target-y="704.43"></path><path d="M 748.71 651.91 C 749.25 653.05 749.80 654.18 750.35 655.31 C 749.80 654.18 749.25 653.05 748.71 651.91 Z" fill="#738c96" fill-rule="nonzero" node-id="399" stroke="none" target-height="3.4000244" target-width="1.6399536" target-x="748.71" target-y="651.91"></path><path d="M 789.49 732.00 C 789.86 732.67 790.22 733.35 790.59 734.00 C 790.22 733.31 789.86 732.63 789.49 732.00 Z" fill="#738c96" fill-rule="nonzero" node-id="401" stroke="none" target-height="2" target-width="1.1000366" target-x="789.49" target-y="732"></path><path d="M 800.77 752.00 L 801.87 753.88 Z" fill="#738c96" fill-rule="nonzero" node-id="403" stroke="none" target-height="1.8800049" target-width="1.0999756" target-x="800.77" target-y="752"></path><path d="M 797.44 746.21 C 797.67 746.62 797.90 747.01 798.13 747.41 C 797.90 747.00 797.67 746.62 797.44 746.21 Z" fill="#738c96" fill-rule="nonzero" node-id="405" stroke="none" target-height="1.1999512" target-width="0.69000244" target-x="797.44" target-y="746.21"></path><path d="M 804.05 757.59 L 805.31 759.69 Z" fill="#738c96" fill-rule="nonzero" node-id="407" stroke="none" target-height="2.0999756" target-width="1.2600098" target-x="804.05" target-y="757.59"></path><path d="M 807.26 762.94 L 808.60 765.11 Z" fill="#738c96" fill-rule="nonzero" node-id="409" stroke="none" target-height="2.169983" target-width="1.3399658" target-x="807.26" target-y="762.94"></path><path d="M 810.43 768.08 C 810.88 768.80 811.33 769.50 811.77 770.22 C 811.33 769.50 810.88 768.80 810.43 768.08 Z" fill="#738c96" fill-rule="nonzero" node-id="411" stroke="none" target-height="2.1399536" target-width="1.3400269" target-x="810.43" target-y="768.08"></path><path d="M 733.51 619.92 L 734.76 622.59 Z" fill="#738c96" fill-rule="nonzero" node-id="413" stroke="none" target-height="2.670044" target-width="1.25" target-x="733.51" target-y="619.92"></path><path d="M 793.67 739.53 C 793.79 739.73 793.91 739.95 794.02 740.16 C 793.91 740.00 793.79 739.74 793.67 739.53 Z" fill="#738c96" fill-rule="nonzero" node-id="415" stroke="none" target-height="0.62994385" target-width="0.35003662" target-x="793.67" target-y="739.53"></path><path d="M 782.17 718.36 L 783.58 721.02 Z" fill="#738c96" fill-rule="nonzero" node-id="417" stroke="none" target-height="2.6600342" target-width="1.4100342" target-x="782.17" target-y="718.36"></path><path d="M 785.79 725.15 L 787.11 727.58 Z" fill="#738c96" fill-rule="nonzero" node-id="419" stroke="none" target-height="2.4299927" target-width="1.3200073" target-x="785.79" target-y="725.15"></path><path d="M 778.52 711.44 C 779.01 712.39 779.52 713.35 780.01 714.28 C 779.51 713.35 779.00 712.39 778.52 711.44 Z" fill="#738c96" fill-rule="nonzero" node-id="421" stroke="none" target-height="2.8400269" target-width="1.4899902" target-x="778.52" target-y="711.44"></path><path d="M 683.23 508.49 L 684.97 512.49 Z" fill="#738c96" fill-rule="nonzero" node-id="423" stroke="none" target-height="4" target-width="1.7399902" target-x="683.23" target-y="508.49"></path><path d="M 686.78 516.60 L 688.58 520.69 Z" fill="#738c96" fill-rule="nonzero" node-id="425" stroke="none" target-height="4.090027" target-width="1.7999878" target-x="686.78" target-y="516.6"></path><path d="M 665.94 468.58 L 667.94 473.23 Z" fill="#738c96" fill-rule="nonzero" node-id="427" stroke="none" target-height="4.6500244" target-width="2" target-x="665.94" target-y="468.58"></path><path d="M 672.71 484.28 C 673.31 485.69 673.93 487.10 674.54 488.51 C 673.93 487.10 673.31 485.68 672.71 484.28 Z" fill="#738c96" fill-rule="nonzero" node-id="429" stroke="none" target-height="4.230011" target-width="1.829956" target-x="672.71" target-y="484.28"></path><path d="M 679.65 500.29 C 680.25 501.67 680.86 503.05 681.46 504.44 C 680.86 503.05 680.25 501.67 679.65 500.29 Z" fill="#738c96" fill-rule="nonzero" node-id="431" stroke="none" target-height="4.149994" target-width="1.8099976" target-x="679.65" target-y="500.29"></path><path d="M 676.19 492.33 C 676.78 493.69 677.37 495.05 677.97 496.41 C 677.37 495.05 676.78 493.69 676.19 492.33 Z" fill="#738c96" fill-rule="nonzero" node-id="433" stroke="none" target-height="4.080017" target-width="1.7799683" target-x="676.19" target-y="492.33"></path><path d="M 669.32 476.43 L 671.20 480.80 Z" fill="#738c96" fill-rule="nonzero" node-id="435" stroke="none" target-height="4.369995" target-width="1.8800049" target-x="669.32" target-y="476.43"></path><path d="M 662.63 460.85 C 663.41 462.67 664.19 464.50 664.98 466.33 C 664.19 464.50 663.41 462.68 662.63 460.85 Z" fill="#738c96" fill-rule="nonzero" node-id="437" stroke="none" target-height="5.4799805" target-width="2.3499756" target-x="662.63" target-y="460.85"></path><path d="M 644.82 418.88 C 645.68 420.93 646.56 423.00 647.44 425.10 C 646.56 423.00 645.68 420.93 644.82 418.88 Z" fill="#738c96" fill-rule="nonzero" node-id="439" stroke="none" target-height="6.220001" target-width="2.619995" target-x="644.82" target-y="418.88"></path><path d="M 642.00 412.24 L 644.58 418.38 Z" fill="#738c96" fill-rule="nonzero" node-id="441" stroke="none" target-height="6.1400146" target-width="2.580017" target-x="642" target-y="412.24"></path><path d="M 647.71 425.73 C 652.36 436.73 657.27 448.32 662.39 460.30 C 657.27 448.32 652.36 436.75 647.71 425.73 Z" fill="#738c96" fill-rule="nonzero" node-id="443" stroke="none" target-height="34.569977" target-width="14.679993" target-x="647.71" target-y="425.73"></path><path d="M 690.40 524.82 L 692.17 528.82 Z" fill="#738c96" fill-rule="nonzero" node-id="445" stroke="none" target-height="4" target-width="1.7699585" target-x="690.4" target-y="524.82"></path><path d="M 709.00 566.59 L 710.67 570.30 Z" fill="#738c96" fill-rule="nonzero" node-id="447" stroke="none" target-height="3.709961" target-width="1.6699829" target-x="709" target-y="566.59"></path><path d="M 712.91 575.20 C 713.42 576.32 713.91 577.44 714.43 578.56 C 713.93 577.44 713.42 576.32 712.91 575.20 Z" fill="#738c96" fill-rule="nonzero" node-id="449" stroke="none" target-height="3.3599854" target-width="1.5200195" target-x="712.91" target-y="575.2"></path><path d="M 721.24 593.46 L 722.02 595.15 Z" fill="#738c96" fill-rule="nonzero" node-id="451" stroke="none" target-height="1.6900024" target-width="0.7800293" target-x="721.24" target-y="593.46"></path><path d="M 716.94 584.06 C 717.37 584.99 717.79 585.93 718.22 586.87 C 717.79 585.93 717.37 585.00 716.94 584.06 Z" fill="#738c96" fill-rule="nonzero" node-id="453" stroke="none" target-height="2.8099976" target-width="1.2799683" target-x="716.94" target-y="584.06"></path><path d="M 705.26 558.23 C 705.81 559.47 706.37 560.72 706.93 561.96 C 706.37 560.72 705.81 559.47 705.26 558.23 Z" fill="#738c96" fill-rule="nonzero" node-id="455" stroke="none" target-height="3.7300415" target-width="1.6699829" target-x="705.26" target-y="558.23"></path><path d="M 701.50 549.84 L 703.20 553.64 Z" fill="#738c96" fill-rule="nonzero" node-id="457" stroke="none" target-height="3.7999878" target-width="1.7000122" target-x="701.5" target-y="549.84"></path><path d="M 694.10 533.20 C 694.66 534.47 695.22 535.74 695.79 537.01 C 695.22 535.74 694.66 534.47 694.10 533.20 Z" fill="#738c96" fill-rule="nonzero" node-id="459" stroke="none" target-height="3.8099976" target-width="1.6900024" target-x="694.1" target-y="533.2"></path><path d="M 697.80 541.54 L 699.48 545.32 Z" fill="#738c96" fill-rule="nonzero" node-id="461" stroke="none" target-height="3.7800293" target-width="1.6799927" target-x="697.8" target-y="541.54"></path><path d="M 729.66 611.68 C 730.04 612.49 730.41 613.30 730.79 614.10 C 730.41 613.30 730.00 612.49 729.66 611.68 Z" fill="#738c96" fill-rule="nonzero" node-id="463" stroke="none" target-height="2.419983" target-width="1.1300049" target-x="729.66" target-y="611.68"></path><path d="M 810.43 768.08 C 809.82 767.08 809.21 766.08 808.60 765.08 L 807.26 762.91 L 805.26 759.66 L 804.00 757.56 L 801.82 753.85 L 800.72 751.97 C 799.85 750.47 798.97 748.97 798.08 747.38 C 797.85 746.98 797.62 746.59 797.39 746.18 C 796.26 744.18 795.12 742.16 793.97 740.13 C 793.86 739.92 793.74 739.70 793.62 739.50 C 792.60 737.67 791.57 735.82 790.54 733.94 C 790.17 733.28 789.81 732.60 789.44 731.94 L 787.06 727.56 L 785.74 725.13 L 783.58 721.00 L 782.17 718.34 C 781.45 716.99 780.73 715.64 780.01 714.26 C 779.51 713.33 779.01 712.37 778.52 711.42 C 777.81 710.08 777.11 708.74 776.41 707.42 C 775.89 706.42 775.41 705.42 774.87 704.42 C 774.17 703.06 773.46 701.70 772.76 700.33 L 771.20 697.33 L 769.08 693.17 L 767.50 690.00 C 766.80 688.62 766.10 687.23 765.40 685.83 L 763.77 682.59 L 761.67 678.37 C 761.12 677.28 760.58 676.18 760.03 675.07 L 757.90 670.76 C 757.36 669.67 756.82 668.58 756.29 667.48 L 754.13 663.08 C 753.59 661.96 753.04 660.85 752.50 659.72 C 751.78 658.26 751.07 656.78 750.35 655.30 C 749.80 654.17 749.25 653.04 748.71 651.90 L 746.52 647.36 C 745.99 646.24 745.45 645.13 744.92 644.02 L 742.64 639.25 L 741.13 636.07 L 738.76 631.07 C 738.27 630.07 737.76 629.02 737.30 628.00 C 736.46 626.20 735.61 624.40 734.76 622.59 L 733.51 619.92 C 732.60 617.99 731.70 616.05 730.79 614.10 C 730.41 613.30 730.04 612.49 729.66 611.68 C 727.11 606.20 724.57 600.69 722.02 595.15 L 721.24 593.46 L 718.24 586.87 C 717.81 585.93 717.39 584.99 716.96 584.06 C 716.12 582.23 715.29 580.39 714.45 578.56 C 713.95 577.44 713.45 576.32 712.93 575.20 L 710.71 570.30 L 709.00 566.59 C 708.30 565.05 707.60 563.50 706.91 561.96 C 706.35 560.72 705.79 559.47 705.24 558.23 C 704.57 556.70 703.89 555.17 703.18 553.64 L 701.48 549.84 C 700.81 548.33 700.15 546.83 699.48 545.32 L 697.80 541.54 L 695.80 537.01 C 695.23 535.74 694.67 534.47 694.11 533.20 C 693.44 531.74 692.80 530.28 692.18 528.83 L 690.41 524.83 C 689.80 523.46 689.20 522.08 688.59 520.70 L 686.79 516.61 L 685.00 512.46 L 683.26 508.46 L 681.49 504.41 C 680.89 503.02 680.28 501.64 679.68 500.26 L 678.00 496.41 C 677.40 495.05 676.81 493.69 676.22 492.33 L 674.57 488.51 C 673.96 487.10 673.34 485.69 672.74 484.28 C 672.23 483.12 671.74 481.96 671.23 480.80 L 669.35 476.43 L 667.97 473.23 L 665.97 468.58 L 664.97 466.33 C 664.18 464.50 663.40 462.68 662.62 460.85 L 662.38 460.30 C 657.26 448.30 652.38 436.75 647.70 425.73 L 647.43 425.10 C 646.55 423.00 645.67 420.93 644.81 418.88 L 644.60 418.38 L 642.00 412.24 L 641.85 411.89 C 633.79 423.26 630.08 445.06 636.55 484.59 C 652.15 579.89 691.64 720.34 677.65 763.89 C 693.53 792.36 712.28 819.14 733.59 843.81 C 763.18 823.64 789.89 799.56 813.00 772.21 L 811.74 770.21 C 811.33 769.50 810.88 768.80 810.43 768.08 Z" fill="#738c96" fill-rule="nonzero" node-id="465" stroke="none" target-height="431.91998" target-width="179.74261" target-x="633.2574" target-y="411.89"></path><path d="M 672.11 773.66 C 688.15 800.18 707.12 824.82 728.65 847.12 C 730.31 846.03 731.98 844.93 733.65 843.81 C 712.34 819.14 693.59 792.36 677.71 763.89 C 676.34 768.08 674.51 771.39 672.11 773.66 Z" fill="#738c96" fill-rule="nonzero" node-id="467" stroke="none" target-height="83.22998" target-width="61.54004" target-x="672.11" target-y="763.89"></path><path d="M 640.13 407.71 L 641.82 411.71 Z" fill="#596c70" fill-rule="nonzero" node-id="469" stroke="none" target-height="4" target-width="1.6900024" target-x="640.13" target-y="407.71"></path><path d="M 637.76 402.00 C 638.18 403.00 638.61 404.00 639.04 405.06 C 638.61 404.08 638.18 403.06 637.76 402.00 Z" fill="#596c70" fill-rule="nonzero" node-id="471" stroke="none" target-height="3.0599976" target-width="1.2799683" target-x="637.76" target-y="402"></path><path d="M 635.32 396.21 C 635.65 397.00 635.99 397.80 636.32 398.60 C 636.00 397.80 635.65 397.00 635.32 396.21 Z" fill="#596c70" fill-rule="nonzero" node-id="473" stroke="none" target-height="2.3900146" target-width="1" target-x="635.32" target-y="396.21"></path><path d="M 677.68 763.89 C 691.68 720.34 652.18 579.89 636.58 484.59 C 630.11 445.06 633.82 423.26 641.88 411.89 L 641.82 411.75 L 640.13 407.75 C 639.76 406.88 639.40 406.01 639.04 405.14 C 638.61 404.14 638.18 403.14 637.76 402.08 C 637.34 401.02 636.76 399.78 636.32 398.64 C 635.99 397.84 635.65 397.04 635.32 396.25 L 633.00 390.52 L 612.00 440.23 C 612.00 440.23 589.24 605.51 677.68 763.89 Z" fill="#596c70" fill-rule="nonzero" node-id="475" stroke="none" target-height="373.37003" target-width="71.20776" target-x="609.3747" target-y="390.52"></path><path d="M 584.47 445.91 C 586.93 519.00 601.63 658.00 672.11 773.66 C 674.51 771.39 676.34 768.08 677.68 763.89 C 589.24 605.51 612.00 440.23 612.00 440.23 L 633.00 390.52 C 604.75 393.30 583.51 417.54 584.47 445.91 Z" fill="#596c70" fill-rule="nonzero" node-id="477" stroke="none" target-height="383.13998" target-width="93.21002" target-x="584.47" target-y="390.52"></path><path d="M 253.18 497.08 L 209.44 471.83 C 200.11 466.43 195.29 454.01 198.75 444.23 L 205.70 424.58 L 175.15 436.58 C 164.22 440.89 160.60 455.90 167.45 468.48 L 190.39 510.53 C 196.72 522.14 209.47 526.94 218.70 521.18 L 255.55 498.18 C 254.73 497.87 253.94 497.50 253.18 497.08 Z" fill="#596c70" fill-rule="nonzero" node-id="479" stroke="none" target-height="99.004974" target-width="91.576004" target-x="163.974" target-y="424.58"></path><path d="M 265.54 461.22 L 243.38 428.80 C 237.38 419.96 227.38 416.05 219.16 419.29 L 205.70 424.58 L 198.75 444.23 C 195.29 454.01 200.11 466.43 209.44 471.83 L 253.18 497.08 C 253.94 497.52 254.73 497.90 255.55 498.23 L 261.93 494.23 C 271.74 488.14 273.42 472.76 265.54 461.22 Z" fill="#738c96" fill-rule="nonzero" node-id="481" stroke="none" target-height="80.06796" target-width="72.892075" target-x="197.62343" target-y="418.16205"></path><path d="M 799.17 151.17 L 753.67 173.08 C 743.95 177.76 730.97 174.74 724.84 166.38 L 712.52 149.57 L 705.26 181.57 C 702.66 193.03 713.02 204.48 727.26 205.89 L 774.92 210.63 C 788.08 211.93 799.22 204.10 799.67 193.23 L 801.43 149.83 C 800.71 150.33 799.96 150.78 799.17 151.17 Z" fill="#596c70" fill-rule="nonzero" node-id="483" stroke="none" target-height="61.1503" target-width="96.5509" target-x="704.8791" target-y="149.57"></path><path d="M 776.50 120.76 L 737.22 120.76 C 726.51 120.76 717.68 126.76 715.72 135.42 L 712.52 149.52 L 724.84 166.33 C 730.97 174.69 743.95 177.71 753.67 173.03 L 799.17 151.12 C 799.96 150.74 800.72 150.30 801.45 149.80 L 801.76 142.30 C 802.23 130.79 790.47 120.74 776.50 120.76 Z" fill="#738c96" fill-rule="nonzero" node-id="485" stroke="none" target-height="54.47074" target-width="89.23999" target-x="712.52" target-y="120.76"></path><path d="M 512.00 273.00 C 505.47 273.00 500.18 267.71 500.18 261.18 L 500.18 210.00 C 500.18 203.47 505.47 198.18 512.00 198.18 C 518.53 198.18 523.82 203.47 523.82 210.00 L 523.82 261.23 C 523.79 267.74 518.51 273.00 512.00 273.00 Z" fill="#d82e3d" fill-rule="nonzero" node-id="487" stroke="none" target-height="74.82001" target-width="23.640015" target-x="500.18" target-y="198.18"></path><path d="M 512.00 179.45 C 505.47 179.44 500.18 174.15 500.18 167.62 L 500.18 146.62 C 500.18 140.09 505.47 134.80 512.00 134.80 C 518.53 134.80 523.82 140.09 523.82 146.62 L 523.82 167.62 C 523.82 174.15 518.53 179.44 512.00 179.45 Z" fill="#d82e3d" fill-rule="nonzero" node-id="489" stroke="none" target-height="44.649994" target-width="23.640015" target-x="500.18" target-y="134.8"></path><path d="M 588.00 280.85 C 582.28 280.84 577.39 276.75 576.38 271.12 C 576.08 269.45 569.19 229.80 584.70 203.36 C 588.01 197.73 595.27 195.85 600.90 199.16 C 606.53 202.47 608.41 209.73 605.10 215.36 C 595.92 231.01 598.10 257.93 599.66 266.98 C 600.80 273.41 596.52 279.54 590.09 280.69 C 589.40 280.80 588.70 280.86 588.00 280.85 Z" fill="#d82e3d" fill-rule="nonzero" node-id="491" stroke="none" target-height="83.325714" target-width="32.12439" target-x="574.61127" target-y="197.52429"></path><path d="M 613.65 185.66 C 612.21 185.66 610.79 185.40 609.45 184.88 C 603.36 182.56 600.30 175.75 602.60 169.66 C 603.41 167.52 622.91 117.31 667.96 112.08 C 674.45 111.33 680.31 115.98 681.07 122.47 C 681.82 128.95 677.17 134.82 670.68 135.57 C 640.01 139.13 624.85 177.67 624.68 178.06 C 622.93 182.63 618.54 185.65 613.65 185.66 Z" fill="#d82e3d" fill-rule="nonzero" node-id="493" stroke="none" target-height="73.62863" target-width="79.2818" target-x="601.83185" target-y="112.03137"></path><path d="M 659.46 294.00 L 649.32 288.00 L 639.08 282.09 C 639.84 280.78 658.25 249.96 709.49 251.96 C 716.01 252.24 721.08 257.75 720.80 264.27 C 720.52 270.79 715.01 275.86 708.49 275.58 C 672.31 274.10 660.00 293.21 659.46 294.00 Z" fill="#d82e3d" fill-rule="nonzero" node-id="495" stroke="none" target-height="42.060486" target-width="81.71997" target-x="639.08" target-y="251.93951"></path><path d="M 835.71 280.17 C 833.43 280.17 831.20 279.51 829.29 278.27 C 798.29 258.19 750.61 266.63 750.13 266.72 C 743.71 267.91 737.54 263.67 736.35 257.25 C 735.16 250.83 739.40 244.66 745.82 243.47 C 748.14 243.04 803.17 233.17 842.15 258.47 C 846.55 261.32 848.54 266.72 847.06 271.75 C 845.57 276.77 840.95 280.22 835.71 280.21 Z" fill="#d82e3d" fill-rule="nonzero" node-id="497" stroke="none" target-height="38.96364" target-width="111.35779" target-x="736.1542" target-y="241.24635"></path><path d="M 434.12 280.85 C 433.42 280.85 432.71 280.79 432.02 280.67 C 425.62 279.52 421.35 273.41 422.47 267.00 L 422.47 267.00 C 424.07 257.95 426.21 231.00 417.03 215.38 C 413.72 209.75 415.59 202.50 421.23 199.19 C 426.86 195.87 434.11 197.75 437.42 203.38 C 452.94 229.82 446.05 269.47 445.74 271.14 C 444.72 276.76 439.83 280.85 434.12 280.85 Z" fill="#d82e3d" fill-rule="nonzero" node-id="499" stroke="none" target-height="83.30144" target-width="32.12274" target-x="415.39352" target-y="197.54857"></path><path d="M 362.63 294.00 C 362.13 293.18 349.77 274.00 313.55 275.51 C 309.31 275.72 305.28 273.63 303.00 270.05 C 300.72 266.47 300.54 261.93 302.52 258.18 C 304.51 254.42 308.35 252.02 312.60 251.89 C 363.84 249.89 382.26 280.70 383.02 282.02 L 362.54 293.84 Z" fill="#d82e3d" fill-rule="nonzero" node-id="501" stroke="none" target-height="42.130585" target-width="81.85864" target-x="301.16135" target-y="251.86942"></path><path d="M 397.40 178.06 C 399.72 184.16 406.55 187.23 412.65 184.91 C 418.75 182.59 421.82 175.76 419.50 169.66 C 415.05 158.77 408.95 148.62 401.42 139.58 C 393.00 142.03 384.70 144.74 376.53 147.73 C 390.38 160.26 397.30 177.80 397.40 178.06 Z" fill="#d82e3d" fill-rule="nonzero" node-id="503" stroke="none" target-height="46.10756" target-width="43.74756" target-x="376.53" target-y="139.58"></path><path d="M 220.79 252.40 C 214.79 258.95 209.04 265.70 203.54 272.65 C 208.97 270.40 214.61 268.68 220.37 267.51 C 220.11 262.47 220.25 257.42 220.79 252.40 Z" fill="#d82e3d" fill-rule="nonzero" node-id="505" stroke="none" target-height="20.25" target-width="17.25" target-x="203.54" target-y="252.4"></path><path d="M 272.00 266.72 C 278.42 267.91 284.59 263.67 285.78 257.25 C 286.97 250.83 282.73 244.66 276.31 243.47 C 261.21 241.02 245.85 240.55 230.63 242.07 C 227.30 245.46 224.03 248.89 220.83 252.40 C 220.29 257.42 220.15 262.47 220.41 267.51 C 246.07 262.17 271.47 266.63 272.00 266.72 Z" fill="#d82e3d" fill-rule="nonzero" node-id="507" stroke="none" target-height="26.308685" target-width="65.6543" target-x="220.32144" target-y="241.20132"></path></svg>