<?xml version="1.0" standalone="no"?><!DOCTYPE svg PUBLIC "-//W3C//DTD SVG 1.1//EN" "http://www.w3.org/Graphics/SVG/1.1/DTD/svg11.dtd"><svg height="1024" legacy-metrics="false" node-id="1" sillyvg="true" template-height="1024" template-width="1024" version="1.1" viewBox="0 0 1024 1024" width="1024" xmlns="http://www.w3.org/2000/svg" xmlns:xlink="http://www.w3.org/1999/xlink"><defs node-id="25"></defs><path d="M 921.69 512.00 C 921.69 618.09 879.55 719.83 804.53 794.84 C 729.52 869.86 627.78 912.00 521.69 912.00 C 415.60 912.00 313.86 869.86 238.85 794.84 C 163.83 719.83 121.69 618.09 121.69 512.00 C 121.69 405.91 163.83 304.17 238.85 229.16 C 313.86 154.14 415.60 112.00 521.69 112.00 C 627.78 112.00 729.52 154.14 804.53 229.16 C 879.55 304.17 921.69 405.91 921.69 512.00 Z" fill="#fac855" fill-rule="nonzero" node-id="27" stroke="none" target-height="800" target-width="800" target-x="121.69" target-y="112"></path><path d="M 521.69 112.00 C 457.09 111.91 393.44 127.54 336.23 157.53 C 330.25 184.61 327.24 212.26 327.23 239.99 C 327.23 450.71 498.05 621.53 708.78 621.53 C 783.53 621.65 856.66 599.71 919.00 558.45 C 920.79 543.03 921.69 527.52 921.70 512.00 C 921.69 291.09 742.60 112.00 521.69 112.00 Z" fill="#e4936b" fill-rule="nonzero" node-id="29" stroke="none" target-height="509.53003" target-width="594.47" target-x="327.23" target-y="112"></path><path d="M 627.20 724.59 C 639.85 730.50 703.86 726.22 860.46 724.93 L 860.67 724.59 Z" fill="#fac855" fill-rule="nonzero" node-id="31" stroke="none" target-height="3.0443115" target-width="233.46997" target-x="627.2" target-y="724.59"></path><path d="M 540.00 911.57 C 462.05 863.41 414.61 778.30 414.66 686.67 C 414.66 540.67 533.03 422.28 679.04 422.28 C 783.88 422.28 874.47 483.28 917.22 571.77 C 926.23 511.68 921.52 450.32 903.45 392.31 C 839.02 343.05 760.14 316.41 679.04 316.53 C 474.62 316.53 308.90 482.24 308.90 686.67 C 308.80 754.60 327.49 821.24 362.90 879.21 C 413.02 900.90 467.07 912.06 521.69 912.00 C 527.84 912.00 533.94 911.84 540.00 911.57 Z" fill="#ecbe6b" fill-rule="nonzero" node-id="33" stroke="none" target-height="595.47" target-width="612.7693" target-x="308.9" target-y="316.53"></path><path d="M 679.06 422.28 C 533.06 422.28 414.68 540.65 414.68 686.67 C 414.63 778.30 462.05 863.41 540.00 911.57 C 732.32 902.89 889.25 758.43 917.22 571.77 C 874.49 483.30 783.90 422.28 679.06 422.28 Z M 679.06 844.04 C 615.40 844.04 558.02 805.69 533.66 746.88 C 509.30 688.07 522.77 620.38 567.78 575.37 C 612.79 530.36 680.49 516.90 739.29 541.26 C 798.10 565.63 836.44 623.01 836.44 686.67 C 836.42 773.57 765.96 844.01 679.06 844.00 Z" fill="#f4dd45" fill-rule="nonzero" node-id="35" stroke="none" target-height="489.29" target-width="502.53998" target-x="414.68" target-y="422.28"></path><path d="M 790.34 575.39 L 796.35 581.75 L 801.89 588.27 L 807.00 594.98 L 811.68 601.87 L 815.95 608.95 L 819.86 616.30 L 823.35 623.74 L 826.42 631.29 L 829.07 638.96 L 831.32 646.75 L 833.16 654.67 L 834.60 662.61 L 835.62 670.58 L 836.23 678.60 L 836.44 686.67 L 836.23 694.74 L 835.62 702.76 L 834.60 710.73 L 833.16 718.67 L 831.32 726.59 L 829.07 734.38 L 826.42 742.05 L 823.35 749.60 L 819.86 757.05 L 815.95 764.39 L 811.68 771.47 L 807.00 778.36 L 801.89 785.07 L 796.35 791.59 L 790.34 797.95 L 783.99 803.95 L 777.46 809.50 L 770.76 814.61 L 763.87 819.29 L 756.79 823.56 L 749.44 827.47 L 742.00 830.95 L 734.45 834.02 L 726.78 836.67 L 718.99 838.92 L 711.07 840.77 L 703.13 842.20 L 695.15 843.22 L 687.14 843.84 L 679.07 844.04 L 671.00 843.84 L 662.98 843.22 L 655.01 842.20 L 647.06 840.77 L 639.15 838.92 L 631.35 836.67 L 623.69 834.02 L 616.14 830.95 L 608.69 827.47 L 601.35 823.56 L 594.26 819.29 L 587.38 814.61 L 580.67 809.50 L 574.14 803.95 L 567.79 797.95 L 561.79 791.59 L 556.24 785.07 L 551.13 778.36 L 546.45 771.47 L 542.18 764.39 L 538.27 757.05 L 534.78 749.60 L 531.72 742.05 L 529.06 734.38 L 526.82 726.59 L 524.97 718.67 L 523.54 710.73 L 522.52 702.76 L 521.90 694.74 L 521.70 686.67 L 521.90 678.60 L 522.52 670.58 L 523.54 662.61 L 524.97 654.67 L 526.82 646.75 L 529.06 638.96 L 531.72 631.29 L 534.78 623.74 L 538.27 616.30 L 542.18 608.95 L 546.45 601.87 L 551.13 594.98 L 556.24 588.27 L 561.79 581.75 L 567.79 575.39 L 574.14 569.39 L 580.67 563.85 L 587.38 558.74 L 594.26 554.05 L 601.35 549.79 L 608.69 545.87 L 616.14 542.39 L 623.69 539.32 L 631.35 536.67 L 639.15 534.42 L 647.06 532.57 L 655.01 531.14 L 662.98 530.12 L 671.00 529.51 L 679.07 529.30 L 687.14 529.51 L 695.15 530.12 L 703.13 531.14 L 711.07 532.57 L 718.99 534.42 L 726.78 536.67 L 734.45 539.32 L 742.00 542.39 L 749.44 545.87 L 756.79 549.79 L 763.87 554.05 L 770.76 558.74 L 777.46 563.85 L 783.99 569.39 L 790.34 575.39 Z" fill="#f9ef63" fill-rule="nonzero" node-id="37" stroke-linecap="butt" stroke-width="0.99999994" target-height="314.74" target-width="314.74" target-x="521.6969" target-y="529.301"></path><path d="M 714.24 725.31 L 183.41 725.31 C 256.60 841.59 384.41 912.10 521.81 912.00 C 664.30 912.00 789.34 837.48 860.19 725.31 Z" fill="#c10a54" fill-rule="nonzero" node-id="39" stroke="none" target-height="186.69" target-width="676.78" target-x="183.41" target-y="725.31"></path><path d="M 860.19 725.31 L 487.00 725.31 C 527.03 802.72 599.23 858.47 684.25 877.61 C 756.64 845.32 817.86 792.33 860.19 725.31 Z" fill="#d82e3d" fill-rule="nonzero" node-id="41" stroke="none" target-height="152.29999" target-width="373.19" target-x="487" target-y="725.31"></path><path d="M 244.79 205.14 C 244.76 177.06 250.19 149.24 260.79 123.24 C 169.36 148.83 102.31 232.76 102.31 332.35 C 102.31 452.27 199.53 549.49 319.45 549.49 C 410.39 549.49 488.26 493.57 520.59 414.26 C 501.49 419.59 481.76 422.28 461.93 422.26 C 342.00 422.28 244.79 325.07 244.79 205.14 Z" fill="#d82e3d" fill-rule="nonzero" node-id="43" stroke="none" target-height="426.25" target-width="418.28003" target-x="102.31" target-y="123.24"></path><path d="M 319.45 115.21 C 299.62 115.19 279.89 117.88 260.79 123.21 C 250.19 149.21 244.76 177.03 244.79 205.11 C 244.79 325.04 342.01 422.25 461.93 422.25 C 481.76 422.27 501.49 419.58 520.59 414.25 C 531.18 388.24 536.62 360.42 536.59 332.34 C 536.58 212.43 439.37 115.21 319.45 115.21 Z" fill="#dd542e" fill-rule="nonzero" node-id="45" stroke="none" target-height="307.04" target-width="291.80005" target-x="244.79" target-y="115.21"></path><path d="M 419.36 355.67 L 419.36 355.67 C 418.92 391.57 389.69 420.44 353.79 420.44 C 317.88 420.44 288.65 391.57 288.21 355.67 L 260.11 355.67 C 259.76 389.37 277.54 420.66 306.67 437.61 C 335.79 454.56 371.78 454.56 400.90 437.61 C 430.03 420.66 447.81 389.37 447.46 355.67 L 419.36 355.67 Z" fill="#664545" fill-rule="nonzero" node-id="47" stroke="none" target-height="94.64786" target-width="187.35" target-x="260.11" target-y="355.67"></path><path d="M 504.71 395.94 L 504.71 395.94 L 473.12 408.47 C 499.27 482.21 466.94 562.20 399.00 589.15 C 331.06 616.10 252.69 580.00 221.19 508.39 L 189.48 521.00 L 189.48 521.00 C 224.50 607.28 322.54 649.18 409.09 614.85 C 495.65 580.53 538.34 482.83 504.71 396.00 Z" fill="#664545" fill-rule="nonzero" node-id="49" stroke="none" target-height="230.89185" target-width="326.71283" target-x="189.48" target-y="395.94"></path><path d="M 596.73 266.53 C 596.73 345.67 532.58 409.82 453.44 409.82 C 374.30 409.82 310.15 345.67 310.15 266.53 C 310.15 187.39 374.30 123.24 453.44 123.24 C 532.58 123.24 596.73 187.39 596.73 266.53 Z" fill="#e27d47" fill-rule="nonzero" node-id="51" stroke="none" target-height="286.58002" target-width="286.58" target-x="310.15" target-y="123.24"></path><path d="M 328.30 318.99 C 328.30 365.11 290.91 402.50 244.79 402.50 C 198.67 402.50 161.28 365.11 161.28 318.99 C 161.28 272.87 198.67 235.48 244.79 235.48 C 290.91 235.48 328.30 272.87 328.30 318.99 Z" fill="#e27d47" fill-rule="nonzero" node-id="53" stroke="none" target-height="167.02" target-width="167.01999" target-x="161.28" target-y="235.48"></path><path d="M 588.73 417.91 C 588.73 464.03 551.34 501.42 505.22 501.42 C 459.10 501.42 421.71 464.03 421.71 417.91 C 421.71 371.79 459.10 334.40 505.22 334.40 C 551.34 334.40 588.73 371.79 588.73 417.91 Z" fill="#e29375" fill-rule="nonzero" node-id="55" stroke="none" target-height="167.02002" target-width="167.01999" target-x="421.71" target-y="334.4"></path><path d="M 373.21 724.59 L 423.61 724.59 L 423.61 752.04 L 373.21 752.04 Z" fill="#664545" fill-rule="nonzero" node-id="57" stroke="none" target-height="27.449951" target-width="50.399994" target-x="373.21" target-y="724.59"></path><path d="M 283.41 501.42 C 283.41 547.54 246.02 584.93 199.90 584.93 C 153.78 584.93 116.39 547.54 116.39 501.42 C 116.39 455.30 153.78 417.91 199.90 417.91 C 246.02 417.91 283.41 455.30 283.41 501.42 Z" fill="#e27d47" fill-rule="nonzero" node-id="59" stroke="none" target-height="167.01999" target-width="167.02" target-x="116.39" target-y="417.91"></path><path d="M 183.41 725.31 C 219.39 782.25 269.11 829.23 328.00 861.94 L 328.00 725.31 Z" fill="#c10a54" fill-rule="nonzero" node-id="61" stroke="none" target-height="136.63" target-width="144.59" target-x="183.41" target-y="725.31"></path><path d="M 367.32 432.54 L 367.32 432.21 L 328.00 432.21 L 328.00 861.94 C 333.09 864.76 338.25 867.48 343.48 870.09 C 351.28 873.98 359.22 877.62 367.30 881.03 C 370.54 882.39 373.80 883.69 377.08 884.96 L 377.08 432.54 Z" fill="#664545" fill-rule="nonzero" node-id="63" stroke="none" target-height="452.75003" target-width="49.079987" target-x="328" target-y="432.21"></path></svg>