<?xml version="1.0" standalone="no"?><!DOCTYPE svg PUBLIC "-//W3C//DTD SVG 1.1//EN" "http://www.w3.org/Graphics/SVG/1.1/DTD/svg11.dtd"><svg height="1024" legacy-metrics="false" node-id="1" sillyvg="true" template-height="1024" template-width="1024" version="1.1" viewBox="0 0 1024 1024" width="1024" xmlns="http://www.w3.org/2000/svg" xmlns:xlink="http://www.w3.org/1999/xlink"><defs node-id="19"></defs><path d="M 923.24 512.00 C 923.24 618.09 881.10 719.83 806.08 794.84 C 731.07 869.86 629.33 912.00 523.24 912.00 C 417.15 912.00 315.41 869.86 240.40 794.84 C 165.38 719.83 123.24 618.09 123.24 512.00 C 123.24 405.91 165.38 304.17 240.40 229.16 C 315.41 154.14 417.15 112.00 523.24 112.00 C 629.33 112.00 731.07 154.14 806.08 229.16 C 881.10 304.17 923.24 405.91 923.24 512.00 Z" fill="#e490b7" fill-rule="nonzero" node-id="21" stroke="none" target-height="800" target-width="800" target-x="123.24" target-y="112"></path><path d="M 523.24 112.00 C 458.64 111.91 394.99 127.54 337.78 157.53 C 331.80 184.61 328.79 212.26 328.78 239.99 C 328.78 450.71 499.60 621.53 710.32 621.53 C 785.06 621.64 858.17 599.70 920.50 558.45 C 922.29 543.03 923.19 527.52 923.20 512.00 C 923.24 291.09 744.15 112.00 523.24 112.00 Z" fill="#eab1b7" fill-rule="nonzero" node-id="23" stroke="none" target-height="509.53003" target-width="594.42004" target-x="328.78" target-y="112"></path><path d="M 389.57 279.00 C 406.37 235.34 385.58 186.22 342.54 167.90 C 299.50 149.57 249.67 168.63 229.85 211.00 C 211.41 197.10 186.70 194.83 166.04 205.13 C 145.37 215.43 132.31 236.53 132.31 259.62 C 132.31 264.42 132.88 269.21 134.00 273.88 C 111.61 280.92 97.71 303.25 101.27 326.45 C 104.84 349.65 124.80 366.77 148.27 366.77 L 360.73 366.77 C 361.35 366.77 361.96 366.77 362.57 366.67 C 363.18 366.57 363.79 366.77 364.42 366.77 C 385.60 366.75 404.21 352.71 410.04 332.35 C 415.88 311.99 407.53 290.23 389.57 279.00 Z" fill="#ffdcd7" fill-rule="nonzero" node-id="25" stroke="none" target-height="205.8221" target-width="311.089" target-x="100.740105" target-y="160.94789"></path><path d="M 395.63 343.16 C 395.63 332.96 396.35 322.77 397.76 312.66 C 348.65 354.04 320.34 415.00 320.40 479.21 C 320.40 599.61 418.01 697.21 538.40 697.21 C 648.45 697.21 739.40 615.67 754.27 509.72 C 714.97 543.00 665.13 561.23 613.63 561.16 C 493.23 561.16 395.63 463.56 395.63 343.16 Z" fill="#f4dd45" fill-rule="nonzero" node-id="27" stroke="none" target-height="384.55002" target-width="433.87003" target-x="320.4" target-y="312.66"></path><path d="M 538.40 261.21 C 486.90 261.14 437.06 279.37 397.76 312.66 C 396.35 322.77 395.63 332.96 395.63 343.16 C 395.63 463.56 493.23 561.16 613.63 561.16 C 665.13 561.23 714.97 543.00 754.27 509.72 C 755.68 499.61 756.40 489.42 756.40 479.21 C 756.40 358.81 658.80 261.21 538.40 261.21 Z" fill="#f9ef63" fill-rule="nonzero" node-id="29" stroke="none" target-height="299.94998" target-width="360.77002" target-x="395.63" target-y="261.21"></path><path d="M 832.66 476.85 C 849.18 433.28 828.37 384.44 785.50 366.17 C 742.64 347.90 692.99 366.71 673.00 408.80 C 654.56 394.90 629.85 392.63 609.19 402.93 C 588.52 413.23 575.46 434.33 575.46 457.42 C 575.46 462.26 576.04 467.08 577.18 471.79 C 554.81 478.84 540.92 501.16 544.49 524.35 C 548.05 547.54 567.99 564.66 591.45 564.67 L 803.82 564.67 C 804.45 564.67 805.06 564.67 805.67 564.58 C 806.28 564.49 806.89 564.67 807.51 564.67 C 828.72 564.69 847.37 550.64 853.21 530.25 C 859.05 509.86 850.67 488.06 832.66 476.85 Z" fill="#ffffff" fill-rule="nonzero" node-id="31" stroke="none" target-height="205.46262" target-width="311.04614" target-x="543.95166" target-y="359.20737"></path><path d="M 284.94 743.42 C 296.80 733.42 309.07 723.08 333.16 723.08 C 357.25 723.08 369.52 733.42 381.38 743.42 C 393.38 753.54 405.82 764.01 430.30 764.01 C 452.11 764.01 464.35 755.70 475.30 746.72 C 446.73 717.33 425.33 681.74 412.77 642.72 C 399.13 639.15 390.16 631.63 381.42 624.27 C 369.56 614.27 357.29 603.93 333.20 603.93 C 309.11 603.93 296.84 614.27 284.98 624.27 C 273.12 634.27 260.51 644.83 236.00 644.83 C 211.49 644.83 199.09 634.36 187.08 624.24 C 175.07 614.12 163.00 603.90 138.89 603.90 L 138.89 623.11 C 153.02 672.03 176.40 717.79 207.75 757.92 C 215.25 761.57 224.23 764.01 236.03 764.01 C 260.51 764.00 272.93 753.54 284.94 743.42 Z" fill="#00aff4" fill-rule="nonzero" node-id="33" stroke="none" target-height="160.10999" target-width="336.40997" target-x="138.89" target-y="603.9"></path><path d="M 475.26 746.72 C 464.35 755.72 452.11 764.01 430.26 764.01 C 405.78 764.01 393.36 753.54 381.34 743.42 C 369.48 733.42 357.21 723.08 333.12 723.08 C 309.03 723.08 296.76 733.42 284.90 743.42 C 273.04 753.42 260.51 764.00 236.00 764.00 C 224.20 764.00 215.22 761.56 207.72 757.91 C 281.00 851.69 395.05 912.00 523.24 912.00 C 642.47 912.00 749.49 859.79 822.77 777.00 C 715.50 854.66 567.47 841.75 475.26 746.69 Z" fill="#70c6da" fill-rule="nonzero" node-id="35" stroke="none" target-height="188.91998" target-width="615.05005" target-x="207.72" target-y="723.08"></path><path d="M 479.22 743.42 C 491.08 733.42 503.35 723.08 527.44 723.08 C 551.53 723.08 563.79 733.42 575.66 743.42 C 587.53 753.42 600.09 764.00 624.58 764.00 C 649.07 764.00 661.48 753.53 673.49 743.41 C 685.50 733.29 697.63 723.07 721.71 723.07 C 745.79 723.07 758.07 733.41 769.94 743.41 C 781.81 753.41 794.37 764.00 818.85 764.00 C 824.40 764.04 829.94 763.42 835.34 762.15 C 872.56 715.85 898.95 661.82 912.59 604.00 C 890.74 604.94 879.06 614.74 867.77 624.25 C 855.77 634.37 843.34 644.84 818.85 644.84 C 794.36 644.84 781.95 634.37 769.94 624.25 C 757.93 614.13 745.80 603.90 721.71 603.90 C 697.62 603.90 685.36 614.24 673.49 624.24 C 661.62 634.24 649.06 644.83 624.58 644.83 C 600.10 644.83 587.67 634.36 575.66 624.24 C 563.65 614.12 551.53 603.90 527.44 603.90 C 503.35 603.90 491.08 614.24 479.22 624.24 C 467.22 634.36 454.78 644.83 430.30 644.83 C 424.38 644.88 418.47 644.16 412.73 642.69 C 425.29 681.71 446.69 717.30 475.26 746.69 Z" fill="#05cdff" fill-rule="nonzero" node-id="37" stroke="none" target-height="160.09998" target-width="499.86002" target-x="412.73" target-y="603.9"></path><path d="M 818.85 764.00 C 794.37 764.00 781.95 753.53 769.94 743.41 C 757.93 733.29 745.80 723.07 721.71 723.07 C 697.62 723.07 685.36 733.41 673.49 743.41 C 661.62 753.41 649.06 764.00 624.58 764.00 C 600.10 764.00 587.67 753.53 575.66 743.41 C 563.65 733.29 551.53 723.07 527.44 723.07 C 503.35 723.07 491.08 733.41 479.22 743.41 L 475.22 746.71 C 567.44 841.78 715.49 854.69 822.77 777.00 C 827.07 772.14 831.28 767.19 835.34 762.13 C 829.94 763.41 824.40 764.03 818.85 764.00 Z" fill="#00aff4" fill-rule="nonzero" node-id="39" stroke="none" target-height="104.558716" target-width="360.12003" target-x="475.22" target-y="723.07"></path><path d="M 463.82 816.67 C 460.39 810.59 456.48 804.28 451.95 797.67 C 447.42 791.06 442.95 785.17 438.48 779.79 C 411.42 747.13 385.66 735.04 360.63 723.32 C 331.63 709.74 301.69 695.71 269.91 649.48 C 238.13 603.25 235.76 570.24 233.46 538.33 C 231.46 510.76 229.46 482.33 208.61 445.42 C 205.19 439.33 201.27 433.02 196.74 426.42 C 192.21 419.82 187.74 413.92 183.27 408.54 C 172.86 395.77 160.74 384.48 147.27 374.99 C 132.54 415.46 124.47 458.04 123.35 501.09 C 124.01 502.02 124.66 502.94 125.35 503.90 C 129.88 510.48 133.80 516.79 137.22 522.90 C 158.03 559.90 160.09 588.24 162.07 615.81 C 164.36 647.73 166.73 680.73 198.52 726.96 C 230.31 773.19 260.26 787.23 289.24 800.80 C 314.24 812.52 340.03 824.61 367.08 857.27 C 371.54 862.65 376.08 868.57 380.56 875.16 C 383.84 879.93 386.79 884.55 389.47 889.05 C 421.50 900.41 454.86 907.61 488.72 910.49 L 488.66 909.58 C 486.68 882.00 484.63 853.63 463.82 816.67 Z" fill="#664545" fill-rule="nonzero" node-id="41" stroke="none" target-height="535.5" target-width="365.37" target-x="123.35" target-y="374.99"></path><path d="M 389.48 889.06 C 386.80 884.56 383.85 879.94 380.57 875.17 C 376.04 868.58 371.57 862.66 367.09 857.28 C 340.09 824.62 314.28 812.53 289.25 800.81 C 260.25 787.24 230.30 773.20 198.53 726.97 C 166.76 680.74 164.37 647.74 162.08 615.82 C 160.08 588.25 158.08 559.82 137.23 522.91 C 133.81 516.82 129.89 510.51 125.36 503.91 C 124.70 502.91 124.05 502.03 123.36 501.10 C 123.26 504.72 123.21 508.34 123.21 511.98 C 123.24 686.00 234.35 834.00 389.48 889.06 Z" fill="#523838" fill-rule="nonzero" node-id="43" stroke="none" target-height="387.96" target-width="266.27002" target-x="123.21" target-y="501.1"></path><path d="M 922.90 527.82 C 915.90 531.50 909.01 534.75 902.15 537.96 C 877.15 549.68 851.36 561.77 824.30 594.43 C 819.85 599.81 815.36 605.73 810.83 612.31 C 806.30 618.89 802.39 625.21 798.96 631.31 C 778.15 668.31 776.09 696.65 774.11 724.22 C 771.82 756.14 769.44 789.14 737.66 835.38 C 731.13 844.97 723.89 854.06 716.00 862.56 C 835.19 796.88 917.28 672.17 922.90 527.82 Z" fill="#664545" fill-rule="nonzero" node-id="45" stroke="none" target-height="334.74" target-width="206.90002" target-x="716" target-y="527.82"></path></svg>