<?xml version="1.0" standalone="no"?><!DOCTYPE svg PUBLIC "-//W3C//DTD SVG 1.1//EN" "http://www.w3.org/Graphics/SVG/1.1/DTD/svg11.dtd"><svg height="1024" legacy-metrics="false" node-id="1" sillyvg="true" template-height="1024" template-width="1024" version="1.1" viewBox="0 0 1024 1024" width="1024" xmlns="http://www.w3.org/2000/svg" xmlns:xlink="http://www.w3.org/1999/xlink"><defs node-id="30"></defs><path d="M 512.00 123.00 C 294.12 123.00 117.50 299.62 117.50 517.50 C 117.50 735.38 294.12 912.00 512.00 912.00 C 729.88 912.00 906.50 735.38 906.50 517.50 C 906.50 299.62 729.88 123.00 512.00 123.00 Z M 439.47 429.48 C 494.70 429.48 547.95 427.48 603.18 431.48 C 548.00 427.50 494.70 429.48 439.47 429.48 Z" fill="#93ede7" fill-rule="nonzero" node-id="32" stroke="none" target-height="789" target-width="789" target-x="117.5" target-y="123"></path><path d="M 512.00 123.00 C 448.29 122.91 385.51 138.32 329.09 167.91 C 323.21 194.62 320.24 221.88 320.25 249.23 C 320.25 457.05 488.73 625.53 696.55 625.53 C 770.26 625.64 842.37 604.00 903.84 563.31 C 905.61 548.10 906.49 532.81 906.50 517.50 C 906.50 299.62 729.88 123.00 512.00 123.00 Z M 439.47 429.48 C 494.70 429.48 547.95 427.48 603.18 431.48 C 548.00 427.50 494.70 429.48 439.47 429.48 Z" fill="#c1f8f4" fill-rule="nonzero" node-id="34" stroke="none" target-height="502.53003" target-width="586.25" target-x="320.25" target-y="123"></path><path d="M 709.49 365.00 C 723.35 330.05 706.81 290.42 672.22 275.69 C 637.63 260.95 597.60 276.48 582.00 310.69 C 565.60 298.33 543.20 297.61 526.05 308.90 C 508.89 320.19 500.69 341.05 505.56 361.00 C 487.68 366.61 476.57 384.43 479.42 402.96 C 482.26 421.48 498.20 435.15 516.94 435.14 L 686.48 435.14 C 686.99 435.12 687.50 435.07 688.00 435.00 C 688.49 435.00 689.00 435.08 689.47 435.08 C 706.38 435.06 721.24 423.85 725.89 407.58 C 730.53 391.32 723.84 373.95 709.49 365.00 Z" fill="#ffffff" fill-rule="nonzero" node-id="36" stroke="none" target-height="165.00534" target-width="248.31134" target-x="478.99567" target-y="270.13467"></path><path d="M 198.52 341.28 C 198.52 341.28 545.00 439.09 613.38 398.68 L 613.38 501.79 L 277.38 525.19 Z" fill="#5ea55c" fill-rule="nonzero" node-id="38" stroke="none" target-height="183.91" target-width="414.86" target-x="198.52" target-y="341.28"></path><path d="M 852.54 318.27 C 758.67 323.34 647.04 369.67 557.69 429.38 C 572.76 429.73 587.90 430.38 603.18 431.45 C 587.90 430.36 572.76 429.73 557.69 429.38 C 522.62 452.81 490.98 478.31 465.20 504.19 C 422.82 546.71 396.26 590.24 396.26 627.31 C 396.26 660.04 407.48 691.31 427.31 719.83 C 477.84 792.52 584.31 847.27 703.48 862.46 C 824.56 795.11 906.48 665.88 906.48 517.46 C 906.58 447.44 887.96 378.67 852.54 318.27 Z" fill="#8bc852" fill-rule="nonzero" node-id="40" stroke="none" target-height="544.19006" target-width="510.21997" target-x="396.26" target-y="318.27"></path><path d="M 123.10 583.92 C 128.33 614.77 137.23 644.89 149.62 673.62 C 210.11 813.84 349.58 912.00 512.00 912.00 C 674.42 912.00 813.89 813.84 874.38 673.62 C 886.77 644.89 895.67 614.77 900.90 583.92 Z" fill="#f4dd45" fill-rule="nonzero" node-id="42" stroke="none" target-height="328.08002" target-width="777.80005" target-x="123.1" target-y="583.92"></path><path d="M 874.38 673.62 C 886.77 644.89 895.67 614.77 900.90 583.92 L 897.34 583.92 L 757.34 826.41 C 808.33 785.88 848.53 733.40 874.38 673.62 Z" fill="#ecbe6b" fill-rule="nonzero" node-id="44" stroke="none" target-height="242.48999" target-width="143.56" target-x="757.34" target-y="583.92"></path><path d="M 384.89 206.34 C 398.57 171.44 382.02 131.99 347.54 117.29 C 313.06 102.59 273.14 117.96 257.43 152.00 C 241.03 139.67 218.65 138.98 201.51 150.25 C 184.38 161.53 176.17 182.36 181.00 202.30 C 163.13 207.92 152.05 225.74 154.89 244.25 C 157.73 262.76 173.66 276.43 192.39 276.43 L 361.87 276.43 C 362.36 276.43 362.86 276.40 363.35 276.35 C 363.84 276.35 364.35 276.43 364.82 276.43 C 381.75 276.44 396.63 265.23 401.29 248.96 C 405.96 232.68 399.26 215.29 384.89 206.34 Z" fill="#dafffb" fill-rule="nonzero" node-id="46" stroke="none" target-height="164.70285" target-width="248.25606" target-x="154.46776" target-y="111.72714"></path><path d="M 163.32 332.86 C 82.11 486.38 110.80 674.94 234.00 797.35 C 308.43 784.61 377.93 756.68 427.35 719.83 C 407.52 691.32 396.30 660.04 396.30 627.31 C 396.30 590.24 422.86 546.71 465.24 504.19 C 408.00 413.27 304.80 364.37 163.32 332.86 Z" fill="#4f8980" fill-rule="nonzero" node-id="48" stroke="none" target-height="464.49" target-width="347.71738" target-x="117.52261" target-y="332.86"></path><path d="M 509.05 366.64 L 492.84 366.64 C 486.33 366.64 480.86 361.76 480.11 355.29 L 461.00 189.00 C 460.58 185.37 461.74 181.74 464.17 179.01 C 466.60 176.29 470.08 174.73 473.73 174.73 L 526.83 174.73 C 530.46 174.73 533.93 176.27 536.36 178.98 C 538.79 181.68 539.96 185.29 539.57 188.90 L 521.79 355.19 C 521.09 361.70 515.60 366.64 509.05 366.64 Z" fill="#523838" fill-rule="nonzero" node-id="50" stroke="none" target-height="191.91002" target-width="78.59387" target-x="460.9781" target-y="174.73"></path><path d="M 552.21 429.25 L 531.00 382.49 L 467.60 382.49 L 448.14 429.49 C 483.20 429.34 517.56 428.59 552.21 429.25 Z" fill="#b48255" fill-rule="nonzero" node-id="52" stroke="none" target-height="47" target-width="104.07001" target-x="448.14" target-y="382.49"></path><path d="M 639.19 621.39 L 552.19 429.25 C 517.54 428.59 483.19 429.34 448.12 429.46 L 368.60 621.39 Z" fill="#664545" fill-rule="nonzero" node-id="54" stroke="none" target-height="192.40256" target-width="270.59" target-x="368.6" target-y="428.98746"></path><path d="M 527.24 429.00 C 509.60 428.95 491.97 429.13 474.24 429.29 L 461.04 544.29 C 460.63 547.92 461.78 551.55 464.21 554.27 C 466.64 557.00 470.12 558.56 473.77 558.56 L 526.87 558.56 C 530.50 558.56 533.97 557.02 536.40 554.31 C 538.83 551.61 540.00 548.00 539.61 544.39 Z" fill="#523838" fill-rule="nonzero" node-id="56" stroke="none" target-height="129.56" target-width="78.5918" target-x="461.02014" target-y="429"></path><path d="M 527.24 429.00 L 521.79 378.09 C 521.09 371.58 515.60 366.64 509.05 366.64 L 492.84 366.64 C 486.33 366.64 480.85 371.53 480.11 378.00 L 474.23 429.30 C 492.00 429.13 509.60 429.00 527.24 429.00 Z" fill="#523838" fill-rule="nonzero" node-id="58" stroke="none" target-height="62.659973" target-width="53.00998" target-x="474.23" target-y="366.64"></path><path d="M 498.74 357.90 L 498.74 374.11 C 498.74 380.62 493.86 386.09 487.39 386.84 L 321.05 405.92 C 317.42 406.34 313.79 405.18 311.06 402.75 C 308.34 400.32 306.78 396.84 306.78 393.19 L 306.78 340.09 C 306.78 336.45 308.33 332.97 311.04 330.54 C 313.76 328.11 317.38 326.95 321.00 327.35 L 487.34 345.16 C 493.83 345.88 498.74 351.37 498.74 357.90 Z" fill="#523838" fill-rule="nonzero" node-id="60" stroke="none" target-height="78.60382" target-width="191.95999" target-x="306.78" target-y="327.33813"></path><path d="M 498.74 357.90 L 498.74 374.11 C 498.74 380.62 503.62 386.09 510.09 386.84 L 676.43 405.92 C 680.06 406.34 683.69 405.18 686.42 402.75 C 689.14 400.32 690.70 396.84 690.70 393.19 L 690.70 340.09 C 690.70 336.46 689.16 332.99 686.45 330.56 C 683.75 328.13 680.14 326.96 676.53 327.35 L 510.19 345.16 C 503.68 345.86 498.74 351.35 498.74 357.90 Z" fill="#523838" fill-rule="nonzero" node-id="62" stroke="none" target-height="78.59393" target-width="191.96002" target-x="498.74" target-y="327.34802"></path><path d="M 749.79 583.92 L 562.21 908.82 C 633.58 899.75 701.08 871.25 757.34 826.41 L 897.34 583.92 Z" fill="#f4dd45" fill-rule="nonzero" node-id="64" stroke="none" target-height="324.90002" target-width="335.13" target-x="562.21" target-y="583.92"></path><path d="M 474.37 583.92 L 315.27 859.50 C 354.22 881.97 396.75 897.58 441.00 905.62 L 626.73 583.92 Z" fill="#f4dd45" fill-rule="nonzero" node-id="66" stroke="none" target-height="321.7" target-width="311.46" target-x="315.27" target-y="583.92"></path><path d="M 198.52 583.92 L 148.42 670.70 C 148.82 671.70 149.21 672.65 149.62 673.62 C 168.90 718.24 196.24 758.92 230.28 793.62 L 351.34 583.92 Z" fill="#f4dd45" fill-rule="nonzero" node-id="68" stroke="none" target-height="209.70001" target-width="202.92" target-x="148.42" target-y="583.92"></path><path d="M 123.10 583.92 C 128.15 613.73 136.65 642.85 148.42 670.70 L 198.52 583.92 Z" fill="#ecbe6b" fill-rule="nonzero" node-id="70" stroke="none" target-height="86.78003" target-width="75.420006" target-x="123.1" target-y="583.92"></path><path d="M 351.34 583.92 L 230.28 793.61 C 255.48 819.34 284.08 841.51 315.28 859.50 L 474.38 583.92 Z" fill="#ecbe6b" fill-rule="nonzero" node-id="72" stroke="none" target-height="275.58002" target-width="244.1" target-x="230.28" target-y="583.92"></path><path d="M 626.76 583.92 L 441.00 905.62 C 480.99 912.87 521.86 913.95 562.18 908.82 L 749.76 583.92 Z" fill="#ecbe6b" fill-rule="nonzero" node-id="74" stroke="none" target-height="328.0526" target-width="308.76" target-x="441" target-y="583.92"></path><path d="M 539.93 365.59 C 539.93 387.91 521.83 406.01 499.51 406.01 C 477.19 406.01 459.09 387.91 459.09 365.59 C 459.09 343.27 477.19 325.17 499.51 325.17 C 521.83 325.17 539.93 343.27 539.93 365.59 Z" fill="#664545" fill-rule="nonzero" node-id="76" stroke="none" target-height="80.84" target-width="80.84" target-x="459.09" target-y="325.17"></path><path d="M 519.72 365.59 C 519.72 376.75 510.67 385.80 499.51 385.80 C 488.35 385.80 479.30 376.75 479.30 365.59 C 479.30 354.43 488.35 345.38 499.51 345.38 C 510.67 345.38 519.72 354.43 519.72 365.59 Z" fill="#b48255" fill-rule="nonzero" node-id="78" stroke="none" target-height="40.419983" target-width="40.419983" target-x="479.3" target-y="345.38"></path></svg>